<svg width="288" height="439" viewBox="0 0 288 439" fill="none" xmlns="http://www.w3.org/2000/svg">
<path d="M140.404 3.96811C136.76 10.4344 128.446 18.3484 120.506 22.8844C117.05 24.9112 106.867 29.6402 97.8995 33.4042C79.0295 41.4147 71.3695 45.7577 64.4567 52.417C58.8518 58.0147 53.6205 67.7624 51.939 76.2555L50.818 81.8531L41.9436 82.2392C35.0308 82.5287 32.0415 83.1078 28.9588 84.845C18.4029 90.4427 12.4243 100.094 12.4243 111.482C12.4243 115.15 12.7045 119.3 13.0782 120.651C13.6387 122.871 13.1716 123.353 7.00616 126.442L0.280247 129.82L0 286.458L0.00401393 438.175L143.673 438.174L212.801 438.175H287.253V410.379C286.879 392.525 286.599 322.168 286.599 254.127V130.302L283.142 128.082C281.181 126.828 278.098 125.283 276.136 124.608C272.773 123.45 272.773 123.45 273.707 119.879C274.268 117.949 274.455 113.509 274.268 110.035C273.707 101.928 270.438 95.2683 264.179 89.4776C258.014 83.7834 252.315 81.7566 243.161 82.2392C236.248 82.5287 236.061 82.4322 235.594 80.1159C232.698 66.4113 229.428 59.945 221.768 52.3205C214.762 45.3717 207.663 41.2217 191.128 34.3694C161.235 22.0158 153.575 16.4181 144.14 0.59021C143.393 -0.664444 142.739 -0.0853877 140.404 3.96811ZM157.592 23.0775C164.692 28.0961 172.165 31.86 186.364 37.7473C204.487 45.1787 212.427 49.8112 218.873 56.4706C225.598 63.3229 228.401 69.0171 230.456 79.8264L231.951 87.8369L240.825 87.1613C248.765 86.6788 250.354 86.8718 254.37 88.7055C266.514 94.3032 272.493 107.815 268.476 120.554C267.635 123.16 266.982 125.766 266.982 126.249C266.982 126.828 269.037 127.696 271.465 128.372C273.988 128.951 277.351 130.302 278.939 131.267L281.928 133.197V285.686V438.175H212.801H178.237L143.673 438.174L5.4181 438.175V285.107V132.136L9.43496 130.302C11.5835 129.337 14.9465 128.179 16.9082 127.889C19.7107 127.31 20.3646 126.828 19.8041 125.573C19.4304 124.704 18.5897 121.809 17.8424 119.203C14.386 106.56 21.2987 92.8555 33.6296 88.2229C36.7123 87.0648 39.6082 86.8718 46.1473 87.2578L54.6481 87.8369L56.1427 80.0194C59.7859 61.0066 68.1933 51.645 90.6131 41.9938C115.835 31.1844 120.599 28.8681 126.578 24.8146C130.128 22.4984 135.266 17.9623 138.068 14.7774L143.206 8.98672L147.783 14.1984C150.212 17.0937 154.696 21.0507 157.592 23.0775Z" fill="url(#paint0_linear_937_98)"/>
<defs>
<linearGradient id="paint0_linear_937_98" x1="138.207" y1="451.104" x2="138.207" y2="-1.89649" gradientUnits="userSpaceOnUse">
<stop stop-color="#FFCC00"/>
<stop offset="1" stop-color="#34C759"/>
</linearGradient>
</defs>
</svg>
