<svg width="203" height="62" viewBox="0 0 203 62" fill="none" xmlns="http://www.w3.org/2000/svg">
<path d="M118.547 9.33976C119.029 12.7074 119.565 16.0683 119.981 19.444C120.745 25.6464 122.471 31.7534 122.052 38.0703C121.916 40.1279 121.422 42.1809 120.903 44.1872C120.562 45.5081 119.51 46.3965 118.298 47.0297C115.797 48.337 113.197 49.4885 110.82 50.991C108.95 52.1728 107.269 53.6981 105.652 55.2271C103.382 57.3737 101.133 59.5455 98.3257 60.9645C93.8353 63.234 91.1118 60.845 90.8417 56.4253C90.6253 52.8839 91.7715 49.5561 93.2265 46.3607C93.8609 44.9674 94.5871 43.6159 95.133 42.0521C94.68 42.3098 94.1901 42.5192 93.7797 42.8327C89.9423 45.7639 86.1227 48.7183 82.2896 51.6551C79.2127 54.0124 76.225 56.5068 72.9988 58.6395C71.3667 59.7184 69.3467 60.3718 67.4098 60.793C63.7942 61.5792 60.9389 59.3981 60.1748 55.6119C59.6071 52.7985 60.0407 50.0836 61.0553 47.1717C60.5467 47.3543 60.2146 47.4284 59.9263 47.5839C55.2954 50.0803 51.045 53.1043 47.1101 56.6051C45.3404 58.1796 43.3857 59.5556 41.4473 60.9261C40.7803 61.3976 39.9082 61.579 39.0686 61.9448C38.5575 61.9968 38.1076 61.9968 37.5049 61.9431C35.0345 61.1614 33.7368 59.5075 33.4958 57.1735C33.3369 55.6339 33.385 54.0238 33.6495 52.4989C34.4782 47.7205 36.8038 43.5465 39.2118 39.4207C39.4718 38.9753 39.6745 38.4964 39.9996 37.8395C39.382 38.0337 39.0337 38.1374 38.6893 38.2524C35.7226 39.2439 34.3635 38.8379 32.4692 36.3911C30.4918 33.837 29.8061 33.7942 27.5675 36.0852C26.1079 37.5789 26.0228 38.8779 27.5556 40.2464C28.9119 41.4572 30.4326 42.4928 31.9308 43.5337C34.1319 45.063 34.1509 45.0357 33.4951 47.6881C33.1396 49.1264 33.0221 49.2362 31.7949 48.4614C28.0056 46.0691 24.2712 46.2759 20.6646 48.7287C18.6128 50.1242 16.7135 51.7469 14.7692 53.297C12.5112 55.0973 10.4276 57.1174 7.75008 58.3563C4.23 59.9851 1.7503 59.2141 0 55.8261C0 54.3523 0 52.8784 0 51.3013C1.05195 47.8329 3.2453 45.169 5.44908 42.4657C3.20724 40.1119 4.19086 37.7177 5.48114 35.503C6.45915 33.8241 7.81557 32.3627 9.03995 30.8336C9.22815 30.5986 9.6123 30.5205 9.90583 30.3698C9.97663 30.4547 10.0474 30.5397 10.1182 30.6247C9.64692 31.2393 9.10333 31.8122 8.71981 32.4774C7.99478 33.735 7.24805 35.0037 6.75055 36.3562C6.56992 36.8473 6.9645 37.6688 7.32344 38.1805C7.46561 38.3831 8.2245 38.1532 8.83055 38.1113C8.723 39.5615 7.96623 40.632 7.1674 41.724C5.10521 44.5431 2.69565 47.1707 1.93958 50.7493C1.65072 52.1165 1.75604 53.431 2.89205 54.3687C4.06362 55.3359 5.49062 55.131 6.62382 54.4411C8.92819 53.0382 11.1871 51.5271 13.3017 49.8545C15.8614 47.8298 18.2937 45.6378 21.3171 44.3104C22.5124 43.7857 23.7925 43.4541 24.9034 43.0788C24.9034 41.4775 24.8391 39.8753 24.9176 38.2802C25.0551 35.4843 25.7909 32.8625 27.4924 30.5801C28.8157 28.8051 30.3989 28.675 31.8523 30.3005C32.5555 31.087 33.0992 32.0166 33.7102 32.8849C34.8051 34.4409 35.9738 34.9809 37.7739 34.4059C40.5518 33.5187 43.2771 32.4673 46.0248 31.4856C46.0121 31.3319 45.9994 31.1782 45.9867 31.0244C44.9984 30.7377 44.01 30.4514 43.0218 30.1644C41.3412 29.6761 39.7404 29.1916 37.88 29.7195C36.5194 30.1055 34.9636 29.8013 33.4948 29.809C32.8146 29.8126 32.6424 29.4153 32.6191 28.8132C32.5379 26.7139 34.7881 24.6275 37.2488 24.5352C39.7028 24.4432 41.9434 25.3248 44.1615 26.1631C48.9447 27.9708 53.8475 29.016 58.9755 28.9441C60.7026 28.9198 60.8576 29.1941 60.1277 30.7758C58.9523 33.3229 58.9239 33.5022 56.2076 33.0724C52.5694 32.4968 49.3614 33.6714 46.0659 34.8587C42.9408 35.9847 41.0172 38.1383 39.6385 41.0595C37.9311 44.6769 36.0807 48.2237 35.4039 52.2232C35.2698 53.0151 35.1259 53.8185 35.1234 54.617C35.1163 56.911 37.5031 58.4944 39.5183 57.3678C41.2581 56.3951 42.9271 55.1879 44.3709 53.8147C48.34 50.0398 52.9259 47.1815 57.5995 44.4179C59.1092 43.5253 60.5547 42.5178 61.9871 41.5031C62.7832 40.9391 63.0664 40.1928 62.8995 39.1154C61.7117 31.4487 60.6587 23.761 59.4495 16.0978C58.9031 12.6355 58.0964 9.21427 57.4118 5.77361C57.362 5.5234 57.2709 5.25008 57.324 5.01581C57.6841 3.42712 58.0778 1.84606 58.4782 0.189576C59.9752 1.3108 63.4122 9.12675 62.8703 10.1929C62.4083 9.84132 61.9648 9.50392 61.2952 8.99456C61.5459 10.7328 61.7461 12.2267 61.9786 13.7157C62.9724 20.0801 64.2222 26.4172 64.8928 32.8152C65.3753 37.4179 65.47 42.1408 62.6431 46.3279C61.9527 47.3504 61.5366 48.6703 61.3648 49.9051C61.0916 51.8678 61.089 53.8393 62.7188 55.4435C63.8995 56.6057 65.2266 56.9352 66.743 56.5893C69.4797 55.9652 71.8416 54.5184 74.019 52.8401C78.4253 49.4437 82.6944 45.869 87.1118 42.4877C89.2574 40.8455 91.6089 39.472 93.8701 37.9814C94.1392 37.804 94.427 37.6548 94.9024 37.3783C93.5885 36.4092 92.3148 35.6242 91.2361 34.6282C90.2591 33.7261 89.1283 32.7231 88.7095 31.5371C87.698 28.6728 89.0832 25.6382 93.0179 25.3996C97.2446 25.1434 101.312 26.0945 105.419 26.7984C108.773 27.3734 112.127 27.9574 115.489 28.4862C116.21 28.5997 116.367 28.879 116.134 29.5042C116.108 29.5727 116.092 29.6447 116.073 29.7154C115.523 31.7109 114.552 33.1257 112.369 33.8748C109.086 35.001 105.963 36.5906 102.757 37.9451C101.883 38.3141 101.579 38.7032 102.065 39.664C102.838 41.1948 103.003 42.811 102.223 44.4321C101.81 45.2884 101.215 45.4916 100.465 44.9057C99.315 44.0072 98.2034 43.0595 96.9859 42.059C96.7926 42.2694 96.5143 42.4659 96.3803 42.7345C94.5402 46.4232 92.8475 50.1473 92.9899 54.4257C93.0768 57.0376 95.0772 58.2656 97.3166 56.8645C98.9207 55.8609 100.528 54.7598 101.845 53.4188C105.359 49.8402 109.399 47.0643 113.857 44.8241C115.489 44.0036 117.071 43.0728 118.625 42.1084C119.865 41.3383 120.238 40.2414 119.992 38.7134C118.928 32.1012 118.075 25.4545 116.972 18.8494C116.231 14.4176 115.977 9.89354 114.546 5.57658C114.331 4.92782 114.641 4.07852 114.795 3.34004C115.01 2.31265 115.306 1.30229 115.567 0.284648C115.701 0.247066 115.834 0.209457 115.968 0.171875C117.385 3.02036 118.821 5.85984 120.195 8.72861C120.368 9.08909 120.219 9.60378 120.219 10.3751C119.57 9.87665 119.184 9.58059 118.715 9.22406C118.603 9.22231 118.575 9.28104 118.547 9.33976ZM97.3134 30.0396C95.2237 30.0396 93.134 30.0396 91.0067 30.0396C93.396 31.919 95.6691 33.7247 97.9747 35.4879C98.1632 35.6321 98.6049 35.5677 98.8745 35.4618C99.8946 35.0609 100.894 34.6067 101.898 34.1653C103.65 33.3949 105.399 32.6192 107.15 31.8458C107.143 31.7155 107.137 31.5852 107.13 31.4548C103.926 30.9839 100.721 30.5131 97.3134 30.0396Z" fill="#2B2A29"/>
<path d="M0 55.9323C1.7503 59.217 4.23 59.9881 7.75008 58.3593C10.4276 57.1203 12.5112 55.1003 14.7692 53.3C16.7135 51.7499 18.6128 50.1272 20.6646 48.7317C24.2712 46.2788 28.0056 46.0721 31.7949 48.4644C33.0221 49.2392 33.1396 49.1294 33.4952 47.691C34.1509 45.0386 34.1319 45.066 31.9308 43.5367C30.4326 42.4958 28.9119 41.4602 27.5556 40.2493C26.0228 38.8809 26.1079 37.5818 27.5675 36.0881C29.8061 33.7972 30.4918 33.84 32.4692 36.3941C34.3635 38.8409 35.7226 39.2469 38.6893 38.2554C39.0337 38.1403 39.382 38.0367 39.9996 37.8424C39.6745 38.4994 39.4718 38.9782 39.2118 39.4237C36.8038 43.5495 34.4782 47.7235 33.6495 52.5019C33.385 54.0268 33.3369 55.6369 33.4958 57.1765C33.7368 59.5105 35.0345 61.1643 37.4085 61.9461C24.9765 61.9997 12.4883 61.9997 0 61.9997C0 59.9937 0 58.0147 0 55.9323ZM23.2625 57.3681C23.4917 56.8382 23.721 56.3084 24.0267 55.6016C24.9818 56.0432 25.8795 56.4209 26.7411 56.868C27.4971 57.2604 27.9877 57.0995 28.2917 56.3131C29.5959 52.9396 29.9352 53.1601 26.7082 51.6735C26.3477 51.5075 25.9397 51.337 25.5609 51.3519C25.2555 51.364 24.8306 51.5794 24.6872 51.8336C24.3233 52.4788 24.0877 53.1963 23.8089 53.8654C22.6351 53.3787 21.6076 52.898 20.5374 52.5478C20.2719 52.4609 19.6799 52.7071 19.5615 52.9548C19.1383 53.8403 18.7986 54.7779 18.5517 55.7281C18.4785 56.0096 18.7216 56.5528 18.9805 56.7083C19.8554 57.234 20.8178 57.6112 21.7171 58.0997C22.4843 58.5164 22.9614 58.3707 23.2625 57.3681Z" fill="white"/>
<path d="M165.162 61.9984C163.813 59.9923 164.349 57.9553 165.314 56.1411C166.28 54.3239 167.64 52.7103 168.886 51.051C169.144 50.7066 169.657 50.553 170.052 50.3115C170.144 50.4225 170.236 50.5335 170.328 50.6445C170.066 50.9901 169.772 51.3164 169.547 51.6848C168.68 53.1046 167.821 54.5306 166.993 55.9732C166.857 56.2091 166.849 56.5399 166.847 56.8271C166.841 58.0339 167.234 58.3036 168.929 58.1874C168.941 59.7429 168.088 60.8327 167.082 61.9339C166.452 61.9984 165.857 61.9984 165.162 61.9984Z" fill="#2B2A29"/>
<path d="M154.034 35.1097C153.29 33.1451 152.648 31.2292 151.843 29.3839C151.11 27.7035 151.97 26.2794 152.208 24.7021C153.886 25.5226 156.674 29.0895 156.472 30.135C156.131 30.1191 155.78 30.1028 155.192 30.0754C155.634 31.2158 156.072 32.2362 156.427 33.2846C157.238 35.675 158.191 38.0379 158.744 40.4892C159.297 42.9381 158.476 45.2352 156.836 47.1232C155.5 48.6618 152.665 48.7458 150.74 47.4527C150.409 47.2305 150.094 46.9841 149.599 46.6223C149.008 47.3941 148.317 48.0717 147.9 48.889C147.042 50.571 146.224 52.29 145.593 54.0663C145.134 55.3596 145.802 56.5138 146.74 57.4212C147.608 58.2611 148.675 58.1436 149.601 57.6028C151.841 56.2951 154.084 54.9766 156.212 53.5002C158.708 51.769 161.024 49.7748 163.54 48.0761C164.817 47.2136 166.337 46.6769 167.8 46.1336C168.622 45.828 169.135 45.6462 168.871 44.5632C167.909 40.6233 169.544 37.379 171.881 34.4164C173.102 32.8691 174.711 33.0239 175.831 34.6384C176.311 35.3311 176.744 36.0577 177.236 36.7414C178.864 39.0011 182.105 39.2965 184.077 37.3392C185.085 36.3384 186.019 35.2623 186.986 34.2202C187.139 34.2978 187.292 34.3753 187.445 34.4528C187.423 34.8763 187.437 35.3054 187.372 35.7222C187.143 37.1808 187.4 37.9156 188.291 38.2389C189.353 38.6241 190.67 38.1062 191.296 37.0207C191.943 35.8987 192.557 34.758 193.285 33.4475C193.808 34.5083 194.143 35.3478 194.612 36.105C195.404 37.3835 196.877 37.9295 197.976 37.4705C198.544 37.2331 198.761 36.9302 198.499 36.2866C196.856 32.2477 195.277 28.1827 193.606 24.1554C192.837 22.2997 193.005 20.6739 194.506 18.8262C195.091 19.5453 195.662 20.2281 196.212 20.9265C196.802 21.6747 197.424 22.4052 197.931 23.207C198.196 23.6246 198.244 24.1788 198.39 24.6713C197.95 24.6713 197.51 24.6713 196.903 24.6713C197.596 25.9806 198.285 27.2817 198.974 28.5826C200.692 31.8281 201.615 35.174 200.295 38.8147C199.094 42.1269 196.565 42.8908 193.757 40.7717C193.326 40.4461 192.921 40.084 192.612 39.8279C191.691 40.5971 190.896 41.4815 189.913 42.0308C188.229 42.9729 186.665 42.4643 185.651 40.8203C185.313 40.2711 185.051 40.2344 184.535 40.6249C183.633 41.3074 182.716 42.0051 181.712 42.511C179.666 43.542 177.28 42.8501 176.014 40.935C175.551 40.2342 175.201 39.4591 174.778 38.7307C173.992 37.3794 173.177 37.2696 172.073 38.348C170.03 40.3436 170.138 42.4123 172.467 44.078C173.835 45.0557 175.266 45.9611 176.742 46.7633C177.688 47.2776 177.952 47.9108 177.761 48.9093C177.229 51.6894 177.188 51.8094 174.694 50.6029C171.249 48.9356 168.081 49.8944 165.214 51.6926C161.938 53.7479 158.98 56.3043 155.809 58.5374C154.353 59.5626 152.795 60.5239 151.151 61.1807C148.388 62.2842 146.404 61.0227 144.861 58.6133C143.43 56.38 143.737 53.9843 144.693 51.7524C145.464 49.9547 146.502 48.2036 147.741 46.6953C148.841 45.3577 148.645 45.2803 147.551 44.076C146.991 45.2758 146.445 46.4554 145.891 47.631C144.179 51.2589 138.721 50.9661 137.102 48.6795C135.991 47.1109 135.408 45.338 135.326 43.4431C135.239 41.4451 135.306 39.4404 135.306 37.4387C135.206 37.4218 135.106 37.405 135.006 37.3882C134.812 38.3501 134.569 39.3053 134.434 40.2754C134.114 42.5567 133.886 44.8513 133.535 47.1272C133.414 47.9102 133.114 48.6916 132.762 49.4079C131.666 51.6374 129.253 51.8749 127.929 49.7454C126.959 48.1859 126.236 46.4177 125.708 44.6514C124.928 42.0413 124.643 39.3353 125.173 36.6093C125.239 36.2669 125.367 35.9364 125.467 35.6003C125.586 35.5924 125.705 35.5844 125.824 35.5765C125.898 36.0284 125.973 36.4804 126.047 36.9323C126.48 39.5605 126.883 42.1943 127.369 44.8127C127.478 45.4046 127.81 45.9864 128.152 46.498C129.028 47.8094 130.438 47.7067 131.23 46.3454C132.272 44.5538 132.237 42.5334 132.413 40.5841C132.732 37.0565 133.644 33.7491 135.522 30.7303C135.716 30.4194 135.895 30.0896 136.138 29.8216C136.643 29.2666 137.169 29.237 137.542 29.9546C138.088 31.0048 138.46 32.0724 138.15 33.317C137.511 35.8763 136.792 38.4548 137.108 41.1193C137.25 42.3212 137.559 43.6267 138.202 44.6207C139.602 46.7866 142.212 46.4033 144.336 44.8934C146.651 43.2484 146.885 40.9248 146.194 38.4038C145.537 36.0013 144.834 33.6102 144.103 31.2289C143.674 29.8304 144.007 28.541 144.537 27.2764C144.855 26.5176 145.423 26.5994 145.768 27.2049C146.327 28.1857 146.911 29.1988 147.203 30.2748C148.017 33.2756 148.789 36.2957 149.382 39.3463C149.931 42.1716 152.15 44.1303 154.916 43.9149C156.49 43.7923 156.933 43.1689 156.418 41.7034C155.653 39.5251 154.851 37.3599 154.034 35.1097Z" fill="#2B2A29"/>
<path d="M164.273 30.8262C164.63 33.7127 165.12 36.4993 165.234 39.3013C165.307 41.0616 164.87 42.8549 164.538 44.6099C164.463 45.0054 163.872 45.3031 163.519 45.6459C163.303 45.2512 162.892 44.8527 162.9 44.4626C162.999 39.5575 161.966 34.785 161.25 29.9783C160.431 24.4818 159.579 18.9897 158.662 13.509C158.24 10.9908 157.606 8.50901 157.124 5.99994C157.005 5.37794 156.995 4.69103 157.125 4.07406C157.4 2.77182 157.8 1.49607 158.205 0C158.502 0.358765 158.662 0.494377 158.749 0.66698C160.019 3.18794 161.303 5.70208 162.521 8.24825C162.771 8.77262 162.763 9.42098 162.874 10.0122C162.743 10.0676 162.613 10.1229 162.482 10.1783C162.04 9.84388 161.597 9.50952 160.923 8.99983C162.056 16.4079 163.152 23.5704 164.273 30.8262Z" fill="#2B2A29"/>
<path d="M123.793 8.78715C123.643 8.23765 123.59 7.74222 123.381 7.32532C122.144 4.86132 123.398 2.64051 123.89 0.344724C124.017 0.302407 124.143 0.26009 124.27 0.217773C125.728 3.08442 127.201 5.94323 128.621 8.82855C128.783 9.15783 128.643 9.63577 128.643 10.3581C127.886 9.82979 127.412 9.49919 126.755 9.0404C127.163 11.7375 127.539 14.2178 127.914 16.6983C128.701 21.9047 129.496 27.1097 130.268 32.3183C130.574 34.3784 130.938 36.439 131.075 38.5127C131.226 40.7995 130.747 43.0289 129.838 45.1424C129.749 45.3485 129.421 45.4514 129.203 45.6021C129.045 45.3103 128.772 45.0283 128.746 44.7249C128.568 42.686 128.536 40.6306 128.279 38.6032C127.814 34.9398 127.24 31.2899 126.684 27.6386C125.831 22.0353 124.953 16.4358 124.089 10.8342C123.989 10.1835 123.908 9.5298 123.793 8.78715Z" fill="#2B2A29"/>
<path d="M69.0507 20.4739C68.4006 16.3293 67.7803 12.277 67.1491 8.22641C67.093 7.86632 67.0303 7.48324 66.8627 7.16833C65.5601 4.72116 66.9456 2.57603 67.4701 0.244141C68.9349 1.45293 72.2018 8.88524 71.7736 10.0912C71.3527 9.7719 70.9638 9.47697 70.3088 8.98025C70.4171 10.0219 70.4659 10.8216 70.5874 11.6101C71.5906 18.1204 72.6272 24.6256 73.6098 31.1389C74.0023 33.7408 74.408 36.3513 74.5784 38.9728C74.7166 41.0983 74.2534 43.1984 73.3839 45.1691C73.2952 45.3702 72.9586 45.462 72.737 45.6045C72.5853 45.3065 72.3272 45.0181 72.2994 44.709C72.1222 42.7419 72.0955 40.7568 71.8322 38.8028C71.2703 34.6328 70.5962 30.4779 69.9644 26.3173C69.6732 24.3998 69.3734 22.4835 69.0507 20.4739Z" fill="#2B2A29"/>
<path d="M143.155 15.8392C143.414 16.0214 143.83 16.1545 143.905 16.3945C144.188 17.2964 144.359 18.2336 144.575 19.1567C144.649 19.4741 144.648 19.8594 144.836 20.0871C145.06 20.3604 145.449 20.4985 145.768 20.6951C145.907 20.3304 146.186 19.9543 146.157 19.6035C146.104 18.9555 145.901 18.3126 145.705 17.6849C145.366 16.5979 145.861 15.8103 146.522 15.0188C146.658 15.1252 146.803 15.1797 146.815 15.2558C147.156 17.3308 147.696 19.4028 147.748 21.4867C147.794 23.3135 146.204 24.745 143.754 23.1706C143.556 23.4015 143.34 23.6348 143.144 23.8838C142.59 24.5858 141.866 24.8817 141.008 24.6648C140.13 24.4427 139.693 23.7672 139.555 22.9114C139.486 22.4803 139.49 22.033 139.503 21.5941C139.522 20.9232 139.366 20.4873 138.579 20.8328C138.291 19.3643 139.469 17.2347 140.922 16.744C140.948 17.2331 140.981 17.6767 140.994 18.1208C141.016 18.8777 140.987 19.6384 141.053 20.3909C141.105 20.9796 141.292 21.7724 142.018 21.5279C142.459 21.3794 142.924 20.5699 142.938 20.0454C142.967 19.0008 142.646 17.9518 142.555 16.8973C142.454 15.7377 142.448 14.5699 142.404 13.4057C142.358 12.2092 142.516 10.9595 142.217 9.83023C141.879 8.55322 141.276 7.28382 140.519 6.19983C139.893 5.30454 139.576 4.52928 139.892 3.47843C140.024 3.04168 139.992 2.55588 140.034 2.09239C140.134 2.03165 140.234 1.9709 140.334 1.91016C140.891 2.52877 141.568 3.07649 141.985 3.7782C143.87 6.94674 144.412 10.328 143.377 13.9155C143.226 14.441 143.141 14.9858 142.986 15.6364C142.944 15.8307 142.941 15.9103 142.939 15.9899C143.011 15.9396 143.083 15.8894 143.155 15.8392Z" fill="#2B2A29"/>
<path d="M90.4452 16.9045C95.4224 12.708 101.041 9.85048 107.135 7.9076C109.101 7.28075 111.139 6.88223 113.205 6.36426C113.175 7.86945 112.032 9.32213 110.87 9.59478C103.572 11.3066 96.858 14.2821 90.9104 18.8864C89.8492 19.708 88.8789 20.6471 87.6719 21.702C87.9808 19.5712 88.9176 18.1107 90.4452 16.9045Z" fill="#2B2A29"/>
<path d="M85.4457 23.1203C86.0153 24.819 85.692 26.3023 84.8004 27.7055C83.8033 29.2747 82.4535 29.4196 81.0885 28.9874C80.1767 28.6986 79.7333 27.2539 80.0871 25.7855C80.4126 24.4351 80.8881 23.1215 81.2408 21.7769C81.6694 20.1431 82.1165 18.4665 81.5084 16.8097C81.1536 15.8429 80.6832 14.8086 79.9684 14.1063C78.4007 12.5659 78.7932 10.751 78.7148 8.97668C78.8223 8.90144 78.9298 8.82622 79.0373 8.75098C79.5719 9.20008 80.1821 9.5848 80.6285 10.109C83.0105 12.9062 83.8903 16.1178 83.064 19.7262C82.9101 20.3983 83.1542 20.6344 83.6506 21.026C84.3393 21.5694 84.8368 22.355 85.4457 23.1203ZM81.8146 23.8425C81.656 24.3193 81.413 24.7866 81.358 25.275C81.2682 26.0722 81.693 26.4963 82.5184 26.5051C83.324 26.5136 84.4707 25.7811 84.4951 25.2203C84.5289 24.44 82.7742 23.4135 81.8146 23.8425Z" fill="#2B2A29"/>
<path d="M36.2453 15.582C41.3923 11.8005 47.0346 9.39316 53.2743 8.43214C53.6793 8.3697 54.1306 8.60851 54.5604 8.70721C54.3652 9.35859 54.6103 10.198 53.5786 10.4489C51.6575 10.9161 49.7323 11.3963 47.8569 12.0164C42.0962 13.9213 36.9847 16.9184 32.7042 21.2644C32.4558 21.5166 32.1705 21.7326 31.884 21.9814C31.3244 20.9112 31.4448 19.8562 32.31 19.0422C33.5624 17.8638 34.8864 16.7617 36.2453 15.582Z" fill="#2B2A29"/>
<path d="M139.359 56.3416C138.286 58.4798 137.035 60.3589 134.775 61.2585C134.14 61.5114 133.442 61.6935 132.763 61.7324C131.815 61.7867 131.022 61.366 130.703 60.4142C130.372 59.4285 130.134 58.3713 131.074 57.5727C131.879 56.8882 132.786 56.3237 133.63 55.6828C133.985 55.4129 134.296 55.0832 134.653 54.7562C132.568 53.2781 133.06 52.8421 133.912 50.7678C134.031 50.4801 134.236 50.1513 134.184 49.8844C134.002 48.963 134.503 48.9221 135.115 49.1336C136.891 49.7461 137.989 51.1482 138.739 52.7344C139.288 53.8952 138.473 54.8983 137.132 54.9231C136.335 54.9378 135.919 55.2138 135.532 55.9394C135.157 56.6413 134.494 57.2179 133.873 57.7512C133.237 58.2974 132.499 58.7243 131.893 59.3342C135.777 60.0429 137.425 56.9201 139.609 54.7233C139.705 54.7985 139.802 54.8736 139.898 54.9487C139.731 55.3892 139.564 55.8297 139.359 56.3416Z" fill="#2B2A29"/>
<path d="M48.4726 17.1082C48.327 15.9888 47.7528 14.9613 48.5084 13.9489C48.6372 13.7763 48.7418 13.5856 48.8576 13.4033C48.99 13.4181 49.1224 13.433 49.2548 13.4479C49.509 14.2784 49.79 15.1019 50.008 15.9419C50.1545 16.506 50.1243 17.1289 50.34 17.6573C50.4793 17.9984 50.9205 18.2164 51.2263 18.4895C51.4115 18.1447 51.7654 17.7908 51.7472 17.4571C51.708 16.7362 51.5335 16.0081 51.3129 15.3152C50.9734 14.2485 51.5385 13.5344 52.3955 12.748C52.7054 14.0738 53.0865 15.3882 53.2996 16.7293C53.4359 17.5875 53.3852 18.4902 53.3112 19.3639C53.1361 21.4337 51.6065 22.1881 49.8165 21.1306C49.6941 21.0583 49.5651 20.997 49.3829 20.9009C48.5763 21.7837 47.8042 22.956 46.4024 22.3297C44.7297 21.5822 45.0251 19.9312 44.9402 18.3884C44.6932 18.4435 44.4856 18.4898 44.2772 18.5364C43.8661 16.9901 44.9124 15.0641 46.5124 14.4551C46.5124 15.3629 46.5073 16.2624 46.5151 17.1618C46.5179 17.4909 46.4476 17.8786 46.5936 18.1356C46.8567 18.5987 47.23 19.3024 47.6068 19.3352C48.4181 19.4057 48.4413 18.6019 48.4831 17.9747C48.5 17.7194 48.4816 17.4616 48.4726 17.1082Z" fill="#2B2A29"/>
<path d="M103.345 15.7908C103.387 16.9169 103.342 17.9845 103.414 19.044C103.459 19.7072 103.472 20.5801 104.491 20.4981C105.403 20.4247 105.401 19.6532 105.344 18.9869C105.285 18.2974 105.137 17.614 105.001 16.9332C104.818 16.0146 105.085 15.2992 106.11 14.5544C106.405 15.6453 106.666 16.5638 106.898 17.4897C107.022 17.985 107.005 18.5369 107.222 18.98C107.365 19.2717 107.811 19.4149 108.121 19.6245C108.297 19.3135 108.63 18.9958 108.617 18.6929C108.59 18.0815 108.438 17.4559 108.227 16.8763C107.81 15.7317 108.257 14.8321 108.981 13.7354C109.193 14.1509 109.405 14.4024 109.449 14.6806C109.724 16.4084 110.113 18.1367 110.177 19.8753C110.272 22.4879 108.901 23.3167 106.535 22.2635C106.436 22.2196 106.331 22.1914 106.278 22.1729C105.753 22.6088 105.318 23.1415 104.756 23.404C103.475 24.0024 102.432 23.499 102.06 22.1057C101.846 21.3046 101.846 20.4461 101.738 19.5121C101.57 19.5496 101.363 19.5959 101.155 19.6418C100.748 18.1671 101.939 16.0029 103.345 15.7908Z" fill="#2B2A29"/>
<path d="M5.58603 48.3918C9.57981 46.7917 13.1792 44.6711 16.1405 41.6564C17.51 40.2622 18.5066 38.5027 19.6809 36.9152C19.9619 36.5354 20.2137 36.0675 20.5978 35.8523C20.8867 35.6904 21.57 35.714 21.7253 35.9203C22.4536 36.888 23.0168 37.9416 22.7327 39.2593C22.5253 40.2216 21.9983 40.4696 21.141 40.1388C20.6326 39.9426 20.1489 39.6826 19.464 39.3624C16.5695 45.3715 11.6322 48.4293 5.19348 49.2005C5.11727 49.0991 5.04106 48.9977 4.96484 48.8964C5.14815 48.74 5.33146 48.5835 5.58603 48.3918Z" fill="#2B2A29"/>
<path d="M23.0924 21.7938C22.9477 22.8613 22.7913 23.8371 22.6149 24.9369C22.1373 24.7607 21.9676 24.719 21.8181 24.6394C20.8569 24.1275 20.3971 24.2078 20.0581 25.2614C19.6468 26.5394 19.4405 27.8843 19.1628 29.2038C19.0117 29.9219 18.8963 30.6475 18.5064 31.3803C17.8918 30.1576 17.2772 28.9348 16.6669 27.7206C14.741 28.4154 13.7568 28.0923 13.1753 26.6186C12.8058 25.6824 13.2251 24.203 13.9865 23.7567C14.7833 23.2895 16.0628 23.5645 16.7264 24.4634C17.3058 25.2483 17.7588 26.1263 18.37 27.1315C18.6385 26.0432 18.8215 25.0933 19.113 24.178C19.4112 23.2416 19.6994 22.2657 20.2145 21.4471C20.5602 20.8976 21.2758 20.3136 21.8594 20.2768C22.235 20.2531 22.6715 21.1936 23.0924 21.7938Z" fill="#2B2A29"/>
<path d="M179.752 12.2469C180.867 13.2735 181.898 14.2881 182.83 15.2047C183.223 13.9748 183.654 12.4395 184.207 10.9492C184.756 9.4697 185.498 8.88251 186.34 9.1825C187.528 9.60564 187.363 10.682 187.297 11.6082C187.25 12.2693 186.984 12.9148 186.815 13.5707C184.86 12.9972 184.466 13.2076 184.026 15.1474C183.735 16.4276 183.584 17.7391 183.358 19.0344C183.319 19.2584 183.219 19.4717 183.063 19.9432C182.357 18.5693 181.769 17.4238 181.144 16.2076C180.252 16.8291 179.425 17.0739 178.578 16.3235C177.669 15.5186 177.738 14.4763 177.952 13.4706C178.131 12.6325 178.778 12.2063 179.752 12.2469Z" fill="#2B2A29"/>
<path d="M190.815 54.9014C194.234 52.5299 197.883 50.9886 201.98 50.5498C202.21 52.2852 201.794 52.8697 200.273 53.2456C195.45 54.4373 191.133 56.5729 187.578 60.1123C187.484 60.2056 187.363 60.2713 187.129 60.2868C187.267 59.0575 187.223 57.8026 188.4 56.9286C189.221 56.3188 189.972 55.6139 190.815 54.9014Z" fill="#2B2A29"/>
<path d="M175.855 57.8164C174.293 58.3493 172.808 58.8333 171.156 58.5266C171.287 58.4224 171.402 58.2829 171.55 58.219C175.804 56.3809 179.419 53.5868 182.935 50.64C183.808 49.908 184.663 49.4819 185.938 49.9287C186.5 50.1255 187.371 49.4374 188.219 49.1053C188.941 50.3859 189.414 49.1964 189.95 48.4053C190.705 49.373 190.21 50.1374 189.877 50.8495C189.564 51.5191 188.914 51.8272 188.218 51.5541C187.654 51.3326 187.306 51.3671 186.886 51.8115C186.229 52.5076 185.379 52.4009 184.647 52.0095C183.787 51.55 183.225 51.8001 182.646 52.4565C181.072 54.2408 179.505 56.0413 177.321 57.1324C176.864 57.3607 176.397 57.5684 175.855 57.8164Z" fill="#2A2928"/>
<path d="M31.1472 14.9223C29.1845 16.7079 25.4123 17.7323 23.9844 16.8164C25.6434 16.0766 27.2448 15.3626 28.8462 14.6485C28.8249 14.4803 28.8036 14.3121 28.7824 14.1438C27.9601 14.0838 27.1386 13.9904 26.3153 13.9716C25.0794 13.9433 25.0489 13.9281 25.3312 12.7333C25.774 10.8594 26.9922 10.0183 28.8617 10.3962C30.0392 10.6342 31.2 10.9686 32.3516 11.3154C33.1596 11.5588 33.4023 12.0521 32.8125 12.7853C32.2631 13.4684 31.7341 14.1679 31.1472 14.9223Z" fill="#2B2A29"/>
<path d="M92.2686 2.78906C93.98 3.13018 95.6132 3.453 97.2194 3.87808C97.8243 4.03812 97.8934 4.51087 97.5666 5.09956C95.9412 8.02725 93.2251 9.19001 90.1306 9.71476C89.7233 9.78379 89.2609 9.52787 88.7969 9.15966C90.3661 8.45736 91.9353 7.75508 93.5045 7.05278C93.472 6.88747 93.4395 6.72213 93.407 6.55682C92.6437 6.46277 91.8607 6.21742 91.1221 6.31338C90.2187 6.43075 90.1075 6.04105 90.1342 5.34857C90.1814 4.12431 90.8282 3.31682 92.2686 2.78906Z" fill="#2B2A29"/>
<path d="M44.7289 45.4628C44.2391 43.7211 45.4378 42.6456 46.1085 41.3879C46.2884 41.0506 46.5138 40.7374 46.7182 40.4132C46.6588 40.3144 46.5994 40.2156 46.54 40.1168C45.7408 40.3648 44.9416 40.6128 44.1487 40.8588C44.0459 39.0918 45.8476 37.5511 47.692 37.8309C47.9447 37.8692 48.193 37.9428 48.4465 37.9684C49.9494 38.1197 50.0772 38.3676 49.2412 39.5986C49.0165 39.9295 48.7551 40.2401 48.4799 40.531C47.9759 41.0638 47.3473 41.5098 46.9603 42.1135C46.5754 42.714 46.4237 43.464 46.1697 44.1484C46.9044 44.3587 47.7235 44.8833 48.356 44.7133C49.6536 44.3646 50.8512 43.6437 52.1438 43.0513C52.189 43.9871 51.4959 44.7471 50.8946 45.4957C49.839 46.8099 48.4441 47.4645 46.7362 47.2002C45.7784 47.0519 45.019 46.5704 44.7289 45.4628Z" fill="#2A2928"/>
<path d="M135.59 13.3574C134.906 14.7222 134.228 16.0074 133.672 17.3437C133.511 17.7306 133.638 18.2795 133.747 18.7267C133.932 19.4932 134.377 19.8529 135.212 19.479C135.436 19.3784 135.759 19.413 136.004 19.4891C136.081 19.513 136.138 19.9191 136.058 20.0763C135.547 21.085 135.044 22.1034 134.443 23.0592C133.901 23.922 132.92 24.1867 132.137 23.7154C131.56 23.3678 131.042 22.5086 130.961 21.8225C130.612 18.8716 131.993 16.407 133.581 14.0998C134.377 12.944 135.466 11.9868 136.451 10.9677C136.652 10.7596 136.983 10.6761 137.253 10.5352C137.355 10.6325 137.456 10.7299 137.558 10.8272C136.919 11.6506 136.28 12.4739 135.59 13.3574Z" fill="#2B2A29"/>
<path d="M106.868 39.9557C106.158 40.1722 105.52 40.386 104.883 40.6011C104.673 39.1112 105.863 37.7633 107.582 37.5666C107.945 37.5251 108.329 37.4845 108.678 37.5592C109.296 37.6915 109.895 37.9126 110.502 38.0966C110.155 38.7589 109.904 39.5003 109.437 40.0641C108.814 40.8182 107.942 41.3703 107.337 42.1353C106.996 42.5653 106.74 43.3282 106.894 43.792C107.002 44.1151 107.859 44.2813 108.402 44.3491C109.883 44.5339 111.118 43.9589 112.175 42.9418C112.373 42.7504 112.611 42.5992 112.881 42.3906C112.915 44.0905 111.073 46.2492 109.213 46.763C108.024 47.0913 106.873 47.0603 105.997 46.0477C105.11 45.0226 105.222 43.8798 105.827 42.773C106.229 42.0374 106.72 41.3495 107.187 40.6511C107.432 40.2862 107.619 39.9768 106.868 39.9557Z" fill="#2A2928"/>
<path d="M172.029 12.5511C172.501 12.2287 172.91 11.9498 173.319 11.6709C173.43 11.7537 173.541 11.8365 173.652 11.9193C173.445 12.2567 173.255 12.606 173.029 12.9293C172.088 14.2714 171.034 15.5481 170.231 16.967C169.827 17.6799 169.754 18.6442 169.741 19.4981C169.724 20.5909 170.243 20.8816 171.319 20.6277C171.577 20.5668 171.86 20.6142 172.132 20.6118C172.114 20.9181 172.195 21.2775 172.063 21.5214C171.527 22.5093 170.981 23.5018 170.329 24.4134C169.885 25.0336 169.229 25.3362 168.394 25.0066C167.541 24.6698 167.158 24.0669 167.048 23.1863C166.736 20.6719 167.682 18.4869 168.946 16.4554C169.805 15.0764 170.949 13.8752 172.029 12.5511Z" fill="#2B2A29"/>
<path d="M182.883 27.3763C183.728 26.9576 184.493 26.5625 185.258 26.1675C185.237 26.0164 185.216 25.8654 185.195 25.7144C184.404 25.6733 183.61 25.568 182.823 25.608C181.902 25.6549 181.742 25.2099 181.894 24.4557C182.282 22.5399 183.477 21.7833 185.805 22.1621C186.841 22.3305 187.834 22.7642 188.843 23.088C189.564 23.3194 189.623 23.8071 189.258 24.3707C188.439 25.6323 187.642 26.9226 186.104 27.4584C184.796 27.9142 183.509 28.4416 182.179 28.819C181.747 28.9416 181.209 28.6907 180.719 28.6106C180.719 28.4904 180.719 28.3701 180.719 28.2498C181.414 27.9665 182.108 27.6832 182.883 27.3763Z" fill="#2B2A29"/>
<path d="M154.99 13.5819C155.981 13.9066 156.887 14.1863 157.774 14.5174C158.371 14.7401 158.474 15.1619 158.203 15.7508C156.79 18.8266 152.44 20.5503 149.865 20.0215C149.809 20.0102 149.77 19.9205 149.613 19.7419C151.181 19.0274 152.715 18.3283 154.249 17.6292C154.231 17.4672 154.213 17.3052 154.196 17.1433C153.409 17.0697 152.614 16.8892 151.838 16.9514C150.99 17.0195 150.681 16.8952 150.89 15.9631C151.366 13.8366 152.086 13.3753 154.99 13.5819Z" fill="#2B2A29"/>
<path d="M89.395 49.6061C88.4321 51.1031 87.3114 52.4573 86.667 54.0092C85.8943 55.8698 86.473 56.4863 88.3966 56.3941C88.7327 57.6325 87.2905 60.1527 86.1008 60.4057C84.9696 60.6463 84.0586 59.8505 83.9662 58.4984C83.8388 56.6349 84.4404 54.9438 85.4042 53.4062C86.2535 52.0513 87.2224 50.7658 88.2127 49.5081C88.5402 49.0922 89.0988 48.8582 89.5517 48.541C89.646 48.6274 89.7403 48.7138 89.8346 48.8002C89.7058 49.0505 89.577 49.3007 89.395 49.6061Z" fill="#2B2A29"/>
<path d="M57.14 51.0329C57.7503 50.5192 58.3056 50.0609 58.8609 49.6025C58.9818 49.7174 59.1028 49.8324 59.2238 49.9473C58.9519 50.3277 58.7025 50.7269 58.4041 51.0852C57.2736 52.4427 56.2372 53.8457 55.9326 55.6495C55.6927 57.0708 56.0935 57.5246 57.4582 57.3162C58.1335 57.213 58.1909 57.6046 57.9699 58.0149C57.4223 59.031 56.914 60.1067 56.1693 60.9675C55.3715 61.8895 54.2363 61.5629 53.6885 60.4556C53.0004 59.0648 53.3258 57.6373 53.9072 56.4202C54.7954 54.5611 56.0094 52.8577 57.14 51.0329Z" fill="#2B2A29"/>
<path d="M67.7512 47.686C68.6935 47.3152 68.9822 47.6826 68.6451 48.4602C68.299 49.2585 67.906 50.1 67.3127 50.7066C66.8766 51.1523 66.0479 51.5182 65.4599 51.438C64.6276 51.3244 64.0335 50.5256 64.1621 49.6437C64.3759 48.177 64.5282 46.6112 65.1726 45.3198C66.0103 43.6412 67.2721 42.166 68.4223 40.6574C68.7334 40.2494 69.3007 40.0367 69.7503 39.7344C69.8553 39.846 69.9603 39.9576 70.0652 40.0692C69.5544 40.7295 68.9763 41.3491 68.5482 42.0592C67.855 43.2087 67.1411 44.3714 66.6594 45.6151C66.2262 46.7335 66.6742 47.4131 67.7512 47.686Z" fill="#2B2A29"/>
<path d="M121.285 54.0013C121.249 54.4201 121.212 54.751 121.227 55.0795C121.278 56.208 121.635 56.4584 122.76 56.1925C122.894 56.1609 123.039 56.1749 123.172 56.1682C123.424 57.3731 121.928 59.9454 120.869 60.1889C119.667 60.4653 118.568 59.4029 118.689 57.8239C118.981 54.0169 121.028 51.1212 123.757 48.6329C123.9 48.5026 124.149 48.4883 124.348 48.4199C124.437 48.4878 124.525 48.5558 124.613 48.6237C124.37 48.9962 124.119 49.3642 123.884 49.7421C123.023 51.1304 122.167 52.522 121.285 54.0013Z" fill="#2B2A29"/>
<path d="M195.594 44.2412C196.622 44.7347 197.601 45.15 198.498 45.6977C198.779 45.8687 199.042 46.4473 198.966 46.7529C198.713 47.7727 198.336 48.7681 197.921 49.7359C197.84 49.9235 197.309 50.1024 197.094 50.016C196.011 49.5815 194.945 49.0936 193.919 48.5396C193.669 48.4043 193.402 47.9013 193.467 47.65C193.71 46.6982 194.022 45.7494 194.447 44.8665C194.599 44.5511 195.146 44.4261 195.594 44.2412Z" fill="#2B2A29"/>
<path d="M84.3444 36.248C84.0345 37.2307 83.7309 38.1324 83.4104 39.0281C83.1408 39.7815 82.7316 40.0809 81.9152 39.6201C81.0566 39.1354 80.143 38.7384 79.2273 38.3679C78.667 38.1412 78.4993 37.8275 78.7068 37.2754C79.0549 36.3497 79.3778 35.4142 79.7495 34.4982C79.8301 34.2997 80.0481 34.0678 80.2438 34.0205C81.1184 33.8092 83.8746 35.2798 84.3444 36.248Z" fill="#2B2A29"/>
<path d="M97.3967 30.0472C100.703 30.5195 103.907 30.9903 107.112 31.4612C107.118 31.5915 107.125 31.7218 107.132 31.8521C105.381 32.6256 103.631 33.4013 101.879 34.1716C100.876 34.613 99.8762 35.0672 98.8561 35.4681C98.5864 35.5741 98.1448 35.6384 97.9562 35.4942C95.6506 33.731 93.3776 31.9253 90.9883 30.0459C93.1156 30.0459 95.2053 30.0459 97.3967 30.0472Z" fill="white"/>
<path d="M118.575 9.30379C118.57 9.27818 118.598 9.21934 118.648 9.18066C118.67 9.2008 118.608 9.27056 118.575 9.30379Z" fill="white"/>
<path d="M23.216 57.4445C22.9502 58.3732 22.4732 58.5189 21.706 58.1022C20.8067 57.6137 19.8442 57.2365 18.9694 56.7108C18.7104 56.5553 18.4674 56.0121 18.5405 55.7306C18.7875 54.7804 19.1272 53.8428 19.5504 52.9573C19.6687 52.7096 20.2607 52.4634 20.5262 52.5503C21.5964 52.9005 22.6239 53.3812 23.7978 53.8679C24.0766 53.1988 24.3121 52.4813 24.676 51.8361C24.8194 51.5819 25.2443 51.3665 25.5498 51.3544C25.9285 51.3395 26.3365 51.51 26.697 51.676C29.924 53.1626 29.5848 52.9421 28.2806 56.3156C27.9766 57.102 27.486 57.2629 26.73 56.8705C25.8683 56.4234 24.9707 56.0457 24.0156 55.6041C23.7098 56.3109 23.4806 56.8407 23.216 57.4445Z" fill="#2B2A29"/>
<path d="M143.134 15.8048C143.098 15.8908 143.025 15.9411 142.953 15.9914C142.956 15.9117 142.959 15.832 142.993 15.7264C143.024 15.7005 143.099 15.7691 143.134 15.8048Z" fill="white"/>
<path d="M81.8511 23.7766C82.7601 23.4131 84.5147 24.4396 84.4809 25.2199C84.4566 25.7807 83.3098 26.5132 82.5042 26.5047C81.6788 26.4959 81.254 26.0718 81.3439 25.2746C81.3989 24.7862 81.6418 24.3189 81.8511 23.7766Z" fill="white"/>
</svg>
