<svg width="188" height="68" viewBox="0 0 188 68" fill="none" xmlns="http://www.w3.org/2000/svg">
<path d="M96.1672 53H93.3112L89.4692 44.262C89.3559 44.0127 89.2085 43.6727 89.0272 43.242C88.8685 42.8113 88.6872 42.3353 88.4832 41.814C88.2792 41.2927 88.0639 40.7487 87.8372 40.182C87.6105 39.5927 87.3952 39.0033 87.1912 38.414C87.1912 39.0033 87.1799 39.5927 87.1572 40.182C87.1572 40.7487 87.1459 41.2927 87.1232 41.814C87.1005 42.3127 87.0779 42.766 87.0552 43.174C87.0552 43.5593 87.0552 43.8653 87.0552 44.092L86.7152 53H82.9072L84.2672 29.914H87.4292L93.2432 44.33C93.4472 44.8513 93.6739 45.418 93.9232 46.03C94.1952 46.642 94.4445 47.2427 94.6712 47.832C94.8979 47.2427 95.1359 46.6533 95.3852 46.064C95.6345 45.452 95.8725 44.874 96.0992 44.33L101.947 29.914H105.041L106.401 53H102.627L102.253 44.194C102.231 43.6273 102.197 42.8227 102.151 41.78C102.129 40.7147 102.106 39.638 102.083 38.55C101.879 39.1167 101.664 39.6833 101.437 40.25C101.233 40.8167 101.041 41.3493 100.859 41.848C100.678 42.3467 100.508 42.8 100.349 43.208C100.191 43.616 100.066 43.9333 99.9752 44.16L96.1672 53ZM114.007 53.136C112.805 53.136 111.887 52.7847 111.253 52.082C110.618 51.3567 110.301 50.4273 110.301 49.294V36.068H114.177V48.954C114.177 49.4753 114.256 49.8267 114.415 50.008C114.573 50.1893 114.811 50.28 115.129 50.28C115.219 50.28 115.31 50.28 115.401 50.28C115.514 50.28 115.616 50.2687 115.707 50.246C115.797 50.246 115.899 50.2347 116.013 50.212L116.421 52.66C116.262 52.7507 116.058 52.83 115.809 52.898C115.605 52.966 115.344 53.0227 115.027 53.068C114.732 53.1133 114.392 53.136 114.007 53.136ZM112.307 28.52C113.032 28.52 113.587 28.7353 113.973 29.166C114.358 29.5967 114.551 30.152 114.551 30.832C114.551 31.512 114.347 32.0787 113.939 32.532C113.553 32.9853 112.975 33.212 112.205 33.212C111.479 33.212 110.913 32.9967 110.505 32.566C110.119 32.1127 109.927 31.5687 109.927 30.934C109.927 30.2313 110.119 29.6533 110.505 29.2C110.913 28.7467 111.513 28.52 112.307 28.52ZM123.012 38.244C123.669 37.3827 124.451 36.7593 125.358 36.374C126.287 35.9887 127.262 35.796 128.282 35.796C130.027 35.796 131.285 36.3287 132.056 37.394C132.849 38.4367 133.246 39.8533 133.246 41.644V53H129.37V41.916C129.37 40.964 129.2 40.216 128.86 39.672C128.52 39.1053 127.942 38.822 127.126 38.822C126.65 38.822 126.162 38.9467 125.664 39.196C125.188 39.4453 124.746 39.808 124.338 40.284C123.952 40.7373 123.635 41.2813 123.386 41.916C123.136 42.5507 123.012 43.2533 123.012 44.024V53H119.136V29.03L123.012 28.35V38.244ZM145.079 39.604C144.671 39.604 144.263 39.706 143.855 39.91C143.447 40.114 143.084 40.3973 142.767 40.76C142.45 41.1 142.189 41.5193 141.985 42.018C141.781 42.5167 141.679 43.072 141.679 43.684V53H137.803V44.432C137.803 43.072 137.712 41.9387 137.531 41.032C137.35 40.1027 137.157 39.3547 136.953 38.788C136.704 38.1307 136.432 37.598 136.137 37.19L139.197 35.966C139.401 36.2153 139.616 36.5213 139.843 36.884C140.024 37.2013 140.206 37.5753 140.387 38.006C140.568 38.4367 140.716 38.9467 140.829 39.536C141.282 38.2213 141.94 37.2807 142.801 36.714C143.662 36.1247 144.637 35.83 145.725 35.83C146.246 35.83 146.734 35.898 147.187 36.034C147.64 36.1473 147.856 36.204 147.833 36.204L146.745 39.978C146.768 39.978 146.632 39.9213 146.337 39.808C146.065 39.672 145.646 39.604 145.079 39.604ZM162.687 44.806C162.687 46.166 162.766 47.3107 162.925 48.24C163.106 49.1467 163.299 49.8833 163.503 50.45C163.752 51.13 164.024 51.6627 164.319 52.048L161.293 53.272C160.998 52.9773 160.726 52.626 160.477 52.218C160.273 51.8553 160.08 51.4247 159.899 50.926C159.717 50.4047 159.604 49.7927 159.559 49.09C159.173 50.45 158.55 51.4813 157.689 52.184C156.85 52.864 155.705 53.204 154.255 53.204C153.189 53.204 152.26 53.0113 151.467 52.626C150.696 52.218 150.05 51.6513 149.529 50.926C149.007 50.178 148.622 49.2827 148.373 48.24C148.123 47.1973 147.999 46.0413 147.999 44.772C147.999 43.48 148.191 42.29 148.577 41.202C148.985 40.0913 149.54 39.1393 150.243 38.346C150.968 37.5527 151.829 36.9293 152.827 36.476C153.824 36.0227 154.923 35.796 156.125 35.796C156.805 35.796 157.507 35.8527 158.233 35.966C158.981 36.0567 159.672 36.1587 160.307 36.272C160.941 36.3853 161.474 36.4987 161.905 36.612C162.358 36.7027 162.619 36.7593 162.687 36.782V44.806ZM154.901 50.484C155.467 50.484 155.989 50.2913 156.465 49.906C156.941 49.5207 157.349 49.022 157.689 48.41C158.051 47.7753 158.323 47.0613 158.505 46.268C158.709 45.452 158.811 44.6247 158.811 43.786V38.89C158.584 38.822 158.244 38.7427 157.791 38.652C157.337 38.5613 156.929 38.516 156.567 38.516C155.705 38.516 154.991 38.6633 154.425 38.958C153.881 39.2527 153.439 39.6607 153.099 40.182C152.759 40.7033 152.521 41.3267 152.385 42.052C152.249 42.7773 152.181 43.5707 152.181 44.432C152.181 45.2253 152.203 45.9847 152.249 46.71C152.294 47.4353 152.407 48.0813 152.589 48.648C152.793 49.2147 153.076 49.668 153.439 50.008C153.801 50.3253 154.289 50.484 154.901 50.484ZM167.247 29.03L171.123 28.35V38.72C171.531 37.7907 172.098 37.0767 172.823 36.578C173.571 36.0567 174.523 35.796 175.679 35.796C176.744 35.796 177.662 36 178.433 36.408C179.226 36.7933 179.884 37.36 180.405 38.108C180.926 38.8333 181.312 39.7173 181.561 40.76C181.81 41.8027 181.935 42.9587 181.935 44.228C181.935 45.52 181.731 46.7213 181.323 47.832C180.938 48.92 180.382 49.8607 179.657 50.654C178.954 51.4473 178.104 52.0707 177.107 52.524C176.11 52.9773 175.01 53.204 173.809 53.204C173.129 53.204 172.404 53.1473 171.633 53.034C170.862 52.9433 170.148 52.8413 169.491 52.728C168.743 52.592 167.995 52.422 167.247 52.218V29.03ZM175.033 38.516C174.466 38.516 173.945 38.7087 173.469 39.094C172.993 39.4793 172.574 39.9893 172.211 40.624C171.871 41.2587 171.599 41.9727 171.395 42.766C171.214 43.5593 171.123 44.3753 171.123 45.214V50.144C171.327 50.1893 171.656 50.2573 172.109 50.348C172.562 50.4387 172.982 50.484 173.367 50.484C174.206 50.484 174.908 50.3367 175.475 50.042C176.042 49.7473 176.495 49.3393 176.835 48.818C177.175 48.2967 177.413 47.6733 177.549 46.948C177.685 46.2227 177.753 45.4293 177.753 44.568C177.753 43.7747 177.73 43.0153 177.685 42.29C177.64 41.5647 177.515 40.9187 177.311 40.352C177.13 39.7853 176.858 39.3433 176.495 39.026C176.132 38.686 175.645 38.516 175.033 38.516Z" fill="white"/>
<path d="M11.4215 2.12475C11.7193 2.32034 11.7193 2.32034 11.9527 2.656C12.0164 3.04575 12.0029 3.42456 11.9859 3.81811C11.9835 3.9234 11.9811 4.02869 11.9787 4.13717C11.9724 4.39613 11.9629 4.65499 11.9527 4.91382C12.1198 4.96039 12.2869 5.00695 12.4591 5.05493C14.3459 5.69076 16.1293 7.24397 17.0618 8.99988C17.7011 10.3602 18.0563 11.7412 17.8659 13.2528C17.7635 14.1396 17.7654 15.0295 17.7544 15.9212C17.7517 16.1101 17.7489 16.2989 17.7461 16.4878C17.7388 16.981 17.7322 17.4742 17.7258 17.9674C17.7191 18.4723 17.7117 18.9771 17.7044 19.482C17.6902 20.4697 17.6767 21.4574 17.6637 22.4451C17.7785 22.4526 17.8934 22.4601 18.0117 22.4678C18.1644 22.4784 18.317 22.4891 18.4743 22.5001C18.6247 22.5104 18.7752 22.5206 18.9303 22.5311C19.7943 22.619 20.6323 22.8493 21.4706 23.0708C21.8477 23.1595 22.1902 23.2362 22.5777 23.242C22.9336 22.9262 22.9336 22.9262 23.2418 22.5779C24.1225 22.4686 25.0783 22.88 25.898 23.159C26.0359 23.2057 26.1738 23.2524 26.3159 23.3005C30.6114 24.7927 35.0308 27.0039 38.3871 30.1347C38.4732 30.183 38.5593 30.2313 38.648 30.281C39.1976 30.1206 39.5604 29.8362 39.9902 29.466C45.6363 24.7415 53.9918 21.2555 61.4212 21.1969C61.8188 21.2594 62.001 21.3698 62.2886 21.6482C62.4467 22.1223 62.438 22.5513 62.4344 23.0443C62.4341 23.1894 62.4341 23.1894 62.4338 23.3374C62.4331 23.6459 62.4314 23.9544 62.4298 24.263C62.4291 24.4723 62.4285 24.6816 62.4279 24.891C62.4265 25.4038 62.4242 25.9166 62.4215 26.4295C62.5449 26.4007 62.6683 26.3719 62.7955 26.3423C63.0418 26.2868 63.0418 26.2868 63.293 26.2303C63.4548 26.1933 63.6166 26.1563 63.7833 26.1182C64.9795 25.9086 64.9795 25.9086 65.5651 26.2189C66.0277 26.7322 65.9669 27.1832 65.9589 27.8529C65.9599 27.9853 65.961 28.1177 65.962 28.2541C65.9647 28.6991 65.9626 29.144 65.9605 29.589C65.9614 29.9074 65.9626 30.2259 65.964 30.5444C65.9667 31.3204 65.9663 32.0964 65.9644 32.8724C65.9629 33.5031 65.9627 34.1337 65.9634 34.7643C65.9635 34.854 65.9636 34.9437 65.9637 35.0361C65.964 35.2184 65.9642 35.4006 65.9644 35.5829C65.9663 37.2923 65.9641 39.0016 65.9605 40.711C65.9576 42.1781 65.9581 43.6451 65.9611 45.1122C65.9647 46.8154 65.9661 48.5186 65.9641 50.2218C65.9639 50.4034 65.9636 50.585 65.9634 50.7666C65.9633 50.8559 65.9632 50.9453 65.9631 51.0373C65.9626 51.6673 65.9635 52.2972 65.9651 52.9271C65.9671 53.7748 65.9657 54.6224 65.9618 55.4701C65.961 55.7817 65.9612 56.0933 65.9627 56.4049C65.9645 56.8294 65.9622 57.2536 65.9589 57.678C65.9604 57.8022 65.9619 57.9264 65.9634 58.0543C65.9507 58.8854 65.9507 58.8854 65.5624 59.3095C65.1413 59.5373 64.8335 59.5845 64.3561 59.6155C64.187 59.6283 64.0179 59.6411 63.8436 59.6543C63.7092 59.6631 63.7092 59.6631 63.5721 59.6721C63.0919 59.7042 62.6125 59.7459 62.133 59.7878C61.9856 59.8006 61.9856 59.8006 61.8353 59.8136C56.5632 60.289 51.3485 61.7911 46.4757 63.8328C46.3506 63.8852 46.2255 63.9375 46.0966 63.9915C45.4906 64.2549 44.9143 64.5263 44.3564 64.8811C42.6759 65.9173 41.2068 66.0832 39.2509 66.048C38.7809 66.0409 38.3127 66.048 37.8428 66.0564C35.9065 66.0622 34.5606 65.743 32.9282 64.7049C32.3479 64.3474 31.7133 64.0954 31.086 63.8328C30.9452 63.7737 30.8044 63.7146 30.6594 63.6538C27.3911 62.3153 23.9799 61.2285 20.5134 60.5488C20.3966 60.5256 20.2797 60.5024 20.1594 60.4785C19.9425 60.4364 19.7252 60.3962 19.5074 60.3587C19.071 60.2762 18.7551 60.1847 18.392 59.9242C18.1568 59.5764 18.1492 59.3803 18.1949 58.9686C18.0244 58.9525 17.8539 58.9364 17.6782 58.9198C16.0348 58.7642 14.392 58.6028 12.7496 58.4373C12.7496 57.6046 12.7496 56.7719 12.7496 55.9139C12.4721 55.9167 12.1947 55.9194 11.9088 55.9223C10.9907 55.9311 10.0726 55.937 9.1544 55.9414C8.59787 55.9442 8.04139 55.9479 7.48489 55.954C6.94753 55.9597 6.41022 55.9629 5.87283 55.9643C5.66812 55.9653 5.46341 55.9672 5.25872 55.9701C4.9713 55.9739 4.68405 55.9744 4.39661 55.9742C4.23322 55.9754 4.06983 55.9766 3.90149 55.9778C3.20899 55.8792 2.80355 55.5473 2.34483 55.0358C2.0443 54.4217 2.04819 53.9038 2.05404 53.2286C2.05353 53.0989 2.05302 52.9693 2.0525 52.8357C2.05214 52.5625 2.05311 52.2892 2.05534 52.0159C2.05818 51.5988 2.05536 51.1819 2.05196 50.7648C2.05232 50.4987 2.053 50.2325 2.05404 49.9664C2.05296 49.8422 2.05189 49.7181 2.05078 49.5903C2.06404 48.6634 2.29593 48.1628 2.97128 47.5052C3.36315 47.2533 3.66035 47.2117 4.11678 47.1482C4.10287 42.9511 4.0883 38.754 4.07281 34.5568C4.07098 34.0613 4.06916 33.5657 4.06734 33.0701C4.06679 32.9222 4.06679 32.9222 4.06624 32.7712C4.06038 31.1739 4.05499 29.5767 4.04976 27.9795C4.04438 26.3404 4.03852 24.7014 4.0322 23.0624C4.02831 22.0511 4.02481 21.0398 4.0218 20.0285C4.01945 19.2529 4.01641 18.4774 4.01312 17.7018C4.01188 17.3837 4.01086 17.0656 4.01008 16.7475C4.00898 16.3134 4.00708 15.8793 4.00498 15.4452C4.00485 15.3192 4.00472 15.1932 4.00459 15.0635C4.00053 14.4105 3.95878 13.7923 3.85116 13.1482C3.69792 11.1134 4.30259 9.27718 5.57772 7.70288C6.69615 6.40723 7.98647 5.56191 9.56209 4.91382C9.56706 4.78884 9.57202 4.66386 9.57714 4.53509C9.58587 4.36971 9.5946 4.20433 9.6036 4.03393C9.61515 3.78894 9.61515 3.78894 9.62694 3.539C9.69817 3.0312 9.82801 2.69388 10.0933 2.25756C10.509 2.04975 10.9713 2.03218 11.4215 2.12475Z" fill="#020202"/>
<path d="M17.5312 22.4453C18.7197 22.5302 19.8412 22.6152 21.001 22.8438C21.2003 22.8753 21.2003 22.8753 21.4036 22.9076C21.7869 22.9841 22.0996 23.059 22.4453 23.2422C22.6339 23.5409 22.7388 23.8272 22.8527 24.1607C22.9657 24.4846 22.9657 24.4846 23.3885 24.6824C23.5599 24.7373 23.7327 24.7882 23.9062 24.8359C24.1206 24.9086 24.3346 24.982 24.5485 25.0559C24.6663 25.095 24.784 25.1341 24.9054 25.1744C28.8584 26.4933 32.8108 28.3258 36.0219 31.0359C36.2669 31.2286 36.2669 31.2286 36.613 31.3859C37.2035 31.7358 37.6265 32.0517 37.802 32.7261C37.936 33.7411 37.8955 34.7662 37.8765 35.7873C37.8757 36.1208 37.8757 36.4543 37.8763 36.7878C37.8763 37.5741 37.8701 38.3602 37.8606 39.1465C37.8429 40.6395 37.8404 42.1325 37.8372 43.6255C37.835 44.1158 37.8296 44.6061 37.8236 45.0964C37.8215 45.3959 37.8194 45.6955 37.8173 45.9951C37.8148 46.1316 37.8124 46.2681 37.8098 46.4088C37.8093 46.5341 37.8089 46.6594 37.8084 46.7885C37.8072 46.8971 37.8059 47.0057 37.8045 47.1177C37.8643 47.4941 37.9841 47.6747 38.25 47.9453C38.8315 48.0076 39.0862 48.0077 39.5781 47.6797C39.7052 47.2984 39.7254 47.0731 39.7203 46.6785C39.7191 46.5549 39.7179 46.4313 39.7167 46.3039C39.7148 46.1686 39.7128 46.0332 39.7108 45.8937C39.7078 45.5977 39.7048 45.3017 39.7019 45.0057C39.7003 44.8484 39.6986 44.6911 39.6968 44.529C39.6874 43.5213 39.6866 42.5136 39.6843 41.5058C39.6819 40.6204 39.6763 39.7352 39.6641 38.8499C39.6524 37.9933 39.6492 37.1371 39.6516 36.2806C39.651 35.9548 39.6474 35.629 39.6407 35.3033C39.5876 32.6207 39.5876 32.6207 40.2182 31.8893C40.6316 31.5016 41.079 31.2251 41.5703 30.9453C41.7888 30.7881 42.0061 30.6292 42.2209 30.467C42.4183 30.3319 42.6164 30.1981 42.8154 30.0654C42.9227 29.9931 43.0299 29.9208 43.1404 29.8464C44.1022 29.2032 45.0791 28.5934 46.0859 28.0234C46.1696 27.9756 46.2532 27.9278 46.3394 27.8785C50.2931 25.6375 55.5357 23.5078 60.1641 23.5078C60.1641 33.1062 60.1641 42.7045 60.1641 52.5938C59.6201 52.7492 59.0924 52.8979 58.5433 53.0223C52.1325 54.5003 46.1812 56.8624 40.6406 60.4297C40.1391 59.9998 39.8727 59.4774 39.7948 58.8232C39.7946 58.6091 39.7946 58.6091 39.7945 58.3908C39.7922 58.234 39.7898 58.0772 39.7875 57.9156C39.7862 57.5874 39.7856 57.2591 39.7854 56.9309C39.7829 56.7744 39.7804 56.6179 39.7779 56.4567C39.7776 56.3143 39.7774 56.172 39.7771 56.0253C39.6951 55.5583 39.5521 55.4023 39.1797 55.1172C38.7812 55.0286 38.7812 55.0286 38.3828 55.1172C38.0133 55.4007 37.8673 55.5543 37.7896 56.019C37.791 56.1588 37.7925 56.2986 37.794 56.4427C37.7927 56.5974 37.7914 56.7521 37.7901 56.9115C37.7923 57.2345 37.7951 57.5575 37.7984 57.8806C37.7888 58.9025 37.6599 59.5939 37.0547 60.4297C36.0509 59.8933 35.0673 59.3285 34.0882 58.7483C33.9946 58.6928 33.9009 58.6373 33.8044 58.5802C33.7205 58.5303 33.6366 58.4804 33.5502 58.429C33.0984 58.1668 32.8005 58.1289 32.2734 58.1719C32.0239 58.3545 32.0239 58.3545 31.875 58.5703C31.3249 58.3952 30.8024 58.1915 30.2766 57.9535C30.1252 57.8854 29.9737 57.8174 29.8177 57.7472C29.505 57.6059 29.1923 57.4644 28.8797 57.3229C27.853 56.8616 26.8204 56.4395 25.7656 56.0469C25.7656 56.003 25.7656 55.9592 25.7656 55.9141C25.9268 55.9138 25.9268 55.9138 26.0913 55.9135C27.1073 55.9111 28.1233 55.9056 29.1393 55.8965C29.6615 55.892 30.1837 55.8886 30.706 55.8881C31.2107 55.8875 31.7153 55.8837 32.2199 55.8777C32.4118 55.876 32.6037 55.8755 32.7956 55.8761C34.1804 55.8945 34.1804 55.8945 35.402 55.3097C35.9677 54.7418 36.0391 54.1679 36.051 53.4034C36.0506 53.2884 36.0502 53.1734 36.0498 53.055C36.0505 52.9345 36.0512 52.814 36.0519 52.6899C36.0527 52.4359 36.0526 52.182 36.0514 51.928C36.0503 51.5412 36.0541 51.1546 36.0583 50.7678C36.0585 50.5203 36.0585 50.2727 36.0581 50.0252C36.0603 49.8531 36.0603 49.8531 36.0626 49.6776C36.0538 48.9034 35.9141 48.4457 35.4609 47.8125C35.033 47.545 34.628 47.3765 34.1328 47.2812C34.154 47.1445 34.1753 47.0077 34.1971 46.8667C34.4577 44.7645 34.4719 42.4154 33.8672 40.375C33.8251 40.2192 33.783 40.0634 33.7396 39.9029C33.1002 37.7581 31.9884 35.8341 30.5469 34.1328C30.4584 34.0243 30.3699 33.9157 30.2787 33.8039C29.6095 33.0107 28.8418 32.3764 28.0234 31.7422C27.8411 31.5966 27.8411 31.5966 27.6551 31.448C25.6027 29.8483 23.2092 28.5303 20.7188 27.7578C20.7168 27.6674 20.7149 27.5769 20.7129 27.4837C20.703 27.0742 20.6902 26.6648 20.6772 26.2554C20.6743 26.113 20.6713 25.9707 20.6682 25.824C20.6611 25.6192 20.6611 25.6192 20.6539 25.4102C20.6504 25.2844 20.6469 25.1585 20.6434 25.0288C20.577 24.6527 20.4892 24.5314 20.1875 24.3047C19.9296 24.2372 19.9296 24.2372 19.6562 24.2466C19.5207 24.2427 19.5207 24.2427 19.3823 24.2388C19.0104 24.334 18.9249 24.5134 18.7266 24.8359C18.6603 25.1684 18.6603 25.1684 18.6586 25.527C18.6539 25.6571 18.6492 25.7872 18.6443 25.9213C18.6398 26.1236 18.6398 26.1236 18.6353 26.3301C18.6307 26.467 18.6262 26.604 18.6215 26.7451C18.6106 27.0827 18.6014 27.4202 18.5938 27.7578C18.2078 27.9247 17.9568 28.0234 17.5312 28.0234C17.5312 26.1827 17.5312 24.3419 17.5312 22.4453Z" fill="#FEFEFE"/>
<path d="M62.0596 21.4274C62.4042 21.761 62.4198 22.0222 62.4357 22.4944C62.4357 22.6777 62.435 22.8611 62.4336 23.0445C62.4333 23.1895 62.4333 23.1895 62.4331 23.3375C62.4323 23.6461 62.4306 23.9546 62.429 24.2631C62.4283 24.4725 62.4277 24.6818 62.4271 24.8911C62.4257 25.404 62.4234 25.9168 62.4207 26.4296C62.5441 26.4009 62.6675 26.3721 62.7947 26.3425C62.9589 26.3055 63.1231 26.2685 63.2922 26.2304C63.454 26.1934 63.6158 26.1564 63.7825 26.1183C64.9787 25.9088 64.9787 25.9088 65.5643 26.219C66.0269 26.7324 65.9661 27.1833 65.9581 27.853C65.9591 27.9854 65.9602 28.1178 65.9612 28.2543C65.9639 28.6993 65.9618 29.1441 65.9597 29.5891C65.9606 29.9076 65.9618 30.2261 65.9632 30.5446C65.966 31.3206 65.9655 32.0966 65.9636 32.8726C65.9621 33.5032 65.9619 34.1338 65.9626 34.7644C65.9627 34.8542 65.9628 34.9439 65.9629 35.0363C65.9632 35.2185 65.9634 35.4008 65.9636 35.583C65.9655 37.2924 65.9633 39.0018 65.9597 40.7111C65.9568 42.1782 65.9573 43.6453 65.9604 45.1124C65.9639 46.8156 65.9653 48.5188 65.9633 50.222C65.9631 50.4036 65.9628 50.5851 65.9626 50.7667C65.9625 50.8561 65.9624 50.9454 65.9623 51.0375C65.9618 51.6674 65.9627 52.2973 65.9643 52.9273C65.9663 53.775 65.9649 54.6226 65.961 55.4703C65.9602 55.7819 65.9604 56.0935 65.9619 56.4051C65.9637 56.8295 65.9614 57.2537 65.9581 57.6782C65.9596 57.8023 65.9611 57.9265 65.9626 58.0545C65.9499 58.8856 65.9499 58.8856 65.5616 59.3096C65.1405 59.5374 64.8327 59.5847 64.3553 59.6157C64.1862 59.6285 64.0171 59.6413 63.8428 59.6545C63.7084 59.6632 63.7084 59.6632 63.5713 59.6722C63.0911 59.7044 62.6117 59.746 62.1322 59.7879C61.9848 59.8007 61.9848 59.8007 61.8345 59.8138C56.5624 60.2892 51.3477 61.7913 46.4749 63.833C46.3498 63.8853 46.2247 63.9377 46.0958 63.9916C45.4898 64.255 44.9135 64.5265 44.3556 64.8812C42.6751 65.9174 41.206 66.0834 39.2501 66.0481C38.7801 66.041 38.3119 66.0481 37.842 66.0566C35.9057 66.0624 34.5598 65.7432 32.9274 64.7051C32.3471 64.3475 31.7125 64.0955 31.0852 63.833C30.9444 63.7739 30.8036 63.7148 30.6586 63.6539C27.3903 62.3155 23.9791 61.2287 20.5126 60.549C20.3958 60.5258 20.2789 60.5026 20.1586 60.4787C19.9417 60.4365 19.7244 60.3964 19.5066 60.3589C18.915 60.247 18.5533 60.1287 18.1941 59.6328C18.101 59.0638 18.1358 58.7996 18.4348 58.3047C19.0838 57.8975 19.5864 58.0418 20.3191 58.1719C20.4756 58.1972 20.632 58.2225 20.7933 58.2486C21.3463 58.3447 21.895 58.4539 22.4441 58.5703C22.5816 58.5989 22.5816 58.5989 22.722 58.6281C27.1433 59.5724 31.4446 61.303 35.4597 63.3516C35.6025 62.9993 35.7379 62.6498 35.8582 62.289C35.5973 62.1293 35.3363 61.9696 35.0753 61.81C34.8551 61.6752 34.6349 61.5403 34.4148 61.4052C33.8433 61.0551 33.269 60.7128 32.6873 60.3799C32.2245 60.1014 31.8795 59.8482 31.6082 59.3672C31.5334 59.0351 31.5334 59.0351 31.6082 58.7031C31.9171 58.2941 32.107 58.0655 32.6224 57.983C33.2448 58.0611 33.6875 58.3304 34.2229 58.645C34.3803 58.735 34.3803 58.735 34.5409 58.8268C35.3496 59.2927 36.1435 59.7799 36.9207 60.2969C37.4232 59.6573 37.6167 59.2459 37.6164 58.4214C37.6185 58.2643 37.6206 58.1072 37.6228 57.9454C37.6251 57.6155 37.6258 57.2855 37.6249 56.9555C37.6476 55.6111 37.6476 55.6111 38.0304 55.209C38.4675 54.9294 38.6694 54.8783 39.1785 54.9844C39.5202 55.2043 39.6538 55.3008 39.8425 55.6484C39.9326 56.2371 39.9233 56.8219 39.9172 57.4165C39.9095 58.5244 39.9079 59.3426 40.5066 60.2969C41.2297 59.9135 41.943 59.5189 42.6407 59.0907C46.0486 57.004 49.7155 55.3953 53.5222 54.1875C53.6351 54.1516 53.748 54.1157 53.8644 54.0788C55.8962 53.4443 57.9403 53.0415 60.03 52.5937C60.0739 42.9953 60.1177 33.397 60.1628 23.5077C54.1201 24.6268 48.3642 26.2911 43.2957 29.8828C43.143 29.989 42.9903 30.0952 42.8376 30.2013C42.2628 30.5999 42.2628 30.5999 41.7032 31.0191C41.4363 31.2109 41.4363 31.2109 41.0741 31.3908C40.4882 31.7394 40.0675 32.0537 39.8924 32.7233C39.7584 33.728 39.7986 34.7426 39.8176 35.7535C39.8184 36.0837 39.8184 36.4139 39.8178 36.7441C39.8178 37.6112 39.8262 38.478 39.8367 39.3451C39.8528 40.7345 39.8539 42.124 39.8569 43.5135C39.8591 43.9986 39.8645 44.4836 39.8704 44.9687C39.8726 45.2656 39.8747 45.5624 39.8768 45.8593C39.8793 45.9941 39.8817 46.129 39.8843 46.2679C39.8884 47.4224 39.8884 47.4224 39.4441 47.9453C39.0286 48.153 38.7062 48.1254 38.2488 48.0781C37.9094 47.7934 37.7391 47.5621 37.6744 47.1181C37.6617 46.7403 37.6676 46.3663 37.6787 45.9884C37.6818 45.7728 37.6818 45.7728 37.6849 45.5529C37.6895 45.241 37.6951 44.9291 37.7017 44.6172C37.7114 44.1223 37.7164 43.6277 37.7199 43.1327C37.73 41.7256 37.7425 40.3188 37.7726 38.912C37.7907 38.0509 37.7982 37.1902 37.7991 36.3289C37.8014 36.0018 37.8076 35.6747 37.8177 35.3478C37.9345 33.4583 37.9345 33.4583 37.1322 31.8348C36.699 31.4489 36.237 31.1342 35.7364 30.8425C35.3718 30.6278 35.0296 30.3859 34.6842 30.1419C34.2871 29.8652 33.8777 29.6082 33.4675 29.3515C33.3855 29.3002 33.3036 29.2489 33.2191 29.196C32.6439 28.8387 32.0616 28.4949 31.4753 28.1562C31.3295 28.0706 31.1836 27.985 31.0333 27.8968C28.8242 26.6561 26.3953 25.7204 23.9644 25.0177C23.3137 24.8191 22.9386 24.6527 22.5769 24.039C22.4762 23.502 22.5322 23.3099 22.8342 22.852C23.4054 22.4673 23.7804 22.5832 24.4363 22.7109C24.9313 22.8382 25.4135 22.9945 25.8972 23.1591C26.0351 23.2058 26.173 23.2525 26.315 23.3006C30.6106 24.7929 35.03 27.0041 38.3863 30.1349C38.4724 30.1832 38.5585 30.2314 38.6472 30.2812C39.1968 30.1207 39.5596 29.8364 39.9893 29.4662C43.7355 26.3315 56.9009 18.4064 62.0596 21.4274Z" fill="#010101"/>
<path d="M24.8362 31.8753C25.3451 32.2053 25.8234 32.5594 26.2971 32.9378C26.408 33.022 26.519 33.1062 26.6333 33.193C29.5607 35.4518 31.5329 38.4945 32.2228 42.1361C32.2933 42.8255 32.2981 43.5093 32.2986 44.2019C32.3002 44.3386 32.3018 44.4753 32.3035 44.6162C32.3037 44.7515 32.304 44.8869 32.3043 45.0263C32.3048 45.147 32.3054 45.2676 32.3059 45.392C32.2613 45.9842 32.1245 46.5663 32.008 47.1487C23.856 47.1487 15.704 47.1487 7.30492 47.1487C6.9908 45.107 6.9908 45.107 6.99779 44.26C6.99854 44.1598 6.99929 44.0596 7.00006 43.9563C7.06514 40.8602 8.21474 37.9457 10.2268 35.594C10.3151 35.488 10.4035 35.3821 10.4945 35.2729C12.5739 32.8606 15.4645 31.0927 18.4114 29.9329C18.4962 29.8984 18.581 29.8638 18.6684 29.8282C20.5608 29.1254 23.2298 30.9356 24.8362 31.8753Z" fill="#F5C50B"/>
<path d="M6.24219 15.2734C9.26633 15.2734 12.2905 15.2734 15.4062 15.2734C15.4062 19.8316 15.4062 24.3897 15.4062 29.0859C14.4859 29.6119 14.4859 29.6119 13.5469 30.1484C10.4459 32.2061 8.04741 34.5178 6.375 37.8516C6.33117 37.8516 6.28734 37.8516 6.24219 37.8516C6.24219 30.4008 6.24219 22.95 6.24219 15.2734Z" fill="#FCFCFC"/>
<path d="M4.25 49.2734C14.0675 49.2734 23.885 49.2734 34 49.2734C34 50.7636 34 52.2537 34 53.7891C24.1825 53.7891 14.365 53.7891 4.25 53.7891C4.25 52.2989 4.25 50.8088 4.25 49.2734Z" fill="#FBFBFB"/>
<path d="M63.75 28.4219C63.75 37.9764 63.75 47.5309 63.75 57.375C61.5805 57.638 61.5805 57.638 59.3672 57.9062C53.5782 58.8284 47.8836 60.4488 42.6785 63.1996C42.3672 63.3516 42.3672 63.3516 42.1016 63.3516C41.9262 63.0009 41.7509 62.6503 41.5703 62.2891C44.9524 59.8669 48.8151 58.0941 52.7266 56.7109C52.8487 56.6675 52.9709 56.6241 53.0968 56.5793C55.2543 55.8234 57.4491 55.297 59.6785 54.8069C59.769 54.787 59.8595 54.767 59.9527 54.7464C60.3305 54.6636 60.7082 54.5835 61.088 54.5111C61.358 54.4587 61.625 54.3913 61.8906 54.3203C62.2138 53.8356 62.1947 53.4763 62.1932 52.916C62.1944 52.7609 62.1944 52.7609 62.1956 52.6027C62.1978 52.2552 62.1982 51.9077 62.1986 51.5602C62.1998 51.3115 62.2012 51.0629 62.2026 50.8142C62.2063 50.1381 62.2083 49.462 62.21 48.7859C62.2121 48.0797 62.2156 47.3736 62.219 46.6674C62.2253 45.3297 62.2301 43.9919 62.2345 42.6542C62.2396 41.1315 62.2462 39.6087 62.2529 38.086C62.2666 34.9532 62.2784 31.8203 62.2891 28.6875C62.4827 28.6429 62.6764 28.5987 62.8701 28.5547C63.0319 28.5177 63.0319 28.5177 63.197 28.48C63.4844 28.4219 63.4844 28.4219 63.75 28.4219Z" fill="#1D8E5A"/>
<path d="M12.75 55.9143C14.3966 55.8871 16.043 55.8653 17.6897 55.8524C18.4547 55.8462 19.2195 55.8378 19.9843 55.8241C20.7249 55.811 21.4654 55.804 22.2061 55.8009C22.4862 55.7987 22.7662 55.7945 23.0463 55.7879C25.0514 55.743 26.5791 56.0993 28.3896 56.9673C28.7908 57.159 29.1984 57.3329 29.6073 57.5075C29.8461 57.6151 30.0845 57.7231 30.3228 57.8318C30.4478 57.8875 30.5729 57.9432 30.7017 58.0007C30.82 58.0543 30.9382 58.108 31.06 58.1633C31.1631 58.2099 31.2662 58.2566 31.3724 58.3046C31.6094 58.4377 31.6094 58.4377 31.7422 58.7034C31.7531 58.8513 31.7641 58.9992 31.7754 59.1516C31.9011 59.7594 32.036 59.8145 32.5391 60.1643C32.949 60.4142 33.3658 60.651 33.7842 60.8865C34.552 61.319 35.2842 61.7636 35.9922 62.2893C35.8169 62.6399 35.6416 62.9906 35.4609 63.3518C34.7839 63.1475 34.1754 62.8576 33.5435 62.5466C29.8634 60.774 25.9242 59.4197 21.9224 58.6038C21.7171 58.5617 21.7171 58.5617 21.5076 58.5188C20.1934 58.2531 20.1934 58.2531 18.8594 58.1721C18.4998 58.4204 18.3863 58.5871 18.1953 58.969C16.3796 58.7976 14.5646 58.6205 12.75 58.4377C12.75 57.605 12.75 56.7723 12.75 55.9143Z" fill="#1D8E5A"/>
<path d="M11.7653 7.10598C11.9343 7.19489 12.102 7.28613 12.2686 7.37939C12.4004 7.45224 12.4004 7.45224 12.535 7.52657C13.9558 8.33217 14.8529 9.37585 15.5308 10.874C15.6719 11.4219 15.6719 11.4219 15.6719 13.1484C12.5162 13.1484 9.36062 13.1484 6.10938 13.1484C6.10938 11.2714 6.39995 10.0128 7.66888 8.64993C8.73768 7.6543 10.2801 6.48307 11.7653 7.10598Z" fill="#F5C50B"/>
<path d="M38.6484 61.7578C38.7361 61.7578 38.8237 61.7578 38.9141 61.7578C39.0697 62.0397 39.2245 62.3219 39.3789 62.6045C39.4232 62.6846 39.4676 62.7647 39.5133 62.8473C39.8438 63.4543 39.8438 63.4543 39.8438 63.75C39.1425 63.75 38.4413 63.75 37.7188 63.75C37.9036 63.1956 38.0514 62.7948 38.333 62.3057C38.3922 62.2019 38.4515 62.0982 38.5125 61.9913C38.5574 61.9142 38.6022 61.8372 38.6484 61.7578Z" fill="#1D8E5A"/>
</svg>
