<svg width="75" height="75" viewBox="0 0 75 75" fill="none" xmlns="http://www.w3.org/2000/svg">
<path d="M12.597 2.34412C12.9255 2.55984 12.9255 2.55984 13.183 2.93006C13.2532 3.35993 13.2383 3.77774 13.2196 4.2118C13.217 4.32793 13.2143 4.44406 13.2116 4.56371C13.2047 4.84931 13.1942 5.13483 13.183 5.4203C13.3673 5.47166 13.5516 5.52302 13.7414 5.57594C15.8225 6.27722 17.7895 7.99031 18.818 9.92698C19.5231 11.4273 19.9149 12.9505 19.7049 14.6177C19.592 15.5958 19.594 16.5773 19.5819 17.5608C19.5789 17.7691 19.5758 17.9774 19.5727 18.1857C19.5647 18.7297 19.5574 19.2737 19.5503 19.8177C19.5429 20.3745 19.5348 20.9313 19.5267 21.4881C19.511 22.5775 19.4962 23.6669 19.4818 24.7563C19.6085 24.7645 19.7352 24.7728 19.8657 24.7813C20.0341 24.793 20.2024 24.8048 20.3759 24.817C20.5418 24.8282 20.7078 24.8395 20.8788 24.8511C21.8317 24.9481 22.7561 25.2021 23.6806 25.4463C24.0966 25.5442 24.4743 25.6288 24.9017 25.6352C25.2943 25.2869 25.2943 25.2869 25.6341 24.9027C26.6055 24.7822 27.6597 25.2359 28.5638 25.5436C28.7159 25.5951 28.868 25.6466 29.0247 25.6997C33.7624 27.3455 38.6367 29.7844 42.3385 33.2375C42.4335 33.2907 42.5285 33.344 42.6263 33.3988C43.2325 33.2219 43.6326 32.9082 44.1066 32.4999C50.334 27.289 59.5496 23.4442 67.7438 23.3795C68.1823 23.4485 68.3833 23.5702 68.7005 23.8773C68.8748 24.4002 68.8653 24.8734 68.8613 25.4171C68.861 25.5772 68.861 25.5772 68.8607 25.7404C68.8599 26.0807 68.858 26.421 68.8562 26.7613C68.8554 26.9921 68.8548 27.223 68.8542 27.4539C68.8526 28.0195 68.85 28.5852 68.847 29.1508C68.9832 29.1191 69.1193 29.0873 69.2596 29.0547C69.5312 28.9935 69.5312 28.9935 69.8083 28.9311C69.9868 28.8903 70.1652 28.8495 70.3491 28.8075C71.6684 28.5763 71.6684 28.5763 72.3142 28.9185C72.8245 29.4847 72.7574 29.9821 72.7486 30.7207C72.7498 30.8667 72.7509 31.0128 72.7521 31.1633C72.755 31.6541 72.7527 32.1447 72.7504 32.6355C72.7514 32.9868 72.7527 33.3381 72.7543 33.6893C72.7573 34.5452 72.7568 35.4011 72.7547 36.257C72.753 36.9525 72.7528 37.6481 72.7536 38.3436C72.7537 38.4425 72.7538 38.5415 72.754 38.6434C72.7542 38.8444 72.7544 39.0455 72.7547 39.2465C72.7568 41.1318 72.7544 43.0171 72.7504 44.9025C72.7472 46.5206 72.7477 48.1386 72.7511 49.7567C72.755 51.6353 72.7566 53.5138 72.7543 55.3924C72.7541 55.5926 72.7538 55.7929 72.7536 55.9932C72.7535 56.0917 72.7534 56.1902 72.7533 56.2918C72.7526 56.9866 72.7537 57.6813 72.7554 58.3761C72.7577 59.3111 72.7561 60.246 72.7519 61.1809C72.7509 61.5246 72.7512 61.8683 72.7528 62.212C72.7548 62.6801 72.7523 63.148 72.7486 63.6161C72.7503 63.753 72.7519 63.89 72.7536 64.0311C72.7396 64.9478 72.7396 64.9478 72.3113 65.4155C71.8468 65.6667 71.5073 65.7189 70.9808 65.753C70.7943 65.7671 70.6078 65.7813 70.4156 65.7958C70.2674 65.8055 70.2674 65.8055 70.1162 65.8154C69.5865 65.8509 69.0577 65.8968 68.5289 65.943C68.3664 65.9571 68.3664 65.9571 68.2005 65.9715C62.3857 66.4959 56.6342 68.1526 51.2597 70.4045C51.1218 70.4622 50.9838 70.52 50.8416 70.5794C50.1733 70.87 49.5376 71.1693 48.9224 71.5606C47.0689 72.7035 45.4485 72.8865 43.2912 72.8477C42.7729 72.8398 42.2565 72.8476 41.7383 72.857C39.6026 72.8634 38.1181 72.5113 36.3177 71.3663C35.6777 70.972 34.9777 70.6941 34.2859 70.4045C34.1306 70.3393 33.9753 70.2741 33.8153 70.207C30.2106 68.7308 26.4482 67.5321 22.6249 66.7824C22.4961 66.7568 22.3672 66.7313 22.2344 66.7049C21.9952 66.6584 21.7555 66.6141 21.5154 66.5727C21.034 66.4817 20.6856 66.3808 20.2852 66.0935C20.0258 65.7098 20.0173 65.4936 20.0677 65.0395C19.8797 65.0217 19.6916 65.004 19.4978 64.9857C17.6852 64.8141 15.8734 64.636 14.0619 64.4536C14.0619 63.5351 14.0619 62.6166 14.0619 61.6703C13.7559 61.6734 13.4498 61.6765 13.1346 61.6796C12.1219 61.6894 11.1093 61.6958 10.0966 61.7007C9.48277 61.7038 8.86901 61.7079 8.25522 61.7145C7.66255 61.7209 7.06992 61.7244 6.47721 61.7259C6.25143 61.727 6.02565 61.7291 5.79988 61.7323C5.48288 61.7366 5.16606 61.7371 4.84903 61.7369C4.66882 61.7382 4.48861 61.7395 4.30295 61.7408C3.53916 61.6321 3.09198 61.2661 2.58603 60.7019C2.25457 60.0245 2.25886 59.4533 2.26531 58.7086C2.26475 58.5656 2.26419 58.4226 2.26361 58.2753C2.26322 57.9739 2.26429 57.6725 2.26674 57.3712C2.26988 56.9111 2.26677 56.4513 2.26302 55.9912C2.26341 55.6977 2.26416 55.4041 2.26531 55.1106C2.26413 54.9737 2.26294 54.8368 2.26172 54.6958C2.27635 53.6735 2.5321 53.1213 3.27697 52.396C3.70919 52.1182 4.03698 52.0724 4.5404 52.0024C4.52505 47.3732 4.50898 42.744 4.49189 38.1148C4.48988 37.5682 4.48787 37.0216 4.48586 36.475C4.48526 36.3118 4.48526 36.3118 4.48465 36.1453C4.47819 34.3837 4.47224 32.622 4.46647 30.8603C4.46055 29.0526 4.45408 27.2448 4.4471 25.4371C4.44282 24.3217 4.43896 23.2063 4.43564 22.0909C4.43304 21.2355 4.4297 20.3801 4.42607 19.5247C4.4247 19.1738 4.42357 18.823 4.42271 18.4722C4.42149 17.9934 4.4194 17.5146 4.41709 17.0358C4.41695 16.8968 4.4168 16.7579 4.41666 16.6147C4.41218 15.8946 4.36613 15.2127 4.24743 14.5023C4.07842 12.2581 4.74533 10.2328 6.15173 8.49647C7.38529 7.06744 8.80843 6.1351 10.5463 5.4203C10.5517 5.28245 10.5572 5.14461 10.5628 5.00259C10.5725 4.82018 10.5821 4.63777 10.592 4.44984C10.6048 4.17962 10.6048 4.17962 10.6178 3.90395C10.6963 3.34388 10.8395 2.97184 11.1322 2.49061C11.5906 2.2614 12.1006 2.24202 12.597 2.34412Z" fill="#020202"/>
<path d="M19.3359 24.7559C20.6467 24.8495 21.8837 24.9432 23.1628 25.1953C23.3826 25.2302 23.3826 25.2302 23.6069 25.2657C24.0297 25.3501 24.3746 25.4327 24.7559 25.6348C24.9638 25.9642 25.0795 26.28 25.2052 26.6479C25.3299 27.005 25.3299 27.005 25.7961 27.2232C25.9852 27.2838 26.1758 27.3399 26.3672 27.3926C26.6036 27.4727 26.8397 27.5537 27.0756 27.6352C27.2055 27.6783 27.3353 27.7214 27.4691 27.7659C31.8291 29.2206 36.1884 31.2417 39.73 34.2307C40.0002 34.4433 40.0002 34.4433 40.382 34.6168C41.0333 35.0027 41.4998 35.3512 41.6934 36.095C41.8412 37.2145 41.7965 38.345 41.7755 39.4712C41.7747 39.8391 41.7746 40.2069 41.7753 40.5747C41.7753 41.442 41.7685 42.3091 41.758 43.1763C41.7384 44.8229 41.7357 46.4696 41.7322 48.1164C41.7298 48.6572 41.7238 49.1979 41.7173 49.7386C41.7149 50.069 41.7126 50.3994 41.7103 50.7298C41.7075 50.8804 41.7048 51.031 41.702 51.1862C41.7015 51.3244 41.701 51.4626 41.7005 51.6049C41.6991 51.7247 41.6976 51.8446 41.6962 51.968C41.7621 52.3832 41.8943 52.5823 42.1875 52.8809C42.8289 52.9496 43.1097 52.9496 43.6523 52.5879C43.7925 52.1674 43.8148 51.9189 43.8092 51.4836C43.8079 51.3473 43.8066 51.2109 43.8052 51.0705C43.803 50.9212 43.8009 50.7719 43.7987 50.6181C43.7954 50.2916 43.7921 49.9651 43.7889 49.6386C43.787 49.4651 43.7852 49.2916 43.7832 49.1129C43.7729 48.0014 43.772 46.89 43.7695 45.7785C43.7668 44.8019 43.7606 43.8256 43.7471 42.8491C43.7342 41.9044 43.7307 40.9601 43.7334 40.0153C43.7328 39.656 43.7288 39.2967 43.7213 38.9375C43.6628 35.9787 43.6628 35.9787 44.3583 35.172C44.8142 34.7444 45.3077 34.4394 45.8496 34.1309C46.0906 33.9575 46.3302 33.7822 46.5672 33.6033C46.7848 33.4544 47.0034 33.3067 47.2229 33.1604C47.3412 33.0807 47.4595 33.0009 47.5813 32.9188C48.6421 32.2094 49.7196 31.5368 50.8301 30.9082C50.9223 30.8554 51.0146 30.8027 51.1097 30.7483C55.4703 28.2766 61.2527 25.9277 66.3574 25.9277C66.3574 36.5142 66.3574 47.1006 66.3574 58.0078C65.7574 58.1792 65.1754 58.3433 64.5699 58.4805C57.499 60.1106 50.9352 62.7158 44.8242 66.6504C44.2711 66.1763 43.9772 65.6001 43.8913 64.8785C43.8911 64.6424 43.8911 64.6424 43.891 64.4016C43.8884 64.2287 43.8859 64.0557 43.8832 63.8775C43.8819 63.5155 43.8811 63.1535 43.8809 62.7914C43.8782 62.6189 43.8755 62.4463 43.8726 62.2684C43.8724 62.1114 43.8721 61.9544 43.8718 61.7926C43.7814 61.2775 43.6236 61.1055 43.2129 60.791C42.7734 60.6934 42.7734 60.6934 42.334 60.791C41.9265 61.1037 41.7654 61.2732 41.6797 61.7856C41.6813 61.9399 41.6829 62.0941 41.6845 62.253C41.6831 62.4236 41.6817 62.5942 41.6802 62.77C41.6827 63.1263 41.6857 63.4826 41.6894 63.8389C41.6789 64.966 41.5367 65.7285 40.8691 66.6504C39.762 66.0588 38.6771 65.4359 37.5973 64.7959C37.494 64.7347 37.3907 64.6735 37.2843 64.6105C37.1917 64.5555 37.0992 64.5005 37.0039 64.4438C36.5055 64.1545 36.177 64.1127 35.5957 64.1602C35.3205 64.3616 35.3205 64.3616 35.1562 64.5996C34.5495 64.4065 33.9732 64.1818 33.3933 63.9193C33.2263 63.8442 33.0593 63.7691 32.8872 63.6918C32.5423 63.5359 32.1974 63.3798 31.8526 63.2237C30.7202 62.715 29.5813 62.2495 28.418 61.8164C28.418 61.7681 28.418 61.7197 28.418 61.6699C28.5957 61.6696 28.5957 61.6696 28.7771 61.6693C29.8978 61.6667 31.0183 61.6606 32.1389 61.6506C32.7149 61.6456 33.2909 61.6419 33.8669 61.6413C34.4236 61.6406 34.9801 61.6365 35.5367 61.6299C35.7483 61.628 35.9599 61.6273 36.1716 61.628C37.6989 61.6484 37.6989 61.6484 39.0463 61.0034C39.6702 60.3769 39.749 59.744 39.7621 58.9008C39.7617 58.774 39.7612 58.6472 39.7608 58.5165C39.7615 58.3836 39.7623 58.2507 39.7631 58.1138C39.764 57.8337 39.7639 57.5537 39.7626 57.2736C39.7614 56.8469 39.7656 56.4206 39.7702 55.9939C39.7705 55.7209 39.7704 55.4479 39.7699 55.1748C39.7724 54.985 39.7724 54.985 39.7749 54.7914C39.7652 53.9376 39.6111 53.4328 39.1113 52.7344C38.6394 52.4394 38.1926 52.2535 37.6465 52.1484C37.6699 51.9976 37.6933 51.8467 37.7174 51.6912C38.0048 49.3726 38.0205 46.7817 37.3535 44.5312C37.3071 44.3594 37.2606 44.1876 37.2128 44.0105C36.5076 41.645 35.2813 39.5229 33.6914 37.6465C33.5938 37.5268 33.4962 37.4071 33.3956 37.2837C32.6575 36.4088 31.8108 35.7092 30.9082 35.0098C30.7071 34.8492 30.7071 34.8492 30.5019 34.6853C28.2383 32.9209 25.5983 31.4672 22.8516 30.6152C22.8494 30.5155 22.8473 30.4157 22.8451 30.3129C22.8342 29.8612 22.82 29.4097 22.8058 28.9581C22.8025 28.8011 22.7992 28.6441 22.7958 28.4823C22.788 28.2565 22.788 28.2565 22.78 28.026C22.7762 27.8872 22.7724 27.7483 22.7684 27.6053C22.6953 27.1905 22.5984 27.0567 22.2656 26.8066C21.9811 26.7322 21.9811 26.7322 21.6797 26.7426C21.5301 26.7383 21.5301 26.7383 21.3776 26.734C20.9674 26.839 20.8731 27.0368 20.6543 27.3926C20.5813 27.7593 20.5813 27.7593 20.5793 28.1548C20.5741 28.2983 20.569 28.4418 20.5636 28.5896C20.5586 28.8128 20.5586 28.8128 20.5536 29.0405C20.5486 29.1916 20.5436 29.3427 20.5384 29.4983C20.5264 29.8706 20.5162 30.2428 20.5078 30.6152C20.0821 30.7993 19.8053 30.9082 19.3359 30.9082C19.3359 28.8779 19.3359 26.8477 19.3359 24.7559Z" fill="#FEFEFE"/>
<path d="M68.4509 23.6335C68.831 24.0015 68.8483 24.2896 68.8658 24.8104C68.8658 25.0126 68.865 25.2148 68.8635 25.4171C68.8632 25.5771 68.8632 25.5771 68.8629 25.7403C68.862 26.0806 68.8602 26.4209 68.8583 26.7612C68.8576 26.9921 68.8569 27.2229 68.8563 27.4538C68.8547 28.0195 68.8522 28.5851 68.8492 29.1507C68.9853 29.119 69.1215 29.0873 69.2618 29.0546C69.4428 29.0138 69.6239 28.973 69.8105 28.931C69.9889 28.8902 70.1674 28.8494 70.3512 28.8074C71.6705 28.5763 71.6705 28.5763 72.3164 28.9184C72.8267 29.4846 72.7596 29.982 72.7508 30.7206C72.7519 30.8667 72.7531 31.0127 72.7543 31.1632C72.7572 31.654 72.7549 32.1446 72.7526 32.6354C72.7536 32.9867 72.7549 33.338 72.7564 33.6892C72.7594 34.5452 72.759 35.401 72.7569 36.2569C72.7552 36.9525 72.755 37.648 72.7558 38.3435C72.7559 38.4425 72.756 38.5414 72.7561 38.6434C72.7564 38.8444 72.7566 39.0454 72.7569 39.2464C72.7589 41.1317 72.7565 43.017 72.7526 44.9024C72.7493 46.5205 72.7499 48.1386 72.7533 49.7567C72.7572 51.6352 72.7587 53.5137 72.7565 55.3923C72.7563 55.5925 72.756 55.7928 72.7558 55.9931C72.7557 56.0916 72.7556 56.1902 72.7555 56.2917C72.7548 56.9865 72.7559 57.6813 72.7576 58.3761C72.7599 59.311 72.7583 60.2459 72.754 61.1808C72.7531 61.5245 72.7533 61.8682 72.755 62.2119C72.7569 62.68 72.7545 63.1479 72.7508 63.616C72.7524 63.7529 72.7541 63.8899 72.7557 64.031C72.7418 64.9477 72.7418 64.9477 72.3135 65.4154C71.849 65.6667 71.5095 65.7188 70.9829 65.753C70.7964 65.7671 70.6099 65.7812 70.4178 65.7957C70.2696 65.8054 70.2696 65.8054 70.1183 65.8153C69.5886 65.8508 69.0599 65.8967 68.531 65.9429C68.3685 65.957 68.3685 65.957 68.2027 65.9714C62.3879 66.4958 56.6364 68.1525 51.2619 70.4044C51.1239 70.4621 50.986 70.5199 50.8438 70.5794C50.1755 70.8699 49.5398 71.1693 48.9245 71.5605C47.071 72.7034 45.4506 72.8864 43.2934 72.8476C42.7751 72.8397 42.2587 72.8475 41.7404 72.8569C39.6048 72.8633 38.1203 72.5112 36.3199 71.3662C35.6799 70.9719 34.9799 70.694 34.288 70.4044C34.1327 70.3392 33.9774 70.274 33.8175 70.2069C30.2127 68.7307 26.4504 67.532 22.6271 66.7823C22.4982 66.7568 22.3693 66.7312 22.2366 66.7048C21.9974 66.6583 21.7577 66.614 21.5175 66.5726C20.8651 66.4493 20.4661 66.3188 20.0699 65.7718C19.9672 65.1443 20.0056 64.8528 20.3354 64.307C21.0511 63.8579 21.6056 64.0171 22.4136 64.1605C22.5862 64.1885 22.7588 64.2164 22.9366 64.2452C23.5466 64.3512 24.1518 64.4716 24.7574 64.6C24.9091 64.6315 24.9091 64.6315 25.0639 64.6637C29.9404 65.7052 34.6845 67.614 39.1129 69.8734C39.2704 69.4849 39.4197 69.0994 39.5523 68.7015C39.2646 68.5253 38.9768 68.3492 38.6889 68.1732C38.446 68.0245 38.2031 67.8757 37.9604 67.7267C37.3301 67.3405 36.6966 66.963 36.055 66.5958C35.5446 66.2887 35.1641 66.0095 34.8648 65.4789C34.7824 65.1127 34.7824 65.1127 34.8648 64.7464C35.2056 64.2954 35.415 64.0432 35.9835 63.9522C36.6699 64.0383 37.1582 64.3353 37.7487 64.6824C37.9223 64.7816 37.9223 64.7816 38.0994 64.8828C38.9914 65.3967 39.867 65.9341 40.7242 66.5043C41.2785 65.7988 41.4919 65.3451 41.4915 64.4357C41.4939 64.2625 41.4962 64.0892 41.4987 63.9107C41.5011 63.5468 41.5019 63.1829 41.501 62.819C41.526 61.3362 41.526 61.3362 41.9481 60.8926C42.4303 60.5842 42.653 60.5279 43.2144 60.6449C43.5913 60.8874 43.7387 60.9939 43.9468 61.3773C44.0462 62.0266 44.0359 62.6716 44.0292 63.3274C44.0207 64.5493 44.019 65.4517 44.6793 66.5043C45.4769 66.0814 46.2635 65.6463 47.0331 65.174C50.7918 62.8724 54.8362 61.0981 59.0347 59.766C59.1593 59.7264 59.2838 59.6868 59.4121 59.6461C61.6531 58.9463 63.9077 58.502 66.2125 58.0082C66.2608 47.4217 66.3092 36.8353 66.359 25.928C59.6942 27.1623 53.3457 28.9979 47.7554 32.9593C47.5871 33.0765 47.4186 33.1936 47.2502 33.3106C46.6162 33.7503 46.6162 33.7503 45.999 34.2126C45.7047 34.4241 45.7047 34.4241 45.3052 34.6226C44.659 35.0071 44.195 35.3537 44.0019 36.0922C43.8541 37.2004 43.8984 38.3194 43.9194 39.4344C43.9202 39.7986 43.9203 40.1628 43.9196 40.527C43.9196 41.4833 43.9288 42.4394 43.9404 43.3957C43.9582 44.9281 43.9594 46.4607 43.9627 47.9933C43.9651 48.5283 43.9711 49.0632 43.9776 49.5982C43.98 49.9256 43.9823 50.2531 43.9846 50.5805C43.9873 50.7292 43.9901 50.8779 43.9929 51.0311C43.9975 52.3044 43.9975 52.3044 43.5074 52.8812C43.0491 53.1103 42.6935 53.0799 42.189 53.0277C41.8147 52.7137 41.6269 52.4586 41.5555 51.9689C41.5415 51.5521 41.548 51.1397 41.5603 50.7228C41.5637 50.4851 41.5637 50.4851 41.5671 50.2425C41.5721 49.8985 41.5784 49.5545 41.5856 49.2105C41.5963 48.6647 41.6019 48.1191 41.6057 47.5732C41.6168 46.0213 41.6306 44.4697 41.6638 42.918C41.6838 41.9682 41.6921 41.019 41.6931 40.069C41.6956 39.7082 41.7024 39.3475 41.7136 38.987C41.8424 36.9029 41.8424 36.9029 40.9575 35.1123C40.4797 34.6866 39.9701 34.3396 39.418 34.0179C39.0159 33.7811 38.6384 33.5143 38.2575 33.2451C37.8196 32.9399 37.368 32.6565 36.9156 32.3734C36.8252 32.3168 36.7347 32.2602 36.6416 32.2018C36.0072 31.8078 35.365 31.4286 34.7183 31.055C34.5574 30.9606 34.3966 30.8662 34.2308 30.7689C31.7943 29.4004 29.1153 28.3684 26.4342 27.5934C25.7165 27.3744 25.3028 27.1909 24.9039 26.514C24.7928 25.9217 24.8546 25.7098 25.1877 25.2048C25.8177 24.7805 26.2312 24.9084 26.9546 25.0491C27.5006 25.1896 28.0324 25.3619 28.566 25.5435C28.7181 25.595 28.8701 25.6465 29.0268 25.6996C33.7645 27.3455 38.6389 29.7843 42.3407 33.2374C42.4356 33.2906 42.5306 33.3439 42.6285 33.3988C43.2346 33.2218 43.6348 32.9081 44.1088 32.4998C48.2406 29.0425 62.7612 20.3015 68.4509 23.6335Z" fill="#010101"/>
<path d="M27.3914 35.156C27.9527 35.52 28.4802 35.9106 29.0027 36.3279C29.1251 36.4208 29.2474 36.5137 29.3735 36.6094C32.6022 39.1007 34.7775 42.4566 35.5384 46.4731C35.6162 47.2335 35.6215 47.9877 35.622 48.7516C35.6238 48.9024 35.6256 49.0531 35.6274 49.2085C35.6277 49.3578 35.628 49.507 35.6283 49.6608C35.6289 49.7939 35.6295 49.927 35.6301 50.0641C35.5809 50.7173 35.43 51.3593 35.3015 52.0017C26.3103 52.0017 17.3191 52.0017 8.05546 52.0017C7.70901 49.7498 7.70901 49.7498 7.71671 48.8157C7.71754 48.7051 7.71837 48.5946 7.71922 48.4807C7.791 45.0659 9.05893 41.8514 11.2781 39.2576C11.3755 39.1407 11.473 39.0238 11.5734 38.9034C13.8669 36.2428 17.0549 34.2929 20.3052 33.0137C20.3988 32.9756 20.4923 32.9375 20.5887 32.8982C22.6759 32.123 25.6196 34.1196 27.3914 35.156Z" fill="#F5C50B"/>
<path d="M6.88281 16.8457C10.2183 16.8457 13.5537 16.8457 16.9902 16.8457C16.9902 21.873 16.9902 26.9004 16.9902 32.0801C15.9751 32.6602 15.9751 32.6602 14.9395 33.252C11.5192 35.5214 8.87386 38.0711 7.0293 41.748C6.98096 41.748 6.93262 41.748 6.88281 41.748C6.88281 33.5303 6.88281 25.3125 6.88281 16.8457Z" fill="#FCFCFC"/>
<path d="M4.6875 54.3457C15.5156 54.3457 26.3437 54.3457 37.5 54.3457C37.5 55.9893 37.5 57.6328 37.5 59.3262C26.6719 59.3262 15.8438 59.3262 4.6875 59.3262C4.6875 57.6826 4.6875 56.0391 4.6875 54.3457Z" fill="#FBFBFB"/>
<path d="M70.3145 31.3477C70.3145 41.8857 70.3145 52.4238 70.3145 63.2812C67.9216 63.5713 67.9216 63.5713 65.4805 63.8672C59.0955 64.8843 52.8148 66.6715 47.0738 69.7054C46.7305 69.873 46.7305 69.873 46.4375 69.873C46.2441 69.4863 46.0508 69.0996 45.8516 68.7012C49.5818 66.0297 53.8421 64.0744 58.1562 62.5488C58.291 62.5009 58.4258 62.453 58.5646 62.4036C60.9442 61.5699 63.3649 60.9894 65.8238 60.4488C65.9236 60.4268 66.0234 60.4048 66.1263 60.3821C66.5429 60.2907 66.9595 60.2024 67.3785 60.1225C67.6762 60.0647 67.9707 59.9905 68.2637 59.9121C68.6201 59.3775 68.5991 58.9812 68.5974 58.3632C68.5987 58.1922 68.5987 58.1922 68.6 58.0177C68.6025 57.6344 68.6029 57.2511 68.6033 56.8679C68.6047 56.5936 68.6062 56.3193 68.6078 56.0451C68.6118 55.2994 68.614 54.5537 68.6159 53.808C68.6182 53.0291 68.6221 52.2502 68.6259 51.4714C68.6328 49.9959 68.6381 48.5205 68.643 47.0451C68.6486 45.3656 68.6558 43.6861 68.6632 42.0066C68.6783 38.5513 68.6914 35.096 68.7031 31.6406C68.9167 31.5914 69.1303 31.5427 69.344 31.4941C69.5224 31.4534 69.5224 31.4534 69.7045 31.4117C70.0215 31.3477 70.0215 31.3477 70.3145 31.3477Z" fill="#1D8E5A"/>
<path d="M14.0625 61.6699C15.8786 61.6399 17.6944 61.6158 19.5107 61.6016C20.3544 61.5948 21.1979 61.5855 22.0415 61.5704C22.8584 61.5559 23.6751 61.5482 24.492 61.5448C24.8009 61.5424 25.1098 61.5377 25.4187 61.5305C27.6302 61.481 29.3152 61.8739 31.312 62.8312C31.7546 63.0427 32.2041 63.2346 32.6551 63.4271C32.9184 63.5457 33.1815 63.6649 33.4442 63.7848C33.5822 63.8462 33.7201 63.9077 33.8622 63.971C33.9926 64.0302 34.123 64.0894 34.2573 64.1504C34.371 64.2018 34.4848 64.2533 34.602 64.3063C34.8633 64.4531 34.8633 64.4531 35.0098 64.7461C35.0219 64.9092 35.0339 65.0724 35.0464 65.2404C35.1851 65.9108 35.3338 65.9716 35.8887 66.3574C36.3408 66.633 36.8005 66.8942 37.262 67.1539C38.1088 67.6309 38.9164 68.1213 39.6973 68.7011C39.5039 69.0879 39.3105 69.4746 39.1113 69.873C38.3646 69.6477 37.6935 69.328 36.9965 68.9849C32.9375 67.0298 28.5929 65.5362 24.1791 64.6362C23.9527 64.5898 23.9527 64.5898 23.7217 64.5425C22.2722 64.2494 22.2722 64.2494 20.8008 64.1601C20.4042 64.4339 20.279 64.6178 20.0684 65.039C18.0657 64.85 16.0639 64.6547 14.0625 64.4531C14.0625 63.5346 14.0625 62.6162 14.0625 61.6699Z" fill="#1D8E5A"/>
<path d="M12.9765 7.8378C13.1628 7.93585 13.3478 8.03649 13.5315 8.13935C13.6769 8.2197 13.6769 8.2197 13.8253 8.30168C15.3924 9.19021 16.3819 10.3413 17.1295 11.9937C17.2852 12.598 17.2852 12.598 17.2852 14.5023C13.8047 14.5023 10.3242 14.5023 6.73828 14.5023C6.73828 12.432 7.05877 11.0438 8.45833 9.54068C9.63715 8.44256 11.3383 7.15077 12.9765 7.8378Z" fill="#F5C50B"/>
<path d="M42.627 68.1152C42.7236 68.1152 42.8203 68.1152 42.9199 68.1152C43.0916 68.4261 43.2623 68.7374 43.4326 69.0491C43.4815 69.1374 43.5304 69.2258 43.5808 69.3169C43.9453 69.9863 43.9453 69.9863 43.9453 70.3125C43.1719 70.3125 42.3984 70.3125 41.6016 70.3125C41.8054 69.701 41.9684 69.259 42.2791 68.7195C42.3444 68.6051 42.4097 68.4906 42.477 68.3727C42.5265 68.2878 42.576 68.2028 42.627 68.1152Z" fill="#1D8E5A"/>
</svg>
