<svg width="100" height="100" viewBox="0 0 100 100" fill="none" xmlns="http://www.w3.org/2000/svg">
<g clip-path="url(#clip0_1254_170)">
<path d="M28.4633 -0.0289809C28.6583 -0.0303784 28.8533 -0.0317759 29.0541 -0.0332158C29.2688 -0.0337409 29.4835 -0.0342661 29.7047 -0.0348072C29.9302 -0.0360906 30.1557 -0.0373741 30.3881 -0.0386964C31.1368 -0.0425568 31.8854 -0.0448295 32.6341 -0.0467758C32.8892 -0.0475718 33.1443 -0.0483678 33.4071 -0.0491879C34.6175 -0.0529088 35.8278 -0.0556885 37.0381 -0.0573153C38.4357 -0.0592248 39.8333 -0.0643676 41.2309 -0.0722569C42.3109 -0.0781443 43.3909 -0.0810393 44.4709 -0.0816866C45.1161 -0.082146 45.7612 -0.0842844 46.4064 -0.0888079C47.1261 -0.093541 47.8457 -0.093389 48.5654 -0.0920277C48.7793 -0.0945296 48.9932 -0.0970316 49.2136 -0.0996094C49.4097 -0.0982532 49.6057 -0.0968969 49.8077 -0.0954996C49.9779 -0.0959661 50.1481 -0.0964326 50.3234 -0.0969132C50.9346 0.0320959 51.168 0.308835 51.5627 0.781013C51.783 1.22157 51.7846 1.46374 51.7889 1.95268C51.7918 2.19753 51.7918 2.19753 51.7947 2.44732C51.7958 2.62672 51.7969 2.80613 51.7981 2.99096C51.8 3.17961 51.802 3.36827 51.804 3.56263C51.8101 4.18826 51.815 4.81389 51.8198 5.43952C51.8238 5.87248 51.8279 6.30544 51.8321 6.7384C51.8429 7.87955 51.8525 9.0207 51.8619 10.1619C51.8717 11.3257 51.8826 12.4895 51.8934 13.6533C51.9144 15.9381 51.9342 18.2228 51.9533 20.5076C52.0594 20.4179 52.1656 20.3282 52.2749 20.2358C52.7949 19.8804 53.2303 19.743 53.8385 19.582C54.063 19.5216 54.2876 19.4613 54.5189 19.3991C54.7639 19.3351 55.009 19.2711 55.2614 19.2052C55.5219 19.1359 55.7823 19.0664 56.0427 18.9967C56.7463 18.8089 57.4504 18.6233 58.1547 18.4382C58.8892 18.2448 59.6232 18.0496 60.3573 17.8545C61.2646 17.6136 62.1719 17.3728 63.0795 17.133C64.9991 16.6255 66.9168 16.1114 68.833 15.5915C69.6406 15.3725 70.4484 15.1544 71.2563 14.9364C71.8957 14.7637 72.535 14.5905 73.1739 14.416C73.8829 14.2228 74.5925 14.0316 75.3023 13.841C75.5101 13.7838 75.7178 13.7266 75.9319 13.6677C78.2553 13.0487 78.2553 13.0487 79.3103 13.4251C80.6859 14.3238 81.0053 17.7724 81.4058 19.3288C81.4968 19.679 81.5878 20.0292 81.6789 20.3793C81.8741 21.1303 82.0687 21.8814 82.2628 22.6327C82.5737 23.8364 82.8861 25.0397 83.1987 26.243C83.5804 27.7124 83.9617 29.1818 84.3426 30.6514C85.0073 33.2158 85.6745 35.7795 86.3436 38.3428C86.3914 38.5263 86.4393 38.7097 86.4887 38.8988C86.7295 39.8212 86.9703 40.7436 87.2111 41.6661C87.6495 43.3449 88.0874 45.0239 88.5253 46.7029C88.7695 47.6391 89.0138 48.5753 89.258 49.5115C89.3556 49.8858 89.4533 50.2602 89.551 50.6345C89.5993 50.8198 89.6476 51.0051 89.6974 51.1961C90.1369 52.8806 90.1369 52.8806 90.2834 53.4422C90.381 53.8165 90.4787 54.1908 90.5763 54.5651C90.8206 55.5017 91.065 56.4383 91.3093 57.3749C91.7465 59.0507 92.1837 60.7266 92.6209 62.4024C92.862 63.3267 93.1032 64.2511 93.3443 65.1754C93.3922 65.3589 93.44 65.5423 93.4893 65.7314C94.1632 68.3146 94.8369 70.8978 95.5105 73.4811C95.8899 74.9361 96.2693 76.3911 96.6487 77.8461C96.9575 79.0299 97.2661 80.2138 97.5747 81.3977C97.7656 82.1299 97.9566 82.8622 98.1476 83.5944C98.2354 83.9311 98.3231 84.2677 98.4109 84.6043C98.4927 84.9185 98.5746 85.2327 98.6566 85.5469C98.7339 85.8432 98.8111 86.1396 98.8883 86.436C99.0705 87.1348 99.2556 87.8326 99.4467 88.529C99.4829 88.6616 99.519 88.7943 99.5563 88.931C99.654 89.288 99.7527 89.6447 99.8515 90.0015C100.049 90.8313 100.255 91.7462 100 92.5779C99.1082 93.5229 97.9513 93.7118 96.7371 94.0244C96.36 94.1249 95.9829 94.2254 95.6059 94.3261C95.177 94.4404 94.7479 94.5535 94.3187 94.6667C93.2614 94.9466 92.2063 95.2349 91.1513 95.5236C89.2969 96.0309 87.4417 96.5349 85.5856 97.0361C84.505 97.3281 83.4246 97.621 82.3448 97.916C81.2826 98.2062 80.2199 98.4939 79.1567 98.78C78.7563 98.8882 78.3561 98.9972 77.9562 99.1071C77.3998 99.2598 76.8426 99.4095 76.2852 99.5584C76.124 99.6034 75.9627 99.6485 75.7966 99.6948C74.5773 100.015 73.1301 100.385 71.9826 99.7243C71.5363 98.9787 71.3424 98.2145 71.1331 97.3753C71.0845 97.1894 71.0358 97.0035 70.9857 96.812C70.8255 96.197 70.669 95.5811 70.5126 94.9651C70.4003 94.5313 70.2877 94.0974 70.1749 93.6637C69.9419 92.7661 69.7104 91.8682 69.4802 90.9699C69.167 89.7482 68.8497 88.5276 68.5306 87.3074C67.9785 85.1944 67.4297 83.0805 66.8815 80.9664C66.3829 79.0443 65.8834 77.1224 65.3841 75.2004C65.3283 74.9856 65.2725 74.7709 65.215 74.5496C64.0783 70.1738 62.9363 65.7994 61.7922 61.4255C61.7007 61.0757 61.6091 60.7258 61.5176 60.3759C61.4723 60.2027 61.427 60.0295 61.3803 59.851C61.1509 58.9738 60.9214 58.0967 60.692 57.2195C60.6466 57.0458 60.6012 56.8721 60.5543 56.6931C59.8188 53.8807 59.0847 51.0679 58.3513 48.2549C58.2479 47.8582 58.1444 47.4615 58.041 47.0648C57.6041 45.389 57.1672 43.7132 56.7307 42.0373C55.6083 37.7295 54.4795 33.4234 53.3461 29.1184C53.2102 28.6022 53.0743 28.086 52.9384 27.5697C52.6101 26.3225 52.2817 25.0752 51.9533 23.8279C51.953 24.0654 51.953 24.0654 51.9527 24.3077C51.9414 33.6857 51.9269 43.0637 51.9086 52.4417C51.9064 53.567 51.9042 54.6924 51.902 55.8177C51.9016 56.0417 51.9012 56.2658 51.9007 56.4966C51.8938 60.1271 51.889 63.7575 51.8849 67.388C51.8806 71.1115 51.8742 74.835 51.8657 78.5585C51.8605 80.8572 51.857 83.1559 51.8558 85.4547C51.8547 87.0297 51.8516 88.6047 51.8467 90.1798C51.844 91.0893 51.8422 91.9988 51.8429 92.9083C51.8436 93.7405 51.8416 94.5726 51.8374 95.4047C51.8364 95.7063 51.8364 96.0078 51.8374 96.3093C51.8387 96.7184 51.8364 97.1273 51.8331 97.5364C51.8328 97.7639 51.8324 97.9913 51.832 98.2257C51.7496 98.8965 51.5734 99.2656 51.1721 99.8045C50.719 100.031 50.4591 100.025 49.9547 100.026C49.7802 100.027 49.6057 100.028 49.426 100.029C49.2331 100.029 49.0402 100.029 48.8415 100.029C48.6376 100.029 48.4336 100.03 48.2235 100.031C47.5355 100.033 46.8476 100.034 46.1596 100.034C45.6682 100.036 45.1768 100.037 44.6855 100.038C43.2077 100.042 41.7299 100.044 40.2521 100.046C39.5567 100.047 38.8612 100.048 38.1657 100.049C35.8545 100.052 33.5434 100.055 31.2323 100.056C30.6324 100.057 30.0325 100.057 29.4326 100.057C29.2835 100.058 29.1344 100.058 28.9807 100.058C26.5639 100.059 24.1471 100.064 21.7303 100.071C19.2504 100.077 16.7706 100.081 14.2907 100.081C12.8977 100.082 11.5048 100.083 10.1119 100.088C8.80215 100.093 7.49247 100.094 6.18272 100.092C5.70117 100.092 5.21961 100.093 4.73807 100.096C4.0823 100.099 3.42671 100.098 2.77094 100.095C2.48293 100.098 2.48293 100.098 2.18911 100.102C2.01362 100.1 1.83814 100.098 1.65734 100.096C1.43027 100.097 1.43027 100.097 1.19861 100.097C0.585944 99.9542 0.367195 99.7264 0.000177829 99.2185C-0.0979759 98.5778 -0.0979772 98.5778 -0.0986824 97.7982C-0.0998764 97.6542 -0.10107 97.5101 -0.1023 97.3617C-0.105361 96.8763 -0.102828 96.3911 -0.100342 95.9057C-0.101382 95.5553 -0.102761 95.2048 -0.104452 94.8544C-0.108104 93.8894 -0.106854 92.9244 -0.104813 91.9593C-0.103451 90.9193 -0.10657 89.8794 -0.10911 88.8394C-0.113344 86.8013 -0.113312 84.7632 -0.111724 82.725C-0.110495 81.0689 -0.110713 79.4129 -0.111971 77.7568C-0.112147 77.5214 -0.112323 77.286 -0.112505 77.0434C-0.112866 76.5653 -0.11323 76.0871 -0.113596 75.6089C-0.116836 71.1213 -0.115128 66.6337 -0.11184 62.1462C-0.108969 58.0377 -0.111828 53.9293 -0.117461 49.8208C-0.123197 45.6055 -0.125344 41.3903 -0.123478 37.175C-0.123278 36.6985 -0.123086 36.2219 -0.122897 35.7454C-0.122804 35.511 -0.12271 35.2765 -0.122614 35.0349C-0.12219 33.3804 -0.12411 31.7259 -0.126953 30.0714C-0.130369 28.0557 -0.130362 26.04 -0.125907 24.0243C-0.123724 22.9953 -0.123127 21.9664 -0.126747 20.9374C-0.130016 19.9961 -0.128809 19.0549 -0.123973 18.1136C-0.123014 17.7724 -0.123715 17.4312 -0.126214 17.09C-0.129358 16.6273 -0.126532 16.1651 -0.12217 15.7024C-0.122117 15.4451 -0.122063 15.1878 -0.122009 14.9227C0.0311497 14.089 0.320028 13.8 0.97674 13.281C1.49649 13.1608 1.49649 13.1608 2.06552 13.1636C2.28214 13.1622 2.49877 13.1609 2.72196 13.1595C2.9577 13.163 3.19343 13.1665 3.43631 13.1701C3.68601 13.17 3.93571 13.1699 4.19297 13.1697C4.87615 13.1694 5.55916 13.1752 6.2423 13.182C6.95678 13.1881 7.67127 13.1887 8.38577 13.1898C9.73809 13.1929 11.0903 13.2009 12.4426 13.2107C13.9824 13.2216 15.5222 13.227 17.0621 13.2319C20.229 13.2421 23.3958 13.2592 26.5627 13.281C26.5607 13.0567 26.5607 13.0567 26.5587 12.8279C26.547 11.4169 26.5381 10.006 26.5323 8.59501C26.5293 7.86965 26.5251 7.14433 26.5185 6.41899C26.5121 5.71868 26.5086 5.0184 26.5071 4.31806C26.506 4.0512 26.5039 3.78434 26.5007 3.5175C26.4965 3.14305 26.4962 2.76857 26.4962 2.39411C26.4942 2.07468 26.4942 2.07468 26.4922 1.74879C26.5725 1.09105 26.7572 0.725016 27.1486 0.195076C27.6243 -0.0427894 27.9315 -0.0263699 28.4633 -0.0289809ZM30.0783 3.51539C30.0783 5.64234 30.0783 7.76929 30.0783 9.9607C36.0724 9.9607 42.0666 9.9607 48.2424 9.9607C48.2424 7.83375 48.2424 5.70679 48.2424 3.51539C42.2482 3.51539 36.2541 3.51539 30.0783 3.51539ZM30.0783 13.4763C30.0783 15.0232 30.0783 16.5701 30.0783 18.1638C36.0724 18.1638 42.0666 18.1638 48.2424 18.1638C48.2424 16.617 48.2424 15.0701 48.2424 13.4763C42.2482 13.4763 36.2541 13.4763 30.0783 13.4763ZM3.5158 16.7966C3.5158 18.3435 3.5158 19.8904 3.5158 21.4841C11.1213 21.4841 18.7267 21.4841 26.5627 21.4841C26.5627 19.9373 26.5627 18.3904 26.5627 16.7966C18.9572 16.7966 11.3517 16.7966 3.5158 16.7966ZM75.1066 17.56C74.8844 17.6196 74.8844 17.6196 74.6577 17.6804C74.1651 17.8126 73.6728 17.9459 73.1806 18.0791C72.8345 18.1723 72.4884 18.2653 72.1424 18.3583C71.2261 18.6047 70.3101 18.852 69.3942 19.0994C68.4822 19.3457 67.57 19.5911 66.6578 19.8366C65.0923 20.258 63.5269 20.68 61.9617 21.1025C60.4713 21.5047 58.9806 21.9061 57.49 22.3074C57.2796 22.364 57.0692 22.4206 56.8525 22.4789C56.3913 22.6031 55.9301 22.7272 55.4689 22.8513C55.9361 24.8975 56.4434 26.9249 57.016 28.9443C57.0856 29.1895 57.1551 29.4347 57.2267 29.6873C59.7832 29.1065 62.3141 28.4458 64.8447 27.7616C65.2472 27.6532 65.6497 27.5448 66.0522 27.4365C67.1 27.1544 68.1476 26.8717 69.1952 26.5889C70.2689 26.2991 71.3427 26.01 72.4165 25.7207C74.5149 25.1555 76.613 24.5896 78.7111 24.0232C78.6821 23.7441 78.6525 23.465 78.6227 23.1859C78.6063 23.0305 78.5899 22.8751 78.573 22.7149C78.4975 22.1214 78.3569 21.5592 78.1977 20.9829C78.1366 20.7594 78.0756 20.536 78.0126 20.3058C77.9491 20.0783 77.8855 19.8508 77.82 19.6165C77.7557 19.3822 77.6913 19.1479 77.6251 18.9065C77.4674 18.3331 77.3086 17.76 77.1486 17.1873C76.4283 17.1873 75.7958 17.3723 75.1066 17.56ZM30.0783 21.6795C30.0783 40.8865 30.0783 60.0935 30.0783 79.8826C36.0724 79.8826 42.0666 79.8826 48.2424 79.8826C48.2424 60.6755 48.2424 41.4685 48.2424 21.6795C42.2482 21.6795 36.2541 21.6795 30.0783 21.6795ZM3.5158 24.9998C3.5158 41.4998 3.5158 57.9998 3.5158 74.9998C11.1213 74.9998 18.7267 74.9998 26.5627 74.9998C26.5627 58.4998 26.5627 41.9998 26.5627 24.9998C18.9572 24.9998 11.3517 24.9998 3.5158 24.9998ZM78.6983 27.5176C78.5321 27.5611 78.3659 27.6047 78.1947 27.6495C77.9206 27.7236 77.9206 27.7236 77.641 27.7992C77.4488 27.85 77.2566 27.9008 77.0586 27.9531C76.4202 28.1222 75.7823 28.2932 75.1444 28.4643C74.7016 28.582 74.2588 28.6995 73.8159 28.817C72.647 29.1274 71.4786 29.4395 70.3102 29.7519C69.1248 30.0685 67.939 30.3834 66.7532 30.6985C65.018 31.16 63.2829 31.6219 61.5483 32.0854C61.3675 32.1336 61.1868 32.1818 61.0005 32.2315C60.0655 32.4816 59.1331 32.7385 58.2033 33.0076C58.264 33.3494 58.3251 33.6912 58.3864 34.033C58.4204 34.2233 58.4544 34.4136 58.4894 34.6097C58.5752 35.0581 58.6763 35.4954 58.7892 35.9373C61.3416 35.3556 63.8717 34.7022 66.4003 34.0253C66.5974 33.9727 66.7945 33.92 66.9976 33.8657C68.0352 33.5885 69.0726 33.3107 70.1098 33.0324C71.1811 32.745 72.2528 32.4597 73.3247 32.1747C74.1513 31.9546 74.9776 31.7331 75.8037 31.5112C76.1992 31.4052 76.5948 31.2998 76.9905 31.1949C77.5397 31.0492 78.0883 30.9015 78.6367 30.7534C78.8007 30.7103 78.9646 30.6673 79.1335 30.623C79.517 30.5183 79.896 30.3974 80.2736 30.2732C80.563 29.6944 80.3681 29.3167 80.2126 28.6985C80.161 28.4868 80.1094 28.275 80.0562 28.0569C79.7791 27.228 79.4505 27.3173 78.6983 27.5176ZM80.2608 33.7911C80.0946 33.8349 79.9284 33.8787 79.7572 33.9238C79.4831 33.9969 79.4831 33.9969 79.2035 34.0714C79.0113 34.1222 78.8191 34.173 78.6211 34.2254C77.9829 34.3942 77.3449 34.5638 76.7069 34.7333C76.2641 34.8507 75.8212 34.968 75.3784 35.0852C74.4485 35.3316 73.5187 35.5782 72.589 35.8251C71.3986 36.1412 70.2081 36.4568 69.0175 36.7722C67.8819 37.073 66.7463 37.3741 65.6107 37.6752C65.3943 37.7326 65.178 37.7899 64.9551 37.849C64.3403 38.0121 63.7255 38.1753 63.1108 38.3385C62.93 38.3864 62.7493 38.4343 62.563 38.4837C61.6277 38.7323 60.6953 38.9882 59.7658 39.2576C60.3674 41.8832 61.032 44.4907 61.7098 47.0975C61.8229 47.5337 61.936 47.97 62.0491 48.4062C62.3489 49.5624 62.6492 50.7185 62.9497 51.8746C63.1353 52.5891 63.3209 53.3037 63.5063 54.0184C64.9682 59.6504 66.4323 65.2819 67.9079 70.9104C67.9722 71.1558 68.0365 71.4012 68.1027 71.654C68.2784 72.324 68.4543 72.9939 68.6304 73.6639C68.6804 73.8545 68.7304 74.0451 68.7819 74.2414C68.827 74.4126 68.8721 74.5839 68.9186 74.7602C68.9764 74.9803 68.9764 74.9803 69.0355 75.2049C69.1254 75.5301 69.2294 75.8515 69.3361 76.1716C70.6583 75.9215 71.9585 75.6223 73.2587 75.2767C73.4448 75.2278 73.6308 75.1788 73.8225 75.1283C74.4306 74.9681 75.0385 74.807 75.6464 74.6458C76.0713 74.5334 76.4963 74.421 76.9212 74.3087C77.8083 74.074 78.6953 73.8388 79.5822 73.6034C80.7198 73.3014 81.8579 73.0011 82.9961 72.7011C83.872 72.4699 84.7478 72.2378 85.6234 72.0054C86.0431 71.8941 86.4629 71.7832 86.8828 71.6727C87.4679 71.5186 88.0527 71.3631 88.6373 71.2072C88.8111 71.1617 88.9849 71.1163 89.164 71.0694C89.323 71.0267 89.482 70.984 89.6459 70.94C89.853 70.8851 89.853 70.8851 90.0643 70.8292C90.4872 70.7003 90.4872 70.7003 91.0158 70.3123C90.2268 67.2686 89.4374 64.2249 88.6476 61.1814C88.5887 60.9542 88.5297 60.727 88.469 60.4929C86.7415 53.8357 85.0083 47.18 83.2643 40.5271C83.2175 40.3483 83.1706 40.1695 83.1223 39.9853C82.5638 37.8546 82.0048 35.724 81.4455 33.5935C81.0134 33.5935 80.6788 33.6803 80.2608 33.7911ZM90.1211 74.2269C89.9475 74.272 89.7739 74.3172 89.595 74.3637C89.4071 74.414 89.2191 74.4642 89.0255 74.5159C88.8256 74.5683 88.6258 74.6207 88.4199 74.6747C87.76 74.8481 87.1006 75.0234 86.4412 75.1989C85.9833 75.3201 85.5254 75.4413 85.0674 75.5625C84.1084 75.8166 83.1496 76.0718 82.191 76.3275C80.9597 76.6558 79.7275 76.9807 78.4951 77.3047C77.5497 77.5539 76.6049 77.8052 75.6602 78.0572C75.2059 78.178 74.7515 78.298 74.2968 78.4172C73.6629 78.5836 73.03 78.7531 72.3972 78.9234C72.2077 78.9724 72.0182 79.0215 71.8229 79.072C71.6515 79.1188 71.4801 79.1656 71.3035 79.2139C71.1537 79.2537 71.0039 79.2934 70.8496 79.3344C70.7369 79.3864 70.6241 79.4384 70.508 79.492C70.2528 80.2575 70.4227 80.6412 70.6354 81.4168C70.6704 81.5461 70.7053 81.6753 70.7413 81.8084C70.8533 82.2208 70.9675 82.6325 71.0817 83.0442C71.158 83.3238 71.2342 83.6034 71.3102 83.883C71.4968 84.5683 71.6855 85.2529 71.8752 85.9373C73.1973 85.6872 74.4975 85.388 75.7978 85.0423C75.9838 84.9934 76.1698 84.9444 76.3615 84.894C76.9697 84.7337 77.5776 84.5726 78.1855 84.4114C78.6104 84.299 79.0353 84.1866 79.4603 84.0743C80.3474 83.8396 81.2343 83.6045 82.1212 83.369C83.2589 83.0671 84.3969 82.7667 85.5351 82.4667C86.4111 82.2355 87.2868 82.0034 88.1625 81.771C88.5822 81.6597 89.002 81.5488 89.4219 81.4383C90.007 81.2842 90.5917 81.1287 91.1764 80.9728C91.4371 80.9046 91.4371 80.9046 91.703 80.835C91.8621 80.7923 92.0211 80.7496 92.185 80.7056C92.323 80.6691 92.4611 80.6325 92.6034 80.5948C93.0262 80.4659 93.0262 80.4659 93.5549 80.0779C93.0392 78.0798 92.5236 76.0818 91.9924 74.0232C91.2511 74.0232 90.8054 74.0465 90.1211 74.2269ZM3.5158 78.5154C3.5158 80.0623 3.5158 81.6091 3.5158 83.2029C11.1213 83.2029 18.7267 83.2029 26.5627 83.2029C26.5627 81.656 26.5627 80.1091 26.5627 78.5154C18.9572 78.5154 11.3517 78.5154 3.5158 78.5154ZM30.0783 83.3982C30.0783 84.4295 30.0783 85.4607 30.0783 86.5232C36.0724 86.5232 42.0666 86.5232 48.2424 86.5232C48.2424 85.492 48.2424 84.4607 48.2424 83.3982C42.2482 83.3982 36.2541 83.3982 30.0783 83.3982ZM92.6602 83.9925C92.4866 84.0377 92.313 84.0828 92.1341 84.1294C91.9461 84.1796 91.7582 84.2298 91.5645 84.2815C91.3647 84.3339 91.1648 84.3863 90.9589 84.4403C90.299 84.6138 89.6396 84.789 88.9803 84.9645C88.5224 85.0858 88.0644 85.207 87.6065 85.3281C86.6474 85.5823 85.6887 85.8374 84.73 86.0931C83.4987 86.4214 82.2666 86.7463 81.0342 87.0703C80.0887 87.3195 79.1439 87.5708 78.1993 87.8229C77.745 87.9437 77.2905 88.0637 76.8358 88.1828C76.202 88.3492 75.5691 88.5187 74.9363 88.689C74.7468 88.7381 74.5572 88.7871 74.362 88.8376C74.1905 88.8844 74.0191 88.9313 73.8425 88.9795C73.6927 89.0193 73.543 89.0591 73.3886 89.1001C73.2759 89.152 73.1632 89.204 73.0471 89.2576C72.7999 89.9992 72.9767 90.4978 73.1745 91.2252C73.2094 91.3588 73.2444 91.4923 73.2804 91.6299C73.3923 92.0562 73.5065 92.4818 73.6208 92.9075C73.6971 93.1965 73.7733 93.4855 73.8493 93.7746C74.0359 94.4829 74.2245 95.1907 74.4142 95.8982C75.0403 96.1013 75.433 96.0804 76.0654 95.9107C76.2384 95.8652 76.4115 95.8198 76.5898 95.7729C76.7781 95.7214 76.9665 95.6699 77.1605 95.6168C77.4598 95.5373 77.4598 95.5373 77.7651 95.4562C78.4253 95.2803 79.0847 95.1018 79.7441 94.9232C80.2018 94.8006 80.6596 94.6782 81.1174 94.5559C82.0768 94.2992 83.036 94.0413 83.9949 93.7825C85.2262 93.4501 86.458 93.1197 87.69 92.79C88.8624 92.4763 90.0345 92.1617 91.2065 91.847C91.4314 91.7867 91.6563 91.7263 91.8879 91.6642C92.5217 91.4939 93.1553 91.3231 93.7888 91.1521C93.9779 91.1013 94.1671 91.0506 94.3619 90.9983C94.5339 90.9517 94.7059 90.9052 94.883 90.8572C95.0329 90.8168 95.1827 90.7764 95.3371 90.7347C95.716 90.6323 95.716 90.6323 96.0939 90.4295C95.8398 88.8956 95.4955 87.4019 95.093 85.9006C95.0388 85.6961 94.9847 85.4915 94.9289 85.2808C94.7972 84.7832 94.6647 84.2859 94.5314 83.7888C93.8671 83.7693 93.3022 83.8232 92.6602 83.9925ZM3.5158 86.7185C3.5158 89.9412 3.5158 93.1638 3.5158 96.4841C11.1213 96.4841 18.7267 96.4841 26.5627 96.4841C26.5627 93.2615 26.5627 90.0388 26.5627 86.7185C18.9572 86.7185 11.3517 86.7185 3.5158 86.7185ZM30.0783 90.0388C30.0783 92.1658 30.0783 94.2927 30.0783 96.4841C36.0724 96.4841 42.0666 96.4841 48.2424 96.4841C48.2424 94.3572 48.2424 92.2302 48.2424 90.0388C42.2482 90.0388 36.2541 90.0388 30.0783 90.0388Z" fill="white"/>
<path d="M9.15001 29.8518C9.28757 29.8509 9.42512 29.8499 9.56684 29.8489C10.0229 29.846 10.479 29.8447 10.9351 29.8436C11.2518 29.8425 11.5686 29.8414 11.8854 29.8403C12.5502 29.8382 13.215 29.8371 13.8798 29.8364C14.7309 29.8353 15.5821 29.8306 16.4332 29.8251C17.0879 29.8214 17.7425 29.8204 18.3971 29.8201C18.7109 29.8195 19.0246 29.8179 19.3384 29.8154C19.7778 29.812 20.2172 29.8124 20.6567 29.8137C20.9066 29.813 21.1566 29.8123 21.4141 29.8115C22.128 29.8896 22.4874 30.0245 23.0467 30.4692C23.5431 31.138 23.4881 31.8209 23.491 32.6325C23.492 32.7701 23.493 32.9077 23.494 33.0495C23.4967 33.5035 23.4965 33.9574 23.4961 34.4113C23.4968 34.7276 23.4977 35.0438 23.4986 35.36C23.5001 36.0224 23.5 36.6849 23.499 37.3474C23.4979 38.1955 23.5012 39.0435 23.5057 39.8916C23.5086 40.5446 23.5088 41.1975 23.5081 41.8505C23.5082 42.1631 23.5093 42.4758 23.5112 42.7884C23.5136 43.226 23.5123 43.6634 23.5101 44.101C23.5102 44.3498 23.5103 44.5985 23.5104 44.8548C23.4319 45.557 23.2754 45.9258 22.8514 46.4849C22.2782 46.7715 21.698 46.714 21.0693 46.7178C20.9261 46.7194 20.7828 46.721 20.6352 46.7227C20.1601 46.7275 19.685 46.7308 19.2099 46.7336C19.0477 46.7346 18.8855 46.7357 18.7184 46.7367C17.86 46.742 17.0015 46.7457 16.143 46.7486C15.2563 46.7518 14.3698 46.7606 13.4832 46.7705C12.8014 46.7771 12.1196 46.7793 11.4378 46.7804C11.111 46.7817 10.7841 46.7847 10.4573 46.7894C9.99955 46.7956 9.54213 46.7956 9.08431 46.7941C8.94963 46.7973 8.81496 46.8005 8.6762 46.8038C7.97103 46.7947 7.6251 46.6859 7.04475 46.2761C6.5548 45.5823 6.50323 45.0627 6.51721 44.2425C6.51581 44.0989 6.51441 43.9552 6.51297 43.8072C6.50968 43.3342 6.51346 42.8616 6.51763 42.3886C6.51747 42.0591 6.51699 41.7296 6.51621 41.4C6.51565 40.7103 6.51852 40.0207 6.52388 39.3309C6.53054 38.4471 6.52936 37.5634 6.5257 36.6796C6.52364 35.9995 6.52539 35.3194 6.52832 34.6393C6.52933 34.3134 6.52924 33.9875 6.52802 33.6616C6.52695 33.2062 6.53093 32.7511 6.53628 32.2957C6.535 32.1612 6.53373 32.0268 6.53242 31.8882C6.54548 31.2337 6.60014 30.9105 7.01319 30.3917C7.74805 29.8285 8.22724 29.8568 9.15001 29.8518ZM10.1561 33.3989C10.1561 36.6216 10.1561 39.8442 10.1561 43.1645C13.3787 43.1645 16.6014 43.1645 19.9217 43.1645C19.9217 39.9419 19.9217 36.7192 19.9217 33.3989C16.6991 33.3989 13.4764 33.3989 10.1561 33.3989Z" fill="white"/>
</g>
<defs>
<clipPath id="clip0_1254_170">
<rect width="100" height="100" fill="white"/>
</clipPath>
</defs>
</svg>
