<svg width="512" height="512" viewBox="0 0 512 512" fill="none" xmlns="http://www.w3.org/2000/svg">
<path d="M82.7996 135.733C83.7933 135.728 84.7871 135.724 85.811 135.719C89.1443 135.706 92.4775 135.708 95.8108 135.71C98.1991 135.704 100.587 135.697 102.976 135.689C108.791 135.674 114.606 135.667 120.422 135.666C125.147 135.665 129.873 135.661 134.599 135.655C147.996 135.637 161.393 135.628 174.791 135.629C175.512 135.629 176.234 135.63 176.978 135.63C178.063 135.63 178.063 135.63 179.169 135.63C190.893 135.631 202.617 135.612 214.341 135.583C226.378 135.555 238.415 135.541 250.452 135.543C257.211 135.543 263.969 135.538 270.727 135.516C277.079 135.497 283.431 135.497 289.784 135.511C292.118 135.513 294.453 135.509 296.788 135.497C299.968 135.481 303.147 135.49 306.327 135.506C307.723 135.49 307.723 135.49 309.147 135.475C315.382 135.542 315.382 135.542 318.571 137.906C320.115 140.169 320.542 141.288 320.5 144C320.515 144.99 320.515 144.99 320.531 146C319.715 149.072 318.56 150.09 316 152C312.87 152.605 309.773 152.538 306.593 152.506C305.63 152.512 304.666 152.518 303.673 152.524C300.436 152.54 297.199 152.527 293.961 152.514C291.644 152.52 289.326 152.527 287.008 152.536C282.013 152.551 277.019 152.554 272.024 152.547C264.129 152.536 256.234 152.554 248.34 152.575C237.274 152.603 226.209 152.616 215.143 152.619C214.441 152.62 213.738 152.62 213.015 152.62C212.312 152.62 211.609 152.62 210.884 152.621C200.919 152.624 190.953 152.63 180.988 152.642C179.936 152.643 179.936 152.643 178.863 152.644C167.175 152.658 155.487 152.68 143.8 152.706C135.948 152.722 128.097 152.728 120.245 152.724C115.365 152.724 110.484 152.731 105.603 152.741C103.336 152.744 101.07 152.743 98.8028 152.738C95.7131 152.733 92.6236 152.739 89.5338 152.749C88.6329 152.744 87.7319 152.739 86.8036 152.735C80.6217 152.7 80.6217 152.7 75 155C72.36 159.23 72.7102 163.968 72.7215 168.802C72.7157 169.688 72.71 170.574 72.704 171.488C72.687 174.457 72.6841 177.426 72.6812 180.396C72.6719 182.525 72.6617 184.654 72.6507 186.782C72.6234 192.563 72.6083 198.343 72.5953 204.124C72.5797 210.164 72.5529 216.205 72.5273 222.245C72.4805 233.685 72.4437 245.124 72.4106 256.563C72.3724 269.586 72.323 282.609 72.2726 295.632C72.1693 322.421 72.0815 349.211 72 376C98.4 376 124.8 376 152 376C152.33 373.03 152.66 370.06 153 367C157.419 348.469 169.041 332.372 185 322C200.284 313.347 214.629 311.53 231.895 311.567C233.814 311.562 235.734 311.557 237.654 311.551C241.663 311.542 245.671 311.544 249.679 311.554C254.776 311.566 259.872 311.545 264.968 311.516C268.93 311.498 272.891 311.498 276.852 311.504C278.729 311.504 280.606 311.498 282.484 311.486C303.563 311.365 322.298 315.814 337.923 330.8C349.513 342.376 357.309 355.673 360 372C360 373.32 360 374.64 360 376C386.4 376 412.8 376 440 376C439.954 363.053 439.907 350.106 439.859 336.766C439.839 328.581 439.82 320.396 439.805 312.211C439.781 299.21 439.753 286.208 439.698 273.206C439.658 263.738 439.633 254.271 439.624 244.803C439.618 239.788 439.606 234.773 439.577 229.758C439.55 225.041 439.542 220.323 439.548 215.605C439.546 213.871 439.538 212.138 439.523 210.405C439.503 208.041 439.508 205.679 439.519 203.315C439.507 202.626 439.496 201.937 439.484 201.228C439.526 197.875 439.806 196.247 441.905 193.576C444.178 191.866 445.193 191.456 448 191.5C448.66 191.49 449.32 191.48 450 191.469C452.985 192.262 454.097 193.58 456 196C456.385 198.583 456.525 200.736 456.481 203.315C456.484 204.053 456.488 204.792 456.491 205.553C456.498 208.028 456.476 210.502 456.454 212.978C456.453 214.752 456.454 216.526 456.456 218.3C456.457 223.118 456.433 227.935 456.406 232.753C456.381 237.787 456.378 242.821 456.374 247.856C456.361 257.39 456.328 266.923 456.288 276.457C456.243 287.311 456.221 298.164 456.201 309.018C456.159 331.345 456.089 353.673 456 376C457.174 375.983 458.347 375.965 459.556 375.948C461.108 375.933 462.659 375.92 464.211 375.907C464.983 375.894 465.755 375.881 466.551 375.868C473.572 375.823 477.786 376.979 482.953 381.836C488.797 388.036 490.65 393.691 490.512 402.176C489.835 407.235 488.45 411.905 486.875 416.75C486.592 417.637 486.309 418.524 486.018 419.438C483.382 427.074 480.1 433.59 472.861 437.69C465.502 441.187 457.8 440.693 449.844 440.635C448.102 440.641 446.36 440.649 444.617 440.659C439.848 440.68 435.079 440.669 430.309 440.654C425.158 440.643 420.007 440.66 414.857 440.674C404.773 440.696 394.69 440.691 384.607 440.677C376.411 440.665 368.216 440.664 360.02 440.669C358.853 440.67 357.686 440.671 356.484 440.672C354.113 440.673 351.742 440.675 349.371 440.677C327.147 440.691 304.922 440.674 282.698 440.647C263.633 440.625 244.568 440.629 225.503 440.652C203.357 440.679 181.212 440.689 159.066 440.674C156.704 440.672 154.342 440.671 151.98 440.669C150.237 440.668 150.237 440.668 148.459 440.667C140.274 440.663 132.089 440.67 123.904 440.682C113.928 440.696 103.952 440.692 93.9762 440.665C88.8874 440.652 83.7988 440.647 78.7099 440.664C74.049 440.679 69.3886 440.67 64.7277 440.644C63.0442 440.638 61.3605 440.641 59.677 440.653C50.6575 440.713 42.5559 440.643 35 435C29.7984 429.769 27.3371 423.692 25.125 416.75C24.8262 415.824 24.5274 414.899 24.2195 413.945C21.3536 404.612 19.9938 396.05 24.5977 387.039C28.1979 381.805 32.9328 377.911 39 376C41.943 375.765 44.8627 375.811 47.8125 375.875C48.6008 375.884 49.389 375.893 50.2012 375.903C52.1343 375.926 54.0672 375.962 56 376C55.9963 374.858 55.9926 373.716 55.9888 372.54C55.9 344.756 55.8343 316.972 55.7928 289.188C55.7887 286.513 55.7845 283.839 55.7803 281.164C55.7792 280.499 55.7782 279.834 55.7771 279.149C55.7597 268.391 55.7282 257.633 55.6914 246.875C55.654 235.832 55.6321 224.79 55.6237 213.747C55.6184 207.546 55.6062 201.346 55.5771 195.145C55.5499 189.307 55.5416 183.47 55.5476 177.633C55.5465 175.491 55.5385 173.35 55.5232 171.209C55.5032 168.281 55.5081 165.355 55.519 162.428C55.5073 161.584 55.4957 160.739 55.4837 159.87C55.5519 153.084 57.4704 147.887 61.9649 142.758C62.6158 142.219 63.2668 141.68 63.9375 141.125C64.5859 140.571 65.2343 140.017 65.9024 139.446C71.379 135.672 76.3625 135.711 82.7996 135.733ZM182.684 346.383C176.519 353.658 171.735 361.792 169.923 371.203C169.749 372.102 169.574 373.001 169.394 373.927C169.264 374.611 169.134 375.295 169 376C169.632 376.006 170.265 376.012 170.916 376.018C177.486 376.082 184.055 376.166 190.625 376.263C193.078 376.296 195.531 376.324 197.984 376.347C201.507 376.38 205.029 376.432 208.551 376.489C210.201 376.498 210.201 376.498 211.884 376.508C212.905 376.528 213.926 376.547 214.978 376.568C215.877 376.579 216.776 376.59 217.703 376.602C220 377 220 377 223 380C223.495 385.94 223.495 385.94 224 392C245.12 392 266.24 392 288 392C288.33 388.04 288.66 384.08 289 380C292.326 376.674 292.632 376.622 297.022 376.568C298.043 376.548 299.064 376.528 300.116 376.508C301.216 376.502 302.316 376.495 303.449 376.489C304.577 376.471 305.705 376.453 306.867 376.434C310.474 376.38 314.08 376.346 317.688 376.313C320.131 376.28 322.574 376.245 325.018 376.209C331.012 376.124 337.006 376.056 343 376C342.549 374.104 342.092 372.21 341.633 370.317C341.252 368.734 341.252 368.734 340.864 367.12C336.734 352.206 326.072 341.533 313 334C300.66 327.908 286.622 327.692 273.125 327.735C271.744 327.733 270.362 327.731 268.981 327.729C266.11 327.726 263.24 327.73 260.369 327.74C256.732 327.751 253.095 327.744 249.458 327.732C246.613 327.725 243.768 327.727 240.923 327.733C238.943 327.735 236.964 327.729 234.985 327.722C214.749 327.826 197.252 331.397 182.684 346.383ZM40 395C37.7687 399.463 39.7201 405.065 41.0781 409.602C43.2189 417.139 43.2189 417.139 48 423C51.5976 424.214 55.078 424.127 58.8501 424.129C59.8881 424.132 59.8881 424.132 60.947 424.134C63.2769 424.139 65.6067 424.136 67.9366 424.134C69.6194 424.136 71.3023 424.138 72.9851 424.141C77.6182 424.147 82.2514 424.147 86.8845 424.146C91.8778 424.145 96.871 424.151 101.864 424.156C111.65 424.164 121.435 424.167 131.221 424.167C139.172 424.168 147.124 424.17 155.075 424.173C177.604 424.182 200.133 424.186 222.661 424.186C224.484 424.186 224.484 424.186 226.344 424.186C228.168 424.185 228.168 424.185 230.03 424.185C249.756 424.185 269.482 424.195 289.207 424.209C309.447 424.223 329.687 424.23 349.927 424.229C361.296 424.229 372.665 424.232 384.034 424.242C393.712 424.251 403.39 424.254 413.068 424.247C418.008 424.243 422.948 424.243 427.889 424.252C432.408 424.26 436.928 424.259 441.447 424.25C443.085 424.248 444.723 424.25 446.361 424.256C448.582 424.263 450.803 424.257 453.024 424.249C454.259 424.249 455.495 424.25 456.768 424.25C460.788 423.939 463.773 423.242 466.645 420.336C468.441 417.24 469.584 414.013 470.688 410.625C470.912 409.978 471.137 409.331 471.369 408.664C472.695 404.666 473.407 401.207 473 397C470.768 394.152 469.45 393.15 466 392C463.831 391.908 461.66 391.878 459.489 391.88C458.493 391.879 458.493 391.879 457.477 391.877C455.247 391.876 453.018 391.881 450.788 391.887C449.192 391.887 447.595 391.887 445.999 391.886C441.66 391.886 437.322 391.892 432.983 391.899C428.451 391.905 423.919 391.906 419.386 391.907C410.801 391.91 402.217 391.918 393.632 391.928C383.859 391.939 374.087 391.945 364.314 391.95C344.21 391.96 324.105 391.978 304 392C303.963 392.832 303.925 393.663 303.887 394.52C303.788 396.15 303.788 396.15 303.688 397.813C303.629 398.892 303.571 399.971 303.512 401.082C303 404 303 404 301.687 405.863C298.69 407.883 295.123 407.415 291.629 407.388C290.775 407.394 289.921 407.399 289.041 407.404C286.215 407.418 283.389 407.409 280.562 407.399C278.601 407.401 276.639 407.404 274.678 407.407C270.566 407.412 266.453 407.405 262.341 407.391C257.064 407.374 251.789 407.384 246.512 407.402C242.461 407.413 238.411 407.409 234.36 407.402C232.414 407.4 230.468 407.402 228.523 407.409C225.805 407.417 223.089 407.405 220.371 407.388C219.564 407.395 218.756 407.401 217.925 407.407C212.511 407.345 212.511 407.345 210.313 405.863C208.45 403.22 208.485 401.014 208.313 397.813C208.247 396.726 208.181 395.639 208.113 394.52C208.057 393.273 208.057 393.273 208 392C186.981 391.93 165.963 391.877 144.944 391.845C135.185 391.829 125.426 391.808 115.667 391.774C107.16 391.744 98.6541 391.725 90.1479 391.718C85.6439 391.714 81.1401 391.705 76.6361 391.683C72.3959 391.663 68.1559 391.656 63.9157 391.661C62.3605 391.66 60.8052 391.654 59.2501 391.643C57.1237 391.628 54.9981 391.631 52.8717 391.639C51.6826 391.637 50.4935 391.634 49.2683 391.631C45.5783 392.048 43.1598 393.077 40 395Z" fill="white"/>
<path d="M350.635 71.7329C351.757 71.7244 352.88 71.7159 354.037 71.7071C355.871 71.7085 355.871 71.7085 357.741 71.7098C359.036 71.7031 360.331 71.6964 361.665 71.6895C365.211 71.6718 368.756 71.6671 372.302 71.6659C374.52 71.6644 376.738 71.6602 378.955 71.6549C386.7 71.6364 394.444 71.6282 402.189 71.6298C409.396 71.631 416.602 71.6099 423.809 71.5783C430.006 71.5521 436.203 71.5414 442.4 71.5427C446.097 71.5432 449.794 71.5375 453.491 71.5163C457.618 71.4933 461.744 71.5025 465.87 71.5145C467.087 71.5033 468.303 71.492 469.556 71.4805C477.562 71.5398 483.052 72.5406 489.242 77.9652C489.781 78.6162 490.32 79.2672 490.875 79.9379C491.429 80.5863 491.984 81.2347 492.555 81.9027C495.812 86.6302 496.298 90.9761 496.291 96.6012C496.297 97.3499 496.304 98.0985 496.311 98.8699C496.33 101.337 496.334 103.803 496.336 106.27C496.342 107.992 496.349 109.715 496.356 111.437C496.368 115.046 496.372 118.655 496.371 122.263C496.37 126.873 496.398 131.483 496.432 136.093C496.454 139.65 496.458 143.208 496.457 146.766C496.46 148.465 496.469 150.163 496.484 151.862C496.632 169.715 496.632 169.715 490.035 177.243C489.384 177.781 488.733 178.32 488.063 178.875C487.414 179.43 486.766 179.984 486.098 180.555C480.721 184.26 475.867 184.29 469.547 184.272C468.602 184.277 467.657 184.282 466.683 184.287C464.634 184.298 462.585 184.303 460.536 184.305C457.291 184.309 454.046 184.326 450.801 184.346C441.575 184.401 432.349 184.432 423.124 184.457C417.477 184.473 411.83 184.503 406.183 184.541C404.034 184.553 401.885 184.559 399.737 184.559C396.728 184.559 393.72 184.578 390.711 184.6C389.828 184.595 388.945 184.591 388.035 184.586C379.801 184.682 374.174 187.722 367.148 191.907C366.527 192.273 365.905 192.639 365.264 193.016C363.299 194.173 361.337 195.337 359.375 196.5C358.052 197.281 356.729 198.061 355.406 198.84C348.786 202.734 348.786 202.734 342.22 206.717C338.566 208.83 336.175 208.464 332 208C329.786 206.653 329.786 206.653 328 204C327.394 200.377 327.454 196.783 327.482 193.117C327.475 192.007 327.468 190.898 327.461 189.755C327.444 186.081 327.455 182.408 327.469 178.735C327.466 176.181 327.462 173.628 327.457 171.074C327.451 165.718 327.459 160.361 327.479 155.005C327.5 148.827 327.493 142.649 327.471 136.471C327.451 130.516 327.453 124.56 327.465 118.605C327.467 116.077 327.464 113.549 327.455 111.021C327.445 107.481 327.46 103.942 327.482 100.402C327.474 99.3614 327.466 98.3212 327.458 97.2493C327.544 89.82 329.018 84.4035 333.965 78.7582C334.616 78.2194 335.267 77.6805 335.938 77.1254C336.586 76.5711 337.234 76.0168 337.902 75.4457C342.032 72.6003 345.659 71.7501 350.635 71.7329ZM346 91.0004C343.333 95.197 343.73 99.9185 343.773 104.738C343.773 105.607 343.772 106.476 343.772 107.371C343.773 110.233 343.789 113.095 343.805 115.957C343.808 117.946 343.811 119.934 343.813 121.922C343.821 127.148 343.841 132.375 343.863 137.601C343.883 142.936 343.892 148.272 343.902 153.608C343.924 164.072 343.958 174.536 344 185C345.745 184.054 347.49 183.106 349.234 182.158C350.206 181.63 351.178 181.103 352.179 180.559C356.512 178.165 360.725 175.587 364.941 172.995C369.086 170.472 372.214 168.88 377.079 168.862C378.322 168.854 378.322 168.854 379.589 168.846C380.495 168.845 381.4 168.844 382.333 168.843C383.768 168.835 383.768 168.835 385.231 168.827C387.31 168.817 389.389 168.808 391.468 168.801C394.759 168.789 398.05 168.77 401.341 168.748C410.699 168.686 420.057 168.632 429.415 168.599C435.137 168.578 440.859 168.543 446.582 168.498C448.762 168.484 450.942 168.475 453.123 168.472C456.175 168.467 459.227 168.444 462.279 168.417C463.628 168.421 463.628 168.421 465.004 168.426C470.018 168.36 473.772 168.001 478 165C480.192 161.302 480.257 157.892 480.275 153.653C480.284 152.391 480.294 151.13 480.304 149.83C480.303 148.461 480.302 147.092 480.301 145.723C480.305 144.31 480.309 142.896 480.314 141.483C480.321 138.525 480.321 135.567 480.316 132.609C480.31 128.828 480.327 125.048 480.35 121.268C480.365 118.35 480.366 115.432 480.363 112.515C480.363 111.121 480.368 109.728 480.378 108.334C480.391 106.382 480.382 104.43 480.372 102.477C480.373 101.369 480.374 100.26 480.374 99.1179C479.932 95.4335 479.039 93.1006 477 90.0004C473.549 88.2633 470.721 87.7487 466.883 87.7397C465.372 87.729 465.372 87.729 463.829 87.7182C462.735 87.7207 461.64 87.7232 460.512 87.7257C459.35 87.7206 458.189 87.7155 456.992 87.7102C453.152 87.6963 449.313 87.6973 445.473 87.6996C443.478 87.6967 441.484 87.6938 439.49 87.6902C433.221 87.6791 426.952 87.6786 420.683 87.6847C414.224 87.6907 407.765 87.6784 401.305 87.6571C395.752 87.6395 390.199 87.6335 384.645 87.6368C381.332 87.6386 378.019 87.6346 374.705 87.622C371.009 87.6097 367.314 87.6165 363.617 87.6281C362.525 87.6204 361.432 87.6128 360.306 87.6049C352.701 87.6396 352.701 87.6396 346 91.0004Z" fill="white"/>
<path d="M297.375 181.582C308.772 191.247 317.47 205.124 320 220C321.614 240.51 318.666 258.932 305.068 274.967C294.765 286.409 279.956 294.976 264.409 296.205C244.188 296.929 226.897 293.553 211.5 279.688C199.966 268.776 192.322 253.474 191.664 237.547C191.496 226.689 191.571 217.078 196 207C196.543 205.689 196.543 205.689 197.098 204.352C204.8 187.381 219.044 176.701 235.859 169.832C256.65 163.433 280.506 168.168 297.375 181.582ZM225.625 195.375C224.063 196.897 222.52 198.437 221 200C220.12 200.849 220.12 200.849 219.223 201.715C210.12 211.189 208.52 223.867 208.723 236.371C209.246 249.168 215.733 259.491 224.805 268.149C236.25 277.802 248.301 280.079 262.87 279.207C274.562 278.071 284.487 271.305 292.406 262.938C302.249 250.972 304.465 238.074 303 223C300.758 211.124 293.445 200.46 284 193C265.414 181.849 242.732 180.342 225.625 195.375Z" fill="white"/>
<path d="M452 119.5C452.712 119.485 453.423 119.469 454.156 119.453C457.603 119.479 459.648 119.746 462.469 121.781C464.083 124.12 464.544 125.197 464.5 128C464.51 128.66 464.521 129.32 464.531 130C463.722 133.048 462.555 134.157 460 136C457.169 136.401 454.817 136.561 452 136.5C451.288 136.515 450.577 136.531 449.844 136.547C446.397 136.521 444.352 136.254 441.531 134.219C439.917 131.88 439.456 130.803 439.5 128C439.485 127.01 439.485 127.01 439.469 126C441.174 119.582 446.249 119.375 452 119.5Z" fill="white"/>
<path d="M412 119.5C412.712 119.485 413.423 119.469 414.156 119.453C417.603 119.479 419.648 119.746 422.469 121.781C424.083 124.12 424.544 125.197 424.5 128C424.51 128.66 424.521 129.32 424.531 130C423.722 133.048 422.555 134.157 420 136C417.169 136.401 414.817 136.561 412 136.5C411.288 136.515 410.577 136.531 409.844 136.547C406.397 136.521 404.352 136.254 401.531 134.219C399.917 131.88 399.456 130.803 399.5 128C399.485 127.01 399.485 127.01 399.469 126C401.174 119.582 406.249 119.375 412 119.5Z" fill="white"/>
<path d="M372 119.5C372.712 119.485 373.423 119.469 374.156 119.453C377.603 119.479 379.648 119.746 382.469 121.781C384.083 124.12 384.544 125.197 384.5 128C384.51 128.66 384.521 129.32 384.531 130C383.722 133.048 382.555 134.157 380 136C377.169 136.401 374.817 136.561 372 136.5C371.288 136.515 370.577 136.531 369.844 136.547C366.397 136.521 364.352 136.254 361.531 134.219C359.917 131.88 359.456 130.803 359.5 128C359.485 127.01 359.485 127.01 359.469 126C361.174 119.582 366.249 119.375 372 119.5Z" fill="white"/>
</svg>
