<svg width="512" height="512" viewBox="0 0 512 512" fill="none" xmlns="http://www.w3.org/2000/svg">
<path d="M467.281 161.336C469.876 163.848 469.994 165.815 470.114 169.37C470.113 170.75 470.108 172.131 470.098 173.512C470.096 174.604 470.096 174.604 470.093 175.718C470.088 178.041 470.075 180.364 470.063 182.687C470.058 184.264 470.053 185.84 470.049 187.416C470.038 191.277 470.021 195.139 470 199C470.929 198.783 471.859 198.567 472.816 198.344C474.053 198.065 475.289 197.787 476.563 197.5C477.781 197.221 478.999 196.943 480.254 196.656C489.26 195.078 489.26 195.078 493.67 197.414C497.153 201.279 496.695 204.675 496.635 209.717C496.643 210.714 496.651 211.711 496.659 212.738C496.679 216.089 496.663 219.438 496.647 222.789C496.654 225.187 496.663 227.585 496.674 229.983C496.694 235.826 496.691 241.669 496.676 247.512C496.665 252.26 496.664 257.008 496.669 261.756C496.67 262.432 496.671 263.107 496.671 263.803C496.673 265.175 496.675 266.547 496.676 267.92C496.691 280.79 496.674 293.661 496.647 306.531C496.625 317.578 496.629 328.624 496.652 339.67C496.679 352.494 496.689 365.318 496.674 378.142C496.672 379.509 496.671 380.877 496.669 382.244C496.668 382.916 496.668 383.589 496.667 384.282C496.662 389.025 496.67 393.768 496.682 398.511C496.697 404.894 496.686 411.276 496.657 417.659C496.65 420.005 496.652 422.351 496.663 424.697C496.677 427.893 496.66 431.087 496.635 434.283C496.646 435.218 496.657 436.153 496.669 437.116C496.573 443.374 496.573 443.374 493.65 446.567C490.479 448.282 488.161 448.638 484.566 448.871C483.293 448.967 482.02 449.064 480.708 449.163C479.696 449.229 479.696 449.229 478.664 449.297C475.048 449.539 471.438 449.853 467.828 450.168C466.719 450.264 466.719 450.264 465.587 450.363C425.891 453.942 386.627 465.252 349.938 480.625C348.996 481.019 348.054 481.413 347.083 481.819C342.521 483.803 338.181 485.846 333.981 488.518C321.328 496.319 310.266 497.569 295.539 497.304C292.001 497.25 288.475 497.303 284.938 497.367C270.358 497.411 260.224 495.007 247.933 487.191C243.564 484.499 238.786 482.602 234.063 480.625C233.002 480.18 231.942 479.735 230.85 479.277C206.242 469.199 180.557 461.016 154.457 455.898C153.577 455.724 152.698 455.549 151.791 455.369C150.158 455.052 148.522 454.749 146.883 454.467C142.434 453.626 139.671 452.759 137 449C135.992 445.206 136.506 441.941 138.313 438.5C145.861 434.287 156.514 437.638 164.438 439.5C165.603 439.768 166.769 440.037 167.971 440.313C196.937 447.125 224.908 456.336 251.856 468.994C253.939 469.971 256.026 470.935 258.117 471.894C261.082 473.256 264.043 474.624 267 476C267.66 473.69 268.32 471.38 269 469C268.441 468.668 267.883 468.336 267.307 467.994C264.724 466.456 262.143 464.916 259.563 463.375C258.684 462.853 257.806 462.331 256.9 461.793C241.716 452.716 241.716 452.716 238 449C237.337 442.152 237.337 442.152 239.438 438.5C243.335 436.219 246.676 436.146 251 437C255.936 439.277 260.47 442.107 265.063 445C266.321 445.773 267.581 446.543 268.842 447.312C271.908 449.188 274.958 451.087 278 453C283.573 445.899 283.653 440.088 283.563 431.25C283.546 428.839 283.546 426.427 283.566 424.016C283.556 422.956 283.545 421.897 283.533 420.806C284.114 417.315 285.261 416.164 288 414C290 413.469 290 413.469 292 413.5C292.99 413.484 292.99 413.484 294 413.469C296.937 414.249 298.098 415.657 300 418C300.467 420.806 300.467 420.806 300.434 424.016C300.448 425.769 300.448 425.769 300.463 427.559C300.446 430.004 300.425 432.449 300.4 434.894C300.472 442.549 301.234 446.927 306 453C306.607 452.639 307.213 452.277 307.838 451.905C352.061 425.644 401.14 401.762 453 396C453 324.06 453 252.12 453 178C434.109 180.991 434.109 180.991 415.563 185.187C414.446 185.485 413.33 185.783 412.179 186.09C373.05 196.814 337.359 215.307 306 241C304.714 241.712 304.714 241.712 303.402 242.439C299.644 246.446 300.32 250.461 300.388 255.764C300.383 256.86 300.377 257.956 300.371 259.086C300.358 262.714 300.379 266.341 300.398 269.969C300.393 272.487 300.385 275.005 300.374 277.523C300.351 284.157 300.356 290.79 300.368 297.424C300.388 308.043 300.376 318.661 300.342 329.28C300.336 332.993 300.349 336.707 300.364 340.421C300.361 342.693 300.358 344.964 300.353 347.236C300.367 348.79 300.367 348.79 300.381 350.376C300.373 351.801 300.373 351.801 300.365 353.256C300.367 354.08 300.369 354.905 300.371 355.754C299.904 358.584 298.974 359.939 297 362C293.027 363.104 290.91 363.415 287.125 361.687C285 360 285 360 284 358C283.923 356.516 283.91 355.029 283.929 353.544C283.938 352.606 283.947 351.668 283.957 350.702C283.971 349.67 283.986 348.638 284.001 347.574C284.024 345.325 284.046 343.076 284.068 340.827C284.087 339.03 284.087 339.03 284.106 337.198C284.177 329.534 284.183 321.87 284.2 314.205C284.218 307.469 284.259 300.734 284.353 293.999C284.441 287.486 284.465 280.976 284.447 274.462C284.451 271.984 284.478 269.506 284.529 267.029C285.404 253.262 285.404 253.262 280.218 241.115C277.098 238.177 273.717 236.112 270 234C268.004 232.595 266.017 231.178 264.043 229.742C262.098 228.443 260.146 227.154 258.188 225.875C257.145 225.189 256.102 224.503 255.028 223.796C246.876 218.478 238.667 213.431 230 209C229.232 208.606 228.464 208.213 227.673 207.808C212.906 200.329 197.563 193.853 181.723 188.995C180.651 188.664 179.578 188.333 178.473 187.992C177.497 187.704 176.521 187.417 175.516 187.121C172.617 185.829 171.558 184.738 170 182C169.368 177.658 169.542 175.71 171.938 172C176.24 169.19 179.099 170.05 184 171C187.727 171.959 191.358 173.135 195 174.375C196.038 174.727 197.076 175.078 198.146 175.44C230.489 186.676 263.764 203.325 289.035 226.898C289.684 227.262 290.332 227.625 291 228C295.138 226.792 297.87 224.651 301.105 221.863C329.312 198.261 428.44 138.589 467.281 161.336ZM470 216C469.997 216.97 469.993 217.941 469.99 218.94C469.909 242.534 469.817 266.127 469.712 289.72C469.662 301.13 469.616 312.539 469.578 323.949C469.545 333.891 469.505 343.834 469.457 353.776C469.432 359.043 469.41 364.309 469.397 369.575C469.384 374.529 469.362 379.483 469.333 384.438C469.324 386.258 469.318 388.079 469.316 389.899C469.313 392.381 469.297 394.862 469.279 397.344C469.28 398.067 469.282 398.791 469.284 399.537C469.244 403.158 469.123 405.987 467 409C463.533 410.8 459.972 411.508 456.152 412.226C455.004 412.449 453.856 412.672 452.673 412.902C451.44 413.14 450.208 413.379 448.938 413.625C401.167 423.238 354.303 441.336 314 469C315.485 472.465 315.485 472.465 317 476C320.516 475.417 323.333 474.505 326.5 472.883C327.807 472.228 327.807 472.228 329.141 471.56C330.084 471.086 331.028 470.613 332 470.125C375.447 448.938 423.979 436.72 472.037 432.595C476.15 432.323 476.15 432.323 480 431C480 359.72 480 288.44 480 215C476.491 215 473.435 215.375 470 216ZM291 466C289.995 467.789 288.996 469.581 288 471.375C287.443 472.373 286.886 473.37 286.313 474.398C284.85 476.812 284.85 476.812 285 479C289.62 479 294.24 479 299 479C297.706 475.766 296.441 472.767 294.875 469.687C294.522 468.99 294.169 468.293 293.805 467.574C293.539 467.055 293.274 466.535 293 466C292.34 466 291.68 466 291 466Z" fill="white"/>
<path d="M86.0001 16.0002C88.2423 17.4729 88.2423 17.4729 90.0001 20.0002C90.4793 22.9347 90.3779 25.787 90.2501 28.7502C90.2321 29.543 90.214 30.3357 90.1954 31.1525C90.1485 33.1023 90.0767 35.0514 90.0001 37.0002C91.2582 37.3508 92.5164 37.7014 93.8126 38.0627C108.019 42.8501 121.448 54.5448 128.469 67.7658C133.306 78.0592 136.014 88.6164 134.516 100.051C133.915 105.26 133.827 110.421 133.795 115.661C133.785 116.686 133.775 117.711 133.765 118.768C133.733 122.128 133.709 125.488 133.684 128.848C133.663 131.189 133.642 133.53 133.621 135.872C133.566 142.012 133.516 148.152 133.468 154.292C133.418 160.567 133.362 166.841 133.307 173.115C133.199 185.41 133.098 197.705 133 210C134.98 209.34 136.96 208.68 139 208C139.004 207.36 139.008 206.72 139.013 206.06C139.046 203.143 139.116 200.229 139.188 197.313C139.193 196.305 139.199 195.298 139.205 194.26C139.428 186.768 139.428 186.768 142.363 182.828C145 181 145 181 148 180.438C151.682 181.128 153.368 182.368 156 185C156.93 187.79 157.187 189.765 157.317 192.668C157.379 194.007 157.379 194.007 157.443 195.373C157.483 196.302 157.522 197.231 157.563 198.188C157.606 199.128 157.649 200.068 157.693 201.037C157.8 203.358 157.902 205.679 158 208C159.174 208.473 160.349 208.946 161.559 209.434C184.186 218.672 204.429 229.822 222 247C222.935 247.873 223.869 248.746 224.832 249.645C243.203 267.194 255.953 291.636 259 317C259.11 317.899 259.219 318.797 259.332 319.723C260.601 331.748 259.674 343.086 258 355C258.749 355.107 259.498 355.214 260.27 355.324C263.17 356.042 264.479 356.852 266.688 358.813C267.269 359.314 267.85 359.816 268.449 360.332C271.356 363.458 272.249 366.266 272.291 370.49C272.303 371.371 272.316 372.252 272.329 373.16C272.333 374.578 272.333 374.578 272.336 376.024C272.343 377.003 272.349 377.981 272.356 378.99C272.366 381.06 272.371 383.129 272.371 385.198C272.375 388.357 272.411 391.514 272.449 394.672C272.455 396.685 272.459 398.698 272.461 400.711C272.475 401.652 272.49 402.593 272.505 403.562C272.466 409.2 271.925 412.639 268 417C262.803 421.354 258.839 421.573 252.359 421.508C250.913 421.517 250.913 421.517 249.436 421.527C246.207 421.543 242.979 421.53 239.75 421.518C237.434 421.523 235.118 421.53 232.801 421.539C226.512 421.557 220.223 421.55 213.934 421.537C207.355 421.527 200.775 421.537 194.195 421.543C182.438 421.552 170.681 421.538 158.923 421.518C148.267 421.5 137.61 421.503 126.953 421.522C114.573 421.543 102.193 421.551 89.8124 421.539C83.2607 421.533 76.7091 421.532 70.1573 421.545C63.998 421.557 57.839 421.549 51.6797 421.526C49.4182 421.52 47.1567 421.522 44.8952 421.531C41.81 421.542 38.7259 421.528 35.6407 421.508C34.2957 421.522 34.2957 421.522 32.9235 421.535C27.4559 421.466 24.3396 420.636 20.0001 417C15.3989 411.869 15.412 407.342 15.4689 400.781C15.465 399.805 15.4612 398.829 15.4573 397.824C15.4546 395.766 15.4619 393.709 15.4786 391.651C15.5001 388.51 15.4788 385.372 15.4532 382.231C15.4559 380.227 15.461 378.223 15.4689 376.219C15.4608 375.284 15.4527 374.35 15.4443 373.387C15.5442 366.409 17.2901 362.639 22.3751 357.688C25.3257 355.791 27.5634 355.478 31.0001 355C30.8954 323.398 30.7857 291.796 30.669 260.194C30.6552 256.463 30.6415 252.732 30.6278 249C30.6237 247.886 30.6237 247.886 30.6195 246.749C30.5755 234.723 30.5348 222.697 30.4955 210.671C30.455 198.33 30.4108 185.989 30.3632 173.648C30.334 166.034 30.3076 158.419 30.2849 150.805C30.2672 144.965 30.2444 139.126 30.2196 133.286C30.2103 130.891 30.2026 128.496 30.1967 126.101C30.1884 122.832 30.1741 119.564 30.1583 116.295C30.1574 115.347 30.1564 114.398 30.1554 113.421C30.1248 108.504 29.8104 103.85 29.0001 99.0002C27.6801 81.4709 33.8842 67.67 45.0626 54.5861C52.6043 46.5176 61.8543 41.1659 72.0001 37.0002C72.0375 36.0592 72.0749 35.1182 72.1134 34.1486C72.1791 32.9034 72.2449 31.6582 72.3126 30.3752C72.3996 28.5305 72.3996 28.5305 72.4884 26.6486C73.0247 22.8252 74.0023 20.2854 76.0001 17.0002C79.1295 15.4355 82.6109 15.3032 86.0001 16.0002ZM57.8947 65.8166C49.4341 75.5681 46.0001 85.1334 46.0001 98.0002C69.4301 98.0002 92.8601 98.0002 117 98.0002C119.041 89.8367 116.465 81.529 112.453 74.301C106.737 65.25 99.1246 60.2321 90.0001 55.0002C89.2267 54.5 88.4532 53.9999 87.6564 53.4846C78.2023 48.6121 64.4162 59.4197 57.8947 65.8166ZM48.0001 115C48.0001 170.11 48.0001 225.22 48.0001 282C49.8949 279.474 51.5106 277.25 53.0587 274.567C58.7604 264.92 65.1229 256.945 73.0001 249C73.6137 248.338 74.2273 247.675 74.8595 246.992C83.0983 238.223 96.7909 226.574 108.482 223.307C111.975 222.016 113.638 220.921 116 218C117.991 210.608 117.156 202.457 116.977 194.883C116.958 192.582 116.944 190.282 116.934 187.981C116.896 181.933 116.797 175.888 116.687 169.841C116.566 162.582 116.521 155.322 116.462 148.062C116.365 137.04 116.174 126.023 116 115C93.5601 115 71.1201 115 48.0001 115ZM93.0001 253C92.4503 253.454 91.9006 253.907 91.3341 254.374C72.1093 270.442 57.391 293.45 54.2067 318.641C53.7627 323.712 53.7135 328.788 53.6876 333.875C53.682 334.933 53.6763 335.992 53.6705 337.082C53.731 343.585 54.5327 348.397 56.0001 355C117.05 355 178.1 355 241 355C244.794 324.646 241.114 297.318 222.055 272.512C205.198 251.905 184.228 237.229 159.813 226.875C159.13 226.58 158.448 226.284 157.745 225.98C137.586 217.814 107.882 240.599 93.0001 253ZM33.0001 372C33.0001 382.56 33.0001 393.12 33.0001 404C106.26 404.33 179.52 404.66 255 405C255 394.11 255 383.22 255 372C181.74 372 108.48 372 33.0001 372Z" fill="white"/>
</svg>
