<svg width="512" height="512" viewBox="0 0 512 512" fill="none" xmlns="http://www.w3.org/2000/svg">
<g clip-path="url(#clip0_1254_193)">
<path d="M164.875 32.6876C173.554 39.5097 179.595 48.1463 182 59.0001C182.877 73.5142 181.573 85.3803 172 97.0001C162.304 107.292 152.095 111.38 138 112C126.946 111.697 115.783 106.831 107.563 99.4376C101.692 92.9219 97.1807 84.5317 96.4158 75.7652C96.3351 74.871 96.2545 73.9768 96.1714 73.0555C96.1148 72.3772 96.0583 71.6989 96 71.0001C86.5509 71.0613 77.102 71.1384 67.6532 71.2358C63.2657 71.2805 58.8784 71.3198 54.4907 71.3465C50.2566 71.3725 46.0228 71.4129 41.7888 71.4633C40.1733 71.48 38.5578 71.4915 36.9422 71.4977C34.6795 71.5073 32.4178 71.5354 30.1553 71.5677C28.8673 71.5788 27.5794 71.5899 26.2524 71.6014C22.7914 72.0257 21.368 72.4743 19 75.0001C17.6281 78.776 17.8471 82.7303 17.8418 86.6943C17.8369 87.4735 17.8319 88.2528 17.8268 89.0557C17.8115 91.669 17.8031 94.2823 17.7947 96.8956C17.7851 98.7681 17.7751 100.641 17.7647 102.513C17.7376 107.599 17.7166 112.686 17.6967 117.772C17.6748 123.087 17.6474 128.401 17.6206 133.716C17.5707 143.781 17.5258 153.846 17.4826 163.911C17.4333 175.369 17.3783 186.827 17.3229 198.285C17.2091 221.857 17.1023 245.428 17 269C56.339 269.101 95.6778 269.15 135.017 269.129C139.662 269.126 144.307 269.124 148.952 269.122C149.877 269.122 150.801 269.121 151.754 269.121C166.725 269.116 181.695 269.146 196.665 269.19C212.028 269.234 227.39 269.239 242.753 269.21C252.232 269.193 261.71 269.206 271.188 269.256C277.69 269.288 284.19 269.283 290.691 269.249C294.442 269.23 298.19 269.228 301.941 269.27C306.012 269.314 310.078 269.281 314.149 269.241C315.919 269.278 315.919 269.278 317.725 269.317C322.681 269.211 325.777 269.01 329.68 265.787C331.937 263.279 333.962 260.686 336 258C344.47 250.034 357.148 243.603 368.731 242.432C369.934 242.307 369.934 242.307 371.161 242.18C371.768 242.121 372.375 242.061 373 242C372.99 240.739 372.99 240.739 372.98 239.452C372.92 231.522 372.874 223.591 372.845 215.661C372.829 211.584 372.808 207.507 372.774 203.43C372.741 199.494 372.723 195.559 372.715 191.623C372.71 190.123 372.699 188.622 372.683 187.122C372.661 185.018 372.658 182.914 372.659 180.81C372.649 179.015 372.649 179.015 372.639 177.183C373.04 173.65 373.866 171.817 376 169C379.513 166.658 380.865 166.504 385 167C387.958 168.775 389.676 169.851 390.63 173.23C391.053 176.394 391.12 179.434 391.114 182.626C391.114 183.271 391.114 183.915 391.114 184.579C391.113 186.695 391.106 188.81 391.098 190.926C391.096 192.398 391.094 193.871 391.093 195.344C391.09 199.209 391.08 203.074 391.069 206.939C391.058 210.887 391.054 214.835 391.049 218.783C391.038 226.522 391.021 234.261 391 242C391.606 242.059 392.212 242.118 392.836 242.179C393.637 242.262 394.439 242.344 395.264 242.43C396.451 242.549 396.451 242.549 397.663 242.671C412.878 244.813 426.365 255.687 436 267C447.246 282.616 452.233 300.319 449.5 319.512C447.114 331.838 442.725 342.109 435 352C434.49 352.687 433.979 353.374 433.453 354.082C422.963 367.247 406.372 374.81 390 377C371.34 378.701 353.025 374.246 338.43 362.141C330.357 355.071 330.357 355.071 329 351C294.68 351 260.36 351 225 351C225 366.18 225 381.36 225 397C233.377 396.921 233.377 396.921 241.753 396.82C242.799 396.815 243.844 396.81 244.922 396.805C245.99 396.794 247.059 396.784 248.159 396.773C251.011 397.001 252.613 397.467 255 399C257.065 401.655 256.997 403.088 256.875 406.5C255.861 410.557 255.415 411.632 252 414C248.423 414.613 244.874 414.556 241.252 414.534C239.61 414.546 239.61 414.546 237.935 414.56C234.312 414.582 230.69 414.576 227.066 414.566C224.551 414.572 222.035 414.578 219.519 414.585C214.244 414.596 208.969 414.591 203.694 414.577C197.601 414.56 191.509 414.575 185.416 414.608C179.549 414.638 173.682 414.64 167.815 414.63C165.321 414.629 162.827 414.636 160.334 414.651C156.848 414.668 153.363 414.654 149.877 414.631C148.845 414.643 147.812 414.655 146.749 414.667C142.034 414.604 139.738 414.545 135.859 411.679C133.392 408.124 133.242 406.242 134 402C135.661 399.374 136.331 398.403 139 397C143.455 396.376 147.826 396.532 152.313 396.688C156.499 396.791 160.686 396.894 165 397C165 381.82 165 366.64 165 351C158.437 351.032 158.437 351.032 151.74 351.064C137.28 351.13 122.819 351.174 108.358 351.207C99.591 351.228 90.824 351.256 82.0569 351.302C74.4131 351.342 66.7695 351.368 59.1256 351.376C55.0804 351.382 51.0354 351.394 46.9902 351.423C43.1776 351.45 39.3653 351.459 35.5526 351.453C34.1583 351.454 32.7639 351.462 31.3697 351.477C22.2756 351.573 14.9898 350.95 7.69533 345.176C6.91803 344.254 6.91803 344.254 6.12502 343.313C5.59135 342.711 5.05767 342.109 4.50783 341.488C0.255609 334.471 -0.437324 327.392 -0.380933 319.342C-0.385613 318.304 -0.390287 317.267 -0.395108 316.197C-0.407023 312.738 -0.397621 309.28 -0.388166 305.821C-0.392233 303.333 -0.397576 300.846 -0.404096 298.358C-0.41634 292.314 -0.414562 286.27 -0.405851 280.226C-0.399062 275.311 -0.398166 270.396 -0.401426 265.481C-0.401885 264.781 -0.402356 264.08 -0.402829 263.358C-0.403789 261.934 -0.404758 260.51 -0.405744 259.086C-0.414289 245.748 -0.404469 232.41 -0.388334 219.071C-0.374934 207.641 -0.377263 196.211 -0.391095 184.781C-0.407172 171.49 -0.413463 158.2 -0.404264 144.909C-0.403308 143.49 -0.402356 142.072 -0.401426 140.653C-0.400963 139.955 -0.400499 139.257 -0.400022 138.537C-0.397438 133.632 -0.401799 128.727 -0.408872 123.822C-0.418194 117.212 -0.411503 110.602 -0.394193 103.993C-0.390234 101.57 -0.391348 99.1471 -0.397977 96.7244C-0.406205 93.411 -0.395851 90.0982 -0.380933 86.7849C-0.390971 85.3554 -0.390971 85.3554 -0.401212 83.8969C-0.324956 75.1326 1.12543 67.0028 7.32033 60.4688C13.5577 55.0148 19.5551 53.8597 27.6143 53.7948C28.3756 53.7849 29.137 53.775 29.9214 53.7648C32.432 53.7333 34.9425 53.7084 37.4531 53.6837C39.1962 53.6631 40.9393 53.6421 42.6823 53.6207C47.2657 53.5656 51.8491 53.5161 56.4325 53.4679C61.1113 53.4176 65.79 53.3619 70.4688 53.3067C79.6458 53.1993 88.8229 53.0978 98 53.0001C98.329 52.3217 98.6581 51.6434 98.9971 50.9444C99.4363 50.0501 99.8756 49.1559 100.328 48.2345C100.976 46.9075 100.976 46.9075 101.638 45.5538C106.929 35.6352 116.616 29.6953 127 26.0001C140.189 22.7247 153.705 25.0527 164.875 32.6876ZM118 52.0001C113.725 58.7344 112.213 65.064 113 73.0001C115.002 81.1291 119.03 86.7788 126.031 91.3165C132.583 94.7229 139.954 95.2989 147.109 93.4571C149.153 92.6831 149.153 92.6831 152 91.0001C153.031 90.4226 154.063 89.8451 155.125 89.2501C160.204 85.2755 163.653 80.3693 165 74.0001C165.794 64.7786 164.669 58.0107 158.813 50.7501C153.447 44.9638 147.115 42.2791 139.313 41.7501C130.518 41.9296 123.773 45.4046 118 52.0001ZM346 273C335.896 283.69 330.36 296.513 330.754 311.305C332.111 326.164 338.193 337.802 349 348C360.427 357.178 373.431 361.153 388 360C402.179 357.837 414.184 350.697 423.039 339.399C430.919 327.763 434.294 314.832 432.313 300.875C429.58 287.139 422.857 276.171 411.582 267.719C390.553 253.721 364.414 255.3 346 273ZM17 286C14.0501 308.271 14.0501 308.271 20.313 332.79C22.6205 334.445 24.1635 334.373 26.9919 334.369C28.5475 334.378 28.5475 334.378 30.1345 334.387C31.2775 334.379 32.4205 334.37 33.5981 334.361C34.8094 334.363 36.0207 334.366 37.2687 334.369C40.637 334.373 44.0047 334.363 47.3729 334.348C51.0028 334.335 54.6326 334.34 58.2625 334.342C64.5534 334.344 70.8443 334.334 77.1352 334.317C86.2309 334.293 95.3265 334.285 104.422 334.281C119.179 334.275 133.935 334.255 148.691 334.226C163.027 334.199 177.364 334.178 191.7 334.165C192.583 334.164 193.467 334.163 194.377 334.163C198.808 334.159 203.24 334.155 207.671 334.151C244.448 334.12 281.224 334.067 318 334C317.68 332.234 317.359 330.468 317.038 328.702C316.77 327.226 316.77 327.226 316.497 325.721C316.135 323.739 315.765 321.758 315.391 319.777C314.909 316.354 314.792 313.02 314.75 309.563C314.724 308.306 314.698 307.049 314.672 305.754C315.132 299.092 316.69 292.548 318 286C218.67 286 119.34 286 17 286ZM183 351C183 366.18 183 381.36 183 397C191.25 397 199.5 397 208 397C208 381.82 208 366.64 208 351C199.75 351 191.5 351 183 351Z" fill="white"/>
<path d="M271.094 59.6293C273 60.0004 273 60.0004 275.5 61.4379C278 65.7086 277.631 70.4826 276.444 75.2219C275.666 77.4963 274.806 79.7181 273.903 81.9457C273.589 82.7598 273.276 83.5739 272.954 84.4127C271.627 87.8612 270.266 91.2958 268.906 94.7313C267.913 97.2562 266.939 99.788 265.965 102.321C265.654 103.088 265.342 103.854 265.021 104.644C262.732 110.615 262.955 114.866 265 121C265.907 128.972 264.756 137.067 259.789 143.592C256.765 147.105 253.48 150.345 250.139 153.554C248.382 155.244 246.653 156.959 244.926 158.68C233.762 169.703 222.998 179.014 206.582 179.391C203.992 179.365 201.402 179.318 198.813 179.25C197.466 179.23 196.119 179.212 194.772 179.196C191.514 179.149 188.257 179.083 185 179C185.01 179.879 185.01 179.879 185.02 180.776C185.087 186.892 185.132 193.007 185.165 199.124C185.18 201.404 185.201 203.684 185.227 205.964C185.263 209.249 185.28 212.532 185.293 215.817C185.316 217.337 185.316 217.337 185.34 218.889C185.342 226.152 184.488 231.043 179.688 236.75C173.673 241.786 168.792 242.439 161.235 242.389C160.268 242.394 159.301 242.399 158.306 242.404C155.12 242.418 151.936 242.409 148.75 242.399C146.531 242.401 144.312 242.404 142.093 242.407C137.446 242.412 132.799 242.405 128.153 242.391C122.201 242.374 116.249 242.384 110.297 242.402C105.716 242.413 101.135 242.41 96.5541 242.402C94.3597 242.4 92.1652 242.402 89.9708 242.409C86.9023 242.417 83.8344 242.405 80.7659 242.389C79.4098 242.398 79.4098 242.398 78.0262 242.407C72.0948 242.347 67.8094 241.425 63.1721 237.422C59.2947 232.863 56.8407 228.899 57.0964 222.652C57.7533 215.69 58.7459 208.829 59.926 201.938C60.2093 200.269 60.2093 200.269 60.4983 198.567C60.8969 196.23 61.2979 193.894 61.7012 191.558C62.3108 188.012 62.9048 184.463 63.4983 180.914C63.8899 178.63 64.2825 176.347 64.676 174.063C64.9356 172.494 64.9356 172.494 65.2005 170.893C67.8968 155.557 73.4383 142.639 86.0159 132.946C94.9325 127.133 103.399 124.801 113.889 125.081C115.752 125.12 117.614 125.159 119.476 125.196C120.463 125.217 121.45 125.238 122.467 125.26C128.829 125.378 135.192 125.414 141.556 125.46C147.13 125.504 152.701 125.581 158.274 125.731C185.459 127.923 185.459 127.923 209.249 117.744C211.891 114.713 214.103 111.527 216.283 108.154C220.067 103.409 226.046 100.129 232 99.0004C233.832 98.9088 235.666 98.8703 237.5 98.8754C238.908 98.8715 238.908 98.8715 240.344 98.8675C242.722 98.9864 244.727 99.3248 247 100C249.591 94.0641 251.986 88.0881 254.196 82.0004C254.78 80.4003 254.78 80.4003 255.375 78.7679C256.16 76.6086 256.935 74.4458 257.701 72.2797C258.253 70.7647 258.253 70.7647 258.817 69.2191C259.141 68.311 259.465 67.4028 259.799 66.4672C262.439 61.0453 265.273 59.2709 271.094 59.6293ZM226.196 122.582C224.831 123.985 223.474 125.396 222.125 126.813C220.779 128.22 219.427 129.623 218.071 131.02C217.48 131.64 216.89 132.259 216.282 132.898C209.673 138.987 205.424 141.904 196.255 141.71C195.314 141.714 194.373 141.718 193.403 141.723C190.313 141.73 187.224 141.697 184.133 141.664C181.971 141.666 179.809 141.67 177.648 141.677C171.966 141.691 166.286 141.672 160.605 141.643C151.52 141.597 142.436 141.582 133.351 141.602C130.19 141.602 127.03 141.576 123.87 141.549C121.915 141.548 119.96 141.548 118.005 141.55C116.703 141.528 116.703 141.528 115.375 141.506C106.383 141.563 98.2971 144.588 91.7927 150.9C82.9435 161.269 81.7969 174.758 79.7024 187.738C79.1234 191.324 78.5174 194.906 77.9065 198.487C77.5221 200.779 77.1393 203.071 76.7581 205.364C76.58 206.427 76.402 207.491 76.2185 208.587C75.3849 213.78 74.6804 218.739 75.0002 224C76.2145 225.444 76.2145 225.444 79.8166 225.098C81.3987 225.091 82.9808 225.079 84.5627 225.063C85.7722 225.056 85.7722 225.056 87.0061 225.049C89.0042 225.037 91.0022 225.019 93.0002 225C93.0938 224.445 93.1874 223.891 93.2838 223.319C94.2602 217.542 95.2522 211.767 96.2534 205.994C96.6249 203.839 96.9925 201.684 97.356 199.528C97.8792 196.428 98.4168 193.332 98.9573 190.235C99.1168 189.271 99.2763 188.307 99.4406 187.315C99.6805 185.964 99.6805 185.964 99.9253 184.585C100.061 183.795 100.196 183.004 100.336 182.19C101.124 179.593 102.178 178.003 104 176C107.691 174.797 109.296 174.656 112.813 176.375C115 178 115 178 116 179C116.499 185.077 115.716 190.997 114.688 196.973C114.555 197.782 114.421 198.59 114.284 199.423C113.863 201.971 113.432 204.517 113 207.063C112.711 208.804 112.421 210.546 112.133 212.287C111.43 216.526 110.717 220.764 110 225C117.415 225.023 124.829 225.041 132.244 225.052C135.687 225.057 139.129 225.064 142.572 225.076C146.526 225.089 150.48 225.094 154.434 225.098C155.675 225.103 156.917 225.108 158.196 225.114C159.908 225.114 159.908 225.114 161.654 225.114C162.665 225.116 163.675 225.118 164.716 225.121C166.966 225.258 166.966 225.258 168 224C168.108 222.237 168.146 220.469 168.158 218.702C168.173 217.005 168.173 217.005 168.189 215.273C168.196 214.041 168.204 212.809 168.211 211.539C168.239 208.959 168.268 206.378 168.297 203.797C168.34 199.706 168.376 195.616 168.402 191.525C168.427 187.592 168.475 183.66 168.524 179.727C168.527 178.499 168.53 177.271 168.534 176.005C168.558 174.299 168.558 174.299 168.584 172.557C168.592 171.555 168.6 170.552 168.608 169.518C169.061 166.611 169.691 165.755 172 164C175.137 162.432 178.494 162.864 181.938 162.86C183.572 162.841 185.206 162.822 186.84 162.801C189.409 162.772 191.978 162.75 194.548 162.75C207.131 162.733 215.876 162.023 225.414 153.039C226.831 151.581 228.235 150.109 229.625 148.625C231.032 147.157 232.44 145.691 233.852 144.227C234.872 143.165 234.872 143.165 235.914 142.081C238.613 139.39 241.468 136.922 244.392 134.479C246.566 132.48 247.478 130.91 248 128C247.917 124.021 247.272 122.35 244.813 119.188C237.636 113.606 232.047 116.789 226.196 122.582Z" fill="white"/>
<path d="M473.344 429.762C474.91 431.161 476.458 432.576 478 434C478.51 434.467 479.02 434.933 479.546 435.413C490.315 445.363 498.766 456.746 506.062 469.438C506.433 470.076 506.803 470.713 507.184 471.37C511.429 479.04 512.861 486.355 511 495C508.911 501.626 504.665 506.097 499 510C494.359 512.413 490.052 512.286 484.949 512.268C483.578 512.275 483.578 512.275 482.181 512.282C479.119 512.294 476.058 512.293 472.997 512.291C470.802 512.297 468.607 512.304 466.413 512.311C460.45 512.329 454.487 512.334 448.524 512.335C443.547 512.337 438.569 512.344 433.591 512.351C422.518 512.367 411.445 512.373 400.372 512.371C399.707 512.371 399.043 512.371 398.359 512.371C397.694 512.371 397.029 512.371 396.344 512.371C385.57 512.37 374.796 512.389 364.022 512.417C352.952 512.446 341.882 512.459 330.813 512.458C324.601 512.458 318.389 512.463 312.177 512.484C306.333 512.504 300.49 512.504 294.647 512.489C292.504 512.487 290.361 512.492 288.218 512.504C285.289 512.52 282.361 512.51 279.432 512.495C278.587 512.505 277.742 512.515 276.872 512.526C269.681 512.443 264.557 510.274 259.187 505.5C253.465 498.961 251.468 493.612 251.703 484.84C253.983 463.027 277.056 440.751 292.834 427.454C296.724 424.375 300.792 421.624 305 419C305.618 418.613 306.236 418.226 306.873 417.827C358.059 386.283 427.534 389.914 473.344 429.762ZM288.25 455.813C280.99 464.223 269.146 477.983 268.937 489.438C270.242 492.584 271.018 493.356 274 495C276.955 495.292 279.699 495.41 282.654 495.388C283.978 495.396 283.978 495.396 285.329 495.404C288.292 495.419 291.255 495.412 294.219 495.404C296.341 495.41 298.463 495.417 300.585 495.425C306.354 495.443 312.122 495.442 317.89 495.436C322.702 495.433 327.513 495.439 332.325 495.445C343.672 495.459 355.02 495.458 366.367 495.446C378.085 495.435 389.802 495.449 401.519 495.476C411.571 495.498 421.623 495.505 431.675 495.499C437.682 495.495 443.69 495.498 449.697 495.515C455.344 495.53 460.991 495.527 466.638 495.508C468.713 495.504 470.788 495.507 472.864 495.518C475.691 495.531 478.518 495.519 481.346 495.502C482.172 495.511 482.998 495.521 483.849 495.531C487.431 495.484 489.573 495.31 492.512 493.178C494.714 489.955 494.482 487.829 494 484C481.33 454.201 453.66 433.266 424.625 421.25C376.152 403.36 323.182 418.786 288.25 455.813Z" fill="white"/>
<path d="M222.273 -0.508295C223.463 -0.517655 223.463 -0.517655 224.677 -0.527204C227.315 -0.543059 229.952 -0.530559 232.59 -0.517938C234.489 -0.523363 236.389 -0.530487 238.288 -0.539178C243.433 -0.557376 248.577 -0.550359 253.722 -0.537662C259.113 -0.527516 264.503 -0.536932 269.894 -0.543207C278.946 -0.550478 287.998 -0.540908 297.05 -0.521844C307.506 -0.500077 317.963 -0.507128 328.419 -0.52915C337.406 -0.547318 346.393 -0.549856 355.38 -0.539395C360.744 -0.533168 366.107 -0.532304 371.471 -0.545541C376.514 -0.557119 381.556 -0.549039 386.6 -0.525964C388.447 -0.520687 390.295 -0.522174 392.143 -0.531015C394.671 -0.541994 397.199 -0.528179 399.727 -0.508295C400.453 -0.517218 401.179 -0.52614 401.927 -0.535334C408.284 -0.438784 413.352 1.7684 418.207 5.85901C418.737 6.48292 419.267 7.10683 419.812 7.74964C420.355 8.36323 420.898 8.97683 421.457 9.60901C425.99 16.6329 426.436 23.0939 426.388 31.2299C426.396 32.8778 426.396 32.8778 426.404 34.559C426.417 38.1735 426.409 41.7875 426.398 45.402C426.4 47.9249 426.403 50.4478 426.407 52.9707C426.412 58.2521 426.405 63.5334 426.391 68.8148C426.375 74.9009 426.38 80.9866 426.397 87.0726C426.412 92.9513 426.41 98.8298 426.401 104.709C426.399 107.199 426.402 109.69 426.409 112.18C426.417 115.667 426.405 119.153 426.388 122.64C426.394 123.661 426.4 124.682 426.407 125.734C426.339 133.424 425.12 139.756 420.875 146.25C414.762 152.097 408.203 155.108 399.769 155.147C398.711 155.154 397.652 155.161 396.562 155.168C395.406 155.171 394.25 155.174 393.059 155.177C391.227 155.186 391.227 155.186 389.357 155.197C385.312 155.216 381.268 155.228 377.223 155.238C375.828 155.242 374.434 155.246 373.04 155.25C366.493 155.269 359.945 155.284 353.397 155.292C345.843 155.302 338.289 155.328 330.735 155.368C324.892 155.399 319.049 155.413 313.206 155.417C309.717 155.419 306.229 155.428 302.741 155.453C298.851 155.481 294.961 155.477 291.071 155.47C289.34 155.489 289.34 155.489 287.574 155.508C279.806 155.458 279.806 155.458 275.808 153.185C273.272 150.119 273 147.946 273 144C274.346 141.052 275.086 139.457 278 138C279.636 137.901 281.276 137.866 282.914 137.862C283.953 137.856 284.992 137.851 286.062 137.845C287.779 137.844 287.779 137.844 289.53 137.842C290.732 137.837 291.934 137.832 293.172 137.827C295.789 137.816 298.406 137.807 301.023 137.8C305.162 137.79 309.301 137.769 313.44 137.747C325.212 137.685 336.983 137.631 348.754 137.598C355.253 137.58 361.752 137.551 368.251 137.51C371.69 137.489 375.129 137.474 378.568 137.471C382.406 137.469 386.244 137.443 390.081 137.416C391.22 137.419 392.358 137.422 393.531 137.425C395.102 137.409 395.102 137.409 396.705 137.392C397.612 137.388 398.519 137.385 399.454 137.382C402.586 136.912 404.47 135.885 407 134C407.938 131.186 408.127 129.476 408.134 126.566C408.138 125.659 408.142 124.752 408.147 123.817C408.146 122.824 408.146 121.831 408.145 120.808C408.149 119.761 408.152 118.714 408.155 117.635C408.165 114.164 408.167 110.693 408.168 107.222C408.171 104.815 408.175 102.407 408.178 99.9997C408.184 94.95 408.186 89.9002 408.185 84.8505C408.185 78.3726 408.199 71.8949 408.216 65.4171C408.227 60.444 408.229 55.471 408.229 50.498C408.23 48.1093 408.234 45.7207 408.242 43.332C408.252 39.9947 408.249 36.6576 408.243 33.3202C408.249 32.3294 408.254 31.3386 408.26 30.3178C408.256 29.4079 408.252 28.498 408.247 27.5606C408.248 26.7717 408.248 25.9829 408.249 25.1701C407.966 22.7007 407.313 21.1023 406 18.9996C403.022 17.5104 399.984 17.8625 396.718 17.8727C395.959 17.8711 395.2 17.8695 394.418 17.8679C391.861 17.8639 389.304 17.8671 386.746 17.8702C384.918 17.8689 383.09 17.8671 381.263 17.8649C376.287 17.8604 371.312 17.8621 366.337 17.8653C361.139 17.8678 355.941 17.8655 350.742 17.8639C342.01 17.8621 333.278 17.8645 324.546 17.8693C314.442 17.8747 304.338 17.8729 294.233 17.8674C285.569 17.8629 276.905 17.8623 268.241 17.8649C263.061 17.8664 257.882 17.8666 252.702 17.8633C247.833 17.8605 242.963 17.8624 238.093 17.8682C236.303 17.8696 234.513 17.8692 232.722 17.867C230.284 17.8643 227.847 17.8677 225.409 17.8727C224.695 17.8704 223.981 17.8682 223.246 17.8659C220.214 17.878 217.902 18.0321 215 18.9996C214.033 23.0581 213.87 26.8545 213.858 31.0214C213.855 31.7082 213.851 32.395 213.848 33.1026C213.84 34.5867 213.835 36.0708 213.831 37.5549C213.824 39.9047 213.808 42.2542 213.79 44.6039C213.738 51.2819 213.689 57.9598 213.674 64.6381C213.664 68.7289 213.635 72.8193 213.593 76.9099C213.58 78.4668 213.575 80.0237 213.578 81.5806C213.58 83.7568 213.558 85.9314 213.53 88.1073C213.524 89.3447 213.518 90.582 213.512 91.8568C212.908 95.5659 211.945 96.7436 209 98.9996C206.26 99.7274 203.768 99.5794 201 98.9996C198.569 97.1295 197.359 95.7183 196 92.9996C195.893 90.7704 195.851 88.5379 195.839 86.306C195.834 85.6179 195.829 84.9299 195.824 84.2209C195.809 81.9375 195.802 79.6542 195.797 77.3707C195.791 75.7809 195.785 74.1911 195.78 72.6012C195.769 69.2613 195.763 65.9214 195.76 62.5814C195.754 58.3202 195.73 54.0593 195.702 49.7981C195.683 46.5096 195.678 43.2213 195.676 39.9328C195.673 38.3632 195.665 36.7937 195.652 35.2242C195.495 15.1106 195.495 15.1106 202.187 7.68714C202.717 7.07226 203.247 6.45737 203.793 5.82386C209.48 1.12339 214.988 -0.597826 222.273 -0.508295Z" fill="white"/>
<path d="M298.032 36.8234C298.756 36.8169 299.48 36.8103 300.226 36.8035C302.626 36.7838 305.026 36.7721 307.426 36.7622C308.245 36.7581 309.065 36.754 309.909 36.7498C314.246 36.7289 318.583 36.7146 322.92 36.7053C327.399 36.6942 331.878 36.6598 336.357 36.6201C339.801 36.594 343.245 36.5856 346.69 36.582C348.341 36.5771 349.992 36.5655 351.643 36.547C353.955 36.5226 356.267 36.5235 358.579 36.5305C360.552 36.5217 360.552 36.5217 362.565 36.5127C366.576 37.0822 368.215 38.1006 371 41.0004C372.166 45.0085 372.432 47.0533 370.688 50.8754C369 53.0004 369 53.0004 367 54.0004C364.58 54.114 362.189 54.1682 359.768 54.1774C358.651 54.1873 358.651 54.1873 357.511 54.1974C355.041 54.2171 352.571 54.2288 350.102 54.2387C349.259 54.2428 348.416 54.2469 347.548 54.2511C343.089 54.2719 338.63 54.2862 334.171 54.2956C329.562 54.3067 324.953 54.3411 320.344 54.3808C316.802 54.4069 313.261 54.4153 309.72 54.4189C308.02 54.4238 306.321 54.4354 304.622 54.4539C302.244 54.4782 299.868 54.4774 297.491 54.4704C296.788 54.4832 296.086 54.496 295.362 54.5092C292.037 54.4737 290.281 54.2121 287.594 52.1859C285.327 49.0783 285 46.8253 285 43.0004C288.718 37.1022 291.327 36.8737 298.032 36.8234Z" fill="white"/>
<path d="M309.25 68.4664C310.515 68.4505 311.78 68.4347 313.083 68.4184C314.46 68.4222 315.838 68.4273 317.215 68.4334C318.632 68.4282 320.049 68.4219 321.467 68.4146C324.435 68.4042 327.403 68.4088 330.371 68.4234C334.169 68.4406 337.965 68.4171 341.763 68.3819C344.689 68.3599 347.615 68.3614 350.542 68.3697C351.942 68.3705 353.342 68.3636 354.741 68.3489C356.701 68.3314 358.661 68.3493 360.621 68.3687C361.735 68.3697 362.849 68.3706 363.996 68.3716C367.972 69.2029 369.484 70.881 372 73.9998C372.738 77.9362 372.362 79.4391 370.188 82.8123C366.766 86.2338 363.863 86.1307 359.231 86.1609C358.046 86.1706 356.861 86.1802 355.641 86.1901C354.359 86.1943 353.078 86.1986 351.758 86.2029C350.442 86.2086 349.127 86.2143 347.771 86.2202C344.985 86.2307 342.2 86.2366 339.414 86.24C335.851 86.2455 332.288 86.2696 328.725 86.298C325.319 86.3212 321.914 86.3231 318.508 86.3279C316.592 86.3465 316.592 86.3465 314.638 86.3654C313.446 86.3624 312.255 86.3594 311.028 86.3563C309.982 86.3599 308.937 86.3636 307.859 86.3673C304.554 85.9424 302.673 84.9596 300 82.9998C298.435 79.8704 298.303 76.389 299 72.9998C302.121 69.001 304.264 68.4941 309.25 68.4664Z" fill="white"/>
<path d="M324.613 99.7408C325.975 99.7313 325.975 99.7313 327.364 99.7217C328.824 99.7278 328.824 99.7278 330.312 99.7339C331.318 99.732 332.324 99.7301 333.361 99.7281C335.486 99.7268 337.61 99.7305 339.735 99.7388C342.988 99.7495 346.24 99.7389 349.492 99.7261C351.557 99.7275 353.622 99.73 355.688 99.7339C356.661 99.7299 357.634 99.7259 358.636 99.7217C359.544 99.728 360.451 99.7343 361.387 99.7408C362.581 99.7432 362.581 99.7432 363.8 99.7456C366.277 100.032 367.877 100.71 370 102C372.065 104.654 371.997 106.088 371.875 109.5C370.861 113.557 370.415 114.632 367 117C363.42 117.607 359.874 117.56 356.25 117.531C354.675 117.537 354.675 117.537 353.067 117.542C350.848 117.545 348.629 117.538 346.41 117.521C343.012 117.5 339.617 117.521 336.219 117.546C334.062 117.544 331.906 117.539 329.75 117.531C328.733 117.539 327.717 117.547 326.669 117.555C319.667 117.462 319.667 117.462 316.383 115.185C314.438 112.111 314.129 109.611 314 106C314.801 103.304 315.397 102.366 317.794 100.91C320.243 99.8991 321.971 99.7461 324.613 99.7408Z" fill="white"/>
<path d="M192.845 301.423C194.929 301.437 197.008 301.403 199.092 301.365C200.411 301.367 201.731 301.369 203.09 301.371C204.898 301.37 204.898 301.37 206.742 301.368C210.918 302.177 212.406 303.69 215 307C215.563 310.562 215.563 310.562 215 314C213.133 316.365 211.68 317.66 209 319C204.568 319.271 200.127 319.231 195.688 319.25C194.451 319.27 193.214 319.291 191.94 319.312C190.15 319.32 190.15 319.32 188.324 319.328C186.686 319.342 186.686 319.342 185.015 319.356C181.608 318.953 179.741 318.028 177 316C175.435 312.87 175.303 309.389 176 306C180.419 300.227 186.119 301.361 192.845 301.423Z" fill="white"/>
</g>
<defs>
<clipPath id="clip0_1254_193">
<rect width="512" height="512" fill="white"/>
</clipPath>
</defs>
</svg>
