<svg width="512" height="512" viewBox="0 0 512 512" fill="none" xmlns="http://www.w3.org/2000/svg">
<g clip-path="url(#clip0_1254_185)">
<path d="M361.481 51.0386C363.757 51.6892 366.04 52.3088 368.324 52.9275C381.678 56.6577 393.099 62.1332 400.465 74.449C410.496 93.4362 405.351 112.49 399.543 131.953C396.219 142.655 392.199 152.271 385 161C385.715 161.268 386.431 161.536 387.168 161.812C417.473 173.73 438.131 198.19 451.102 227.488C461.982 252.992 463.16 278.769 463.098 306.113C463.096 308.538 463.094 310.964 463.093 313.389C463.09 319.733 463.08 326.077 463.069 332.421C463.058 338.91 463.054 345.399 463.049 351.888C463.038 364.592 463.021 377.296 463 390C464.013 389.982 465.026 389.965 466.07 389.947C467.422 389.933 468.773 389.919 470.125 389.906C471.123 389.887 471.123 389.887 472.141 389.868C479.309 389.815 485.57 391.093 491.125 395.801C496.559 401.631 499.021 408.06 500.534 415.799C500.661 416.439 500.788 417.079 500.919 417.739C501.334 419.835 501.736 421.933 502.137 424.031C502.424 425.51 502.711 426.988 502.998 428.467C503.598 431.562 504.191 434.659 504.78 437.757C505.529 441.685 506.297 445.609 507.07 449.532C507.67 452.587 508.256 455.643 508.838 458.701C509.116 460.146 509.398 461.591 509.684 463.034C514.899 489.415 514.899 489.415 509.387 498.293C504.294 504.561 499.016 508.332 491 510C484.712 510.447 478.436 510.405 472.135 510.381C470.195 510.384 468.255 510.389 466.315 510.395C460.994 510.407 455.673 510.401 450.352 510.392C444.61 510.385 438.867 510.396 433.125 510.404C421.879 510.417 410.634 510.414 399.389 510.406C390.249 510.399 381.11 510.398 371.971 510.401C370.02 510.402 370.02 510.402 368.03 510.403C365.388 510.404 362.746 510.405 360.103 510.406C336.033 510.414 311.962 510.405 287.892 510.39C265.925 510.375 243.957 510.377 221.99 510.391C197.302 510.407 172.614 510.413 147.926 510.404C145.294 510.403 142.661 510.402 140.029 510.401C138.734 510.401 137.439 510.4 136.104 510.4C126.976 510.397 117.847 510.402 108.719 510.409C97.5944 510.417 86.4703 510.415 75.3461 510.399C69.6701 510.391 63.9942 510.388 58.3182 510.398C53.122 510.407 47.926 510.402 42.7298 510.386C40.8504 510.382 38.971 510.384 37.0916 510.391C14.5953 510.472 14.5952 510.472 5.73044 501.926C-0.506814 494.984 -0.484115 488.095 -0.135095 479.076C0.261386 472.981 1.49865 466.995 2.66794 461.012C2.9482 459.532 3.22768 458.053 3.50642 456.574C4.08845 453.502 4.68032 450.433 5.27952 447.365C6.04101 443.461 6.77636 439.553 7.50434 435.642C8.07443 432.597 8.65877 429.555 9.24723 426.513C9.52391 425.073 9.79622 423.633 10.0638 422.192C11.9849 411.903 14.0691 400.86 22.9848 394.282C30.2991 389.627 38.1781 389.567 46.6006 389.612C48.4485 389.604 48.4485 389.604 50.3338 389.596C53.687 389.585 57.0397 389.587 60.3929 389.597C63.9126 389.604 67.4322 389.597 70.9519 389.593C76.8562 389.587 82.7603 389.594 88.6645 389.609C95.484 389.625 102.303 389.62 109.123 389.603C114.991 389.59 120.86 389.588 126.728 389.596C130.228 389.6 133.727 389.601 137.227 389.591C141.123 389.581 145.02 389.595 148.917 389.612C150.072 389.606 151.228 389.599 152.418 389.593C153.481 389.602 154.543 389.61 155.638 389.619C156.558 389.62 157.478 389.621 158.426 389.622C161.553 390.081 163.448 391.166 166 393C167.546 396.092 167.294 398.594 167 402C164.994 404.605 163.795 405.839 160.538 406.499C159.612 406.499 158.686 406.499 157.731 406.499C156.664 406.508 155.597 406.518 154.498 406.528C153.333 406.518 152.168 406.508 150.967 406.498C149.736 406.504 148.504 406.509 147.236 406.515C144.56 406.524 141.886 406.526 139.21 406.516C134.978 406.501 130.747 406.514 126.515 406.532C118.295 406.563 110.074 406.565 101.854 406.563C91.3944 406.561 80.9347 406.572 70.4749 406.611C66.2697 406.626 62.0647 406.626 57.8595 406.614C54.6271 406.608 51.3947 406.621 48.1623 406.631C46.4174 406.619 46.4174 406.619 44.6372 406.607C43.0327 406.618 43.0327 406.618 41.3957 406.628C40.469 406.627 39.5423 406.627 38.5874 406.626C35.4399 407.081 33.5548 408.132 31 410C29.8445 412.461 29.8445 412.461 29.3562 415.341C29.1264 416.415 28.8965 417.489 28.6597 418.595C28.442 419.719 28.2243 420.842 28 422C27.777 423.072 27.5541 424.145 27.3243 425.25C26.6224 428.676 25.9569 432.108 25.3008 435.543C25.0608 436.792 24.8209 438.041 24.5737 439.328C24.0719 441.948 23.5718 444.569 23.074 447.191C22.4398 450.527 21.7948 453.862 21.1472 457.196C20.5243 460.414 19.9133 463.635 19.3008 466.855C19.0696 468.04 18.8384 469.224 18.6002 470.445C17.4224 476.72 16.4528 482.614 17 489C18.932 491.433 19.9737 491.991 23 493C25.5534 493.097 28.0794 493.137 30.6329 493.131C31.4216 493.133 32.2103 493.135 33.023 493.137C35.6881 493.143 38.3531 493.142 41.0183 493.14C42.9394 493.143 44.8606 493.146 46.7818 493.149C52.0785 493.157 57.3752 493.159 62.6719 493.16C68.3775 493.162 74.0831 493.169 79.7888 493.176C92.272 493.19 104.755 493.196 117.238 493.2C125.028 493.203 132.817 493.207 140.607 493.211C162.159 493.224 183.711 493.234 205.264 493.237C206.658 493.238 208.052 493.238 209.446 493.238C210.843 493.238 212.241 493.238 213.638 493.239C216.441 493.239 219.245 493.24 222.048 493.24C222.743 493.24 223.439 493.24 224.155 493.24C246.702 493.244 269.248 493.26 291.795 493.283C315.624 493.308 339.453 493.322 363.282 493.323C376.275 493.324 389.269 493.329 402.262 493.348C413.323 493.363 424.385 493.368 435.446 493.36C441.093 493.356 446.74 493.357 452.387 493.371C457.553 493.384 462.718 493.382 467.883 493.37C469.756 493.368 471.629 493.371 473.502 493.38C476.04 493.391 478.577 493.384 481.115 493.372C481.849 493.379 482.583 493.387 483.339 493.395C488.137 493.345 491.548 492.452 495 489C495.547 480.598 493.844 472.594 492.262 464.387C491.977 462.884 491.693 461.382 491.409 459.88C490.815 456.748 490.215 453.618 489.611 450.488C488.838 446.481 488.082 442.471 487.331 438.46C486.75 435.364 486.158 432.271 485.563 429.177C485.28 427.699 485.001 426.22 484.725 424.741C484.338 422.676 483.938 420.615 483.534 418.553C483.31 417.381 483.085 416.209 482.854 415.002C481.992 411.973 481.172 410.256 479 408C475.685 406.895 472.796 406.679 469.312 406.437C468.133 406.353 466.953 406.27 465.738 406.183C464.835 406.123 463.931 406.062 463 406C462.87 407.415 462.87 407.415 462.738 408.859C460.962 425.091 455 438.879 442.082 449.504C437.359 452.897 432.191 455.416 427 458C427.062 459.175 427.124 460.351 427.187 461.562C427.172 465.967 426.168 469.113 424 473C417.903 478.651 413.253 478.212 405.25 478.25C403.622 478.281 403.622 478.281 401.961 478.312C395.432 478.344 390.58 478.243 385.521 473.66C383.991 472.135 382.554 470.558 381.125 468.937C380.627 468.395 380.13 467.853 379.617 467.295C376 463.275 376 463.275 376 461C375.229 461.003 374.457 461.007 373.662 461.011C354.848 461.099 336.033 461.166 317.219 461.207C308.12 461.228 299.021 461.256 289.922 461.302C281.987 461.342 274.052 461.367 266.116 461.376C261.919 461.381 257.722 461.393 253.524 461.423C249.564 461.45 245.604 461.458 241.643 461.452C240.199 461.453 238.755 461.461 237.311 461.477C223.374 461.619 210.839 459.11 200.312 449.562C199.549 448.717 198.786 447.871 198 447C197.154 446.072 196.309 445.144 195.437 444.187C187.706 434.68 186.69 424.173 186.699 412.32C186.695 411.112 186.691 409.904 186.686 408.66C186.68 406.113 186.68 403.566 186.684 401.02C186.687 397.144 186.664 393.27 186.639 389.394C186.636 386.911 186.636 384.428 186.637 381.945C186.627 380.797 186.618 379.649 186.609 378.466C186.684 365.243 190.644 354.57 199.625 344.75C209.362 335.553 221.525 332.68 234.511 332.744C235.867 332.739 235.867 332.739 237.249 332.733C239.194 332.727 241.138 332.724 243.083 332.725C246.16 332.726 249.236 332.713 252.312 332.696C261.053 332.65 269.793 332.626 278.534 332.619C283.894 332.614 289.253 332.59 294.613 332.554C296.653 332.544 298.694 332.541 300.735 332.547C303.579 332.554 306.421 332.537 309.265 332.514C310.532 332.526 310.532 332.526 311.825 332.539C316.423 332.532 316.422 332.532 320.046 329.968C320.361 329.318 320.676 328.669 321 328C316.398 326.224 311.793 324.454 307.187 322.687C306.462 322.409 305.737 322.13 304.989 321.843C294.572 317.848 284.13 313.922 273.668 310.047C271.959 309.413 271.959 309.413 270.216 308.767C264.519 306.655 258.82 304.549 253.118 302.45C250.993 301.663 248.867 300.876 246.742 300.09C245.776 299.736 244.809 299.382 243.813 299.018C235.301 295.857 228.229 292.907 222 286.187C220.96 285.106 219.919 284.027 218.875 282.949C218.38 282.435 217.885 281.921 217.375 281.392C215.664 279.659 213.861 278.07 212 276.5C192.716 259.89 192.716 259.89 191.187 246.187C190.266 228.593 190.266 228.593 195 222C198.446 218.959 202.035 218.182 206.539 218.324C211.774 219.761 215.306 224.221 219 228C225.833 234.806 234.187 239.935 244 241C246.715 239.195 246.715 239.195 249 237C253.639 234.68 259.859 235.475 264.756 236.675C267.594 237.632 270.37 238.687 273.152 239.797C274.174 240.187 275.195 240.577 276.247 240.979C279.484 242.219 282.711 243.483 285.937 244.75C289.162 245.996 292.389 247.238 295.617 248.478C297.615 249.248 299.611 250.022 301.604 250.802C308.357 253.432 315.103 255.701 322 258C322 234.57 322 211.14 322 187C318.37 186.34 314.74 185.68 311 185C298.334 181.095 286.872 172.909 280.426 161.121C272.053 143.104 276.694 125.685 281.687 107.312C282.225 105.257 282.761 103.202 283.295 101.146C293.497 62.2241 293.497 62.2241 309.133 51.656C326.351 41.7098 343.473 45.8541 361.481 51.0386ZM314 67.9998C309.264 72.9885 306 78.0009 306 84.9998C312.999 87.0981 319.999 89.1938 327 91.2867C330.254 92.2595 333.508 93.2333 336.761 94.2085C353.794 99.314 370.857 104.278 388 109C390.966 98.8737 390.904 91.5015 386 81.9998C380.603 73.6256 372.794 70.9212 363.625 68.4373C362.571 68.1414 361.517 67.8454 360.431 67.5405C336.575 60.0428 336.575 60.0428 314 67.9998ZM301 99.9998C299.878 104.056 298.757 108.113 297.637 112.17C297.256 113.549 296.875 114.929 296.493 116.308C295.944 118.294 295.396 120.279 294.848 122.265C294.518 123.459 294.188 124.653 293.848 125.884C291.263 135.382 290.519 144.919 295 154C299.74 162.25 306.516 167.242 315.625 169.875C331.401 173.218 346.444 170.664 360.113 162.105C372.977 152.723 379.859 141.177 384 126C384 125.34 384 124.68 384 124C373.474 120.867 362.948 117.738 352.42 114.612C347.532 113.161 342.645 111.708 337.758 110.254C333.045 108.851 328.331 107.451 323.616 106.052C321.815 105.517 320.013 104.981 318.212 104.444C315.696 103.695 313.18 102.948 310.663 102.203C309.912 101.978 309.162 101.754 308.389 101.523C304.757 100.393 304.757 100.393 301 99.9998ZM359.875 179.312C352.65 182.98 346.034 184.592 338 186C338 194.91 338 203.82 338 213C340.216 210.046 340.216 210.046 342.402 207.07C347.973 200.011 354.763 195.707 363.758 194.492C374.673 194.161 383.198 196.394 391.242 203.933C397.128 210.853 399.415 218.799 399.355 227.715C398.493 235.684 395.656 244.479 391 251C387.458 252.232 385.7 252.264 382.187 250.937C379.255 248.34 379.241 246.879 379 243C379.739 240.457 380.53 238.133 381.5 235.687C383.561 229.968 385.365 224.881 383 219C380.781 215.39 378.283 212.797 374.687 210.562C369.205 209.415 364.761 209.103 359.687 211.687C353.335 217.154 351.16 223.218 348.375 230.941C347.495 233.322 346.615 235.703 345.734 238.084C344.592 241.204 343.451 244.326 342.313 247.448C340.762 251.7 339.196 255.946 337.625 260.191C337.221 261.314 336.816 262.437 336.4 263.594C336.013 264.639 335.625 265.683 335.227 266.76C334.892 267.677 334.558 268.595 334.213 269.54C332.839 272.326 331.381 274.015 329 276C322.064 277.241 315.793 273.99 309.418 271.511C307.57 270.81 305.721 270.108 303.873 269.407C301.293 268.425 298.718 267.432 296.143 266.44C291.651 264.711 287.153 262.998 282.654 261.286C280.265 260.376 277.877 259.461 275.491 258.541C273.845 257.911 273.845 257.911 272.165 257.268C270.737 256.718 270.738 256.718 269.281 256.158C264.907 254.614 260.443 253.333 256 252C252.37 261.57 248.74 271.14 245 281C247.725 282.816 249.964 283.844 253.005 284.98C254.03 285.365 255.055 285.75 256.111 286.147C257.226 286.561 258.34 286.975 259.488 287.402C260.647 287.836 261.806 288.27 263 288.718C266.125 289.887 269.251 291.053 272.378 292.217C274.308 292.936 276.238 293.655 278.168 294.375C283.267 296.277 288.367 298.179 293.468 300.076C299.613 302.362 305.755 304.656 311.886 306.981C314.029 307.793 316.174 308.601 318.319 309.406C320.735 310.314 323.148 311.229 325.558 312.154C332.53 314.749 338.493 316.565 345.625 313.375C346.339 313.073 347.053 312.772 347.789 312.461C354.133 308.269 356.439 302.227 359 295.375C359.69 293.593 360.38 291.812 361.07 290.031C361.399 289.171 361.728 288.311 362.067 287.426C363.298 284.225 364.574 281.047 365.875 277.875C366.244 276.965 366.612 276.055 366.992 275.117C368 273 368 273 370 271C373.892 270.567 376.132 270.421 379.437 272.625C381.473 275.718 381.277 277.322 381 281C379.994 284.4 379.994 284.4 378.586 288.086C378.208 289.077 378.208 289.077 377.822 290.088C377.287 291.48 376.747 292.87 376.203 294.258C375.382 296.356 374.587 298.462 373.793 300.57C369.051 312.929 363.61 321.535 351.625 327.75C348.516 328.822 346.092 329.235 342.875 329.625C339.688 330.183 338.402 330.526 336.285 333.019C334.475 336.268 333.175 339.475 332 343C330.375 344 330.375 344 328 345C326.959 345.505 325.918 346.01 324.845 346.53C320.975 348.183 317.271 348.473 313.098 348.512C312.456 348.528 311.814 348.545 311.153 348.562C308.79 348.619 306.426 348.652 304.062 348.687C296.112 348.842 296.112 348.842 288 349C288 362.53 288 376.06 288 390C292.9 390.037 297.799 390.075 302.848 390.113C305.96 390.143 309.073 390.175 312.186 390.209C317.121 390.263 322.056 390.314 326.992 390.346C330.973 390.372 334.954 390.413 338.935 390.463C340.451 390.48 341.966 390.491 343.481 390.497C345.612 390.507 347.741 390.535 349.871 390.567C351.082 390.579 352.292 390.59 353.539 390.601C358.437 391.165 362.314 392.688 366.25 395.75C368.474 398.609 369.619 401.665 371 405C371.884 405.014 371.884 405.014 372.785 405.028C375.503 405.082 378.22 405.166 380.937 405.25C381.864 405.264 382.79 405.278 383.744 405.293C392.159 405.588 399.963 408.01 406.309 413.781C410.387 419.131 412.581 425.774 415 432C415.771 433.979 416.541 435.958 417.312 437.937C417.597 438.709 417.882 439.482 418.176 440.277C418.876 442.194 418.876 442.194 421 443C431.898 438.121 438.543 431.42 443.957 420.98C446.938 412.46 447.292 403.738 447.259 394.793C447.262 393.626 447.266 392.458 447.269 391.255C447.278 387.423 447.272 383.59 447.266 379.758C447.266 377.066 447.269 374.374 447.271 371.683C447.275 366.046 447.27 360.409 447.261 354.772C447.25 348.313 447.253 341.854 447.264 335.395C447.274 329.803 447.275 324.211 447.27 318.619C447.266 315.301 447.267 311.982 447.273 308.663C447.289 296.52 447.25 284.431 446.124 272.331C446.049 271.522 445.973 270.713 445.896 269.879C443.244 245 432.489 222.376 417 203C416.461 202.295 415.922 201.59 415.367 200.863C405.458 188.588 390.652 178.653 375 176C368.988 175.609 365.201 176.423 359.875 179.312ZM207 240C206.532 245.852 207.517 248.35 211 253C212.835 255.066 214.771 257.009 216.75 258.937C217.275 259.456 217.8 259.974 218.341 260.509C222.417 264.505 226.618 268.339 231 272C232.914 269.129 233.964 266.666 235.125 263.437C235.655 261.981 235.655 261.981 236.195 260.496C237.102 258.12 237.102 258.12 237 256C236.189 255.72 235.378 255.44 234.543 255.152C226.632 252.288 219.914 248.767 213 244C211.772 243.186 210.543 242.373 209.312 241.562C208.549 241.047 207.786 240.531 207 240ZM208 360C204.761 365.028 202.889 369.979 202.823 375.955C202.81 376.964 202.797 377.972 202.784 379.011C202.777 380.102 202.769 381.193 202.762 382.316C202.754 383.442 202.746 384.569 202.737 385.729C202.723 388.117 202.713 390.505 202.705 392.894C202.688 396.524 202.644 400.153 202.6 403.783C202.589 406.107 202.581 408.43 202.574 410.754C202.557 411.83 202.539 412.907 202.521 414.016C202.546 422.798 204.221 430.248 210.25 436.875C216.385 442.469 223.127 445.128 231.378 445.12C232.469 445.121 233.56 445.123 234.684 445.124C236.472 445.119 236.472 445.119 238.296 445.113C239.555 445.113 240.813 445.114 242.11 445.114C245.558 445.114 249.006 445.108 252.454 445.101C256.059 445.095 259.664 445.094 263.269 445.093C270.093 445.09 276.918 445.082 283.742 445.072C291.513 445.061 299.283 445.055 307.053 445.05C323.035 445.04 339.018 445.022 355 445C355.025 439.606 355.043 434.213 355.055 428.819C355.06 426.983 355.067 425.147 355.075 423.311C355.087 420.677 355.093 418.044 355.098 415.41C355.103 414.584 355.108 413.758 355.113 412.907C355.113 410.937 355.062 408.968 355 407C353.042 405.042 350.043 405.869 347.436 405.856C346.018 405.857 346.018 405.857 344.571 405.858C343.581 405.854 342.59 405.851 341.57 405.847C339.412 405.84 337.254 405.835 335.096 405.831C331.684 405.824 328.272 405.808 324.861 405.79C315.157 405.737 305.454 405.689 295.75 405.674C289.823 405.664 283.896 405.635 277.968 405.593C275.704 405.58 273.44 405.575 271.177 405.577C268.013 405.58 264.851 405.558 261.688 405.53C260.747 405.536 259.805 405.543 258.835 405.55C252.519 405.458 252.519 405.458 249.914 403.158C248.689 400.266 248.669 398.11 249 395C251 392 251 392 254 391C259.94 390.67 265.88 390.34 272 390C272 376.47 272 362.94 272 349C265.774 348.931 259.549 348.871 253.323 348.835C251.209 348.82 249.095 348.8 246.98 348.773C243.927 348.737 240.874 348.72 237.82 348.707C236.888 348.691 235.955 348.676 234.994 348.66C223.808 348.657 215.453 351.452 208 360ZM371 421C371 428.92 371 436.84 371 445C374.63 445.33 378.26 445.66 382 446C385.723 448.234 387.455 450.205 389.902 453.777C390.972 455.28 390.972 455.28 392.062 456.812C392.693 457.788 393.323 458.764 393.973 459.769C398.843 463.357 404.151 462.399 410 462C408.512 458.014 407.019 454.031 405.52 450.049C405.012 448.698 404.506 447.346 404.001 445.993C399.864 433.214 399.864 433.214 392.336 422.515C387.938 420.517 384.38 420.554 379.625 420.75C376.779 420.832 373.932 420.915 371 421Z" fill="white"/>
<path d="M103.563 43.75C104.657 43.7242 105.751 43.6984 106.879 43.6719C110.365 44.0384 112.19 44.9506 115 47C117.327 49.9917 117.489 53.3116 117.371 57.0508C116.459 61.8411 111.744 64.1899 108.063 66.875C100.316 72.6086 95.9545 79.3222 93.25 88.5625C92.2369 98.4402 93.9204 108.139 99.75 116.438C105.659 123.493 113.724 128.896 123 130C133.589 130.867 143.743 127.773 152 121C154.539 117.986 156.773 114.962 158.992 111.707C160.869 109.176 162.298 107.582 165 106C169.788 105.468 171.864 105.275 175.938 107.875C179.752 111.806 179.305 115.394 179.317 120.704C178.956 139.673 169.417 155.789 156.848 169.316C142.765 182.718 123.329 189.701 104.008 189.25C83.1519 187.517 64.7037 179.226 50.6875 163.387C38.3651 148.005 32.2416 128.694 34.3164 108.996C37.0952 87.792 47.12 70.1944 64 57C75.6385 48.8645 89.3107 43.9519 103.563 43.75ZM85 64C70.3257 71.114 59.8568 81.3142 53.5859 96.4023C48.6681 111.28 49.034 125.898 55.5977 140.262C63.2835 155.269 74.9751 165.361 90.9627 170.649C106.68 175.018 122.578 171.594 136.637 164.004C146.049 158.396 152.819 150.638 158 141C158 140.01 158 139.02 158 138C157.308 138.277 156.616 138.554 155.902 138.84C154.945 139.223 153.987 139.606 153 140C151.97 140.414 150.94 140.828 149.879 141.254C148.784 141.686 147.69 142.118 146.563 142.562C144.925 143.214 144.925 143.214 143.254 143.879C131.169 148.043 117.78 146.763 106.156 141.781C92.0819 134.665 83.722 124.236 78.7461 109.453C74.9063 96.8279 76.7096 83.042 82.6875 71.375C83.1245 70.599 83.5615 69.823 84.0117 69.0234C85.2194 66.926 85.2194 66.926 85 64Z" fill="white"/>
<path d="M79.281 419.337C80.0899 419.327 80.8988 419.317 81.7323 419.306C84.3937 419.279 87.0534 419.289 89.7148 419.301C91.5728 419.295 93.4307 419.288 95.2887 419.279C99.1782 419.268 103.067 419.274 106.957 419.294C111.932 419.316 116.905 419.29 121.879 419.248C125.715 419.223 129.55 419.225 133.386 419.236C135.22 419.238 137.053 419.23 138.887 419.213C141.455 419.193 144.021 419.212 146.59 419.24C147.34 419.226 148.091 419.212 148.865 419.198C154.054 419.312 156.758 420.838 160.569 424.324C164.363 428.769 164.307 433.068 164.301 438.711C164.305 439.557 164.309 440.403 164.314 441.274C164.319 443.061 164.32 444.848 164.316 446.635C164.312 449.359 164.336 452.081 164.361 454.805C164.364 456.545 164.364 458.284 164.363 460.024C164.372 460.833 164.382 461.643 164.391 462.477C164.351 467.391 163.697 470.734 161 475C155.841 479.772 151.736 480.152 144.952 480.161C144.132 480.166 143.312 480.171 142.467 480.176C139.753 480.191 137.039 480.198 134.324 480.203C132.437 480.209 130.55 480.215 128.663 480.221C124.704 480.231 120.746 480.237 116.787 480.241C111.72 480.246 106.653 480.27 101.585 480.299C97.6861 480.317 93.787 480.322 89.8879 480.324C88.02 480.327 86.1521 480.335 84.2843 480.348C81.6681 480.365 79.0525 480.363 76.4363 480.357C75.2835 480.371 75.2835 480.371 74.1074 480.385C69.321 480.348 66.0627 479.537 62 477C58.031 472.71 56.7427 469.481 56.8218 463.622C57.1809 458.339 58.0904 453.127 58.9714 447.909C59.3126 445.875 59.6363 443.838 59.959 441.801C60.1749 440.503 60.3908 439.205 60.6133 437.867C60.807 436.693 61.0008 435.518 61.2004 434.308C62.5755 428.619 64.5989 424.77 69.2178 421.056C72.3784 419.184 75.7212 419.297 79.281 419.337ZM78 436C75.2834 449.964 75.2834 449.964 73 464C97.75 464 122.5 464 148 464C148 454.76 148 445.52 148 436C124.9 436 101.8 436 78 436Z" fill="white"/>
<path d="M374 340C380.881 345.03 386.798 351.645 392.802 357.672C394.455 359.33 396.113 360.983 397.771 362.635C398.826 363.69 399.88 364.745 400.934 365.801C401.428 366.294 401.923 366.786 402.433 367.294C405.788 370.673 406.906 372.033 407.375 376.875C407.32 380.204 407.135 380.833 404.938 383.563C400.93 385.524 399.255 385.37 395 384C388.281 379.101 382.538 372.693 376.68 366.81C375.111 365.236 373.536 363.667 371.961 362.098C370.955 361.092 369.95 360.085 368.945 359.078C368.043 358.175 367.141 357.272 366.211 356.341C363.362 353.325 362.068 351.753 361.688 347.563C362.012 343.864 362.368 342.535 365 340C368.739 338.754 370.211 338.856 374 340Z" fill="white"/>
<path d="M204 63.9997C206.82 66.3647 206.978 67.8278 207.437 71.4997C207 74.9997 207 74.9997 205.5 77.4372C201.979 79.638 199.046 79.8039 195 78.9997C192.5 77.4372 192.5 77.4372 191 74.9997C190.531 71.2462 190.469 68.9613 192.312 65.6247C195.914 62.1562 199.441 62.9413 204 63.9997Z" fill="white"/>
<path d="M167.191 25.3319C169 25.9999 169 25.9999 171.062 28.1249C172.277 31.8486 171.978 34.2276 171 37.9999C169.937 39.9374 169.937 39.9374 168 40.9999C161.25 41.7499 161.25 41.7499 157.5 39.4999C155.383 35.9715 155.074 33.0085 156 28.9999C159.239 24.8495 162.264 24.3912 167.191 25.3319Z" fill="white"/>
<path d="M211 2.99981C213.833 4.75845 214.029 6.10377 214.938 9.37481C215 12.9998 215 12.9998 213.375 15.8748C210.701 18.2672 209.575 18.9998 206 18.9998C200.362 16.7227 200.362 16.7227 199 13.9998C198.536 6.68537 198.536 6.68537 200.313 4.06231C204.109 1.67216 206.779 1.94457 211 2.99981Z" fill="white"/>
</g>
<defs>
<clipPath id="clip0_1254_185">
<rect width="512" height="512" fill="white"/>
</clipPath>
</defs>
</svg>
