<svg width="512" height="512" viewBox="0 0 512 512" fill="none" xmlns="http://www.w3.org/2000/svg">
<path d="M146 70.9998C148.56 71.9869 148.56 71.9869 151.148 73.3866C152.138 73.9064 153.127 74.4263 154.146 74.962C155.744 75.816 155.744 75.816 157.375 76.6873C167.533 81.9484 177.813 86.5751 188.438 90.8123C189.462 91.2218 189.462 91.2218 190.507 91.6396C193.814 92.9604 197.124 94.275 200.436 95.5853C233.06 108.532 233.06 108.532 246 120C246.686 120.58 247.372 121.16 248.078 121.758C254.649 127.734 258.691 135.339 263 143C263.389 142.189 263.779 141.378 264.18 140.543C272.304 124.463 284.355 114.138 300.367 106.156C301.057 105.812 301.747 105.468 302.457 105.114C309.421 101.702 316.567 98.8361 323.796 96.0411C335.158 91.6397 346.427 87.0905 357.5 81.9998C358.417 81.5798 359.333 81.1598 360.277 80.7271C364.895 78.5715 369.312 76.2476 373.719 73.6873C378.038 71.34 381.022 69.8031 386 70.9998C388.68 72.8651 390.803 75.096 393 77.4998C393.92 78.4629 393.92 78.4629 394.858 79.4454C398.509 83.2948 402.067 87.2288 405.496 91.2772C407.627 93.7182 409.943 95.953 412.254 98.2225C414.065 100.066 415.753 101.978 417.438 103.937C419.856 106.746 422.359 109.4 425 112C428.25 115.2 431.247 118.542 434.219 122C436.074 124.083 438.012 126.043 440 128C443.879 131.826 447.5 135.825 451 140C451.615 140.73 452.23 141.461 452.864 142.213C455.157 145.204 456.976 148.257 458.82 151.543C459.165 152.152 459.51 152.762 459.865 153.39C460.956 155.32 462.041 157.253 463.125 159.187C464.217 161.132 465.31 163.075 466.406 165.017C467.397 166.77 468.382 168.526 469.368 170.282C470.869 173.03 470.869 173.03 473 175C474.516 174.01 474.516 174.01 476.062 173C479.836 170.861 482.63 170.34 487 171C491.842 175.071 494.55 180.666 497.656 186.08C498.684 187.869 499.729 189.647 500.775 191.426C501.431 192.561 502.086 193.697 502.762 194.867C503.359 195.899 503.957 196.932 504.573 197.995C506.078 201.164 506.868 203.493 507 207C505.208 211.301 502.871 213.029 498.836 215.199C497.805 215.763 496.775 216.327 495.713 216.908C494.612 217.495 493.51 218.082 492.375 218.687C490.079 219.941 487.783 221.196 485.488 222.453C484.369 223.062 483.25 223.671 482.096 224.299C478.205 226.437 474.375 228.663 470.562 230.937C463.593 235.075 456.585 239.141 449.562 243.187C448.457 243.825 447.351 244.462 446.212 245.118C442.808 247.079 439.404 249.04 436 251C420.332 260.024 404.684 269.081 389.073 278.204C383.551 281.431 378.025 284.652 372.5 287.875C370.469 289.06 368.437 290.245 366.406 291.43C364.938 292.286 363.469 293.143 362 294C365.408 296.845 368.835 299.182 372.699 301.363C374.369 302.311 374.369 302.311 376.073 303.277C376.955 303.774 376.955 303.774 377.855 304.281C380.367 305.695 382.873 307.118 385.379 308.541C386.676 309.277 387.973 310.013 389.27 310.747C396.638 314.922 403.972 319.157 411.3 323.401C416.324 326.308 421.352 329.206 426.404 332.064C428.8 333.42 431.192 334.781 433.584 336.144C435.266 337.098 436.952 338.044 438.639 338.99C439.662 339.574 440.685 340.157 441.738 340.758C442.636 341.264 443.533 341.771 444.458 342.293C450.31 346.222 453.084 350.538 455.793 356.832C456.137 357.605 456.481 358.378 456.835 359.174C457.964 361.715 459.076 364.264 460.188 366.812C460.971 368.59 461.757 370.366 462.543 372.142C463.769 374.913 464.994 377.684 466.215 380.457C469.136 387.085 472.125 393.68 475.148 400.262C476.387 402.968 477.624 405.674 478.861 408.381C479.657 410.116 480.456 411.85 481.259 413.582C482.382 416.008 483.491 418.441 484.598 420.875C484.929 421.582 485.261 422.288 485.602 423.017C487.72 427.719 488.948 431.806 489 437C486.877 439.914 485.609 440.878 482.05 441.589C480.9 441.628 479.75 441.667 478.564 441.708C476.598 441.785 476.598 441.785 474.592 441.863C473.155 441.896 471.718 441.926 470.281 441.953C469.181 441.977 469.181 441.977 468.058 442.002C464.148 442.086 460.239 442.143 456.329 442.181C453.149 442.215 449.977 442.298 446.8 442.427C423.961 443.334 409.054 440.263 390.105 427.094C384.834 423.539 379.289 420.491 373.75 417.375C371.597 416.135 369.446 414.893 367.297 413.648C366.25 413.042 365.202 412.436 364.123 411.811C358.087 408.31 352.063 404.79 346.038 401.269C338.707 396.987 331.357 392.738 324 388.5C315.612 383.668 307.236 378.816 298.875 373.937C297.907 373.375 296.938 372.812 295.94 372.232C290.713 369.19 285.513 366.109 280.34 362.976C279.248 362.322 278.155 361.667 277.03 360.992C274.93 359.733 272.837 358.461 270.751 357.177C269.809 356.615 268.866 356.052 267.895 355.473C267.068 354.97 266.241 354.467 265.39 353.949C262.396 352.76 261.038 353.003 258 354C255.588 355.147 255.588 355.147 253.176 356.633C251.777 357.459 251.777 357.459 250.35 358.303C249.347 358.904 248.345 359.505 247.312 360.125C245.142 361.409 242.972 362.693 240.801 363.976C239.679 364.642 238.557 365.307 237.401 365.993C231.958 369.205 226.479 372.351 221 375.5C212.652 380.307 204.318 385.139 196 390C182.27 398.023 168.489 405.958 154.709 413.895C151.431 415.784 148.153 417.673 144.875 419.562C143.468 420.372 143.468 420.372 142.032 421.199C140.589 422.03 140.589 422.03 139.117 422.879C138.041 423.475 136.966 424.07 135.857 424.684C132.789 426.446 129.98 428.452 127.127 430.542C109.767 442.677 94.5003 442.895 74.1359 442.194C70.9125 442.1 67.6902 442.076 64.4656 442.054C60.5964 442.024 56.7281 441.955 52.8594 441.883C52.1313 441.872 51.4032 441.862 50.6531 441.851C48.6004 441.814 46.5506 441.75 44.499 441.676C43.3368 441.643 42.1745 441.609 40.977 441.575C37.4069 440.885 36.1804 439.864 34 437C33.1549 431.84 35.0669 427.896 37.2617 423.34C37.6039 422.605 37.9461 421.871 38.2987 421.114C39.4182 418.717 40.5529 416.328 41.6875 413.937C42.4674 412.272 43.246 410.606 44.0232 408.94C45.2049 406.406 46.3873 403.873 47.5738 401.342C51.1532 393.702 54.6221 386.016 58.0625 378.312C58.5951 377.136 59.1277 375.959 59.6765 374.747C61.9524 369.703 64.1655 364.67 66.1211 359.492C69.8433 349.79 73.0165 344.798 82.7358 340.139C86.5462 338.222 90.1946 336.026 93.876 333.873C97.2531 331.899 100.642 329.947 104.035 328C110.736 324.153 117.432 320.297 124.125 316.437C125.712 315.523 125.712 315.523 127.33 314.589C138.577 308.099 149.791 301.555 161 295C157.571 292.135 154.121 289.794 150.23 287.601C149.107 286.965 147.983 286.328 146.826 285.671C145.937 285.172 145.937 285.172 145.03 284.662C141.865 282.881 138.709 281.086 135.551 279.293C134.91 278.93 134.27 278.567 133.61 278.193C127.671 274.822 121.768 271.389 115.875 267.937C107.64 263.119 99.3908 258.327 91.125 253.562C90.0461 252.94 88.9671 252.318 87.8555 251.678C84.5706 249.785 81.2853 247.892 78 246C64.9855 238.504 51.9754 231.001 39 223.437C37.5592 222.598 37.5592 222.598 36.0894 221.742C34.274 220.682 32.4603 219.62 30.6484 218.554C28.8255 217.484 26.997 216.424 25.1641 215.371C24.2643 214.848 23.3645 214.324 22.4375 213.785C21.6318 213.321 20.8262 212.857 19.9961 212.379C18 211 18 211 16 208C16.2585 202.614 17.8272 198.897 20.4922 194.262C20.8388 193.655 21.1854 193.048 21.5425 192.423C22.2718 191.152 23.0066 189.884 23.7466 188.619C24.8778 186.683 25.9888 184.736 27.0977 182.787C32.5752 173.283 32.5752 173.283 36 171C43.0004 169.857 47.4349 173.238 53 177C53.4018 175.937 53.4018 175.937 53.8118 174.852C56.0004 169.598 58.9168 164.715 61.6875 159.75C62.2876 158.655 62.8876 157.561 63.5059 156.433C68.3962 147.661 73.7294 139.909 81 132.937C84.6198 129.4 88.0009 125.773 91.2891 121.93C93.7457 119.159 96.3936 116.597 99.0312 114C100.94 112.061 102.727 110.063 104.5 108C107.516 104.49 110.731 101.249 114.027 98.0037C116.573 95.4174 118.92 92.6845 121.285 89.9334C123.495 87.4416 125.856 85.1305 128.234 82.8006C130.768 80.2166 133.094 77.4679 135.422 74.6991C138.807 71.0545 141.192 70.5793 146 70.9998ZM144 86.9998C143.536 87.5245 143.072 88.0491 142.594 88.5897C135.569 96.4667 128.32 104.127 121.074 111.801C117.219 115.888 113.372 119.985 109.538 124.093C106.369 127.488 103.179 130.858 99.9492 134.195C98.9711 135.216 98.9711 135.216 97.9731 136.257C96.7282 137.556 95.4756 138.847 94.2144 140.129C93.6602 140.71 93.1061 141.292 92.5352 141.89C92.0441 142.396 91.5531 142.902 91.0471 143.423C89.6313 145.24 89.6313 145.24 90 149C92.0266 150.865 93.9406 152.377 96.1875 153.937C97.186 154.647 97.186 154.647 98.2046 155.371C126.526 175.194 157.507 189.721 189.645 202.168C191.004 202.694 191.004 202.694 192.391 203.232C196.83 204.946 201.274 206.644 205.728 208.319C224 215.247 241.514 223.412 254 239C254.66 239.66 255.32 240.32 256 241C256.025 234.815 256.043 228.63 256.055 222.445C256.06 220.351 256.067 218.256 256.075 216.162C256.119 205.457 256.092 194.772 255.574 184.078C255.537 183.297 255.5 182.517 255.462 181.712C254.394 162.18 250.027 143.911 235.363 129.965C220.916 117.953 202.036 111.974 184.779 105.295C170.896 99.8725 157.287 93.7546 144 86.9998ZM374.398 90.1678C373.45 90.6426 372.501 91.1174 371.523 91.6065C370.484 92.1282 369.445 92.6499 368.375 93.1873C356.773 98.8984 344.946 103.748 332.875 108.37C326.021 110.997 319.211 113.697 312.473 116.609C311.834 116.882 311.195 117.155 310.537 117.436C294.16 124.61 282.212 135.116 274.812 151.562C271.008 161.772 269.895 172.741 269.422 183.555C269.381 184.452 269.34 185.35 269.298 186.276C268.844 197.286 268.891 208.295 268.938 219.312C268.943 221.433 268.947 223.553 268.951 225.674C268.962 230.782 268.979 235.891 269 241C272.514 237.51 272.514 237.51 275.895 233.894C290.927 217.576 312.972 210.674 333.134 202.95C369.569 188.99 405.742 173.075 436 148C434.423 144.282 432.119 141.751 429.375 138.812C428.898 138.299 428.42 137.786 427.929 137.257C426.291 135.499 424.646 133.749 423 132C422.393 131.353 421.785 130.705 421.159 130.038C417.132 125.748 413.097 121.465 409.06 117.184C405.744 113.668 402.433 110.148 399.125 106.625C398.506 105.968 397.887 105.311 397.25 104.634C394.441 101.642 391.657 98.635 388.945 95.5545C388.255 94.7741 388.255 94.7741 387.55 93.9779C386.344 92.6064 385.148 91.2253 383.953 89.8436C380.553 86.6338 378.108 88.2714 374.398 90.1678ZM440.875 162.375C408.335 188.535 368.212 204.88 329.489 219.557C297.96 231.525 297.96 231.525 277 257C272.178 268.706 270.862 280.444 270 293C285.6 284.529 301.148 275.945 316.417 266.888C322.728 263.146 329.08 259.476 335.438 255.812C337.096 254.856 337.096 254.856 338.788 253.881C342.192 251.92 345.596 249.96 349 248C361.683 240.695 374.362 233.384 387 226C395.278 221.163 403.569 216.351 411.875 211.562C412.942 210.947 414.009 210.332 415.109 209.698C420.186 206.771 425.265 203.847 430.345 200.927C432.125 199.903 433.905 198.879 435.684 197.855C437.913 196.572 440.144 195.29 442.375 194.01C447.988 190.778 453.533 187.474 459 184C457.403 178.168 454.478 173.295 451.438 168.125C450.93 167.246 450.423 166.367 449.9 165.461C448.011 162.193 448.011 162.193 446 159C444.03 159 442.293 161.191 440.875 162.375ZM79 160C74.38 167.92 69.76 175.84 65 184C68.0648 186.298 70.932 188.193 74.2344 190.082C75.2708 190.677 76.3072 191.272 77.375 191.885C78.4887 192.521 79.6025 193.157 80.75 193.812C83.1205 195.172 85.4899 196.533 87.8594 197.894C88.7606 198.412 88.7606 198.412 89.6801 198.939C95.4701 202.264 101.237 205.629 107 209C119.637 216.385 132.317 223.695 145 231C158.676 238.876 172.34 246.771 185.966 254.733C195.41 260.247 204.882 265.714 214.359 271.172C218.358 273.475 222.354 275.783 226.345 278.099C228.124 279.131 229.904 280.162 231.684 281.193C233.915 282.486 236.146 283.781 238.375 285.078C243.839 288.241 249.315 291.253 255 294C255.319 276.991 252.356 259.243 241 246C240.377 245.181 239.755 244.363 239.113 243.519C227.864 230.107 207.892 223.949 192.073 217.874C154.916 203.577 116.673 188.292 85.5664 162.863C82.9567 160.724 82.9567 160.724 79 160ZM42 188C40.5685 190.082 39.2094 192.17 37.875 194.312C37.4896 194.907 37.1041 195.502 36.707 196.115C35.7221 197.695 34.8531 199.345 34 201C35.2478 204.743 36.2168 204.96 39.6172 206.793C40.6028 207.332 41.5885 207.872 42.604 208.428C44.2231 209.299 44.2231 209.299 45.875 210.187C48.1736 211.447 50.4707 212.71 52.7656 213.976C53.3605 214.304 53.9554 214.632 54.5684 214.969C61.004 218.528 67.3142 222.287 73.625 226.062C82.8545 231.571 92.1417 236.951 101.515 242.212C109.33 246.603 117.077 251.103 124.814 255.631C132.153 259.926 139.508 264.191 146.875 268.437C147.954 269.059 149.032 269.681 150.143 270.321C153.429 272.215 156.714 274.107 160 276C173.676 283.876 187.34 291.771 200.966 299.733C211.526 305.899 222.121 312.005 232.718 318.109C239.229 321.86 245.737 325.617 252.245 329.372C257.686 332.512 263.127 335.65 268.57 338.785C280.054 345.402 291.522 352.046 302.966 358.733C313.526 364.899 324.121 371.005 334.718 377.109C341.229 380.86 347.737 384.617 354.245 388.372C359.686 391.512 365.127 394.65 370.57 397.785C382.458 404.635 394.33 411.509 406.174 418.434C407.563 419.246 407.563 419.246 408.98 420.074C409.784 420.544 410.587 421.014 411.415 421.499C412.268 421.994 413.121 422.489 414 423C415.096 423.712 416.191 424.424 417.32 425.158C421.101 427.306 424.621 427.519 428.902 427.39C429.625 427.385 430.347 427.379 431.092 427.373C433.374 427.351 435.655 427.301 437.938 427.25C439.495 427.23 441.053 427.212 442.611 427.195C446.408 427.151 450.204 427.082 454 427C450.571 424.135 447.121 421.794 443.23 419.601C442.107 418.965 440.983 418.328 439.826 417.671C438.937 417.172 438.937 417.172 438.03 416.662C434.865 414.881 431.709 413.086 428.551 411.293C427.91 410.93 427.27 410.567 426.61 410.193C420.671 406.822 414.768 403.389 408.875 399.937C400.64 395.119 392.391 390.327 384.125 385.562C383.046 384.94 381.967 384.318 380.855 383.678C377.571 381.785 374.285 379.892 371 378C357.324 370.123 343.66 362.229 330.034 354.267C319.474 348.101 308.879 341.995 298.282 335.891C291.771 332.14 285.263 328.383 278.755 324.627C273.314 321.488 267.873 318.35 262.43 315.215C250.946 308.598 239.478 301.953 228.034 295.267C217.474 289.101 206.879 282.995 196.282 276.891C189.771 273.14 183.263 269.383 176.755 265.627C171.314 262.488 165.873 259.35 160.43 256.215C148.946 249.598 137.478 242.953 126.034 236.267C118.744 232.01 111.439 227.779 104.125 223.562C103.048 222.941 101.97 222.32 100.86 221.68C95.3589 218.509 89.8558 215.342 84.3516 212.176C82.1509 210.909 79.9504 209.642 77.75 208.375C76.6855 207.762 75.621 207.149 74.5242 206.517C66.1718 201.698 57.8643 196.806 49.5869 191.859C48.7319 191.35 47.877 190.841 46.9961 190.316C46.2451 189.867 45.4942 189.418 44.7205 188.955C43.1823 187.919 43.1823 187.919 42 188ZM473.062 192.062C465.552 196.514 458.004 200.895 450.438 205.25C441.943 210.141 433.462 215.054 425 220C413.453 226.747 401.871 233.433 390.282 240.109C384.853 243.237 379.427 246.368 374 249.5C367.478 253.263 360.955 257.026 354.43 260.785C343.938 266.83 333.455 272.891 323 279C314.367 284.043 305.721 289.063 297.062 294.062C295.991 294.682 294.919 295.301 293.814 295.939C287.906 299.347 281.976 302.712 276 306C279.223 308.889 282.727 311.171 286.438 313.375C287.344 313.919 288.25 314.463 289.184 315.023C293.048 316.363 294.284 315.733 298 314C301.641 312.031 305.196 309.933 308.75 307.812C310.911 306.537 313.073 305.262 315.234 303.988C316.908 302.999 316.908 302.999 318.615 301.991C324.056 298.791 329.528 295.646 335 292.5C343.348 287.692 351.682 282.861 360 278C373.73 269.977 387.511 262.041 401.291 254.104C413.861 246.863 426.418 239.601 438.942 232.28C446.465 227.886 454.011 223.532 461.562 219.187C470.768 213.889 479.928 208.524 489 203C487.629 199.323 485.963 196.047 483.938 192.687C483.41 191.804 482.883 190.921 482.34 190.012C481.898 189.348 481.456 188.684 481 188C478.425 188 475.291 190.733 473.062 192.062ZM171.691 305.972C170.565 306.617 169.439 307.262 168.278 307.926C167.04 308.638 165.801 309.35 164.562 310.062C163.289 310.793 162.015 311.523 160.741 312.253C156.826 314.499 152.913 316.749 149 319C147.838 319.668 146.675 320.336 145.513 321.004C135.852 326.56 126.203 332.137 116.566 337.734C115.524 338.339 114.482 338.943 113.408 339.566C111.362 340.762 109.322 341.967 107.289 343.183C103.14 345.659 99.0968 348.047 94.625 349.89C81.4666 355.615 77.7699 368.487 72.6499 381.023C70.1194 387.186 67.3265 393.232 64.5718 399.297C62.3575 404.187 60.1828 409.095 58 414C58.66 414.33 59.32 414.66 60 415C62.533 413.856 62.533 413.856 65.4062 412.125C67.0909 411.153 67.0909 411.153 68.8096 410.161C70.0398 409.441 71.2699 408.721 72.5 408C73.7688 407.264 75.038 406.529 76.3076 405.795C78.9269 404.279 81.5435 402.759 84.1582 401.235C87.6977 399.174 91.2456 397.127 94.7969 395.086C106.212 388.523 117.597 381.909 128.966 375.267C141.71 367.825 154.503 360.47 167.291 353.104C173.775 349.369 180.256 345.63 186.735 341.885C189.555 340.257 192.377 338.634 195.2 337.012C197.99 335.408 200.776 333.797 203.562 332.187C205.116 331.298 205.116 331.298 206.702 330.39C207.647 329.842 208.592 329.295 209.566 328.73C210.819 328.009 210.819 328.009 212.096 327.274C214.139 326.134 214.139 326.134 215 324C213.958 323.419 213.958 323.419 212.896 322.826C209.68 321.031 206.465 319.234 203.25 317.437C202.158 316.828 201.066 316.219 199.941 315.592C193.331 311.895 186.771 308.132 180.257 304.27C176.487 302.149 175.388 303.853 171.691 305.972ZM339.855 305.816C338.785 306.416 337.714 307.016 336.611 307.635C335.481 308.271 334.352 308.907 333.188 309.562C332.1 310.171 331.013 310.78 329.893 311.408C322.55 315.531 315.26 319.734 308 324C310.415 326.678 313.011 328.304 316.137 330.082C317.696 330.974 317.696 330.974 319.287 331.885C320.409 332.521 321.531 333.157 322.688 333.812C324.463 334.826 326.238 335.842 328.013 336.858C329.226 337.552 330.44 338.246 331.654 338.939C337.458 342.255 343.231 345.623 349 349C361.637 356.385 374.317 363.695 387 371C399.683 378.305 412.362 385.617 425 393C426.95 394.137 428.901 395.273 430.852 396.41C434.697 398.652 438.537 400.903 442.372 403.164C444.783 404.583 447.199 405.995 449.616 407.407C451.347 408.421 453.074 409.444 454.801 410.467C455.844 411.074 456.886 411.682 457.961 412.308C458.887 412.853 459.813 413.398 460.767 413.959C461.504 414.302 462.241 414.646 463 415C463.66 414.67 464.32 414.34 465 414C464.272 412.408 463.544 410.817 462.816 409.226C462.163 407.798 461.51 406.37 460.858 404.942C459.045 400.971 457.224 397.004 455.388 393.043C452.194 386.129 449.024 379.249 446.309 372.129C441.452 359.585 436.845 353.89 424.633 348.276C419.402 345.741 414.448 342.69 409.438 339.75C407.187 338.451 404.936 337.154 402.684 335.859C396.443 332.26 390.219 328.635 384 325C375.785 320.202 367.564 315.413 359.329 310.648C357.589 309.64 355.85 308.631 354.111 307.621C353.065 307.016 352.019 306.412 350.941 305.789C350.01 305.25 349.079 304.71 348.119 304.155C344.531 302.199 343.359 303.85 339.855 305.816ZM222.328 337.008C220.638 337.982 220.638 337.982 218.914 338.977C217.692 339.693 216.471 340.409 215.25 341.125C213.984 341.859 212.717 342.593 211.45 343.326C208.233 345.189 205.022 347.062 201.813 348.94C199.12 350.514 196.423 352.083 193.727 353.652C189.81 355.933 185.897 358.219 181.984 360.508C170.259 367.36 158.478 374.117 146.709 380.895C134.146 388.132 121.593 395.385 109.08 402.709C103.699 405.855 98.3057 408.976 92.8945 412.07C91.7011 412.754 90.5078 413.437 89.3145 414.121C87.0332 415.428 84.749 416.729 82.4629 418.027C81.4297 418.619 80.3965 419.211 79.332 419.82C78.4217 420.339 77.5114 420.857 76.5735 421.391C73.8712 423.08 71.4489 424.964 69 427C92.397 429.298 107.175 426.464 126.658 413.219C131.998 409.62 137.644 406.536 143.25 403.375C145.403 402.136 147.554 400.893 149.703 399.648C150.75 399.042 151.798 398.436 152.877 397.811C158.914 394.309 164.94 390.788 170.966 387.267C181.509 381.111 192.086 375.015 202.665 368.922C206.088 366.949 209.509 364.975 212.93 363C223.94 356.643 234.951 350.288 246 344C246 343.34 246 342.68 246 342C243.756 340.656 241.506 339.325 239.25 338C238.299 337.428 238.299 337.428 237.328 336.844C231.24 333.292 228.289 333.541 222.328 337.008Z" fill="white"/>
</svg>
