<svg width="45" height="45" viewBox="0 0 45 45" fill="none" xmlns="http://www.w3.org/2000/svg">
<path d="M25.6633 15.293C25.7115 15.3326 25.7597 15.3722 25.8094 15.413C26.4618 15.9519 27.0935 16.5116 27.7123 17.0887C27.8781 17.2429 28.0448 17.3962 28.2114 17.5496C28.7842 18.079 29.3463 18.6071 29.8583 19.1965C30.0606 19.427 30.2688 19.6504 30.4788 19.8737C31.0087 20.4375 31.508 21.0166 31.9914 21.6211C32.0818 21.731 32.1723 21.8407 32.263 21.9503C32.8795 22.698 33.4613 23.461 34.0129 24.2578C34.0903 24.2334 34.1677 24.2091 34.2474 24.184C34.3495 24.1522 34.4515 24.1203 34.5567 24.0875C34.6577 24.0559 34.7586 24.0243 34.8626 23.9917C35.3394 23.8526 35.7777 23.8035 36.2737 23.8005C36.3388 23.8 36.404 23.7995 36.4711 23.799C36.6089 23.7982 36.7467 23.7976 36.8844 23.7972C37.0918 23.7964 37.299 23.7937 37.5064 23.7909C38.2838 23.7854 38.9793 23.8384 39.7258 24.082C39.8042 24.1075 39.8826 24.133 39.9634 24.1593C41.3047 24.6191 42.28 25.6782 42.9038 26.9132C43.5264 28.2357 43.6116 29.7252 43.1535 31.1133C42.8512 31.8884 42.4228 32.4642 41.8352 33.0469C41.7777 33.1083 41.7203 33.1697 41.6611 33.2329C41.2663 33.6255 40.83 33.8883 40.3355 34.1345C40.2792 34.1639 40.2228 34.1932 40.1647 34.2235C39.0789 34.7311 37.7442 34.6596 36.5705 34.6566C36.3364 34.6564 36.1024 34.6584 35.8684 34.6607C35.0408 34.6633 34.291 34.6124 33.49 34.3962C33.2201 34.3368 33.2201 34.3368 33.0171 34.4929C32.7451 34.6506 32.5867 34.6627 32.2747 34.6644C32.1245 34.6661 32.1245 34.6661 31.9713 34.6678C31.8638 34.6675 31.7562 34.6673 31.6453 34.667C31.5336 34.6675 31.4218 34.6679 31.3067 34.6684C31.0699 34.669 30.8333 34.669 30.5965 34.6681C30.2964 34.6671 29.9964 34.6689 29.6963 34.6714C29.4066 34.6735 29.117 34.6728 28.8274 34.6725C28.7212 34.6735 28.615 34.6745 28.5057 34.6755C27.4427 34.6669 26.5654 34.4744 25.7952 33.714C25.6864 33.6013 25.6864 33.6013 25.5754 33.4863C25.4492 33.3623 25.3231 33.2382 25.1967 33.1143C24.9806 32.9014 24.7673 32.6856 24.5537 32.4701C24.4645 32.3805 24.3754 32.291 24.2862 32.2014C24.0712 31.9854 23.8564 31.7692 23.6418 31.5527C23.6015 31.6238 23.5611 31.6948 23.5196 31.768C23.4387 31.9089 23.4387 31.9089 23.3562 32.0526C23.3031 32.1454 23.2501 32.2382 23.1955 32.3338C22.5215 33.4256 21.4059 34.0051 20.1849 34.3175C18.9091 34.5771 17.7205 34.4544 16.4636 34.197C16.3234 34.1693 16.1832 34.1417 16.043 34.1142C15.5872 34.0242 15.1321 33.9312 14.677 33.8379C14.5173 33.8053 14.3576 33.7727 14.1979 33.7401C12.9444 33.4838 11.6921 33.2219 10.4399 32.9594C9.92904 32.8523 9.41817 32.7455 8.90721 32.6392C8.67225 32.5902 8.43738 32.5407 8.20251 32.4912C8.05854 32.4612 7.91457 32.4312 7.77059 32.4013C7.67527 32.381 7.67527 32.381 7.57803 32.3603C6.75532 32.1671 6.75532 32.1671 5.94283 32.2723C5.59665 32.5114 5.43756 32.7236 5.36055 33.1348C5.36317 33.2941 5.36887 33.4535 5.37703 33.6127C5.37922 33.9394 5.37137 34.0808 5.21773 34.3762C4.87922 34.6435 4.57493 34.6385 4.15343 34.5952C4.03554 34.5749 3.91789 34.5531 3.8005 34.53C3.73877 34.518 3.67705 34.506 3.61345 34.4936C2.83621 34.3296 2.21355 34.0689 1.75704 33.3984C1.58388 33.1111 1.5587 32.895 1.55712 32.561C1.55628 32.4636 1.55544 32.3661 1.55458 32.2658C1.55466 32.1607 1.55474 32.0557 1.55482 31.9475C1.55445 31.8389 1.55407 31.7303 1.55368 31.6184C1.55305 31.3295 1.55332 31.0406 1.55382 30.7516C1.55378 30.4604 1.55136 30.1692 1.5495 29.878C1.5493 29.6541 1.54924 29.4303 1.54933 29.2065C1.54852 29.1025 1.54771 28.9986 1.54688 28.8915C1.5532 27.7462 1.87477 26.7975 2.65792 25.9442C3.23527 25.4003 3.9517 25.111 4.73987 25.1222C5.02012 25.1446 5.26574 25.2319 5.53084 25.3235C6.30049 25.5707 7.08778 25.7143 7.88192 25.8563C7.94345 25.8674 8.00498 25.8785 8.06838 25.8899C8.89203 26.0376 9.71689 26.1665 10.5461 26.2793C10.3484 25.8966 10.1506 25.5139 9.95284 25.1312C9.92309 25.0737 9.89334 25.0161 9.86269 24.9568C9.5078 24.2702 9.15198 23.5842 8.7934 22.8996C8.66385 22.6519 8.53495 22.404 8.40617 22.156C8.2631 21.8805 8.118 21.6063 7.97015 21.3334C6.90233 19.3312 6.3549 16.7998 6.90963 14.5624C7.23503 13.5555 7.68324 12.7851 8.43673 12.041C8.48431 11.9915 8.5319 11.942 8.58092 11.891C13.2272 7.44412 21.8292 12.1362 25.6633 15.293ZM9.02999 13.3758C8.14652 14.4247 7.97354 15.7219 8.08516 17.0508C8.3152 18.9405 9.06394 20.5652 9.95863 22.2234C10.1679 22.6145 10.3716 23.0084 10.5743 23.4029C10.6799 23.6063 10.7873 23.8088 10.8965 24.0103C11.1393 24.4616 11.3528 24.8823 11.4837 25.3791C11.6318 25.876 11.7597 26.2593 12.216 26.543C13.1657 26.8572 14.2307 26.8919 15.2229 26.9381C15.6531 26.9597 16.0284 27.0101 16.4348 27.1582C16.5688 27.4262 16.5434 27.6541 16.5227 27.9492C16.4107 28.0991 16.4107 28.0991 16.259 28.2129C15.605 28.26 14.9607 28.1647 14.312 28.0845C14.2018 28.0712 14.0916 28.058 13.978 28.0444C13.686 28.0092 13.394 27.9737 13.1021 27.9379C12.6955 27.8883 12.2888 27.8394 11.8822 27.7903C11.6581 27.7632 11.4341 27.7361 11.21 27.709C10.374 27.6079 9.53761 27.512 8.7004 27.4219C8.41984 28.6199 8.13997 29.8166 7.90938 31.0254C9.72487 31.4185 11.5426 31.8006 13.3619 32.1759C13.7716 32.2604 14.1813 32.3452 14.5909 32.4308C14.9953 32.5154 15.3999 32.5991 15.8047 32.6823C15.9563 32.7136 16.1079 32.7451 16.2594 32.777C17.841 33.1091 19.4978 33.4031 20.9835 32.5638C21.6331 32.1288 22.0974 31.6996 22.3234 30.9375C22.3447 30.8772 22.366 30.8169 22.388 30.7548C22.5055 30.2742 22.3385 29.9613 22.0927 29.5532C22.0272 29.4465 21.9616 29.3399 21.896 29.2332C21.0661 27.8701 20.7943 26.1136 21.0436 24.5426C21.1103 24.1043 21.1377 23.8151 20.8918 23.4335C20.7966 23.3089 20.6987 23.1864 20.5986 23.0658C20.4922 22.9285 20.3859 22.7912 20.2796 22.6538C20.2248 22.5847 20.1699 22.5156 20.1134 22.4444C19.8567 22.1168 19.6156 21.7783 19.3736 21.4398C19.2785 21.3081 19.1834 21.1763 19.0883 21.0446C18.7262 20.5415 18.3671 20.0363 18.0123 19.5278C17.8355 19.2748 17.654 19.026 17.4692 18.7787C17.3789 18.655 17.2886 18.5313 17.1983 18.4076C17.1555 18.3522 17.1128 18.2967 17.0687 18.2397C16.8477 17.9325 16.7579 17.7443 16.8045 17.3615C16.8275 17.2589 16.8505 17.1564 16.8742 17.0508C16.9963 17.0239 17.1192 17.0008 17.2423 16.9794C17.3106 16.9661 17.3789 16.9528 17.4493 16.9392C17.7844 16.9759 17.889 17.1491 18.1047 17.4023C18.2889 17.6395 18.464 17.8824 18.6375 18.1274C18.6873 18.1971 18.7371 18.2667 18.7884 18.3384C19.1622 18.8618 19.5325 19.3877 19.9028 19.9135C20.2406 20.3927 20.5806 20.8703 20.9227 21.3464C20.9709 21.4139 21.0191 21.4814 21.0688 21.5509C21.1367 21.6451 21.1367 21.6451 21.2059 21.7412C21.2656 21.8243 21.2656 21.8243 21.3265 21.9091C21.4441 22.06 21.57 22.192 21.7082 22.3242C21.7911 22.1857 21.7911 22.1857 21.8758 22.0444C23.0648 20.0832 23.0648 20.0832 24.0813 19.5996C24.4218 19.5447 24.4218 19.5447 24.6965 19.5996C24.8723 19.7369 24.8723 19.7369 24.9602 19.9512C24.9526 20.3501 24.9152 20.5198 24.6416 20.817C24.5436 20.8994 24.4447 20.9806 24.3449 21.0608C23.0244 22.2028 22.3701 23.6767 22.2105 25.4086C22.1599 27.0436 22.7394 28.565 23.8341 29.7674C23.9564 29.8681 23.9564 29.8681 24.0813 29.9707C24.3596 29.9426 24.5349 29.827 24.7531 29.659C24.8424 29.591 24.8424 29.591 24.9336 29.5216C25.0256 29.4502 25.0256 29.4502 25.1195 29.3774C25.2408 29.2844 25.3623 29.1915 25.4837 29.0987C25.5426 29.0535 25.6015 29.0084 25.6621 28.9618C25.9223 28.7652 26.1879 28.5767 26.4543 28.3887C26.4359 28.337 26.4174 28.2854 26.3984 28.2321C25.8908 26.7937 25.8355 25.3123 26.4886 23.9069C26.6132 23.6912 26.746 23.4914 26.8938 23.291C26.9365 23.2294 26.9792 23.1677 27.0232 23.1042C27.2498 22.8045 27.3719 22.691 27.7397 22.5769C28.0363 22.5879 28.0363 22.5879 28.2506 22.6703C28.4192 22.8929 28.4578 23.0741 28.4456 23.3525C28.3459 23.7019 28.0979 23.9372 27.8643 24.2084C27.3667 24.8326 27.2232 25.5816 27.2453 26.3672C27.4033 27.6994 28.2458 29.4081 29.2558 30.2948C29.6164 30.5616 29.7593 30.5965 30.2006 30.5914C30.2888 30.5906 30.3769 30.5898 30.4677 30.589C30.5355 30.588 30.6032 30.587 30.6731 30.5859C30.6753 30.5061 30.6776 30.4262 30.6799 30.3439C30.7603 28.5619 31.3285 27.004 32.5188 25.6641C32.607 25.5581 32.6949 25.452 32.7824 25.3454C32.8404 25.2766 32.8984 25.2077 32.9582 25.1367C31.8197 23.6018 30.6235 22.135 29.3252 20.7319C29.1699 20.5639 29.0156 20.395 28.8624 20.2251C28.0524 19.3292 27.2186 18.4303 26.2936 17.6516C26.1365 17.5188 25.9827 17.3836 25.8295 17.2465C22.6274 14.3967 18.5564 11.7359 14.1289 11.7496C13.9417 11.7499 13.7546 11.7478 13.5673 11.7456C11.9029 11.7378 10.2149 12.1357 9.02999 13.3758ZM33.4347 26.5584C32.4916 27.6582 31.9523 29.0121 31.967 30.4613C32.035 31.2985 32.4162 32.0247 33.0389 32.5827C33.7522 33.1456 34.3227 33.2618 35.2169 33.2515C35.3147 33.2513 35.4125 33.2512 35.5133 33.251C35.7191 33.2504 35.925 33.2492 36.1309 33.2474C36.4462 33.2446 36.7615 33.2438 37.0769 33.2432C37.2772 33.2424 37.4775 33.2415 37.6779 33.2405C37.7722 33.2401 37.8665 33.2397 37.9636 33.2394C38.0952 33.2381 38.0952 33.2381 38.2295 33.2368C38.3065 33.2362 38.3835 33.2356 38.4628 33.235C38.6607 33.2233 38.8327 33.19 39.0227 33.1348C39.1369 30.3792 38.3158 27.5441 37.0012 25.1367C35.4809 25.0639 34.4852 25.4672 33.4347 26.5584ZM38.5832 25.2246C38.7122 25.6283 38.8479 26.0268 39.0079 26.4194C39.7946 28.357 40.2095 30.3478 40.341 32.4316C41.1966 32.0364 41.5772 31.2418 41.923 30.4101C42.2301 29.5166 42.1288 28.5262 41.7785 27.6588C41.2525 26.6128 40.4652 25.8294 39.3742 25.4004C39.1103 25.3253 38.854 25.2726 38.5832 25.2246ZM3.45443 27.1417C3.05932 27.6863 2.89213 28.2343 2.88406 28.9001C2.88293 28.9816 2.8818 29.0631 2.88064 29.1471C2.87999 29.2341 2.87934 29.3211 2.87867 29.4107C2.87797 29.501 2.87725 29.5912 2.87652 29.6842C2.87531 29.8745 2.87437 30.0649 2.87368 30.2553C2.87266 30.4502 2.87085 30.6452 2.86827 30.8401C2.86453 31.1217 2.8631 31.4033 2.8622 31.6849C2.86066 31.7721 2.85912 31.8592 2.85753 31.949C2.85192 32.4235 2.85192 32.4235 3.06366 32.834C3.36206 33.0329 3.59368 33.1348 3.9543 33.1348C3.97153 33.0615 3.98875 32.9881 4.00649 32.9126C4.19603 32.1994 4.42206 31.6681 5.00899 31.2012C5.52051 30.9097 6.01386 30.8253 6.59102 30.7617C6.90861 29.5712 7.14771 28.3674 7.38204 27.1582C7.32356 27.1458 7.26509 27.1334 7.20484 27.1206C6.93791 27.0639 6.67108 27.0067 6.40426 26.9495C6.31226 26.93 6.22026 26.9105 6.12548 26.8904C5.68433 26.7955 5.26004 26.6911 4.83321 26.543C4.19201 26.4743 3.88883 26.6871 3.45443 27.1417ZM26.6723 29.8344C26.6114 29.88 26.5505 29.9256 26.4878 29.9726C26.3924 30.0451 26.3924 30.0451 26.295 30.119C26.2324 30.1656 26.1698 30.2122 26.1053 30.2603C25.7552 30.5242 25.4433 30.7991 25.1359 31.1133C25.4024 31.3863 25.6698 31.6584 25.9379 31.9297C26.0289 32.0221 26.1197 32.1147 26.2103 32.2075C26.3408 32.3412 26.4721 32.474 26.6036 32.6067C26.6824 32.6868 26.7611 32.7669 26.8421 32.8494C27.3392 33.281 27.8059 33.2464 28.4363 33.2398C28.57 33.2394 28.57 33.2394 28.7064 33.2391C28.9902 33.2381 29.2741 33.2359 29.5579 33.2336C29.7507 33.2327 29.9435 33.2319 30.1363 33.2312C30.6082 33.2293 31.0801 33.2264 31.552 33.2226C31.4306 32.9049 31.3095 32.6724 31.085 32.4151C31.0346 32.3559 30.9842 32.2966 30.9323 32.2356C30.5922 31.9269 30.2625 31.888 29.8161 31.8768C28.9278 31.8094 28.4367 31.3985 27.8674 30.7366C27.6351 30.4331 27.4436 30.1165 27.2621 29.7805C27.2276 29.7272 27.193 29.674 27.1574 29.6191C26.9272 29.6191 26.8555 29.6971 26.6723 29.8344Z" fill="white"/>
</svg>
