<svg width="512" height="512" viewBox="0 0 512 512" fill="none" xmlns="http://www.w3.org/2000/svg">
<g clip-path="url(#clip0_1256_202)">
<path d="M276.707 4.32837C278.132 4.79116 279.558 5.25232 280.984 5.71199C284.02 6.69427 287.053 7.68717 290.083 8.689C294.864 10.2699 299.653 11.8274 304.444 13.3809C309.382 14.9832 314.319 16.587 319.253 18.1992C330.196 21.7738 341.154 25.297 352.129 28.7698C352.846 28.9966 353.563 29.2235 354.301 29.4572C358.489 30.7821 362.677 32.1053 366.865 33.4278C375.906 36.2833 384.945 39.1459 393.976 42.0347C395.932 42.6594 397.89 43.2811 399.849 43.8994C402.363 44.6936 404.874 45.4994 407.383 46.3088C408.084 46.5273 408.785 46.7458 409.507 46.971C414.76 48.6884 419.302 50.8927 422.813 55.2502C425.051 60.4332 425.646 64.8546 423.875 70.1877C421.963 74.6127 419.31 77.8641 414.916 80.0251C410.912 81.3641 406.877 82.0326 402.719 82.7268C401.828 82.8793 400.937 83.0319 400.019 83.1891C398.14 83.5093 396.26 83.8269 394.381 84.1418C391.509 84.6238 388.639 85.116 385.77 85.6096C383.94 85.9201 382.111 86.23 380.281 86.5393C379.426 86.6861 378.571 86.833 377.689 86.9843C373.751 87.6389 370.01 88.1909 366 88.0002C366.021 89.0594 366.042 90.1185 366.064 91.2097C366.136 95.1568 366.182 99.1039 366.22 103.052C366.24 104.757 366.267 106.462 366.302 108.167C366.351 110.624 366.373 113.081 366.391 115.539C366.411 116.296 366.432 117.052 366.453 117.832C366.456 123.015 365.346 125.841 362 130C361.67 130.33 361.34 130.66 361 131C360.897 133.013 360.864 135.03 360.858 137.045C360.851 138.341 360.844 139.636 360.837 140.971C360.835 141.668 360.833 142.366 360.832 143.084C360.824 145.267 360.809 147.449 360.79 149.632C360.738 155.839 360.69 162.046 360.674 168.253C360.664 172.048 360.635 175.842 360.593 179.636C360.581 181.078 360.575 182.52 360.578 183.962C360.588 193.128 360.32 199.802 354.289 207.059C350.597 210.118 347.972 211.758 343 212C342.974 212.643 342.949 213.287 342.922 213.949C341.46 237.25 328.908 256.629 312 272C311.34 272.33 310.68 272.66 310 273C309.473 276.464 309.301 279.552 310 283C312.397 285.785 315.343 287.292 318.563 289C320.331 290.023 322.098 291.048 323.863 292.074C325.181 292.818 325.181 292.818 326.526 293.576C329.876 295.505 333.062 297.63 336.25 299.813C342.773 304.207 349.35 308.516 355.938 312.813C356.909 313.447 357.881 314.082 358.882 314.736C360.747 315.951 362.616 317.16 364.49 318.361C365.981 319.335 367.455 320.335 368.889 321.391C374.984 325.719 382.108 327.272 389.222 329.193C414.076 335.953 435.465 345.324 449.25 368.625C455.87 380.327 459.121 393.267 459.193 406.661C459.201 407.511 459.209 408.36 459.218 409.236C459.243 412.035 459.259 414.834 459.274 417.633C459.279 418.594 459.284 419.556 459.29 420.546C459.316 425.637 459.336 430.728 459.35 435.819C459.364 440.013 459.391 444.206 459.432 448.4C459.482 453.484 459.506 458.567 459.513 463.651C459.52 465.578 459.535 467.505 459.559 469.432C459.712 482.357 459.348 493.414 450.188 503.5C444.029 509.111 437.404 512.121 429.065 512.134C427.818 512.139 426.57 512.143 425.285 512.148C423.893 512.148 422.501 512.148 421.109 512.147C419.636 512.151 418.163 512.154 416.69 512.159C412.633 512.169 408.575 512.172 404.518 512.175C400.145 512.179 395.773 512.188 391.4 512.197C380.836 512.217 370.271 512.227 359.706 512.236C354.733 512.24 349.759 512.246 344.785 512.251C328.253 512.268 311.72 512.282 295.188 512.29C290.897 512.292 286.605 512.293 282.314 512.295C281.248 512.296 280.181 512.296 279.082 512.297C261.803 512.305 244.525 512.33 227.246 512.363C209.51 512.396 191.774 512.414 174.039 512.417C164.079 512.419 154.12 512.428 144.16 512.454C135.678 512.475 127.196 512.483 118.714 512.474C114.387 512.469 110.06 512.471 105.733 512.491C101.769 512.508 97.8053 512.507 93.8412 512.492C92.4097 512.489 90.9783 512.494 89.5469 512.505C78.1126 512.594 70.2458 510.793 61.7892 502.926C53.8923 494.426 52.6211 485.707 52.5627 474.438C52.5298 473.314 52.4969 472.191 52.4631 471.033C52.4096 462.852 52.4096 462.852 55.2697 458.727C58.014 456.991 58.9909 456.391 62.1252 456.938C62.7877 457.029 63.4503 457.121 64.133 457.215C66.7043 458.296 67.5338 459.645 69.0002 462C69.3849 464.379 69.3849 464.379 69.4064 466.992C69.4283 467.945 69.4502 468.898 69.4728 469.879C69.4818 470.868 69.4909 471.857 69.5002 472.875C69.5368 483.526 69.5368 483.526 75.2502 492.25C80.733 495.739 86.5347 496.307 92.9025 496.414C93.9864 496.443 93.9864 496.443 95.0921 496.473C97.3738 496.532 99.6556 496.579 101.938 496.625C103.496 496.663 105.054 496.703 106.611 496.742C110.408 496.838 114.204 496.922 118 497C117.979 495.931 117.958 494.861 117.937 493.759C117.864 489.786 117.818 485.813 117.78 481.839C117.76 480.12 117.733 478.401 117.698 476.683C117.65 474.21 117.627 471.739 117.61 469.266C117.589 468.499 117.568 467.732 117.547 466.942C117.545 463.364 117.692 461.403 119.9 458.519C122.159 456.886 123.243 456.432 126 456.438C126.66 456.416 127.32 456.394 128 456.371C130 457 130 457 134 462C134 473.55 134 485.1 134 497C214.52 497 295.04 497 378 497C378 485.45 378 473.9 378 462C382 457 382 457 384 456.371C384.99 456.404 384.99 456.404 386 456.438C386.66 456.436 387.32 456.435 388 456.434C391.005 457.285 392.099 458.517 394 461C394.349 463.89 394.468 466.386 394.391 469.266C394.385 470.059 394.379 470.853 394.374 471.67C394.351 474.197 394.301 476.723 394.25 479.25C394.23 480.966 394.212 482.683 394.195 484.399C394.151 488.6 394.082 492.8 394 497C398.536 496.931 403.07 496.843 407.605 496.738C409.144 496.705 410.683 496.677 412.222 496.654C425.751 496.994 425.751 496.994 437.601 491.585C441.935 486.675 442.152 482.383 442.161 476.139C442.166 475.339 442.171 474.538 442.176 473.714C442.191 471.06 442.198 468.407 442.203 465.754C442.209 463.904 442.215 462.054 442.221 460.203C442.231 456.317 442.237 452.431 442.24 448.544C442.246 443.592 442.27 438.64 442.298 433.687C442.317 429.86 442.322 426.033 442.324 422.205C442.327 420.381 442.335 418.558 442.348 416.734C442.437 403.522 441.518 391.761 435.313 379.813C434.964 379.133 434.615 378.454 434.256 377.754C424.314 359.075 405.486 351.101 386.063 345.125C377.053 342.17 377.053 342.17 367.848 342.817C364.881 344.539 362.419 346.337 359.824 348.554C356.216 351.415 352.115 353.533 348.125 355.813C346.222 356.936 344.321 358.062 342.422 359.192C338.42 361.566 334.417 363.937 330.412 366.306C317.159 374.147 303.928 382.018 290.783 390.038C274.512 399.962 274.512 399.962 266.563 404.5C265.948 404.856 265.334 405.212 264.701 405.579C261.452 407.403 258.722 408.693 255 409C251.909 407.844 251.909 407.844 248.504 406.055C247.892 405.735 247.28 405.416 246.649 405.086C240.253 401.7 234.085 397.941 227.938 394.125C225.484 392.616 223.028 391.112 220.57 389.61C219.947 389.228 219.323 388.846 218.681 388.453C211.944 384.337 205.133 380.351 198.313 376.375C190.184 371.631 182.065 366.875 173.995 362.031C171.896 360.774 169.791 359.527 167.679 358.29C163.01 355.536 158.568 352.756 154.324 349.375C146.974 343.624 146.974 343.624 138.013 342.152C130.348 343.484 123.216 346.165 116 349C114.626 349.479 113.249 349.951 111.867 350.41C96.2196 355.867 84.472 365.039 76.5588 379.664C70.322 392.585 69.548 405.117 69.6398 419.183C69.6484 421.361 69.6267 423.537 69.6017 425.715C69.6051 426.995 69.6085 428.275 69.612 429.594C68.8426 433.878 67.3791 435.343 64.0002 438C61.0002 438.625 61.0002 438.625 58.0002 438C54.5579 435.313 53.1511 433.84 52.3691 429.49C52.3429 428.144 52.3453 426.798 52.3713 425.453C52.3676 424.359 52.3676 424.359 52.3639 423.243C52.3649 421.696 52.3783 420.15 52.4032 418.603C52.437 416.298 52.424 413.997 52.4045 411.692C52.4158 398.33 54.224 384.537 60.6877 372.625C61.0294 371.972 61.3712 371.319 61.7233 370.646C73.0303 349.808 91.5005 338.391 113.497 331.708C116.066 330.982 118.645 330.355 121.242 329.742C137.856 325.61 150.495 317.176 164.328 307.535C169.685 303.816 175.156 300.272 180.626 296.721C184.217 294.387 187.796 292.036 191.374 289.681C193.046 288.611 194.743 287.575 196.466 286.589C200.588 284.36 200.588 284.36 203.063 280.571C202.938 275.487 202.938 275.487 200.504 271.149C199.151 270 197.762 268.893 196.348 267.821C181.334 256.179 171.985 236.507 169 218C168.875 214.438 168.875 214.438 169 212C168.134 211.918 167.268 211.835 166.375 211.75C161.627 210.695 158.528 209.137 155.639 205.098C151.715 198.07 151.313 191.832 151.409 183.873C151.434 181.715 151.429 179.559 151.417 177.402C151.396 172.83 151.416 168.259 151.438 163.688C151.459 158.368 151.463 153.049 151.437 147.729C151.434 145.61 151.455 143.492 151.478 141.373C151.472 139.44 151.472 139.44 151.467 137.468C151.473 136.337 151.479 135.205 151.486 134.04C150.894 130.337 149.5 128.731 147 126C145.414 122.827 145.879 119.412 145.903 115.93C145.904 115.134 145.905 114.337 145.907 113.517C145.912 110.97 145.925 108.423 145.938 105.875C145.943 104.15 145.947 102.425 145.951 100.699C145.962 96.4664 145.98 92.2333 146 88.0002C145.019 87.9268 145.019 87.9268 144.018 87.8518C136.911 87.2692 129.955 86.2538 122.938 85.0002C121.392 84.7334 121.392 84.7334 119.815 84.4612C112.265 83.1327 112.265 83.1327 110 82.0002C110 93.5502 110 105.1 110 117C112.64 117.66 115.28 118.32 118 119C120.059 120.656 120.059 120.656 121.438 122.5C121.911 123.109 122.384 123.717 122.871 124.344C124.922 127.352 125.12 129.218 125.136 132.828C125.398 150.299 127.874 166.861 131.125 184C131.851 187.858 132.572 191.717 133.276 195.579C133.709 197.952 134.154 200.323 134.614 202.691C136.056 210.566 136.988 218.025 133.313 225.375C130.262 228.838 127.453 231.594 122.735 232.375C120.015 232.529 117.322 232.555 114.598 232.531C113.602 232.535 112.606 232.539 111.58 232.543C109.479 232.546 107.379 232.538 105.279 232.522C102.076 232.5 98.8763 232.522 95.674 232.547C93.6278 232.544 91.5815 232.539 89.5353 232.531C88.5841 232.54 87.6328 232.548 86.6528 232.556C80.5755 232.471 76.9739 231.551 72.0002 228C67.9476 223.414 67.0895 218.974 67.0002 213C67.4458 208.663 68.2417 204.411 69.0549 200.129C69.5095 197.588 69.9639 195.047 70.4181 192.506C71.1362 188.561 71.865 184.618 72.5973 180.675C75.34 165.809 77.6297 151.375 77.5543 136.217C77.5968 128.502 78.8117 125.189 84.3127 119.688C87.0002 118 87.0002 118 94.0002 117C94.0002 103.8 94.0002 90.6002 94.0002 77.0002C93.0102 76.6702 92.0202 76.3402 91.0002 76.0002C87.6025 71.8185 86.8598 67.2643 87.0002 62.0002C87.8202 57.8416 89.1959 54.8776 92.0627 51.7502C99.3993 47.3795 107.8 44.9997 115.914 42.4807C116.97 42.1491 118.026 41.8176 119.114 41.476C121.411 40.7552 123.708 40.0361 126.006 39.3185C131.651 37.5548 137.294 35.7806 142.936 34.0061C144.281 33.583 145.626 33.1601 146.971 32.7373C167.201 26.3792 187.392 19.9029 207.588 13.4394C210.582 12.4814 213.576 11.5237 216.569 10.5661C219.242 9.71074 221.915 8.85443 224.587 7.99759C226.461 7.3992 228.337 6.80777 230.213 6.2164C232.853 5.36875 235.47 4.49602 238.087 3.58512C252.358 -1.29946 262.436 -0.453024 276.707 4.32837ZM242.168 19.3049C241.089 19.6556 240.009 20.0062 238.897 20.3674C236.554 21.1293 234.213 21.895 231.872 22.6643C226.209 24.5255 220.538 26.3631 214.868 28.2032C212.891 28.8452 210.914 29.4883 208.937 30.1315C196.25 34.2584 183.532 38.2891 170.806 42.2977C167.209 43.4311 163.612 44.5668 160.015 45.7029C149.577 48.9975 139.134 52.2757 128.676 55.5042C126.211 56.2678 123.746 57.0318 121.282 57.7959C119.066 58.4799 116.848 59.1552 114.63 59.8301C113.336 60.2302 112.043 60.6306 110.75 61.0315C109.652 61.3673 108.554 61.7031 107.422 62.0491C104.847 62.7486 104.847 62.7486 104 65.0002C110.186 66.1546 116.376 67.292 122.567 68.4182C124.668 68.8024 126.769 69.1904 128.869 69.5823C131.906 70.1483 134.945 70.7005 137.985 71.2502C138.907 71.4252 139.829 71.6002 140.78 71.7805C153.037 73.9619 164.677 72.7444 176.907 71.1483C179.551 70.8041 182.197 70.4707 184.843 70.1401C192.36 69.1996 199.875 68.2432 207.387 67.2727C233.147 63.9534 258.031 61.2042 283.953 64.5994C286.124 64.8832 288.297 65.1442 290.471 65.4026C302.944 66.9383 302.944 66.9383 309 69.0002C310.509 72.0189 310.175 74.6732 310 78.0002C308 81.0002 308 81.0002 304.834 81.7363C300.93 82.0051 297.526 81.7594 293.653 81.2229C292.226 81.0371 290.8 80.8516 289.373 80.6663C287.182 80.3704 284.991 80.0703 282.802 79.7642C256.607 76.1477 231.591 79.2597 205.536 82.5776C201.697 83.063 197.857 83.535 194.017 84.0066C189.431 84.5706 184.847 85.1427 180.262 85.7151C178.954 85.8772 178.954 85.8772 177.62 86.0426C175.176 86.3467 172.734 86.6568 170.292 86.9688C169.563 87.0587 168.835 87.1486 168.084 87.2412C164.753 87.4316 164.753 87.4316 162 89.0002C162 98.5702 162 108.14 162 118C224.04 118 286.08 118 350 118C350 108.43 350 98.8602 350 89.0002C347.59 86.5903 341.691 87.1358 338.418 86.7932C334.644 85.9176 333.297 85.0686 331 82.0002C330.405 78.4277 330.453 76.7719 332.563 73.7971C335.902 71.3352 338.579 71.7789 342.5 72.2502C345.335 72.5292 348.161 72.7889 351 73.0002C351.789 73.0628 352.577 73.1253 353.39 73.1897C364.488 73.6331 375.397 71.0257 386.25 69.0002C388.363 68.6139 390.477 68.2284 392.59 67.844C397.729 66.9071 402.865 65.9584 408 65.0002C407.169 62.7903 407.169 62.7903 404.818 62.1038C403.847 61.7985 402.876 61.4932 401.875 61.1787C400.209 60.6488 400.209 60.6488 398.51 60.1082C397.281 59.7258 396.052 59.3434 394.785 58.9495C393.487 58.5394 392.188 58.1287 390.89 57.7174C388.089 56.8313 385.287 55.9501 382.483 55.0725C378.041 53.682 373.602 52.2815 369.163 50.8792C364.532 49.4169 359.902 47.9554 355.27 46.4977C344.336 43.0565 333.41 39.5935 322.488 36.1135C321.369 35.757 321.369 35.7569 320.227 35.3932C316.541 34.2186 312.854 33.0437 309.168 31.8686C304.956 30.526 300.744 29.1841 296.532 27.8428C295.867 27.6312 295.203 27.4196 294.518 27.2016C290.154 25.812 285.788 24.4271 281.421 23.0432C277.543 21.8134 273.671 20.5699 269.806 19.301C269.061 19.0595 268.317 18.818 267.549 18.5692C265.71 17.9719 263.873 17.3665 262.036 16.76C254.728 14.931 249.113 16.9975 242.168 19.3049ZM94.0002 133C94.0002 137.29 94.0002 141.58 94.0002 146C98.9502 146 103.9 146 109 146C109 141.71 109 137.42 109 133C104.05 133 99.1002 133 94.0002 133ZM168 134C168 141.92 168 149.84 168 158C176.291 158.117 176.291 158.117 183 155C185.851 151.25 185.221 146.729 185.125 142.25C185.084 139.528 185.043 136.805 185 134C179.39 134 173.78 134 168 134ZM201 134C200.67 140.27 200.34 146.54 200 153C195.798 165.606 195.798 165.606 188.688 169.75C182.054 172.923 175.244 172.894 168 173C167.913 176.438 167.86 179.875 167.813 183.313C167.788 184.289 167.762 185.266 167.736 186.272C167.727 187.21 167.717 188.147 167.707 189.114C167.691 189.978 167.676 190.842 167.66 191.732C168.073 194.482 168.823 195.328 171 197C172.985 197.579 174.922 197.873 176.965 198.18C180.143 199.461 181.204 201.087 183 204C183.916 207.146 184.422 210.33 184.938 213.563C186.382 221.561 188.253 228.725 192 236C192.441 236.856 192.882 237.712 193.336 238.594C202.813 255.559 218.239 266.638 236.215 273.168C255.229 278.38 274.597 274.995 291.774 265.922C296.599 263.048 300.834 259.755 305 256C305.951 255.171 305.951 255.171 306.922 254.324C319.324 242.828 325.611 226.014 327.938 209.625C328.686 205.032 329.208 202.015 333 199C335.303 198.073 337.58 197.325 339.977 196.676C342.196 196.102 342.196 196.102 344 194C344.278 191.77 344.278 191.77 344.195 189.211C344.189 188.27 344.183 187.329 344.176 186.36C344.159 185.375 344.142 184.39 344.125 183.375C344.116 182.383 344.107 181.39 344.098 180.367C344.074 177.911 344.041 175.456 344 173C343.033 172.986 342.067 172.972 341.07 172.957C332.125 172.63 324.061 172.037 317.352 165.36C310.287 156.294 311.586 145.138 311 134C274.7 134 238.4 134 201 134ZM327 134C326.959 136.723 326.918 139.445 326.875 142.25C326.857 143.101 326.839 143.952 326.82 144.829C326.699 150.237 326.699 150.237 329 155C334.776 158.235 336.642 158 344 158C344 150.08 344 142.16 344 134C338.39 134 332.78 134 327 134ZM92.0002 162C90.8533 168.564 89.7143 175.13 88.5822 181.696C88.1963 183.928 87.8083 186.16 87.4181 188.392C86.8566 191.605 86.3027 194.82 85.7502 198.035C85.5752 199.027 85.4002 200.019 85.2199 201.041C84.3592 206.095 83.6938 210.872 84.0002 216C85.7003 217.7 87.8259 217.128 90.0935 217.139C91.1591 217.136 91.1591 217.136 92.2463 217.133C92.9726 217.134 93.6989 217.135 94.4472 217.136C95.9864 217.137 97.5256 217.135 99.0649 217.131C101.424 217.125 103.783 217.131 106.143 217.137C107.636 217.136 109.128 217.135 110.621 217.133C111.33 217.135 112.038 217.137 112.768 217.139C116.509 217.177 116.509 217.177 120 216C119.202 211.042 118.403 206.084 117.601 201.126C117.331 199.448 117.06 197.769 116.79 196.091C114.958 184.708 113.029 173.349 111 162C104.73 162 98.4602 162 92.0002 162ZM219 283C218.628 291.326 219.131 299.214 220.375 307.438C220.501 308.277 220.627 309.117 220.757 309.982C221.523 314.783 222.562 319.356 224 324C225.135 324.31 226.269 324.619 227.438 324.938C228.076 325.112 228.714 325.286 229.371 325.465C238.065 327.235 246.788 327.194 255.625 327.188C256.29 327.187 256.954 327.187 257.639 327.187C273.162 327.975 273.162 327.975 287.762 323.903C289.672 320.968 290.075 317.771 290.625 314.375C290.75 313.65 290.875 312.925 291.003 312.178C291.351 310.121 291.68 308.062 292 306C292.136 305.155 292.271 304.309 292.41 303.438C293.321 296.665 293.087 289.819 293 283C292.045 283.338 291.09 283.676 290.106 284.024C266.172 292.356 242.7 292.252 219 283ZM194.313 307.063C188.851 310.759 183.374 314.421 177.832 317.996C176.801 318.662 175.77 319.328 174.708 320.014C172.68 321.32 170.651 322.623 168.619 323.922C167.685 324.526 166.751 325.129 165.789 325.75C164.547 326.547 164.547 326.547 163.28 327.36C160.929 329.051 158.988 330.9 157 333C157.711 333.416 158.422 333.831 159.154 334.259C162.604 336.276 166.052 338.294 169.5 340.313C170.139 340.687 170.778 341.061 171.436 341.446C179.193 345.988 186.94 350.55 194.664 355.149C195.729 355.782 195.729 355.782 196.815 356.429C200.253 358.475 203.689 360.525 207.123 362.578C214.332 366.878 221.589 371.055 229 375C227.751 371.736 226.36 368.7 224.645 365.656C213.381 345.249 207.746 324.882 204 302C200.315 302 197.287 305.03 194.313 307.063ZM308 302C307.91 302.562 307.821 303.124 307.728 303.702C303.755 328.096 297.583 352.53 283 373C283.33 373.66 283.66 374.32 284 375C291.22 370.778 298.438 366.552 305.653 362.321C306.271 361.958 306.89 361.595 307.527 361.222C313.003 358.009 318.451 354.75 323.887 351.469C330.05 347.758 336.247 344.104 342.438 340.438C343.059 340.069 343.681 339.701 344.322 339.322C347.881 337.214 351.44 335.107 355 333C352.073 329.874 349.044 327.561 345.449 325.242C344.365 324.539 343.28 323.835 342.162 323.109C341.004 322.365 339.846 321.62 338.688 320.875C336.921 319.733 335.156 318.589 333.39 317.445C332.225 316.69 331.059 315.935 329.892 315.181C324.608 311.759 319.377 308.26 314.19 304.693C311.352 302.62 311.352 302.62 308 302ZM231 342C233.362 353.811 241.423 364.456 247.875 374.438C248.542 375.475 249.208 376.513 249.895 377.582C250.525 378.544 251.156 379.505 251.805 380.496C252.372 381.364 252.939 382.233 253.523 383.127C254.011 383.745 254.498 384.363 255 385C255.66 385 256.32 385 257 385C258.781 382.513 260.437 380.025 262.063 377.438C262.55 376.672 263.037 375.906 263.539 375.118C275.068 359.436 275.068 359.436 281 342C264.5 342 248 342 231 342Z" fill="white"/>
</g>
<defs>
<clipPath id="clip0_1256_202">
<rect width="512" height="512" fill="white"/>
</clipPath>
</defs>
</svg>
