<svg width="512" height="512" viewBox="0 0 512 512" fill="none" xmlns="http://www.w3.org/2000/svg">
<g clip-path="url(#clip0_1256_213)">
<path d="M288.016 14.9488C289.946 15.9706 291.889 16.9577 293.84 17.937C295.007 18.5352 296.173 19.1333 297.375 19.7495C298.414 20.2806 299.453 20.8117 300.524 21.3589C303.15 23.0984 304.058 24.0299 305 26.9995C304.786 33.097 304.786 33.097 302.313 35.937C299.322 37.311 297.278 37.23 294 36.9995C291.366 35.9456 291.366 35.9456 288.735 34.48C287.761 33.9521 286.788 33.4243 285.785 32.8804C284.283 32.0422 284.283 32.0422 282.75 31.187C271.89 25.1609 261.028 19.4653 248.343 22.6712C240.28 25.2863 233.087 28.8958 225.688 32.9995C223.835 34.0123 221.981 35.0215 220.127 36.0306C218.88 36.7094 217.634 37.3894 216.389 38.0704C210.676 41.1912 204.908 44.199 199.125 47.187C191.824 50.9721 184.58 54.8464 177.375 58.812C168.822 63.5178 160.182 68.0378 151.5 72.4995C141.883 77.4423 132.328 82.4784 122.862 87.7068C118.324 90.208 113.766 92.6515 109.153 95.0113C108.195 95.5027 107.237 95.9942 106.25 96.5005C104.433 97.4288 102.611 98.3493 100.785 99.2603C92.6347 103.417 92.6347 103.417 88.0003 111C87.7297 113.081 87.7297 113.081 87.6878 115.312C87.6504 116.051 87.613 116.789 87.5745 117.55C88.1871 121.074 89.5378 123.477 92.0003 126C95.1196 128.174 98.4335 129.89 101.813 131.625C102.785 132.139 103.757 132.653 104.758 133.183C107.831 134.804 110.914 136.404 114 138C115.932 139.007 117.863 140.014 119.793 141.023C122.662 142.52 125.531 144.015 128.403 145.505C134.859 148.856 141.254 152.304 147.625 155.812C156.797 160.858 166.073 165.683 175.383 170.467C183.312 174.544 191.192 178.694 199 183C207.056 187.433 215.165 191.755 223.323 195.997C224.587 196.655 225.85 197.314 227.113 197.975C240.803 205.656 240.803 205.656 255.938 208.5C257.56 208.515 257.56 208.515 259.215 208.531C268.663 207.205 276.858 202.706 285.063 198.062C286.907 197.03 288.752 196 290.598 194.972C291.486 194.477 292.375 193.983 293.29 193.473C297.47 191.201 301.726 189.087 306 187C304.289 183.366 302.201 180.873 299.438 177.937C296.024 174.267 292.761 170.54 289.625 166.625C285.758 161.828 281.65 157.329 277.442 152.836C273.547 148.653 269.937 144.294 266.364 139.832C263.116 135.94 259.663 132.253 256.16 128.589C248.321 120.289 248.321 120.289 247.563 114.875C248.068 111.555 248.463 110.21 251 108C254.633 106.991 256.897 106.492 260.375 108.093C263.687 110.499 266.045 113.284 268.625 116.437C269.685 117.704 270.746 118.97 271.809 120.234C272.607 121.184 272.607 121.184 273.422 122.154C275.771 124.9 278.223 127.545 280.688 130.187C284.076 133.833 287.319 137.556 290.438 141.437C293.804 145.622 297.332 149.583 301 153.5C305.549 158.358 309.848 163.352 314.02 168.543C316.611 171.757 319.296 174.88 322 178C332.379 172.864 342.664 167.586 352.875 162.125C355.664 160.637 358.453 159.15 361.242 157.664C361.954 157.284 362.666 156.904 363.4 156.513C368.616 153.732 373.841 150.968 379.071 148.21C380.579 147.415 382.087 146.619 383.594 145.823C385.759 144.681 387.924 143.54 390.09 142.4C394.063 140.311 398.026 138.206 401.98 136.081C403.378 135.332 404.78 134.59 406.185 133.852C408.381 132.697 410.566 131.522 412.75 130.343C413.418 129.997 414.086 129.651 414.774 129.294C419.16 126.893 421.536 124.493 424 120C424.908 115.648 424.517 112.011 422.5 108.062C421.758 107.041 421.758 107.041 421 106C421 105.34 421 104.68 421 104C420.273 103.719 419.546 103.438 418.797 103.149C416.198 102.081 413.744 100.9 411.254 99.6011C409.892 98.8917 409.892 98.8917 408.503 98.168C407.533 97.6587 406.562 97.1493 405.563 96.6245C404.542 96.0907 403.522 95.5569 402.47 95.0069C394.783 90.9717 387.162 86.8254 379.555 82.6426C372.261 78.6484 364.893 74.8087 357.5 70.9995C348.851 66.539 340.237 62.025 331.688 57.3745C330.793 56.8899 329.899 56.4052 328.977 55.9058C316.555 49.1094 316.555 49.1094 315 45.9995C314.46 41.9469 314.658 40.4622 317.125 37.1245C320.582 34.5698 321.794 34.5907 326 34.9995C328.994 36.1861 328.994 36.1861 332.156 37.8589C332.732 38.1591 333.307 38.4592 333.899 38.7684C335.773 39.7503 337.636 40.7496 339.5 41.7495C340.812 42.4419 342.125 43.1333 343.438 43.8238C351.875 48.2746 360.255 52.8326 368.61 57.438C376.172 61.5923 383.827 65.5553 391.5 69.4995C400.542 74.1522 409.559 78.844 418.5 83.687C419.843 84.4083 419.843 84.4083 421.213 85.1441C427.239 88.4317 432.355 91.5176 436.188 97.3745C436.676 98.1042 437.165 98.8338 437.668 99.5855C440.603 104.905 441.275 109.519 441.25 115.562C441.255 116.842 441.261 118.122 441.266 119.441C441.014 122.811 440.32 124.942 439 128C439.959 127.968 439.959 127.968 440.937 127.936C464.519 127.264 464.519 127.264 473 132C474.578 132.835 474.578 132.835 476.188 133.687C484.977 140.914 490.036 148.762 492 160C492.085 161.624 492.124 163.252 492.123 164.878C492.125 165.839 492.127 166.8 492.129 167.79C492.126 168.838 492.124 169.886 492.121 170.965C492.122 172.644 492.122 172.644 492.123 174.356C492.125 178.113 492.119 181.871 492.114 185.628C492.113 188.318 492.114 191.008 492.114 193.699C492.115 199.495 492.112 205.291 492.106 211.087C492.098 219.467 492.095 227.847 492.094 236.227C492.092 249.823 492.085 263.419 492.076 277.015C492.067 290.222 492.059 303.429 492.055 316.636C492.055 317.857 492.055 317.857 492.054 319.103C492.053 323.187 492.052 327.272 492.051 331.356C492.04 365.237 492.023 399.118 492 433C493.025 432.953 494.05 432.907 495.106 432.859C496.466 432.821 497.827 432.785 499.188 432.75C499.861 432.716 500.535 432.683 501.229 432.648C504.851 432.577 506.843 432.902 509.948 434.823C512.752 437.796 512.645 439.634 512.664 443.679C512.669 444.328 512.674 444.978 512.679 445.647C512.682 447.023 512.673 448.4 512.652 449.777C512.626 451.835 512.652 453.887 512.684 455.945C512.723 470.717 508.283 482.366 497.973 493.113C484.458 506.09 469.465 507.304 451.706 507.26C449.949 507.263 448.191 507.267 446.434 507.272C441.623 507.282 436.812 507.28 432 507.276C426.804 507.273 421.609 507.282 416.413 507.29C406.241 507.302 396.069 507.304 385.897 507.302C377.627 507.3 369.358 507.302 361.089 507.306C359.323 507.307 359.323 507.307 357.521 507.308C355.129 507.309 352.737 507.31 350.345 507.312C327.918 507.322 305.491 507.32 283.064 507.314C262.555 507.309 242.045 507.32 221.536 507.339C200.467 507.359 179.399 507.367 158.331 507.363C146.506 507.361 134.681 507.364 122.857 507.378C112.791 507.39 102.725 507.391 92.6588 507.379C87.5252 507.373 82.3917 507.372 77.2581 507.384C72.554 507.395 67.8501 507.392 63.146 507.378C61.449 507.375 59.7519 507.378 58.0548 507.386C40.6212 507.462 26.2209 504.682 13.2542 492.304C3.2317 482.056 -0.719888 470.092 -0.683343 455.945C-0.672869 455.276 -0.662396 454.607 -0.651605 453.918C-0.624289 451.84 -0.651773 449.766 -0.683343 447.687C-0.680046 446.351 -0.673655 445.015 -0.663812 443.679C-0.658172 442.491 -0.652532 441.302 -0.646722 440.077C0.000250962 437 0.000251055 437 2.05241 434.823C5.71946 432.555 8.64849 432.542 12.8128 432.75C13.5056 432.768 14.1985 432.786 14.9124 432.804C16.6089 432.851 18.3048 432.923 20.0003 433C19.9985 432.139 19.9985 432.139 19.9968 431.262C19.9296 397.25 19.8782 363.238 19.8471 329.225C19.8433 325.139 19.8394 321.052 19.8355 316.966C19.8347 316.152 19.8339 315.339 19.8331 314.5C19.82 301.339 19.7964 288.177 19.7688 275.015C19.7407 261.504 19.7241 247.992 19.718 234.481C19.7139 226.147 19.7009 217.815 19.6765 209.482C19.6606 203.762 19.6558 198.043 19.6597 192.324C19.6617 189.027 19.6571 185.731 19.6426 182.434C19.6277 178.852 19.6313 175.269 19.6395 171.686C19.6308 170.656 19.622 169.626 19.613 168.565C19.6862 156.653 22.6121 146.805 30.8518 138.027C37.7987 131.509 45.8749 127.849 55.4221 127.902C56.9593 127.907 56.9593 127.907 58.5276 127.912C59.5911 127.92 60.6545 127.928 61.7503 127.937C62.8292 127.942 63.9081 127.946 65.0198 127.951C67.68 127.962 70.3401 127.979 73.0003 128C72.5156 126.868 72.5156 126.868 72.0212 125.713C69.3938 118.73 70.0926 109.35 72.6878 102.437C78.9341 89.4524 92.7864 83.9121 105.114 77.6729C108.3 76.0597 111.476 74.428 114.653 72.7964C115.286 72.4715 115.919 72.1467 116.571 71.8119C122.099 68.9667 127.558 66.0056 133 62.9995C142.045 58.0102 151.198 53.2517 160.385 48.5313C168.313 44.4546 176.193 40.3054 184 35.9995C196.142 29.3099 208.456 22.9647 220.795 16.6485C223.556 15.2282 226.306 13.7899 229.051 12.3394C249.916 1.40362 267.743 4.12567 288.016 14.9488ZM153 178C152.95 182.034 152.914 186.068 152.89 190.103C152.88 191.469 152.867 192.835 152.849 194.201C152.6 214.111 155.75 231.285 169.75 246.187C186.415 262.036 212.949 266.983 235 270C235.948 270.132 236.895 270.265 237.871 270.402C262.891 273.251 289.173 269.942 313 262C313 242.2 313 222.4 313 202C303.119 206.94 293.307 211.871 283.651 217.216C274.854 221.935 266.137 224.537 256.125 224.437C255.075 224.467 255.075 224.467 254.004 224.498C242.448 224.487 232.016 219.384 222.063 214C220.983 213.427 219.903 212.855 218.79 212.265C211.034 208.139 203.328 203.917 195.63 199.684C187.625 195.299 179.542 191.072 171.438 186.875C170.802 186.544 170.167 186.214 169.512 185.874C167.696 184.931 165.878 183.992 164.059 183.054C162.486 182.242 162.486 182.242 160.881 181.413C158.289 180.141 155.696 179.028 153 178ZM350.68 181.281C349.548 181.89 348.416 182.499 347.25 183.126C345.084 184.301 345.084 184.301 342.875 185.5C338.296 187.975 333.718 190.45 329 193C329 213.46 329 233.92 329 255C343.331 247.038 352.09 236.716 357 221C359.071 211.417 359.251 201.95 359.125 192.187C359.115 190.801 359.106 189.415 359.098 188.029C359.075 184.686 359.042 181.343 359 178C355.843 178 353.395 179.801 350.68 181.281ZM40.6253 151.312C40.1638 151.844 39.7023 152.377 39.2268 152.925C35.479 159.263 35.7195 165.991 35.7597 173.13C35.758 174.239 35.7563 175.349 35.7546 176.493C35.7512 180.219 35.7623 183.945 35.7732 187.671C35.7749 190.385 35.7736 193.1 35.7725 195.814C35.7714 202.346 35.7806 208.879 35.7935 215.411C35.8079 222.97 35.8095 230.528 35.811 238.087C35.8215 258.037 35.8495 277.987 35.8753 297.937C35.9165 342.508 35.9578 387.078 36.0003 433C181.2 433 326.4 433 476 433C476.062 388.45 476.124 343.9 476.188 298C476.215 283.924 476.242 269.849 476.271 255.347C476.281 242.748 476.281 242.748 476.287 230.149C476.289 224.53 476.3 218.912 476.317 213.293C476.336 206.812 476.345 200.331 476.341 193.85C476.339 190.535 476.343 187.221 476.358 183.906C476.373 180.354 476.369 176.802 476.361 173.25C476.37 172.219 476.378 171.188 476.387 170.126C476.341 162.711 475.291 156.007 470.25 150.187C469.577 149.373 469.577 149.373 468.891 148.543C463.976 144.532 458.35 143.454 452.164 143.109C451.419 143.067 450.674 143.024 449.907 142.981C447.479 142.869 445.055 142.8 442.625 142.75C441.796 142.73 440.966 142.711 440.112 142.691C420.724 142.469 404.682 149.962 389 161C388.67 161.66 388.34 162.32 388 163C388.795 163.008 389.591 163.016 390.41 163.024C397.899 163.102 405.389 163.189 412.879 163.287C416.729 163.337 420.58 163.383 424.43 163.421C428.146 163.458 431.861 163.505 435.576 163.558C436.994 163.576 438.412 163.591 439.831 163.603C441.815 163.62 443.8 163.65 445.785 163.681C446.915 163.694 448.045 163.707 449.21 163.721C452 164 452 164 455 166C455.908 168.723 456.126 170.293 456.129 173.09C456.132 173.926 456.135 174.762 456.139 175.624C456.137 176.542 456.136 177.46 456.134 178.407C456.136 179.382 456.139 180.358 456.141 181.363C456.147 184.648 456.146 187.932 456.146 191.216C456.148 193.565 456.152 195.913 456.156 198.262C456.165 204.652 456.167 211.043 456.168 217.433C456.168 222.09 456.171 226.748 456.174 231.405C456.183 243.924 456.186 256.444 456.186 268.963C456.186 270.03 456.186 270.03 456.186 271.118C456.186 271.83 456.185 272.542 456.185 273.276C456.185 284.819 456.195 296.362 456.209 307.905C456.223 319.752 456.23 331.599 456.229 343.446C456.229 350.1 456.232 356.753 456.242 363.406C456.252 369.662 456.252 375.917 456.245 382.172C456.244 384.472 456.246 386.771 456.252 389.07C456.26 392.202 456.255 395.334 456.247 398.465C456.253 399.382 456.258 400.298 456.263 401.242C456.258 402.08 456.254 402.919 456.249 403.783C456.249 404.867 456.249 404.867 456.25 405.974C455.955 408.363 455.26 409.956 454 412C451.428 413.286 449.6 413.127 446.718 413.131C445.591 413.135 444.464 413.139 443.302 413.143C442.053 413.142 440.804 413.141 439.518 413.14C437.54 413.144 437.54 413.144 435.522 413.149C431.85 413.157 428.177 413.159 424.505 413.16C420.549 413.161 416.593 413.169 412.637 413.176C403.983 413.189 395.328 413.195 386.673 413.2C381.273 413.202 375.873 413.207 370.473 413.211C355.532 413.223 340.591 413.234 325.65 413.237C324.693 413.237 323.736 413.238 322.75 413.238C321.791 413.238 320.832 413.238 319.844 413.238C317.901 413.239 315.957 413.239 314.014 413.24C312.568 413.24 312.568 413.24 311.092 413.24C295.462 413.244 279.831 413.262 264.2 413.285C248.166 413.309 232.133 413.321 216.099 413.322C207.091 413.323 198.083 413.329 189.075 413.347C181.406 413.363 173.737 413.368 166.069 413.36C162.154 413.356 158.238 413.357 154.323 413.371C150.742 413.383 147.162 413.382 143.581 413.37C141.665 413.367 139.748 413.379 137.832 413.391C136.702 413.385 135.572 413.378 134.408 413.371C132.94 413.372 132.94 413.372 131.442 413.373C129 413 129 413 127.19 411.691C125.167 408.815 125.584 406.385 126 403C128.021 400.384 129.217 399.158 132.491 398.496C133.434 398.495 134.378 398.493 135.349 398.492C136.441 398.48 137.532 398.469 138.656 398.457C139.855 398.465 141.053 398.473 142.288 398.481C143.561 398.473 144.835 398.466 146.147 398.458C149.684 398.438 153.22 398.442 156.757 398.451C160.571 398.456 164.384 398.438 168.197 398.422C174.804 398.399 181.412 398.39 188.019 398.391C197.572 398.393 207.125 398.373 216.679 398.347C232.178 398.306 247.677 398.283 263.176 398.271C278.233 398.259 293.289 398.238 308.346 398.207C309.752 398.204 309.752 398.204 311.187 398.201C318.518 398.186 325.848 398.17 333.179 398.154C369.119 398.076 405.06 398.041 441 398C441 325.73 441 253.46 441 179C419.22 179 397.44 179 375 179C374.67 188.57 374.34 198.14 374 208C372.164 229.878 364.908 246.446 348.563 261.25C342.651 266.103 335.833 269.638 329 273C326.265 286.544 332.576 295.359 339.645 306.496C344.504 314.205 347.224 321.064 345.602 330.257C343.921 336.696 340.397 340.26 335 344C327.495 348.146 317.962 348.006 309.844 345.687C304.186 343.577 300.43 339.859 297 335C293.819 326.82 294.431 320.682 297.668 312.842C300.645 306.491 304.51 300.6 308.219 294.658C312.742 287.325 312.742 287.325 313 279C308.372 279.599 303.853 280.426 299.291 281.409C258.088 290.192 205.891 288.957 169.25 265.625C153.451 254.576 143.23 239.545 139.289 220.578C137.258 206.858 137.475 192.773 137 179C115.22 179 93.4403 179 71.0003 179C71.0003 251.27 71.0003 323.54 71.0003 398C87.8303 398.495 87.8303 398.495 105 399C109 401 109 401 109.75 402.804C109.833 403.487 109.915 404.171 110 404.875C110.103 405.553 110.207 406.231 110.313 406.929C110 409 110 409 108.627 411.1C104.543 414.053 100.569 413.533 95.6526 413.46C94.6444 413.46 93.6361 413.459 92.5973 413.458C90.4682 413.452 88.339 413.436 86.21 413.411C82.9464 413.375 79.6839 413.37 76.4202 413.371C74.3518 413.361 72.2834 413.349 70.2151 413.335C69.2369 413.333 68.2588 413.331 67.251 413.329C66.3432 413.316 65.4353 413.303 64.5 413.29C63.7015 413.282 62.9031 413.275 62.0804 413.267C60.0003 413 60.0003 413 57.0003 411C56.0926 408.276 55.8743 406.706 55.8716 403.909C55.8684 403.073 55.8652 402.237 55.8618 401.376C55.8634 400.457 55.8649 399.539 55.8665 398.592C55.8643 397.617 55.862 396.641 55.8597 395.636C55.8533 392.351 55.8542 389.067 55.855 385.783C55.852 383.434 55.8486 381.086 55.8448 378.737C55.836 372.347 55.8336 365.956 55.833 359.566C55.8324 354.909 55.8293 350.251 55.8262 345.594C55.8179 333.075 55.8141 320.555 55.8148 308.036C55.8149 307.325 55.8149 306.614 55.8149 305.881C55.815 305.169 55.815 304.457 55.8151 303.724C55.8155 292.18 55.8059 280.637 55.7918 269.094C55.7775 257.247 55.7705 245.4 55.7714 233.553C55.7717 226.899 55.7688 220.246 55.7582 213.593C55.7486 207.337 55.7484 201.082 55.7557 194.827C55.7568 192.528 55.7544 190.228 55.7484 187.929C55.7407 184.797 55.7453 181.665 55.753 178.534C55.7479 177.617 55.7427 176.701 55.7374 175.757C55.7443 174.499 55.7443 174.499 55.7514 173.216C55.7511 172.493 55.7509 171.77 55.7507 171.025C56.045 168.636 56.7402 167.043 58.0003 165C60.7562 163.622 63.018 163.837 66.1023 163.794C67.3835 163.774 68.6647 163.754 69.9847 163.734C71.3883 163.717 72.7919 163.7 74.1956 163.683C75.6276 163.663 77.0596 163.642 78.4917 163.62C82.2629 163.565 86.0342 163.516 89.8055 163.467C93.6531 163.417 97.5005 163.361 101.348 163.306C108.899 163.199 116.449 163.097 124 163C112.426 151.007 93.597 143.285 77.1934 142.719C74.6474 142.686 72.1085 142.704 69.5628 142.75C68.7427 142.761 67.9226 142.772 67.0777 142.783C52.3393 143.07 52.3393 143.07 40.6253 151.312ZM320 305C318.444 307.352 316.959 309.713 315.5 312.125C315.084 312.79 314.668 313.455 314.239 314.14C311.869 318.051 310.191 321.317 310 326C312.101 329.375 313.202 330.734 317 332C322.004 332.37 324.983 332.098 329 329C331.27 326.226 331.27 326.226 330.906 323.304C329.751 319.089 327.806 315.808 325.5 312.125C325.084 311.436 324.668 310.748 324.239 310.039C323.195 308.336 322.102 306.665 321 305C320.67 305 320.34 305 320 305ZM15.0003 449C15.0003 461.735 16.0313 471.341 24.8557 481.039C32.4452 488.158 40.8137 491.121 51.0863 491.131C51.8038 491.133 52.5213 491.135 53.2605 491.137C55.6772 491.143 58.0939 491.141 60.5107 491.14C62.2559 491.143 64.0011 491.146 65.7464 491.149C70.5523 491.157 75.3582 491.159 80.1641 491.16C85.3436 491.161 90.523 491.169 95.7025 491.176C107.033 491.189 118.364 491.195 129.694 491.2C136.768 491.202 143.842 491.207 150.916 491.211C170.497 491.223 190.078 491.234 209.659 491.237C211.539 491.237 211.539 491.237 213.458 491.238C214.714 491.238 215.971 491.238 217.266 491.238C219.812 491.239 222.359 491.239 224.905 491.24C226.168 491.24 227.431 491.24 228.733 491.24C249.199 491.244 269.665 491.262 290.131 491.285C311.138 491.309 332.145 491.321 353.152 491.322C364.949 491.323 376.745 491.329 388.542 491.347C398.588 491.363 408.634 491.368 418.679 491.36C423.805 491.356 428.93 491.357 434.055 491.371C438.749 491.383 443.443 491.382 448.138 491.37C449.834 491.368 451.529 491.371 453.225 491.38C467.078 491.447 477.302 490.215 487.688 480.406C496.119 471.468 497 460.82 497 449C437.93 449 378.86 449 318 449C316.68 452.63 315.36 456.26 314 460C311.25 463.562 311.25 463.562 309 466C309 466.66 309 467.32 309 468C308.196 468.371 308.196 468.371 307.375 468.75C304.879 469.987 304.879 469.987 302.375 471.937C293.468 477.38 284.205 477.462 274.008 477.433C272.571 477.438 271.135 477.443 269.698 477.449C266.701 477.458 263.704 477.456 260.707 477.446C256.899 477.434 253.092 477.454 249.284 477.483C246.32 477.502 243.357 477.502 240.393 477.496C238.991 477.496 237.589 477.502 236.186 477.514C224.357 477.605 213.838 476.372 205 468C204.34 468 203.68 468 203 468C202.753 467.463 202.505 466.927 202.25 466.375C201.005 463.874 201.005 463.874 199.063 461.312C197 458 197 458 194 449C134.93 449 75.8603 449 15.0003 449ZM211 449C212.897 453.917 212.897 453.917 216.313 457.187C216.886 457.676 217.46 458.164 218.051 458.668C222.291 461.565 226.049 462.254 231.132 462.29C232.347 462.303 233.562 462.316 234.814 462.329C236.12 462.331 237.425 462.333 238.77 462.335C240.134 462.342 241.497 462.349 242.861 462.356C245.716 462.368 248.572 462.371 251.427 462.37C255.069 462.37 258.71 462.397 262.351 462.432C265.167 462.454 267.984 462.458 270.801 462.457C272.79 462.46 274.78 462.482 276.769 462.504C284.99 462.463 290.746 461.762 297.094 456.148C297.558 455.563 298.022 454.978 298.5 454.375C298.985 453.784 299.47 453.194 299.969 452.585C301.182 451.035 301.182 451.035 301 449C271.3 449 241.6 449 211 449Z" fill="white"/>
<path d="M104.459 362.506C106.417 362.493 106.417 362.493 108.414 362.48C109.854 362.491 111.293 362.503 112.733 362.515C114.254 362.512 115.775 362.509 117.297 362.503C121.423 362.493 125.548 362.509 129.674 362.529C133.993 362.547 138.311 362.543 142.629 362.542C149.88 362.544 157.13 362.561 164.381 362.589C172.764 362.62 181.148 362.631 189.532 362.629C197.597 362.628 205.662 362.638 213.727 362.655C217.16 362.662 220.592 362.666 224.025 362.667C228.065 362.669 232.106 362.681 236.147 362.701C237.63 362.707 239.114 362.709 240.597 362.708C242.621 362.707 244.645 362.72 246.668 362.733C247.801 362.736 248.934 362.74 250.101 362.743C252.966 362.997 254.604 363.453 257 365C259.082 367.677 258.996 369.118 258.875 372.563C258 376 258 376 256.346 377.691C253.274 379.406 251.1 379.381 247.586 379.388C246.944 379.393 246.302 379.399 245.641 379.404C243.493 379.419 241.345 379.412 239.197 379.404C237.656 379.41 236.116 379.417 234.575 379.425C230.391 379.443 226.207 379.442 222.023 379.436C218.532 379.433 215.04 379.439 211.548 379.445C203.312 379.459 195.076 379.458 186.84 379.446C178.34 379.435 169.84 379.449 161.34 379.476C154.044 379.498 146.748 379.505 139.452 379.499C135.093 379.495 130.735 379.498 126.376 379.515C122.279 379.53 118.182 379.527 114.084 379.508C112.58 379.504 111.075 379.507 109.571 379.518C107.518 379.531 105.467 379.519 103.414 379.502C102.266 379.501 101.117 379.501 99.9329 379.501C96.3676 378.892 95.1973 377.815 93 375C92.4336 373 92.4336 373 92.4375 371C92.4156 370.34 92.3937 369.68 92.3711 369C94.1378 363.382 99.2479 362.501 104.459 362.506Z" fill="white"/>
<path d="M107.305 331.466C108.876 331.453 108.876 331.453 110.479 331.44C113.945 331.417 117.409 331.424 120.875 331.433C123.281 331.428 125.687 331.422 128.093 331.414C133.137 331.404 138.181 331.409 143.225 331.423C149.695 331.44 156.164 331.417 162.634 331.382C167.603 331.36 172.572 331.361 177.541 331.369C179.926 331.37 182.312 331.363 184.698 331.349C188.031 331.331 191.362 331.346 194.695 331.368C195.685 331.357 196.674 331.345 197.693 331.333C204.362 331.426 204.362 331.426 207.613 334.348C209.309 337.59 209.614 339.391 209 343C206.768 345.847 205.45 346.85 202 348C200.603 348.092 199.201 348.13 197.801 348.133C196.518 348.14 196.518 348.14 195.209 348.146C193.807 348.145 193.807 348.145 192.376 348.145C191.388 348.148 190.401 348.152 189.384 348.155C186.113 348.165 182.842 348.166 179.57 348.168C177.3 348.171 175.029 348.174 172.759 348.178C167.995 348.184 163.232 348.185 158.469 348.185C152.364 348.185 146.258 348.198 140.153 348.216C135.462 348.227 130.771 348.229 126.08 348.228C123.829 348.229 121.578 348.234 119.327 348.242C116.179 348.251 113.031 348.248 109.883 348.242C108.487 348.251 108.487 348.251 107.062 348.259C98.8007 348.219 98.8007 348.219 95 346C92.5196 342.279 92.5366 340.402 93 336C96.4164 330.577 101.544 331.428 107.305 331.466Z" fill="white"/>
</g>
<defs>
<clipPath id="clip0_1256_213">
<rect width="512" height="512" fill="white"/>
</clipPath>
</defs>
</svg>
