<svg width="512" height="512" viewBox="0 0 512 512" fill="none" xmlns="http://www.w3.org/2000/svg">
<path d="M190.871 167.246C199.954 174.729 206.041 184.318 208 196C209.447 214.15 208.713 229.41 197 244C196.268 244.918 195.536 245.836 194.781 246.782C194.193 247.514 193.606 248.246 193 249C193.965 249.692 193.965 249.692 194.949 250.399C200.939 254.722 206.838 259.141 212.671 263.674C217.652 267.538 220.556 269.215 226.875 269.813C241.757 271.539 254.527 277.92 264.184 289.508C274.653 303.873 275.441 319.881 275.359 337.04C275.316 343.844 275.316 343.844 278.461 349.629C279.299 350.412 280.137 351.194 281 352C285.023 359.443 284.234 369.63 284.535 377.903C284.578 379.02 284.621 380.138 284.665 381.29C284.755 383.642 284.843 385.994 284.93 388.347C285.062 391.923 285.199 395.5 285.338 399.076C285.425 401.373 285.511 403.669 285.598 405.965C285.659 407.552 285.659 407.552 285.721 409.17C285.949 415.45 286.05 421.716 286 428C287.98 428 289.96 428 292 428C291.505 426.825 291.01 425.649 290.5 424.438C288.149 418.056 288.591 412.593 290.898 406.274C293.874 400.132 298.365 395.721 304.5 392.801C309.733 391.125 315.241 391.398 320.687 391.375C339.246 391.769 339.246 391.769 356 385C359.087 381.554 360.643 378.779 361.789 374.309C362.086 373.208 362.382 372.108 362.688 370.974C362.997 369.807 363.306 368.64 363.625 367.438C367.982 351.916 373.774 335.982 385 324C385.516 323.407 386.031 322.814 386.562 322.203C391.587 316.744 397.77 312.939 404 309C403.182 308.507 403.182 308.507 402.348 308.004C388.004 298.956 380.105 287.026 375 271C371.75 255.594 374.043 239.265 382.125 225.688C392.168 211.293 405.496 201.843 422.949 198.422C438.157 196.319 454.324 198.991 467 208C479.003 217.413 488.844 229.865 491.719 245.235C493.633 264.06 490.602 280.46 478.812 295.75C474.217 301.153 468.918 305.14 463 309C465.247 311.361 467.642 313.299 470.25 315.25C484.826 326.572 494.023 342.214 496.486 360.636C497.303 368.28 497.589 375.973 497.973 383.649C498.061 385.387 498.149 387.126 498.237 388.864C498.422 392.51 498.604 396.157 498.784 399.803C498.967 403.486 499.154 407.168 499.346 410.851C501.158 445.744 501.158 445.744 501.371 462.602C501.397 463.663 501.423 464.723 501.45 465.816C501.471 473.063 500.15 478.636 495.105 484.024C494.473 484.47 493.84 484.916 493.187 485.375C492.25 486.068 492.25 486.068 491.293 486.774C484.929 490.178 478.838 490.27 471.785 490.18C470.783 490.175 469.78 490.171 468.747 490.166C466.58 490.155 464.412 490.14 462.244 490.12C458.809 490.09 455.375 490.073 451.94 490.06C442.177 490.02 432.415 489.955 422.653 489.884C416.673 489.841 410.693 489.813 404.713 489.794C402.44 489.783 400.166 489.767 397.892 489.744C394.709 489.713 391.527 489.7 388.344 489.691C387.411 489.678 386.479 489.664 385.518 489.649C384.642 489.65 383.766 489.652 382.863 489.653C382.113 489.648 381.362 489.642 380.589 489.637C377.778 489.914 377.778 489.914 374.544 491.498C368.669 493.793 362.65 493.417 356.425 493.388C355.048 493.392 353.67 493.398 352.293 493.404C348.522 493.419 344.752 493.414 340.981 493.407C336.908 493.402 332.836 493.415 328.764 493.425C320.791 493.442 312.818 493.443 304.846 493.438C298.364 493.434 291.883 493.435 285.402 493.441C284.479 493.441 283.556 493.442 282.605 493.443C280.729 493.444 278.854 493.446 276.979 493.448C259.399 493.461 241.82 493.456 224.24 493.444C208.165 493.434 192.09 493.447 176.015 493.471C159.501 493.496 142.987 493.505 126.472 493.499C117.204 493.495 107.936 493.497 98.6682 493.515C90.7781 493.53 82.8882 493.53 74.9982 493.513C70.9746 493.504 66.9513 493.502 62.9277 493.517C59.2401 493.531 55.5529 493.527 51.8653 493.507C49.9086 493.502 47.9519 493.516 45.9953 493.531C34.5572 493.435 26.4607 490.547 18.207 482.528C11.2381 474.547 10.0763 466.21 10.5859 455.965C11.5922 446.33 16.5378 439.679 23.7968 433.461C28.9059 429.595 33.5505 427.881 40 428C40.0342 426.995 40.0342 426.995 40.0692 425.969C40.3095 418.927 40.5535 411.885 40.7995 404.844C40.8906 402.223 40.9808 399.603 41.07 396.982C41.1992 393.194 41.3317 389.406 41.4648 385.617C41.5034 384.465 41.542 383.312 41.5817 382.125C41.7022 378.749 41.8435 375.375 42 372C42.0569 370.759 42.1139 369.517 42.1726 368.238C42.2777 366.39 42.2777 366.39 42.385 364.505C42.4454 363.394 42.5058 362.284 42.5681 361.139C43.2682 356.05 45.3377 350.041 49.5612 346.803C51.7647 344.042 51.369 341.649 51.371 338.164C51.3885 336.775 51.406 335.386 51.4238 333.996C51.4337 331.827 51.4375 329.658 51.4357 327.488C51.4637 311.322 54.8171 297.526 66.0625 285.313C75.6453 276.244 87.7466 271.458 100.867 270.809C106.076 270.174 109.374 267.2 113.312 263.938C114.796 262.754 116.28 261.572 117.766 260.391C118.483 259.813 119.2 259.235 119.939 258.639C122.755 256.4 125.644 254.29 128.562 252.188C129.864 251.25 129.864 251.25 131.191 250.293C132.087 249.653 132.087 249.653 133 249C132.625 248.516 132.25 248.031 131.863 247.532C119.141 230.867 115.71 215.203 118.496 194.274C121.398 181.583 128.597 171.115 139.625 164.125C156.271 155.122 175.483 156.262 190.871 167.246ZM138.211 183.106C130.31 194.1 129.425 206.923 131.469 220C133.989 229.603 139.561 236.874 148 242C155.646 246.032 163.077 246.812 171.453 244.848C180.229 241.927 187.522 236.212 192.059 228.11C196.786 217.706 197.012 201.743 193.039 191.067C188.517 182.074 181.492 175.34 172 172C159.052 168.348 146.742 173.066 138.211 183.106ZM398.59 225.938C390.451 236.496 385.519 248.523 387 262C389.296 276.218 395.817 287.21 407.414 295.785C418.388 302.875 430.649 304.866 443.465 302.309C452.93 299.669 460.406 295.327 467 288C467.825 287.113 468.65 286.227 469.5 285.313C477.67 275.288 480.15 263.65 479 251C476.534 238.896 470.951 227.617 461 220C440.582 207.778 415.869 207.011 398.59 225.938ZM144 255C146.929 260.731 150.683 265.401 154.805 270.332C157.375 273.456 159.707 276.671 162 280C165.501 278.558 167.169 276.832 169.383 273.789C169.992 272.957 170.602 272.124 171.23 271.266C171.856 270.394 172.481 269.523 173.125 268.625C173.758 267.762 174.391 266.898 175.043 266.008C177.644 262.43 180.12 259.017 182 255C180.515 255.325 180.515 255.325 179 255.657C166.232 258.385 156.694 257.777 144 255ZM134 265C128.72 268.96 123.44 272.92 118 277C120.413 281.022 122.475 283.775 125.625 287.125C130.661 292.569 135.363 298.21 140 304C143.903 302.414 146.335 299.867 149.25 296.875C150.142 295.965 151.034 295.055 151.953 294.117C152.629 293.419 153.304 292.72 154 292C151.688 287.049 148.365 282.875 145.125 278.5C144.5 277.646 143.875 276.791 143.23 275.91C142.621 275.084 142.011 274.258 141.383 273.407C140.83 272.657 140.277 271.907 139.707 271.135C137.733 268.586 137.733 268.586 134 265ZM191 266C183.69 273.325 177.917 282.538 172 291C175.805 295.561 179.75 299.851 184 304C188.45 302.4 190.839 298.97 193.75 295.438C194.812 294.173 195.874 292.909 196.937 291.645C197.456 291.026 197.974 290.406 198.508 289.768C201.594 286.111 204.8 282.558 208 279C206.473 274.865 203.504 272.763 200.062 270.25C199.524 269.839 198.986 269.428 198.432 269.004C195.087 266.499 195.087 266.499 191 266ZM212 293C210.543 294.793 209.085 296.585 207.625 298.375C206.891 299.281 206.158 300.188 205.402 301.121C201.122 306.25 196.584 311.142 192 316C191.309 316.752 190.618 317.503 189.906 318.278C187.254 320.674 184.41 321.1 181 322C178.461 327.077 180 333.324 180 339C207.06 339 234.12 339 262 339C262.07 313.65 262.07 313.65 249.375 293.043C243.443 287.941 235.668 284.504 228 283C226.329 282.629 226.329 282.629 224.625 282.25C218.554 283.506 215.733 288.303 212 293ZM72.0898 298.168C63.0821 310.673 65 323.612 65 339C91.73 339 118.46 339 146 339C147.387 325.479 147.387 325.479 144 321C142.824 320.835 141.649 320.67 140.437 320.5C134.937 319.301 132.618 315.371 129.352 311.067C127.038 308.049 124.588 305.284 122 302.5C117.747 297.882 113.744 293.109 109.812 288.215C107.028 284.613 107.028 284.613 102.687 283.625C90.8484 284.011 79.8894 289.316 72.0898 298.168ZM159.836 303.969C159.024 304.804 158.212 305.64 157.375 306.5C156.149 307.753 156.149 307.753 154.898 309.032C154.272 309.681 153.645 310.331 153 311C153.351 311.456 153.703 311.912 154.065 312.381C158.076 318.069 158.768 322.639 158.812 329.5C158.85 330.877 158.85 330.877 158.889 332.282C158.947 334.522 158.984 336.76 159 339C161.64 339 164.28 339 167 339C167.021 337.1 167.021 337.1 167.043 335.16C167.458 317.811 167.458 317.811 173 311C171.548 309.494 170.088 307.996 168.625 306.5C167.813 305.665 167.001 304.83 166.164 303.969C163.228 301.298 162.772 301.298 159.836 303.969ZM391.98 336.475C388.796 340.536 386.601 344.896 384.437 349.563C383.738 351.038 383.738 351.038 383.025 352.543C379.265 360.773 376.583 369.166 374.369 377.93C372.281 386.006 369.355 393.424 362 398C352.206 403.047 341.93 403.958 331.086 404.164C329.22 404.205 329.22 404.205 327.316 404.246C324.802 404.29 322.288 404.311 319.774 404.308C312.54 404.239 312.54 404.239 306.254 407.332C303.489 410.605 302.514 412.738 302 417C303.153 421.069 304.067 423.283 307.437 425.875C323.981 433.138 351.709 428.435 368.437 422.473C382.125 416.815 390.406 406.161 396.223 392.874C400.118 383.486 402.719 373.685 405.203 363.852C406 361 406 361 407 360C409.671 359.859 412.324 359.958 415 360C417.977 366.006 416.285 370.699 414.562 376.813C414.283 377.832 414.004 378.85 413.716 379.9C408.425 398.606 401.212 416.092 385 428C383.022 429.044 381.027 430.056 379 431C381.056 433.132 383.038 435.028 385.441 436.77C388.331 439.289 389.6 441.495 391.25 444.938C391.75 445.957 392.25 446.977 392.766 448.028C396.01 455.84 395.587 463.245 393.484 471.309C393.208 472.378 392.932 473.447 392.647 474.549C392.434 475.358 392.22 476.167 392 477C403.37 477.07 414.74 477.123 426.11 477.156C431.39 477.171 436.67 477.193 441.95 477.227C447.046 477.259 452.142 477.277 457.239 477.285C459.182 477.29 461.125 477.301 463.068 477.317C465.793 477.339 468.516 477.342 471.241 477.341C472.042 477.352 472.843 477.362 473.669 477.374C478.502 477.347 481.826 476.699 486 474C488.604 470.095 488.293 466.876 488.242 462.344C488.236 461.4 488.231 460.456 488.225 459.483C488.04 444.288 487.177 429.104 486.401 413.93C486.169 409.388 485.947 404.845 485.729 400.302C485.557 396.75 485.378 393.198 485.198 389.646C485.114 387.972 485.032 386.298 484.952 384.624C483.908 362.938 481.593 343.389 464.941 327.594C441.523 308.369 411.004 314.747 391.98 336.475ZM57.6745 357.679C55.7176 361.56 55.3228 364.873 55.207 369.133C55.1706 369.924 55.1343 370.715 55.0968 371.529C54.9846 374.061 54.8981 376.593 54.8125 379.125C54.7445 380.74 54.6748 382.355 54.6035 383.969C54.3791 389.312 54.1907 394.656 54 400C53.67 409.24 53.34 418.48 53 428C125.6 428 198.2 428 273 428C277.501 388.123 277.501 388.123 266.062 354.875C261.377 352.007 257.649 351.854 252.315 351.86C251.129 351.855 251.129 351.855 249.919 351.851C247.261 351.842 244.604 351.841 241.946 351.839C240.044 351.835 238.142 351.829 236.24 351.824C231.066 351.811 225.893 351.805 220.719 351.8C217.488 351.797 214.257 351.793 211.026 351.789C200.919 351.775 190.813 351.765 180.707 351.761C169.034 351.757 157.362 351.739 145.69 351.71C136.672 351.689 127.653 351.679 118.635 351.677C113.247 351.676 107.859 351.67 102.471 351.653C97.4022 351.636 92.334 351.634 87.2656 351.643C85.4056 351.643 83.5456 351.639 81.6856 351.629C79.1456 351.617 76.6063 351.622 74.0663 351.633C73.331 351.625 72.5956 351.617 71.838 351.608C65.757 351.667 61.6855 353.058 57.6745 357.679ZM28.1875 448C27.6035 448.681 27.0196 449.362 26.4179 450.063C23.0093 454.72 23.3298 460.488 24 466C26.3818 471.97 30.4725 476.335 36.299 479.086C39.2711 480.092 41.5824 480.253 44.7153 480.258C45.8629 480.264 47.0105 480.27 48.1928 480.277C49.4491 480.274 50.7053 480.271 51.9995 480.268C53.3511 480.271 54.7026 480.276 56.0542 480.281C59.7672 480.294 63.4801 480.293 67.1931 480.291C71.198 480.291 75.2029 480.302 79.2077 480.311C87.0538 480.328 94.8998 480.333 102.746 480.334C109.123 480.335 115.501 480.339 121.879 480.346C139.959 480.363 158.04 480.373 176.12 480.371C177.583 480.371 177.583 480.371 179.074 480.371C180.05 480.371 181.026 480.371 182.032 480.371C197.85 480.37 213.668 480.389 229.486 480.417C245.726 480.446 261.967 480.46 278.208 480.458C287.326 480.457 296.444 480.463 305.563 480.484C313.326 480.503 321.09 480.507 328.853 480.493C332.814 480.487 336.774 480.487 340.734 480.504C344.362 480.52 347.99 480.517 351.617 480.499C353.547 480.495 355.476 480.51 357.406 480.526C365.328 480.463 370.811 479.543 377.023 474.289C381.078 469.298 383.299 465.221 382.937 458.625C382.099 452.963 379.893 448.504 375.544 444.741C369.179 440.109 363.169 440.303 355.512 440.379C354.144 440.374 352.776 440.368 351.408 440.359C347.664 440.343 343.92 440.357 340.176 440.376C336.132 440.391 332.088 440.378 328.045 440.368C320.13 440.354 312.215 440.366 304.299 440.387C295.081 440.411 285.864 440.41 276.646 440.407C260.2 440.403 243.754 440.424 227.308 440.458C211.349 440.491 195.39 440.506 179.432 440.499C162.051 440.493 144.67 440.495 127.289 440.515C125.911 440.516 125.911 440.516 124.504 440.518C122.659 440.52 120.813 440.522 118.967 440.524C112.541 440.531 106.116 440.532 99.6897 440.53C91.8606 440.529 84.0317 440.538 76.2027 440.562C72.208 440.574 68.2135 440.581 64.2188 440.575C60.5622 440.57 56.906 440.579 53.2495 440.599C51.2998 440.606 49.3501 440.598 47.4005 440.59C39.1871 440.654 33.6898 441.442 28.1875 448Z" fill="white"/>
<path d="M215.482 18.8525C216.143 18.8488 216.804 18.8452 217.485 18.8414C219.705 18.8303 221.925 18.8265 224.145 18.8227C225.735 18.8164 227.325 18.8098 228.915 18.8028C234.143 18.7817 239.37 18.7714 244.598 18.7614C246.399 18.7573 248.2 18.7532 250.001 18.749C258.466 18.73 266.931 18.7158 275.396 18.7074C285.157 18.6977 294.918 18.6714 304.679 18.6309C312.229 18.6007 319.779 18.586 327.329 18.5827C331.835 18.5803 336.341 18.5714 340.847 18.5462C345.092 18.5228 349.336 18.5187 353.58 18.529C355.132 18.5294 356.684 18.5232 358.236 18.5094C370.569 18.406 379.844 20.0266 389.02 28.7145C395.981 36.7464 397.148 45.1941 397.161 55.4047C397.166 56.3452 397.171 57.2857 397.176 58.2548C397.191 61.3611 397.198 64.4675 397.203 67.5739C397.209 69.74 397.215 71.9061 397.22 74.0721C397.231 78.614 397.237 83.1558 397.24 87.6977C397.246 93.5001 397.27 99.3022 397.298 105.105C397.317 109.58 397.322 114.056 397.324 118.532C397.327 120.67 397.335 122.808 397.348 124.946C397.365 127.947 397.363 130.947 397.356 133.948C397.366 134.82 397.375 135.693 397.384 136.592C397.319 146.395 394.847 154.813 388 162C380.658 168.703 373.122 171.479 363.289 171.34C362.459 171.341 361.629 171.341 360.773 171.342C358.057 171.34 355.341 171.316 352.625 171.293C350.731 171.287 348.836 171.283 346.942 171.28C341.977 171.268 337.013 171.239 332.048 171.206C326.973 171.175 321.899 171.161 316.824 171.146C306.883 171.114 296.941 171.063 287 171C286.582 171.902 286.582 171.902 286.156 172.822C284.451 176.033 281.932 178.456 279.438 181.062C275.656 185.078 272.006 189.123 268.562 193.437C264.542 198.45 260.222 203.11 255.819 207.784C251.593 212.294 247.651 216.952 243.805 221.793C240.682 225.611 240.682 225.611 239 227C234.633 227.39 232.695 227.463 229 225C227.96 221.578 227.946 218.563 228.254 215.026C228.334 214.065 228.414 213.105 228.497 212.115C228.589 211.091 228.682 210.067 228.777 209.011C228.868 207.953 228.958 206.895 229.051 205.804C229.34 202.431 229.638 199.059 229.938 195.687C230.135 193.398 230.333 191.108 230.529 188.818C231.012 183.211 231.503 177.605 232 172C231.033 171.986 231.033 171.986 230.047 171.971C227.073 171.917 224.099 171.834 221.125 171.75C220.112 171.735 219.099 171.721 218.055 171.707C207.619 171.372 199.611 168.491 191.98 161.293C187.36 155.944 183.894 148.972 183.853 141.834C183.846 140.986 183.839 140.138 183.831 139.264C183.828 138.337 183.826 137.41 183.823 136.455C183.816 135.475 183.81 134.496 183.803 133.487C183.783 130.24 183.772 126.993 183.762 123.746C183.758 122.636 183.754 121.526 183.749 120.382C183.729 114.502 183.714 108.623 183.705 102.744C183.694 96.6832 183.659 90.6232 183.62 84.563C183.593 79.8934 183.585 75.2239 183.582 70.5542C183.577 68.3212 183.565 66.0882 183.547 63.8553C183.522 60.7201 183.523 57.5859 183.53 54.4506C183.517 53.5375 183.504 52.6244 183.491 51.6836C183.57 41.8673 187.002 34.088 193.707 26.9801C200.028 21.5209 207.224 18.8823 215.482 18.8525ZM201.125 38.9372C197.076 44.7725 196.702 49.3406 196.709 56.2528C196.703 57.1771 196.696 58.1013 196.689 59.0535C196.67 62.1046 196.666 65.1555 196.664 68.2067C196.658 70.3327 196.651 72.4588 196.644 74.5848C196.632 79.0409 196.628 83.4969 196.629 87.953C196.63 93.6526 196.602 99.3517 196.568 105.051C196.546 109.443 196.542 113.834 196.543 118.226C196.54 120.327 196.531 122.427 196.516 124.528C196.496 127.472 196.502 130.414 196.514 133.358C196.503 134.219 196.492 135.08 196.48 135.968C196.546 142.346 197.992 147.744 202.412 152.528C207.61 157.117 212.141 158.238 218.945 158.343C219.597 158.358 220.249 158.373 220.92 158.388C223.69 158.45 226.461 158.49 229.231 158.531C231.261 158.565 233.291 158.61 235.32 158.656C236.53 158.675 237.739 158.693 238.985 158.713C242 159 242 159 245 161C246.975 173.745 244.083 188.234 243 201C243.758 200.239 244.516 199.479 245.297 198.695C246.755 197.241 248.217 195.792 249.703 194.367C253.113 191.078 256.161 187.634 259.125 183.937C262.833 179.331 266.72 174.951 270.75 170.625C271.293 170.042 271.836 169.459 272.395 168.859C273.922 167.23 275.451 165.607 277 164C278.027 162.729 278.027 162.729 279.074 161.432C282.831 158.308 285.756 158.315 290.427 158.404C291.263 158.4 292.1 158.396 292.962 158.391C294.773 158.386 296.585 158.392 298.396 158.408C301.268 158.434 304.139 158.429 307.011 158.416C313.112 158.395 319.212 158.415 325.312 158.437C332.374 158.458 339.435 158.463 346.496 158.437C349.317 158.433 352.137 158.455 354.957 158.477C356.7 158.475 358.442 158.471 360.185 158.466C360.962 158.479 361.739 158.492 362.539 158.505C368.676 158.45 373.9 156.787 378.531 152.623C383.902 146.633 384.297 140.429 384.275 132.801C384.28 131.894 384.285 130.988 384.29 130.054C384.304 127.068 384.303 124.083 384.301 121.097C384.305 119.015 384.309 116.933 384.314 114.851C384.321 110.491 384.321 106.131 384.316 101.77C384.31 96.1908 384.327 90.6115 384.35 85.032C384.365 80.733 384.366 76.4342 384.363 72.1353C384.363 70.0785 384.368 68.0216 384.378 65.9648C384.391 63.0857 384.384 60.2072 384.372 57.328C384.38 56.4837 384.388 55.6393 384.395 54.7693C384.323 46.6416 381.869 40.8684 376 34.9997C369.142 30.8624 361.705 31.5695 353.92 31.5956C352.385 31.5899 350.85 31.5829 349.316 31.5748C345.161 31.5569 341.006 31.5581 336.851 31.5638C333.377 31.5669 329.903 31.5608 326.429 31.5547C318.23 31.5407 310.032 31.5422 301.834 31.5536C293.387 31.5651 284.942 31.551 276.495 31.5242C269.232 31.5021 261.969 31.4954 254.706 31.5013C250.373 31.5047 246.041 31.5023 241.708 31.4851C237.632 31.4696 233.557 31.4736 229.482 31.4924C227.99 31.496 226.499 31.493 225.007 31.4825C215.674 31.4219 207.782 31.5155 201.125 38.9372Z" fill="white"/>
<path d="M272.744 111.466C273.626 111.457 274.508 111.449 275.416 111.44C278.33 111.417 281.242 111.424 284.156 111.433C286.181 111.428 288.206 111.422 290.231 111.414C294.475 111.404 298.718 111.409 302.961 111.423C308.403 111.44 313.843 111.417 319.284 111.382C323.465 111.36 327.646 111.361 331.828 111.369C333.834 111.37 335.84 111.363 337.847 111.349C340.65 111.331 343.452 111.346 346.256 111.368C347.086 111.357 347.916 111.345 348.772 111.333C352.726 111.398 354.589 111.622 357.55 114.34C359 117 359 117 358.938 120.187C358 123 358 123 355 125C352.056 125.2 349.206 125.283 346.262 125.274C344.922 125.282 344.922 125.282 343.556 125.29C340.6 125.304 337.644 125.303 334.688 125.3C332.636 125.304 330.585 125.309 328.534 125.313C324.233 125.321 319.933 125.32 315.632 125.315C310.113 125.309 304.595 125.326 299.077 125.35C294.841 125.364 290.605 125.365 286.369 125.362C284.334 125.363 282.299 125.368 280.264 125.378C277.422 125.39 274.58 125.383 271.738 125.372C270.894 125.38 270.049 125.387 269.178 125.395C263.439 125.343 263.439 125.343 261.288 123.66C260 122 260 122 259.562 119.062C260 116 260 116 261.481 113.841C265.076 111.213 268.457 111.432 272.744 111.466Z" fill="white"/>
<path d="M175.211 372.59C179.34 375.844 182.344 380.033 184 385C184.661 392.315 184.768 399.069 180 405C173.658 410.832 168.644 412.383 160.074 412.27C154.614 411.791 150.963 410.096 147.215 406.094C142.754 400.442 141.578 395.899 141.652 388.735C142.412 382.761 145.277 377.768 149.438 373.5C157.303 368.896 167.112 367.941 175.211 372.59ZM155.688 386.75C154.728 389.889 155.085 391.862 156 395C158.144 398.018 159.288 398.864 162.938 399.563C167.086 398.801 168.514 397.364 171 394C171.833 391 171.833 391 171 388C168.679 384.95 167.28 383.219 163.438 382.563C159.961 383.187 157.846 383.873 155.688 386.75Z" fill="white"/>
<path d="M268.234 64.5958C269.836 64.5768 269.836 64.5768 271.47 64.5574C272.624 64.5603 273.777 64.5632 274.965 64.5663C276.742 64.5584 276.742 64.5584 278.555 64.5504C281.063 64.544 283.57 64.5453 286.078 64.5538C289.919 64.5623 293.759 64.5336 297.6 64.5018C300.034 64.5002 302.468 64.5008 304.902 64.5038C306.629 64.4869 306.629 64.4869 308.391 64.4697C309.462 64.4791 310.533 64.4885 311.636 64.4982C313.048 64.4984 313.048 64.4984 314.489 64.4987C317.781 65.1558 318.994 66.349 321 68.9999C320.937 72.6249 320.937 72.6249 320 75.9999C316.707 78.195 315.686 78.2588 311.858 78.2904C310.286 78.3095 310.286 78.3095 308.682 78.3291C306.985 78.3324 306.985 78.3324 305.254 78.3358C303.51 78.3458 303.51 78.3458 301.731 78.356C299.27 78.3661 296.81 78.3708 294.349 78.3705C290.581 78.3748 286.813 78.4112 283.045 78.4491C280.656 78.4549 278.268 78.4589 275.879 78.4608C274.75 78.4752 273.62 78.4895 272.457 78.5043C271.406 78.4982 270.355 78.492 269.272 78.4857C268.348 78.4886 267.424 78.4914 266.473 78.4943C263.22 77.8439 262.025 76.5774 260 73.9999C259.552 70.8644 259.304 68.9616 261.2 66.3415C263.631 64.5291 265.216 64.6131 268.234 64.5958Z" fill="white"/>
<path d="M233.438 111.625C235.416 111.582 235.416 111.582 237.434 111.539C241 112 241 112 243.481 113.797C245 116 245 116 244.875 119.625C244 123 244 123 242 125C239.141 125.252 236.422 125.37 233.563 125.375C232.398 125.412 232.398 125.412 231.209 125.449C225.544 125.478 225.544 125.478 222.957 123.203C221.503 119.855 222.101 117.467 223 114C226.592 111.605 229.282 111.633 233.438 111.625Z" fill="white"/>
<path d="M232.875 64.6252C233.956 64.5885 233.956 64.5885 235.059 64.551C238.572 64.5316 240.623 64.7303 243.512 66.7971C245 69.0002 245 69.0002 244.937 72.6252C244 76.0002 244 76.0002 241 78.0002C238.468 78.2479 236.093 78.3703 233.562 78.3752C232.244 78.4036 230.925 78.4319 229.566 78.4611C226 78.0002 226 78.0002 223.519 76.2033C222 74.0002 222 74.0002 222.125 70.3752C223.766 64.0454 227.142 64.6353 232.875 64.6252Z" fill="white"/>
<path d="M346.875 64.6252C347.956 64.5885 347.956 64.5885 349.059 64.551C352.596 64.5315 354.621 64.7237 357.512 66.8323C359 69.0002 359 69.0002 358.937 72.0627C357.948 75.1644 357.612 76.1589 355 78.0002C352.416 78.3266 350.141 78.4649 347.562 78.4377C345.584 78.4667 345.584 78.4667 343.566 78.4963C340 78.0002 340 78.0002 337.519 76.1995C336 74.0002 336 74.0002 336.125 70.3752C337.766 64.0454 341.142 64.6354 346.875 64.6252Z" fill="white"/>
</svg>
