<svg width="206" height="28" viewBox="0 0 206 28" fill="none" xmlns="http://www.w3.org/2000/svg">
<path d="M0 21.2216C0.951457 20.6283 1.91464 20.134 2.85166 19.5943C4.30311 18.7583 5.185 17.5694 5.26542 15.817C5.29109 15.2577 5.54002 14.6659 5.82889 14.1722C6.19874 13.54 6.82996 13.4006 7.4573 13.8165C12.4428 17.1213 17.7827 16.7719 23.1738 15.2319C24.9425 14.7267 26.59 13.7976 28.3033 13.0578C28.8677 14.2615 29.5372 14.5442 31.0492 13.9634C31.9282 13.6257 32.7623 13.1709 33.6165 12.7687C33.5914 12.6111 33.5663 12.4535 33.5411 12.2959C32.7483 12.2129 31.9563 12.1196 31.1621 12.0533C30.922 12.0332 30.668 12.1361 30.4338 12.0988C29.8701 12.0091 29.0262 12.4492 28.8471 11.5556C28.6648 10.6458 29.2748 9.95533 30.0549 9.69045C30.7038 9.47018 31.4879 9.50445 32.1844 9.6095C32.8621 9.71171 33.5342 9.98678 34.157 10.2916C35.9276 11.158 37.8409 11.2788 39.7456 11.5011C40.1414 11.5473 40.5052 11.8677 40.8838 12.0618C40.4795 12.5406 40.0611 13.4425 39.6734 13.4294C37.1816 13.3455 35.0621 14.3224 32.9367 15.4036C32.1027 15.8279 31.2175 16.2756 30.3129 16.3985C29.5459 16.5027 28.692 16.2318 27.9253 15.9791C27.4184 15.8121 27.0548 15.5777 26.4911 15.93C22.4813 18.4356 18.082 19.1607 13.4391 18.6411C12.3347 18.5175 11.2437 18.2696 10.1384 18.1598C9.83505 18.1297 9.39113 18.3041 9.20475 18.5383C8.69203 19.1824 8.18593 19.2279 7.48243 18.8646C6.13548 18.1692 6.15947 18.2258 5.30112 19.3511C4.02291 21.0268 2.19898 21.6252 0.0895533 21.7726C4.19403e-07 21.6154 4.20085e-07 21.4579 0 21.2216Z" fill="#F5C50B"/>
<path d="M124.826 18.1897C133.245 18.3356 141.564 18.5935 149.883 18.5737C154.34 18.5631 158.808 18.1989 163.249 17.7687C168.279 17.2815 173.315 16.7213 178.291 15.8596C182.995 15.0451 187.623 13.7975 192.286 12.744C192.679 12.6551 193.079 12.5937 193.658 12.4856C193.568 13.0435 193.505 13.4302 193.436 13.8554C194.085 14.405 194.805 14.3066 195.456 13.9163C196.139 13.5066 196.738 12.9589 197.395 12.5012C197.569 12.3801 197.819 12.3685 198.034 12.3066C198.087 12.4949 198.145 12.6819 198.192 12.8717C198.259 13.1427 198.318 13.4158 198.381 13.688C198.724 13.5653 199.185 13.5392 199.382 13.2975C199.677 12.9351 199.77 12.4141 199.978 11.9743C200.14 11.6319 200.347 11.3104 200.637 10.7963C200.909 11.3304 201.058 11.6229 201.283 12.0654C201.916 11.7837 202.553 11.533 203.158 11.2199C203.654 10.9633 203.767 10.598 203.349 10.1257C202.494 9.15949 201.683 8.15396 200.819 7.19531C199.557 5.79374 199.396 4.13871 200.579 2.41309C201.258 3.32932 201.973 4.12445 202.493 5.03117C203.446 6.69411 204.321 8.40509 205.16 10.1298C205.823 11.494 205.176 12.7813 204.335 13.6889C203.521 14.5678 202.316 15.1971 200.926 14.5345C200.735 14.4437 200.223 14.6331 200.113 14.8323C199.409 16.1135 198.327 16.2405 197.051 16.0141C196.718 15.955 196.289 16.0059 196.004 16.1748C194.692 16.9534 193.354 17.0862 192.036 16.3126C191.076 15.7486 190.187 15.7764 189.15 16.0801C183.747 17.6631 178.228 18.7135 172.653 19.4595C168.782 19.9774 164.905 20.4507 161.024 20.8777C158.945 21.1064 156.852 21.2589 154.762 21.3323C151.234 21.4562 147.704 21.5203 144.174 21.5534C140.334 21.5893 136.488 21.6901 132.655 21.5282C127.884 21.3267 123.104 21.0445 118.362 20.5028C113.518 19.9496 108.716 19.0301 103.89 18.3061C103.533 18.2526 102.973 18.3595 102.786 18.6046C102.287 19.2571 101.795 19.2562 101.154 18.9111C100.239 18.418 99.5519 18.2314 98.7834 19.4053C97.8572 20.8201 96.1934 21.3616 94.5637 21.7282C94.2667 21.795 93.9247 21.6619 93.6035 21.6211C93.5768 21.5282 93.5501 21.4353 93.5234 21.3424C93.8031 21.139 94.0686 20.9118 94.3651 20.7371C95.1161 20.2946 95.9388 19.952 96.6273 19.4301C97.7997 18.5416 98.9393 17.6108 98.7688 15.8466C98.72 15.3414 98.9957 14.7469 99.2715 14.2815C99.7081 13.5447 100.505 13.2486 101.142 13.8444C103.74 16.2772 107.12 16.2187 110.269 16.6756C114.646 17.3108 119.077 17.5752 123.484 18.0039C123.9 18.0444 124.312 18.1244 124.826 18.1897Z" fill="#F5C50B"/>
<path d="M34.6423 27.8732C30.3508 27.9966 26.1797 27.9486 22.0847 26.8361C18.1683 25.7722 14.802 23.8431 12.1345 20.7592C11.9003 20.4885 11.7588 20.1375 11.5742 19.8238C11.6341 19.749 11.6939 19.6742 11.7538 19.5994C12.0384 19.7221 12.3528 19.8016 12.6031 19.9741C17.5262 23.3683 23.0562 24.7573 28.9509 25.1816C34.9544 25.6137 40.8129 25.0227 46.4884 23.0743C48.4037 22.4168 50.2501 21.4149 51.9381 20.2865C53.2343 19.42 53.1945 18.6506 52.4658 17.2833C51.8941 16.2107 51.9698 15.6293 52.8419 14.6207C53.0372 14.7381 53.2389 14.8628 53.4437 14.9821C54.5453 15.6238 55.6354 15.5439 56.1107 14.41C57.1622 11.9014 59.0835 10.7392 61.5826 10.2302C61.6373 10.2191 61.682 10.1586 61.7314 10.1211C61.728 10.009 61.7246 9.89697 61.7212 9.7849C60.9057 9.77062 60.0902 9.74946 59.2747 9.7459C58.9965 9.74469 58.7025 9.85581 58.4433 9.79594C57.9481 9.68153 57.1582 9.59366 57.0513 9.29442C56.7872 8.55579 57.013 7.74842 57.7925 7.3105C59.2112 6.51348 60.6215 6.8104 62.0095 7.43369C64.14 8.39045 66.27 9.34846 68.3969 10.3133C68.6459 10.4263 68.8738 10.586 69.1123 10.7244C68.4623 11.8005 67.5575 12.0903 66.407 12.0581C64.821 12.0138 63.2213 12.1408 61.6446 12.3342C61.294 12.3772 60.9268 12.9603 60.7285 13.3724C60.5406 13.7629 60.5505 14.2536 60.4971 14.7031C60.276 16.5629 59.3878 17.1433 57.7214 16.3444C56.9822 15.9901 56.5797 16.0477 56.2123 16.7363C56.1325 16.8859 56.0146 17.074 55.8727 17.1223C54.4437 17.6085 54.0964 18.844 53.6563 20.0915C53.0573 21.789 51.7029 22.8896 50.2084 23.7603C46.5534 25.8898 42.4939 26.7792 38.3765 27.444C37.1735 27.6383 35.9543 27.7327 34.6423 27.8732Z" fill="#F5C50B"/>
<path d="M81.7671 13.4608C82.556 13.0759 83.1151 12.6418 83.2229 11.7376C83.2702 11.3418 83.6313 10.9834 83.9342 10.463C84.6677 11.4429 84.3683 12.3537 84.3463 13.2167C84.3339 13.7024 84.1998 14.1899 84.2264 14.6707C84.3135 16.2413 85.7481 17.1002 87.1452 16.345C87.5421 16.1304 87.9414 15.4708 87.9269 15.0289C87.8835 13.7141 87.5486 12.4094 87.4975 11.0942C87.4645 10.2458 87.7302 9.3858 87.862 8.531C88.0033 8.52812 88.1446 8.52525 88.286 8.52238C88.4007 8.77952 88.5497 9.02712 88.6245 9.29541C89.046 10.8079 89.4128 12.337 89.8811 13.8345C90.0284 14.3056 90.3617 14.7818 90.7421 15.0952C91.0054 15.3121 91.5384 15.3791 91.8663 15.2667C92.0342 15.2091 92.1442 14.5763 92.0603 14.2623C91.7185 12.9834 91.3961 11.6816 90.868 10.4751C90.2906 9.15607 90.4355 7.98025 91.1091 6.69238C91.2753 6.84459 91.4751 6.94379 91.5394 7.09909C92.5716 9.59015 93.4322 12.1031 93.4727 14.8676C93.5118 17.5377 91.9281 19.6475 88.7602 17.5227C88.0888 18.5646 87.281 19.3944 85.8589 19.3332C84.3376 19.2677 83.8535 18.1344 83.2738 17.0174C82.7793 17.404 82.3771 17.9161 81.8685 18.0654C81.2598 18.244 80.2996 18.3788 79.9639 18.0503C79.5133 17.6094 79.2973 16.6834 79.369 16.0069C79.509 14.6856 80.6905 14.1272 81.7671 13.4608Z" fill="#F5C50B"/>
<path d="M72.2236 3.51127C72.2096 3.99841 72.1552 4.41728 72.2305 4.8114C72.6553 7.0349 73.0812 9.25905 73.5665 11.4698C73.9223 13.0905 73.4945 14.5299 72.6134 15.8346C71.911 16.8746 71.5804 17.9745 71.3514 19.2019C71.0047 21.0603 70.3374 22.8519 68.671 24.0055C67.3137 24.9451 64.1317 24.6607 62.6445 23.3846C63.2553 23.2518 63.7342 23.086 64.2222 23.0518C67.0643 22.8529 68.8049 21.0476 70.2726 18.8887C70.7273 18.2198 70.5647 17.5128 69.985 16.8864C69.0859 15.9149 69.0864 15.4808 69.8821 14.1824C70.0512 14.2271 70.2406 14.278 70.4303 14.3272C72.006 14.7363 72.6635 14.171 72.2879 12.5813C71.5206 9.3333 70.6612 6.10718 69.8584 2.86742C69.627 1.93378 69.5749 1.00865 70.3609 0.258789C71.6677 1.04933 72.4662 2.41311 72.2236 3.51127Z" fill="#F5C50B"/>
<path d="M39.2306 24.1169C37.4507 24.466 35.8083 24.33 34.2195 23.7449C34.2114 23.6203 34.2034 23.4957 34.1953 23.3711C34.7456 23.2576 35.291 23.0968 35.847 23.0386C38.58 22.7522 40.2827 20.9985 41.709 18.8975C42.1956 18.1806 41.9645 17.4672 41.381 16.8008C41.0668 16.442 40.8218 15.905 40.7983 15.4358C40.7585 14.6425 40.933 14.0424 42.0859 14.3496C43.5071 14.7283 44.103 14.0882 43.7609 12.6668C42.9701 9.3817 42.1005 6.11561 41.2934 2.8343C41.0654 1.90723 41.0064 0.968728 41.9897 0.102539C42.5841 0.874343 43.154 1.59845 43.7008 2.33966C43.7953 2.46773 43.8764 2.70753 43.8201 2.8295C43.0411 4.51783 44.0402 6.03557 44.2772 7.6184C44.4941 9.06616 44.8936 10.487 45.0996 11.9358C45.3048 13.3789 44.8284 14.6966 44.029 15.8935C43.3882 16.8529 42.9287 17.8155 42.7478 19.027C42.4256 21.1846 41.4864 23.1029 39.2306 24.1169Z" fill="#F5C50B"/>
<path d="M46.7261 9.70513C46.2291 7.44018 45.7446 5.26287 45.2933 3.07871C45.087 2.08002 45.0559 1.09093 46.0196 0.0410156C46.2549 0.748312 46.4776 1.26662 46.5993 1.80764C47.4404 5.54775 48.2711 9.29031 49.0813 13.0372C49.3458 14.2603 49.0063 15.4006 48.6171 16.5187C48.5035 16.5231 48.3899 16.5275 48.2763 16.532C47.7682 14.2846 47.2602 12.0373 46.7261 9.70513Z" fill="#F5C50B"/>
<path d="M96.4427 16.1537C95.9491 16.3491 95.9228 16.3553 95.7998 15.8261C95.3262 13.7876 94.8694 11.7451 94.409 9.7034C93.9256 7.55933 93.4173 5.42029 92.9757 3.2676C92.7598 2.21509 92.7069 1.14424 93.724 0C94.0354 1.07498 94.3309 1.90718 94.5148 2.76335C95.262 6.24161 96.0293 9.71737 96.6635 13.2168C96.8292 14.1313 96.5416 15.1279 96.4427 16.1537Z" fill="#F5C50B"/>
<path d="M76.8176 9.21363C77.0972 10.5649 77.4762 11.8194 77.5856 13.0969C77.6806 14.2057 77.4704 15.3406 77.3951 16.464C77.2542 16.4765 77.1133 16.489 76.9724 16.5015C76.8517 16.1742 76.693 15.8557 76.616 15.5184C75.6607 11.3335 74.7046 7.14862 73.7802 2.95677C73.5674 1.99164 73.7086 1.06357 74.5152 0.286133C75.6722 3.15442 76.0862 6.18012 76.8176 9.21363Z" fill="#F5C50B"/>
<path d="M6.53558 11.8793C6.30133 11.5014 6.16801 11.1061 5.95489 10.7599C5.5684 10.1319 5.2916 9.28046 4.24306 10.0894C3.9758 10.2956 3.22947 10.1765 2.91309 9.93366C2.64094 9.72474 2.47448 9.04456 2.61143 8.72085C2.78291 8.31554 3.3439 7.76466 3.68074 7.80065C4.52337 7.89069 5.33437 8.27652 6.26788 8.57929C6.26788 8.24713 6.16064 7.71323 6.29558 7.24985C6.45685 6.6961 6.75815 6.14246 7.14065 5.71595C7.27346 5.56786 8.10357 5.72425 8.14378 5.87084C8.29556 6.42422 8.27985 7.03128 8.268 7.61706C8.26443 7.79326 8.06971 7.9656 7.91846 8.21136C7.67849 8.04075 7.47856 7.8986 7.22069 7.71525C7.11793 7.90139 6.94991 8.06874 6.94188 8.24345C6.90189 9.11346 6.92954 9.9869 6.87868 10.8559C6.85838 11.2028 6.69745 11.5415 6.53558 11.8793Z" fill="#F5C50B"/>
<path d="M17.3175 11.8099C17.8711 10.6314 18.401 9.53395 18.931 8.43652C19.0789 8.4904 19.2267 8.54428 19.3746 8.59815C19.1512 9.66391 18.9279 10.7297 18.7045 11.7954C18.8265 11.8246 18.9485 11.8538 19.0706 11.8829C19.2271 11.6186 19.3837 11.3543 19.5858 11.0132C20.2205 11.8451 20.1751 12.688 19.6739 13.3672C19.4281 13.7004 18.6887 13.9193 18.2611 13.8178C17.3083 13.5916 17.2058 12.7453 17.3175 11.8099Z" fill="#F5C50B"/>
<path d="M34.1516 18.6064C34.3966 18.2286 34.5984 17.9103 34.8589 17.4993C34.4774 17.4438 34.1951 17.4027 33.9059 17.3606C34.3431 16.1144 35.1169 15.9053 36.4726 16.7642C36.1318 17.2276 35.7687 17.6674 35.4713 18.1479C35.3198 18.3925 35.2865 18.7103 35.1998 18.995C35.4831 19.0272 35.7764 19.1214 36.0478 19.0781C36.5426 18.999 37.0243 18.8384 37.5686 18.697C37.1453 19.8398 35.2627 20.6992 34.3772 20.1918C33.7341 19.8233 33.7464 19.2547 34.1516 18.6064Z" fill="#F5C50B"/>
<path d="M63.8786 16.2333C64.2587 16.0224 64.5884 15.7576 64.9299 15.7414C65.2652 15.7254 65.7068 15.8792 65.9181 16.1198C66.0382 16.2565 65.8468 16.7477 65.6948 17.0238C65.4486 17.4713 65.1194 17.8733 64.8253 18.2944C64.864 18.4042 64.9027 18.5139 64.9415 18.6236C65.7137 18.5199 66.4859 18.4163 67.2516 18.3135C66.9117 19.333 65.1279 20.158 64.2223 19.7235C63.5564 19.404 63.5607 18.8415 63.782 18.2998C63.9473 17.8949 64.2838 17.56 64.586 17.1349C64.5734 16.7133 63.2749 17.2473 63.8786 16.2333Z" fill="#F5C50B"/>
<path d="M55.3842 10.1631C55.346 11.3511 55.2865 12.4506 55.2271 13.55C55.0674 13.5506 54.9077 13.5512 54.7479 13.5518C54.6987 13.1369 54.7064 12.705 54.5891 12.3103C54.2757 11.2553 54.0065 10.169 53.5324 9.1854C53.1407 8.37298 53.0213 7.65061 53.3911 6.66504C54.6028 7.58488 54.9951 8.82219 55.3842 10.1631Z" fill="#F5C50B"/>
<path d="M204.182 16.4612C204.608 16.8382 204.71 17.1705 204.29 17.5549C203.936 17.8789 203.605 18.2285 203.272 18.5591C201.714 17.4259 201.521 17.053 202.115 16.3752C202.997 15.3682 203.074 15.3696 204.182 16.4612Z" fill="#F5C50B"/>
</svg>
