<svg width="130" height="34" viewBox="0 0 130 34" fill="none" xmlns="http://www.w3.org/2000/svg">
<path d="M11.9735 6.53767C12.0655 6.61659 12.1571 6.69597 12.248 6.77609C12.3103 6.81914 12.3727 6.8622 12.4369 6.90655C12.95 7.37919 13.3435 8.03459 13.4269 8.73156C13.4534 9.46132 13.2887 9.97382 12.8193 10.5324C12.0763 11.307 11.1628 11.6909 10.1021 11.7605C9.60118 11.7518 9.08345 11.5973 8.68791 11.2842C8.37354 10.9507 8.19834 10.5439 8.17676 10.087C8.21013 9.4975 8.45103 8.98952 8.86504 8.57552C9.20191 8.29224 9.51029 8.19763 9.94469 8.21563C10.3406 8.33985 10.5771 8.60239 10.8084 8.9354C10.9867 9.29205 10.9819 9.63453 10.8804 10.0151C10.7634 10.1635 10.7634 10.1635 10.5925 10.231C10.2151 10.2729 9.98128 10.2082 9.65678 10.0151C9.58481 9.94308 9.58481 9.94308 9.58031 9.75864C9.58179 9.70074 9.58328 9.64285 9.58481 9.58319C9.51652 9.61882 9.44823 9.65445 9.37787 9.69116C9.15295 9.79913 9.15295 9.79913 9.00899 9.79913C9.05911 10.3099 9.05911 10.3099 9.35988 10.7033C9.90694 10.955 10.5474 10.9878 11.1208 10.8001C11.708 10.5216 12.152 10.1967 12.4234 9.59669C12.6081 9.06586 12.6185 8.63233 12.3739 8.12116C11.9113 7.29851 11.1177 6.76115 10.2154 6.49015C9.57466 6.33125 9.02146 6.29457 8.37919 6.45669C8.32961 6.46918 8.28003 6.48166 8.22895 6.49453C7.08936 6.80589 6.26298 7.59289 5.68297 8.59662C4.99312 9.8525 4.82813 11.294 5.16272 12.6917C5.52935 13.8377 6.18329 14.7156 7.20957 15.3414C7.27065 15.3842 7.27065 15.3842 7.33296 15.4278C7.8808 15.8184 7.8808 15.8184 8.52466 15.8904C8.87281 15.7748 9.1885 15.5988 9.50766 15.4201C11.1907 14.5308 13.7216 14.6736 15.5052 15.1698C15.7171 15.248 15.8986 15.3306 16.0962 15.4364C16.685 15.7766 16.685 15.7766 17.3327 15.7769C17.5814 15.6267 17.789 15.4622 18.0061 15.2694C18.0773 15.2143 18.1484 15.1591 18.2218 15.1024C18.4199 14.948 18.6095 14.7877 18.7979 14.6216C18.8427 14.5828 18.8875 14.544 18.9337 14.5041C19.2652 14.1964 19.5163 13.8323 19.7722 13.4617C20.0802 13.0163 20.0802 13.0163 20.2374 12.8941C20.5556 12.9244 20.5556 12.9244 20.6693 13.0381C20.6467 13.4341 20.5334 13.6974 20.3004 14.0098C20.2689 14.0526 20.2375 14.0954 20.2051 14.1395C19.5323 15.0262 18.7181 15.7414 17.7902 16.349C18.0162 16.579 18.2475 16.7957 18.492 17.0058C18.8802 17.3538 19.2001 17.7362 19.5176 18.1485C19.5735 18.2201 19.6293 18.2917 19.6869 18.3655C20.5659 19.512 20.5659 19.512 20.6333 19.9839C20.5973 20.1638 20.5973 20.1638 20.4533 20.3078C20.2517 20.3134 20.2517 20.3134 20.0215 20.2358C19.8695 20.0793 19.7618 19.8993 19.6481 19.714C19.5793 19.6082 19.5101 19.5026 19.4406 19.3974C19.3882 19.3181 19.3882 19.3181 19.3348 19.2372C18.7395 18.3702 17.8824 17.3074 16.9265 16.8529C16.6809 16.8529 16.4974 16.9646 16.2787 17.0688C13.8468 17.9049 11.3167 17.7334 8.87628 16.9859C8.66071 16.928 8.50951 16.8934 8.28922 16.9248C8.02409 17.0844 7.79997 17.295 7.56945 17.5007C7.47968 17.5801 7.47968 17.5801 7.3881 17.6612C6.14484 18.8301 5.38905 20.4467 5.31089 22.1468C5.27079 23.6624 5.46627 25.1077 6.44481 26.3268C6.95572 26.8541 7.61198 27.1542 8.3464 27.1767C9.8655 27.1806 11.3633 26.5289 12.4448 25.4626C12.8148 25.0351 12.9921 24.5805 12.9829 24.0168C12.9261 23.335 12.6339 22.837 12.1445 22.3726C11.5803 22.0011 11.044 21.9576 10.3766 22.0352C10.147 22.1633 10.101 22.2141 10.0167 22.4671C10.0601 22.4845 10.1035 22.502 10.1483 22.5199C10.7394 22.7678 10.7394 22.7678 10.9524 23.0429C11.0418 23.3113 11.0623 23.5559 11.0243 23.8346C10.9029 24.0775 10.8092 24.2208 10.579 24.3655C10.1085 24.47 9.7085 24.4576 9.282 24.2193C8.99924 24.0073 8.83153 23.7341 8.72108 23.4028C8.6748 22.8482 8.65872 22.3468 9.00899 21.8913C9.40431 21.4304 9.9381 21.2157 10.5332 21.1439C11.4168 21.1122 12.1544 21.3908 12.8238 21.9632C13.4003 22.5178 13.7661 23.0904 13.782 23.9066C13.7809 24.9053 13.3456 25.5854 12.6705 26.3001C11.6084 27.2996 10.1985 27.8433 8.74807 27.8923C7.64831 27.8543 6.70627 27.4744 5.91398 26.7137C4.67719 25.3191 4.36607 23.5569 4.47444 21.7473C4.70676 19.5399 5.88448 17.995 7.49747 16.565C7.4175 16.5197 7.33752 16.4744 7.25511 16.4278C5.92338 15.6655 4.92988 14.868 4.46095 13.353C3.95563 11.4749 4.16337 9.5834 5.06263 7.86503C5.24763 7.54839 5.46062 7.27047 5.69805 6.99202C5.75298 6.9178 5.80791 6.84357 5.8645 6.7671C7.41496 5.10846 10.2431 5.20548 11.9735 6.53767ZM9.36888 16.2771C9.585 16.4211 9.71123 16.4597 9.961 16.5113C10.0353 16.5267 10.1096 16.5422 10.1862 16.5581C10.2639 16.5737 10.3415 16.5893 10.4215 16.6054C10.4975 16.6214 10.5735 16.6373 10.6518 16.6537C12.4711 17.0268 14.2974 16.9164 16.0627 16.349C15.8208 16.1406 15.5616 16.0448 15.262 15.9487C15.1727 15.9189 15.0835 15.8891 14.9915 15.8584C14.3125 15.6554 13.6715 15.6035 12.9632 15.6068C12.8706 15.6072 12.7781 15.6076 12.6827 15.608C11.4958 15.6231 10.48 15.8755 9.36888 16.2771Z" fill="white"/>
<path d="M123.801 6.41556C123.979 6.55398 124.148 6.69775 124.316 6.84826C124.359 6.88473 124.402 6.92119 124.446 6.95876C125.526 7.93827 126.178 9.52031 126.268 10.9522C126.319 12.3389 126.065 13.66 125.179 14.7657C125.136 14.8212 125.092 14.8767 125.047 14.9339C124.52 15.5646 123.82 16.0452 123.092 16.4212C123.044 16.4212 122.997 16.4212 122.948 16.4212C122.948 16.4687 122.948 16.5162 122.948 16.5652C122.99 16.5841 123.032 16.603 123.076 16.6225C124.34 17.3058 125.252 19.357 125.656 20.669C126.158 22.3901 126.118 24.1074 125.251 25.7062C124.705 26.6997 124.004 27.3854 122.908 27.7463C121.588 28.1015 120.216 27.8562 119.024 27.2259C117.967 26.6086 116.964 25.6923 116.619 24.4871C116.48 23.841 116.539 23.2931 116.861 22.713C117.329 21.9932 117.953 21.4985 118.79 21.2774C119.608 21.1387 120.367 21.2209 121.068 21.671C121.613 22.0601 121.613 22.0601 121.724 22.3953C121.773 22.9366 121.759 23.3842 121.436 23.8348C121.185 24.1248 120.942 24.3797 120.549 24.4337C120.052 24.456 119.8 24.3345 119.43 24.0013C119.301 23.735 119.311 23.4771 119.349 23.187C119.474 22.8839 119.628 22.7463 119.925 22.6112C120.199 22.5617 120.199 22.5617 120.429 22.5392C120.258 22.2408 120.258 22.2408 119.997 22.0354C119.284 21.9838 118.723 22.0627 118.134 22.4788C117.735 22.8256 117.445 23.3123 117.39 23.841C117.358 24.6036 117.697 25.0831 118.198 25.6343C119.027 26.4775 120.234 27.0785 121.426 27.1012C122.42 27.0989 123.217 26.9045 123.964 26.2126C124.946 25.1862 125.152 23.8778 125.141 22.5147C125.09 20.565 124.178 18.922 122.806 17.5754C122.391 17.1568 122.391 17.1568 121.868 16.925C121.632 16.9675 121.408 17.0434 121.18 17.1185C118.857 17.8215 116.413 17.7578 114.109 17.0189C114.056 17.0026 114.002 16.9862 113.948 16.9693C113.836 16.9342 113.726 16.8951 113.616 16.8547C113.34 16.852 113.171 17.0256 112.97 17.195C112.904 17.2492 112.904 17.2492 112.836 17.3045C111.875 18.1034 111.138 19.0308 110.46 20.0729C110.352 20.236 110.352 20.236 110.28 20.308C110.105 20.3215 110.105 20.3215 109.92 20.308C109.776 20.164 109.776 20.164 109.75 19.9683C109.782 19.6814 109.891 19.4966 110.051 19.2643C110.08 19.2207 110.109 19.1772 110.139 19.1323C110.737 18.2525 111.413 17.491 112.177 16.7518C112.338 16.5954 112.497 16.4365 112.655 16.2772C112.578 16.25 112.578 16.25 112.5 16.2221C111.498 15.7865 110.602 14.7844 110.001 13.8975C109.971 13.853 109.94 13.8084 109.909 13.7625C109.751 13.5177 109.645 13.3314 109.704 13.0383C109.92 12.8943 109.92 12.8943 110.095 12.8952C110.358 12.9963 110.429 13.1475 110.577 13.3847C111.121 14.2157 111.759 14.8538 112.583 15.4135C112.683 15.4832 112.683 15.4832 112.785 15.5544C113.033 15.7222 113.033 15.7222 113.303 15.8454C113.484 15.8011 113.484 15.8011 113.663 15.7014C113.73 15.669 113.798 15.6365 113.867 15.603C113.941 15.5672 114.015 15.5314 114.09 15.4945C114.582 15.2657 115.081 15.1111 115.606 14.9817C115.658 14.969 115.709 14.9563 115.762 14.9432C116.032 14.8989 116.298 14.8966 116.57 14.8951C116.629 14.8947 116.687 14.8942 116.748 14.8938C116.872 14.8931 116.997 14.8927 117.122 14.8924C117.307 14.8917 117.493 14.8895 117.679 14.8872C118.713 14.8806 119.725 14.9872 120.717 15.2966C120.767 15.3115 120.817 15.3265 120.868 15.3419C121.221 15.4513 121.54 15.5935 121.856 15.7863C122.116 15.8843 122.325 15.8215 122.577 15.7198C122.724 15.6529 122.868 15.5817 123.011 15.508C123.062 15.482 123.113 15.4559 123.166 15.4291C124.14 14.9221 124.713 14.2907 125.107 13.2542C125.254 12.7848 125.364 12.3061 125.395 11.8147C125.4 11.7564 125.404 11.6981 125.409 11.6381C125.469 10.2135 124.978 8.58472 124.082 7.47356C123.348 6.68547 122.345 6.48711 121.316 6.4215C120.341 6.39183 119.287 6.60329 118.557 7.28013C118.11 7.72718 117.896 8.23872 117.878 8.86812C117.906 9.52533 118.076 9.97294 118.537 10.4505C119.062 10.9001 119.634 10.9108 120.297 10.9102C120.608 10.875 120.8 10.8063 121.077 10.663C121.252 10.4403 121.35 10.2281 121.364 9.94327C121.297 9.74275 121.297 9.74275 121.149 9.58339C120.927 9.48551 120.927 9.48551 120.717 9.43943C120.74 9.6057 120.764 9.77197 120.789 9.94327C120.567 10.156 120.364 10.2083 120.066 10.2365C119.781 10.2258 119.614 10.0641 119.421 9.8713C119.367 9.52651 119.375 9.1857 119.538 8.87262C119.791 8.53994 120.079 8.33195 120.497 8.26559C120.904 8.2415 121.175 8.32513 121.503 8.56924C121.933 9.00146 122.146 9.58425 122.168 10.1879C122.141 10.6258 122.037 10.9622 121.711 11.2659C121.244 11.6548 120.705 11.7089 120.123 11.7022C120.056 11.7017 119.99 11.7011 119.921 11.7006C119.146 11.6819 118.478 11.5008 117.91 10.951C117.29 10.2999 117.074 9.61848 117.084 8.73504C117.115 7.94002 117.479 7.30903 118.046 6.76139C119.727 5.32992 121.976 5.14491 123.801 6.41556ZM114.383 16.3492C114.766 16.5281 115.134 16.6347 115.548 16.7181C115.608 16.7305 115.668 16.7428 115.731 16.7556C116.192 16.8471 116.647 16.9092 117.118 16.925C117.178 16.9279 117.238 16.9308 117.301 16.9338C118.26 16.9584 119.184 16.8038 120.109 16.5652C120.183 16.5464 120.256 16.5276 120.331 16.5082C120.599 16.4378 120.599 16.4378 120.861 16.3492C120.884 16.3017 120.908 16.2542 120.933 16.2053C119.176 15.478 116.015 14.9662 114.383 16.3492Z" fill="white"/>
<path d="M75.4432 15.8363C75.8211 15.8367 76.1989 15.8364 76.5768 15.836C78.2426 15.8345 79.9075 15.8474 81.5731 15.8766C84.8449 15.9335 88.1168 15.9286 91.3889 15.9269C92.0677 15.9266 92.7464 15.9268 93.4251 15.9272C94.0904 15.9275 94.7556 15.9275 95.4208 15.9273C95.8136 15.9272 96.2064 15.9272 96.5992 15.9274C96.9656 15.9277 97.3319 15.9275 97.6983 15.9271C97.8312 15.927 97.9641 15.927 98.097 15.9272C98.8722 15.928 99.6428 15.9087 100.417 15.8622C100.801 15.8393 101.185 15.8328 101.569 15.831C101.679 15.8304 101.679 15.8304 101.792 15.8298C101.944 15.8291 102.096 15.8287 102.249 15.8284C102.478 15.8277 102.707 15.8254 102.936 15.8232C105.034 15.8124 105.034 15.8124 105.964 16.2055C105.988 16.2768 106.012 16.3481 106.036 16.4215C106.012 16.469 105.989 16.5165 105.964 16.5654C105.324 16.7638 104.684 16.8129 104.019 16.8096C103.93 16.81 103.842 16.8104 103.75 16.8109C103.507 16.8118 103.264 16.8119 103.02 16.8115C102.756 16.8113 102.492 16.8123 102.228 16.8132C101.771 16.8146 101.314 16.8152 100.856 16.8153C100.189 16.8155 99.5216 16.8169 98.8544 16.8186C97.7638 16.8214 96.6731 16.8232 95.5825 16.8244C94.5371 16.8256 93.4917 16.8271 92.4463 16.829C92.3825 16.8291 92.3187 16.8293 92.253 16.8294C91.5494 16.8307 90.8458 16.8321 90.1422 16.8336C90.0794 16.8337 90.0166 16.8338 89.9519 16.834C89.6999 16.8345 89.4478 16.835 89.1958 16.8356C88.4723 16.8371 87.7487 16.8384 87.0251 16.8392C84.3163 16.8421 81.6082 16.8591 78.8996 16.8997C78.6875 16.9029 78.4754 16.9061 78.2633 16.9092C78.2125 16.91 78.1618 16.9107 78.1095 16.9115C75.08 16.9566 72.0485 16.9378 69.0221 16.7859C68.9646 16.7832 68.9071 16.7805 68.8478 16.7777C68.6881 16.77 68.5284 16.7614 68.3687 16.7524C68.2789 16.7476 68.1892 16.7428 68.0967 16.7378C67.8885 16.7094 67.8885 16.7094 67.7445 16.5654C67.731 16.345 67.731 16.345 67.7445 16.1336C67.9289 15.9491 68.3945 16.0142 68.6447 15.9986C68.7796 15.9901 68.9145 15.9809 69.0494 15.9716C71.1783 15.8352 73.3109 15.834 75.4432 15.8363Z" fill="white"/>
<path d="M54.5915 15.8321C54.7818 15.8322 54.9721 15.8321 55.1624 15.8321C57.146 15.8322 59.1258 15.8651 61.1077 15.9511C61.1725 15.9539 61.2373 15.9566 61.304 15.9595C62.517 16.0168 62.517 16.0168 62.6338 16.1336C62.6368 16.3015 62.6369 16.4695 62.6338 16.6374C62.4284 16.7401 62.2421 16.732 62.0127 16.7454C61.9636 16.7483 61.9145 16.7512 61.8638 16.7542C61.6992 16.7637 61.5345 16.7726 61.3697 16.7814C61.3119 16.7845 61.2541 16.7876 61.1945 16.7908C59.0679 16.9037 56.942 16.9319 54.8127 16.9341C54.6744 16.9343 54.536 16.9346 54.3977 16.9349C53.3116 16.9367 52.2259 16.928 51.14 16.909C47.2575 16.8421 43.3752 16.8423 39.4922 16.8441C38.738 16.8444 37.9839 16.8442 37.2297 16.8438C36.4914 16.8435 35.7531 16.8434 35.0148 16.8436C34.5785 16.8437 34.1422 16.8438 33.7059 16.8435C33.2988 16.8433 32.8918 16.8435 32.4847 16.8439C32.3368 16.844 32.1889 16.8439 32.0411 16.8438C31.2228 16.843 30.4091 16.8592 29.5922 16.9088C29.2485 16.9288 28.9059 16.938 28.5617 16.9399C28.4689 16.9405 28.4689 16.9405 28.3741 16.9412C28.2457 16.9418 28.1173 16.9423 27.9889 16.9426C27.797 16.9433 27.6053 16.9456 27.4135 16.9478C26.3911 16.9541 25.3957 16.8636 24.4141 16.5654C24.4141 16.4467 24.4141 16.3279 24.4141 16.2055C25.0055 16.0324 25.5448 15.9582 26.1598 15.9614C26.2443 15.961 26.3288 15.9605 26.4159 15.9601C26.6481 15.9591 26.8803 15.9591 27.1125 15.9595C27.3642 15.9597 27.6158 15.9587 27.8674 15.9578C28.3037 15.9564 28.74 15.9557 29.1763 15.9557C29.8125 15.9555 30.4486 15.9541 31.0848 15.9524C32.1244 15.9496 33.1639 15.9478 34.2034 15.9465C35.2004 15.9453 36.1974 15.9439 37.1944 15.942C37.2552 15.9418 37.3161 15.9417 37.3787 15.9416C38.0496 15.9403 38.7204 15.9389 39.3913 15.9374C39.4511 15.9373 39.511 15.9371 39.5727 15.937C39.8128 15.9365 40.0529 15.9359 40.293 15.9354C40.983 15.9338 41.673 15.9326 42.3629 15.9318C45.1856 15.9287 48.007 15.9036 50.8293 15.8575C52.0833 15.8375 53.3373 15.8314 54.5915 15.8321Z" fill="white"/>
<path d="M64.7212 14.1898C65.035 14.3527 65.2416 14.5462 65.4409 14.8376C65.4409 14.8851 65.4409 14.9326 65.4409 14.9815C65.4961 14.9347 65.4961 14.9347 65.5523 14.887C65.9534 14.5798 66.2502 14.494 66.7548 14.521C67.0019 14.5568 67.1804 14.6207 67.3843 14.7656C67.5798 15.0588 67.5655 15.2851 67.5283 15.6293C67.4503 15.9204 67.3362 16.1694 67.1684 16.421C67.2144 16.4775 67.2604 16.5339 67.3078 16.592C67.5526 16.9035 67.5573 17.1233 67.5527 17.5131C67.5085 17.881 67.3324 18.0837 67.0551 18.3149C66.7253 18.5363 66.4049 18.5592 66.0168 18.5084C65.7963 18.4364 65.7963 18.4364 65.6569 18.3644C65.6168 18.4208 65.5767 18.4772 65.5354 18.5354C65.325 18.7742 65.1805 18.8495 64.8648 18.884C64.4044 18.9032 63.935 18.8488 63.5794 18.5334C63.2591 18.1718 63.1859 17.8826 63.188 17.4037C63.2221 17.103 63.3443 16.8957 63.4976 16.637C63.4664 16.6115 63.4352 16.5859 63.4031 16.5597C63.1168 16.286 63.0285 16.0719 63.0117 15.6743C63.0362 15.2008 63.1593 14.8837 63.4976 14.5496C63.8872 14.2447 64.2301 14.1173 64.7212 14.1898ZM63.8574 15.2694C63.6898 15.4764 63.6898 15.4764 63.718 15.7328C63.797 16.033 63.8888 16.1127 64.1454 16.2771C64.1672 16.232 64.189 16.1869 64.2114 16.1404C64.4608 15.654 64.4608 15.654 64.7077 15.5168C64.7596 15.5064 64.8116 15.4961 64.8651 15.4853C64.8392 15.2936 64.8139 15.1556 64.7032 14.995C64.331 14.7425 64.1109 14.9748 63.8574 15.2694ZM66.2462 15.2064C66.0588 15.3671 66.0364 15.4596 66.0168 15.7013C66.1593 15.82 66.3018 15.9388 66.4486 16.0612C66.6488 15.9878 66.7235 15.9414 66.8265 15.7508C66.8808 15.556 66.892 15.3985 66.8805 15.1974C66.629 15.1331 66.4905 15.1087 66.2462 15.2064ZM64.9371 16.0612C64.9134 16.2037 64.8896 16.3462 64.8651 16.493C65.0433 16.6355 65.0433 16.6355 65.225 16.7809C65.4778 16.694 65.4778 16.694 65.7288 16.565C65.7526 16.47 65.7764 16.375 65.8008 16.2771C65.3733 16.1702 65.3733 16.1702 64.9371 16.0612ZM66.1427 16.9609C66.0226 17.0738 66.0226 17.0738 65.9448 17.2128C65.9469 17.442 65.9925 17.6924 66.1607 17.8606C66.4586 17.8493 66.6172 17.83 66.8445 17.6312C66.9693 17.4339 66.9693 17.4339 66.957 17.2038C66.8968 16.9847 66.8968 16.9847 66.705 16.8619C66.4336 16.7427 66.358 16.7717 66.1427 16.9609ZM64.1049 17.1543C63.8884 17.4031 63.8884 17.4031 63.8574 17.7166C63.9856 17.9286 64.099 18.0489 64.3118 18.1755C64.5609 18.2334 64.7601 18.1973 65.0091 18.1485C65.0911 17.9025 65.0799 17.7849 65.0046 17.5322C64.8478 17.254 64.7127 17.1455 64.4333 16.9969C64.2671 16.9813 64.2671 16.9813 64.1049 17.1543Z" fill="white"/>
<path d="M110.097 14.5225C110.465 14.8631 110.691 15.1024 110.725 15.6106C110.707 15.8683 110.618 16.0501 110.498 16.277C110.556 16.3334 110.614 16.3898 110.673 16.4479C110.919 16.7445 110.949 17.0517 110.93 17.4286C110.814 17.8429 110.635 18.0503 110.282 18.2923C109.905 18.4643 109.501 18.5203 109.109 18.375C109.026 18.3407 109.026 18.3407 108.941 18.3058C108.782 18.2404 108.782 18.2404 108.626 18.2203C108.427 18.3696 108.427 18.3696 108.313 18.4914C108.109 18.6442 107.904 18.6239 107.657 18.6109C107.132 18.5226 106.705 18.2061 106.373 17.802C106.226 17.5247 106.208 17.3787 106.251 17.0687C106.301 16.9814 106.353 16.8959 106.409 16.8123C106.452 16.7306 106.495 16.649 106.539 16.5649C106.452 16.3478 106.452 16.3478 106.323 16.133C106.26 15.75 106.32 15.4497 106.539 15.1253C106.886 14.7586 107.258 14.5129 107.767 14.4505C108.017 14.4824 108.193 14.5692 108.41 14.6935C108.452 14.6593 108.494 14.6252 108.536 14.59C108.965 14.2924 109.641 14.3068 110.097 14.5225ZM108.914 15.1253C108.914 15.2203 108.914 15.3153 108.914 15.4132C109.002 15.4311 109.089 15.4489 109.18 15.4672C109.46 15.536 109.637 15.6456 109.85 15.8451C110.008 15.714 110.008 15.714 110.025 15.5302C110.009 15.3292 110.009 15.3292 109.85 15.1748C109.551 15.0068 109.235 14.9651 108.914 15.1253ZM107.322 15.3683C107.271 15.4 107.221 15.4317 107.168 15.4644C107.033 15.5499 107.033 15.5499 106.971 15.7011C106.953 15.9171 106.953 15.9171 106.971 16.133C107.018 16.1805 107.066 16.228 107.115 16.277C107.26 16.2812 107.26 16.2812 107.403 16.205C107.476 16.0856 107.548 15.9655 107.619 15.8451C107.756 15.7146 107.901 15.6019 108.051 15.4852C107.957 15.3369 107.957 15.3369 107.835 15.1973C107.593 15.1973 107.521 15.2409 107.322 15.3683ZM108.051 16.2365C107.963 16.347 107.963 16.347 107.994 16.4918C108.038 16.6444 108.038 16.6444 108.168 16.7147C108.491 16.8296 108.719 16.8859 109.058 16.7808C109.228 16.6414 109.228 16.6414 109.225 16.3894C109.223 16.1415 109.223 16.1415 109.112 15.9936C108.761 15.7804 108.348 16.0229 108.051 16.2365ZM109.85 16.5649C109.826 16.6539 109.803 16.743 109.778 16.8348C109.682 17.0994 109.585 17.1973 109.333 17.3206C109.242 17.3585 109.151 17.3952 109.058 17.4286C109.152 17.6533 109.152 17.6533 109.346 17.7885C109.654 17.7914 109.917 17.7625 110.183 17.604C110.31 17.3795 110.304 17.2401 110.26 16.99C110.182 16.7756 110.039 16.6814 109.85 16.5649ZM107.106 17.1047C107.038 17.1641 106.969 17.2235 106.899 17.2846C107.071 17.6484 107.264 17.7672 107.619 17.9324C107.808 17.9866 107.808 17.9866 107.979 17.9324C108.202 17.7166 108.202 17.7166 108.267 17.4286C108.19 17.3921 108.19 17.3921 108.112 17.3549C108.045 17.3228 107.979 17.2907 107.911 17.2576C107.845 17.2259 107.779 17.1942 107.711 17.1615C107.547 17.0687 107.547 17.0687 107.475 16.9248C107.288 16.9248 107.244 16.9842 107.106 17.1047Z" fill="white"/>
<path d="M21.6816 14.5136C21.7862 14.567 21.7862 14.567 21.893 14.6216C22.103 14.6381 22.103 14.6381 22.2476 14.5496C22.5148 14.4207 22.7654 14.4729 23.0446 14.5496C23.4935 14.7762 23.8887 15.0662 24.0523 15.5573C24.0743 15.8864 24.0822 16.1019 23.9264 16.394C23.8818 16.5142 23.8818 16.5142 23.8364 16.6369C23.9309 16.7818 24.027 16.9257 24.1243 17.0688C24.1611 17.4146 24.089 17.6588 23.9039 17.9505C23.5391 18.3323 23.0838 18.5861 22.5543 18.6073C22.2185 18.6078 22.2185 18.6078 22.0606 18.4923C22.011 18.4401 22.011 18.4401 21.9605 18.3868C21.8907 18.3319 21.8209 18.277 21.7491 18.2204C21.5748 18.2485 21.4294 18.3078 21.2663 18.3748C20.8714 18.5221 20.4685 18.4616 20.086 18.2994C19.7842 18.1245 19.5746 17.8945 19.4677 17.56C19.3904 17.0837 19.5173 16.7069 19.7832 16.313C19.8144 16.2774 19.8455 16.2418 19.8777 16.205C19.8405 16.1472 19.8034 16.0893 19.7652 16.0296C19.6319 15.6992 19.6201 15.464 19.7337 15.1254C20.1863 14.4342 20.8887 14.1561 21.6816 14.5136ZM20.3815 15.3413C20.3577 15.4126 20.334 15.4838 20.3095 15.5573C20.4045 15.6523 20.4995 15.7473 20.5974 15.8452C20.6598 15.7873 20.7221 15.7294 20.7864 15.6697C21.0026 15.4875 21.1756 15.4337 21.4612 15.4133C21.4612 15.3183 21.4612 15.2233 21.4612 15.1254C21.0531 14.9213 20.68 15.0247 20.3815 15.3413ZM22.5408 15.1974C22.4181 15.337 22.4181 15.337 22.3249 15.4853C22.5172 15.6539 22.5172 15.6539 22.7567 15.7012C22.8527 15.8931 22.9487 16.0851 23.0446 16.277C23.243 16.2412 23.243 16.2412 23.4045 16.1331C23.4406 15.9293 23.4406 15.9293 23.4045 15.7012C23.2183 15.4736 23.0351 15.2994 22.7567 15.1974C22.6855 15.1974 22.6142 15.1974 22.5408 15.1974ZM21.2497 15.9981C21.1549 16.1655 21.1204 16.3016 21.1013 16.493C21.1507 16.7142 21.1507 16.7142 21.3127 16.8034C21.639 16.8766 21.9364 16.8097 22.2529 16.7089C22.3004 16.6614 22.3479 16.6139 22.3969 16.5649C22.3897 16.3509 22.3239 16.276 22.1764 16.1196C21.8946 15.9457 21.5614 15.8171 21.2497 15.9981ZM20.2645 16.7494C20.1017 16.948 20.0936 16.9873 20.0936 17.2622C20.1653 17.4997 20.1941 17.5689 20.3815 17.7166C20.5966 17.7827 20.8048 17.8039 21.0293 17.7885C21.2158 17.6625 21.2158 17.6625 21.3172 17.5006C21.1133 17.3562 21.1133 17.3562 20.9213 17.2757C20.6592 17.0791 20.6219 16.8746 20.5255 16.5649C20.4181 16.5566 20.4181 16.5566 20.2645 16.7494ZM22.7387 17.0553C22.5381 17.2149 22.3408 17.3208 22.1089 17.4287C22.1565 17.5712 22.204 17.7137 22.2529 17.8605C22.5259 17.9418 22.6703 17.9739 22.9319 17.8487C23.2846 17.6334 23.2846 17.6334 23.4765 17.2847C23.4082 17.2253 23.3399 17.1659 23.2696 17.1048C23.2312 17.0714 23.1928 17.038 23.1532 17.0035C22.9667 16.8683 22.9153 16.9131 22.7387 17.0553Z" fill="white"/>
</svg>
